%TF.GenerationSoftware,KiCad,Pcbnew,9.0.6*%
%TF.CreationDate,2025-12-21T20:56:20+01:00*%
%TF.ProjectId,acsi2tnfs,61637369-3274-46e6-9673-2e6b69636164,rev?*%
%TF.SameCoordinates,Original*%
%TF.FileFunction,Copper,L2,Bot*%
%TF.FilePolarity,Positive*%
%FSLAX46Y46*%
G04 Gerber Fmt 4.6, Leading zero omitted, Abs format (unit mm)*
G04 Created by KiCad (PCBNEW 9.0.6) date 2025-12-21 20:56:20*
%MOMM*%
%LPD*%
G01*
G04 APERTURE LIST*
G04 Aperture macros list*
%AMRoundRect*
0 Rectangle with rounded corners*
0 $1 Rounding radius*
0 $2 $3 $4 $5 $6 $7 $8 $9 X,Y pos of 4 corners*
0 Add a 4 corners polygon primitive as box body*
4,1,4,$2,$3,$4,$5,$6,$7,$8,$9,$2,$3,0*
0 Add four circle primitives for the rounded corners*
1,1,$1+$1,$2,$3*
1,1,$1+$1,$4,$5*
1,1,$1+$1,$6,$7*
1,1,$1+$1,$8,$9*
0 Add four rect primitives between the rounded corners*
20,1,$1+$1,$2,$3,$4,$5,0*
20,1,$1+$1,$4,$5,$6,$7,0*
20,1,$1+$1,$6,$7,$8,$9,0*
20,1,$1+$1,$8,$9,$2,$3,0*%
%AMFreePoly0*
4,1,37,0.603843,0.796157,0.639018,0.796157,0.711114,0.766294,0.766294,0.711114,0.796157,0.639018,0.796157,0.603843,0.800000,0.600000,0.800000,-0.600000,0.796157,-0.603843,0.796157,-0.639018,0.766294,-0.711114,0.711114,-0.766294,0.639018,-0.796157,0.603843,-0.796157,0.600000,-0.800000,0.000000,-0.800000,0.000000,-0.796148,-0.078414,-0.796148,-0.232228,-0.765552,-0.377117,-0.705537,
-0.507515,-0.618408,-0.618408,-0.507515,-0.705537,-0.377117,-0.765552,-0.232228,-0.796148,-0.078414,-0.796148,0.078414,-0.765552,0.232228,-0.705537,0.377117,-0.618408,0.507515,-0.507515,0.618408,-0.377117,0.705537,-0.232228,0.765552,-0.078414,0.796148,0.000000,0.796148,0.000000,0.800000,0.600000,0.800000,0.603843,0.796157,0.603843,0.796157,$1*%
%AMFreePoly1*
4,1,37,0.000000,0.796148,0.078414,0.796148,0.232228,0.765552,0.377117,0.705537,0.507515,0.618408,0.618408,0.507515,0.705537,0.377117,0.765552,0.232228,0.796148,0.078414,0.796148,-0.078414,0.765552,-0.232228,0.705537,-0.377117,0.618408,-0.507515,0.507515,-0.618408,0.377117,-0.705537,0.232228,-0.765552,0.078414,-0.796148,0.000000,-0.796148,0.000000,-0.800000,-0.600000,-0.800000,
-0.603843,-0.796157,-0.639018,-0.796157,-0.711114,-0.766294,-0.766294,-0.711114,-0.796157,-0.639018,-0.796157,-0.603843,-0.800000,-0.600000,-0.800000,0.600000,-0.796157,0.603843,-0.796157,0.639018,-0.766294,0.711114,-0.711114,0.766294,-0.639018,0.796157,-0.603843,0.796157,-0.600000,0.800000,0.000000,0.800000,0.000000,0.796148,0.000000,0.796148,$1*%
G04 Aperture macros list end*
%TA.AperFunction,ComponentPad*%
%ADD10R,1.700000X1.700000*%
%TD*%
%TA.AperFunction,ComponentPad*%
%ADD11C,1.700000*%
%TD*%
%TA.AperFunction,ComponentPad*%
%ADD12RoundRect,0.200000X-0.600000X-0.600000X0.600000X-0.600000X0.600000X0.600000X-0.600000X0.600000X0*%
%TD*%
%TA.AperFunction,ComponentPad*%
%ADD13C,1.600000*%
%TD*%
%TA.AperFunction,ComponentPad*%
%ADD14FreePoly0,0.000000*%
%TD*%
%TA.AperFunction,ComponentPad*%
%ADD15FreePoly1,0.000000*%
%TD*%
%TA.AperFunction,ViaPad*%
%ADD16C,0.600000*%
%TD*%
%TA.AperFunction,Conductor*%
%ADD17C,0.200000*%
%TD*%
%TA.AperFunction,Conductor*%
%ADD18C,0.300000*%
%TD*%
%TA.AperFunction,Conductor*%
%ADD19C,0.500000*%
%TD*%
G04 APERTURE END LIST*
D10*
%TO.P,J2,1,Pin_1*%
%TO.N,DATA0*%
X129140000Y-107040000D03*
D11*
%TO.P,J2,2,Pin_2*%
%TO.N,DATA1*%
X131680000Y-107040000D03*
%TO.P,J2,3,Pin_3*%
%TO.N,DATA2*%
X134220000Y-107040000D03*
%TO.P,J2,4,Pin_4*%
%TO.N,DATA3*%
X136760000Y-107040000D03*
%TO.P,J2,5,Pin_5*%
%TO.N,DATA4*%
X139300000Y-107040000D03*
%TO.P,J2,6,Pin_6*%
%TO.N,DATA5*%
X141840000Y-107040000D03*
%TO.P,J2,7,Pin_7*%
%TO.N,DATA6*%
X144380000Y-107040000D03*
%TO.P,J2,8,Pin_8*%
%TO.N,DATA7*%
X146920000Y-107040000D03*
%TO.P,J2,9,Pin_9*%
%TO.N,{slash}CS*%
X149460000Y-107040000D03*
%TO.P,J2,10,Pin_10*%
%TO.N,{slash}IRQ*%
X152000000Y-107040000D03*
%TO.P,J2,11,Pin_11*%
%TO.N,GND*%
X129140000Y-104500000D03*
%TO.P,J2,12,Pin_12*%
%TO.N,{slash}RESET*%
X131680000Y-104500000D03*
%TO.P,J2,13,Pin_13*%
%TO.N,GND*%
X134220000Y-104500000D03*
%TO.P,J2,14,Pin_14*%
%TO.N,{slash}ACK*%
X136760000Y-104500000D03*
%TO.P,J2,15,Pin_15*%
%TO.N,GND*%
X139300000Y-104500000D03*
%TO.P,J2,16,Pin_16*%
%TO.N,A1*%
X141840000Y-104500000D03*
%TO.P,J2,17,Pin_17*%
%TO.N,GND*%
X144380000Y-104500000D03*
%TO.P,J2,18,Pin_18*%
%TO.N,R{slash}W*%
X146920000Y-104500000D03*
%TO.P,J2,19,Pin_19*%
%TO.N,{slash}DRQ*%
X149460000Y-104500000D03*
%TO.P,J2,20,Pin_20*%
%TO.N,unconnected-(J2-Pin_20-Pad20)*%
X152000000Y-104500000D03*
%TD*%
D10*
%TO.P,J1,1,Pin_1*%
%TO.N,UART0_TX*%
X118250000Y-40420000D03*
D11*
%TO.P,J1,2,Pin_2*%
%TO.N,UART0_RX*%
X118250000Y-42960000D03*
%TO.P,J1,3,Pin_3*%
%TO.N,GND*%
X118250000Y-45500000D03*
%TD*%
D10*
%TO.P,J3,1,Pin_1*%
%TO.N,+3.3V*%
X118750000Y-72600000D03*
D11*
%TO.P,J3,2,Pin_2*%
%TO.N,CS*%
X118750000Y-70060000D03*
%TO.P,J3,3,Pin_3*%
%TO.N,MOSI*%
X118750000Y-67520000D03*
%TO.P,J3,4,Pin_4*%
%TO.N,CLK*%
X118750000Y-64980000D03*
%TO.P,J3,5,Pin_5*%
%TO.N,MISO*%
X118750000Y-62440000D03*
%TO.P,J3,6,Pin_6*%
%TO.N,GND*%
X118750000Y-59900000D03*
%TD*%
D12*
%TO.P,A1,1,GPIO0*%
%TO.N,UART0_TX*%
X130720000Y-37740000D03*
D13*
%TO.P,A1,2,GPIO1*%
%TO.N,UART0_RX*%
X130720000Y-40280000D03*
D14*
%TO.P,A1,3,GND*%
%TO.N,GND*%
X130720000Y-42820000D03*
D13*
%TO.P,A1,4,GPIO2*%
%TO.N,CLK*%
X130720000Y-45360000D03*
%TO.P,A1,5,GPIO3*%
%TO.N,MOSI*%
X130720000Y-47900000D03*
%TO.P,A1,6,GPIO4*%
%TO.N,MISO*%
X130720000Y-50440000D03*
%TO.P,A1,7,GPIO5*%
%TO.N,CS*%
X130720000Y-52980000D03*
D14*
%TO.P,A1,8,GND*%
%TO.N,GND*%
X130720000Y-55520000D03*
D13*
%TO.P,A1,9,GPIO6*%
%TO.N,DATA0_3V3*%
X130720000Y-58060000D03*
%TO.P,A1,10,GPIO7*%
%TO.N,DATA1_3V3*%
X130720000Y-60600000D03*
%TO.P,A1,11,GPIO8*%
%TO.N,DATA2_3V3*%
X130720000Y-63140000D03*
%TO.P,A1,12,GPIO9*%
%TO.N,DATA3_3V3*%
X130720000Y-65680000D03*
D14*
%TO.P,A1,13,GND*%
%TO.N,GND*%
X130720000Y-68220000D03*
D13*
%TO.P,A1,14,GPIO10*%
%TO.N,DATA4_3V3*%
X130720000Y-70760000D03*
%TO.P,A1,15,GPIO11*%
%TO.N,DATA5_3V3*%
X130720000Y-73300000D03*
%TO.P,A1,16,GPIO12*%
%TO.N,DATA6_3V3*%
X130720000Y-75840000D03*
%TO.P,A1,17,GPIO13*%
%TO.N,DATA7_3V3*%
X130720000Y-78380000D03*
D14*
%TO.P,A1,18,GND*%
%TO.N,GND*%
X130720000Y-80920000D03*
D13*
%TO.P,A1,19,GPIO14*%
%TO.N,DIR*%
X130720000Y-83460000D03*
%TO.P,A1,20,GPIO15*%
%TO.N,{slash}OE*%
X130720000Y-86000000D03*
%TO.P,A1,21,GPIO16*%
%TO.N,{slash}CS_3V3*%
X148500000Y-86000000D03*
%TO.P,A1,22,GPIO17*%
%TO.N,{slash}RESET_3V3*%
X148500000Y-83460000D03*
D15*
%TO.P,A1,23,GND*%
%TO.N,GND*%
X148500000Y-80920000D03*
D13*
%TO.P,A1,24,GPIO18*%
%TO.N,{slash}ACK_3V3*%
X148500000Y-78380000D03*
%TO.P,A1,25,GPIO19*%
%TO.N,A1_3V3*%
X148500000Y-75840000D03*
%TO.P,A1,26,GPIO20*%
%TO.N,R{slash}W_3V3*%
X148500000Y-73300000D03*
%TO.P,A1,27,GPIO21*%
%TO.N,Net-(A1-GPIO21)*%
X148500000Y-70760000D03*
D15*
%TO.P,A1,28,GND*%
%TO.N,GND*%
X148500000Y-68220000D03*
D13*
%TO.P,A1,29,GPIO22*%
%TO.N,Net-(A1-GPIO22)*%
X148500000Y-65680000D03*
%TO.P,A1,30,RUN*%
%TO.N,unconnected-(A1-RUN-Pad30)*%
X148500000Y-63140000D03*
%TO.P,A1,31,GPIO26_ADC0*%
%TO.N,unconnected-(A1-GPIO26_ADC0-Pad31)*%
X148500000Y-60600000D03*
%TO.P,A1,32,GPIO27_ADC1*%
%TO.N,unconnected-(A1-GPIO27_ADC1-Pad32)*%
X148500000Y-58060000D03*
D15*
%TO.P,A1,33,AGND*%
%TO.N,GND*%
X148500000Y-55520000D03*
D13*
%TO.P,A1,34,GPIO28_ADC2*%
%TO.N,STATUS_LED*%
X148500000Y-52980000D03*
%TO.P,A1,35,ADC_VREF*%
%TO.N,unconnected-(A1-ADC_VREF-Pad35)*%
X148500000Y-50440000D03*
%TO.P,A1,36,3V3*%
%TO.N,+3.3V*%
X148500000Y-47900000D03*
%TO.P,A1,37,3V3_EN*%
%TO.N,unconnected-(A1-3V3_EN-Pad37)*%
X148500000Y-45360000D03*
D15*
%TO.P,A1,38,GND*%
%TO.N,GND*%
X148500000Y-42820000D03*
D13*
%TO.P,A1,39,VSYS*%
%TO.N,unconnected-(A1-VSYS-Pad39)*%
X148500000Y-40280000D03*
%TO.P,A1,40,VBUS*%
%TO.N,+5V*%
X148500000Y-37740000D03*
%TD*%
D16*
%TO.N,GND*%
X124750000Y-105000000D03*
%TO.N,{slash}IRQ*%
X158250000Y-74750000D03*
%TO.N,{slash}CS*%
X156750000Y-98500000D03*
%TO.N,R{slash}W*%
X161690000Y-101310000D03*
%TO.N,A1*%
X147000000Y-102250000D03*
%TO.N,{slash}RESET*%
X145500000Y-100000000D03*
%TO.N,{slash}ACK*%
X145500000Y-101250000D03*
%TO.N,GND*%
X153500000Y-81000000D03*
X111500000Y-85750000D03*
X112750000Y-66000000D03*
X118500000Y-107250000D03*
X158000000Y-89500000D03*
X122250000Y-45500000D03*
X140000000Y-48250000D03*
X165750000Y-58750000D03*
X159250000Y-64750000D03*
X159250000Y-58750000D03*
X160000000Y-107250000D03*
X140000000Y-71750000D03*
X165250000Y-40750000D03*
X126250000Y-86250000D03*
X165500000Y-64750000D03*
X139000000Y-93250000D03*
%TO.N,+3.3V*%
X152000000Y-89500000D03*
X113750000Y-82000000D03*
%TO.N,{slash}DRQ*%
X156500000Y-66250000D03*
%TD*%
D17*
%TO.N,GND*%
X129140000Y-104500000D02*
X125250000Y-104500000D01*
X125250000Y-104500000D02*
X124750000Y-105000000D01*
X134220000Y-104500000D02*
X135492349Y-105772349D01*
X135492349Y-105772349D02*
X138027651Y-105772349D01*
X138027651Y-105772349D02*
X139300000Y-104500000D01*
X139300000Y-104500000D02*
X140561174Y-105761174D01*
X140561174Y-105761174D02*
X143118826Y-105761174D01*
X143118826Y-105761174D02*
X144380000Y-104500000D01*
X129140000Y-104500000D02*
X130291000Y-105651000D01*
X130291000Y-105651000D02*
X130291000Y-105669942D01*
X130291000Y-105669942D02*
X130388254Y-105767196D01*
X130388254Y-105767196D02*
X132952804Y-105767196D01*
X132952804Y-105767196D02*
X134220000Y-104500000D01*
D18*
%TO.N,{slash}IRQ*%
X158750000Y-102250000D02*
X153960000Y-107040000D01*
X153960000Y-107040000D02*
X152000000Y-107040000D01*
X158250000Y-74750000D02*
X158750000Y-75250000D01*
X158750000Y-75250000D02*
X158750000Y-102250000D01*
%TO.N,{slash}CS*%
X156750000Y-98500000D02*
X156750000Y-102500000D01*
%TO.N,R{slash}W*%
X161690000Y-101310000D02*
X161695172Y-101315172D01*
X161695172Y-101315172D02*
X161695172Y-102304828D01*
X149000000Y-109000000D02*
X148185875Y-108185875D01*
X161695172Y-102304828D02*
X155000000Y-109000000D01*
X155000000Y-109000000D02*
X149000000Y-109000000D01*
X148185875Y-108185875D02*
X148185875Y-105765875D01*
X148185875Y-105765875D02*
X146920000Y-104500000D01*
%TO.N,A1*%
X141840000Y-104500000D02*
X141840000Y-103160000D01*
X141840000Y-103160000D02*
X142750000Y-102250000D01*
X142750000Y-102250000D02*
X147000000Y-102250000D01*
%TO.N,{slash}CS*%
X149460000Y-107040000D02*
X150717087Y-105782913D01*
X153467087Y-105782913D02*
X156750000Y-102500000D01*
X150717087Y-105782913D02*
X153467087Y-105782913D01*
%TO.N,{slash}DRQ*%
X149460000Y-104500000D02*
X156500000Y-97460000D01*
X156500000Y-97460000D02*
X156500000Y-66250000D01*
%TO.N,{slash}ACK*%
X136750000Y-103500000D02*
X139000000Y-101250000D01*
D17*
X136760000Y-104500000D02*
X136750000Y-104490000D01*
D18*
X139000000Y-101250000D02*
X145500000Y-101250000D01*
X136750000Y-104490000D02*
X136750000Y-103500000D01*
%TO.N,{slash}RESET*%
X135000000Y-100000000D02*
X145500000Y-100000000D01*
X131750000Y-103250000D02*
X135000000Y-100000000D01*
X131680000Y-104500000D02*
X131680000Y-103320000D01*
D17*
X131680000Y-103320000D02*
X131750000Y-103250000D01*
D18*
%TO.N,MOSI*%
X121750000Y-64520000D02*
X118750000Y-67520000D01*
X121750000Y-56870000D02*
X121750000Y-64520000D01*
X130720000Y-47900000D02*
X121750000Y-56870000D01*
D19*
%TO.N,+3.3V*%
X117500000Y-89500000D02*
X113750000Y-85750000D01*
X148500000Y-47900000D02*
X150650000Y-47900000D01*
X152000000Y-89500000D02*
X117500000Y-89500000D01*
X150650000Y-47900000D02*
X150750000Y-48000000D01*
X150750000Y-48000000D02*
X152000000Y-49250000D01*
X152000000Y-49250000D02*
X152000000Y-49500000D01*
X113750000Y-85750000D02*
X113750000Y-82000000D01*
X152000000Y-49500000D02*
X152000000Y-87750000D01*
X152000000Y-87750000D02*
X152000000Y-89500000D01*
D18*
%TO.N,DATA4*%
X139250000Y-107040000D02*
X139241235Y-107040000D01*
%TD*%
%TA.AperFunction,Conductor*%
%TO.N,GND*%
G36*
X133754075Y-104692993D02*
G01*
X133819901Y-104807007D01*
X133912993Y-104900099D01*
X134027007Y-104965925D01*
X134090590Y-104982962D01*
X133458282Y-105615269D01*
X133458282Y-105615270D01*
X133512452Y-105654626D01*
X133512451Y-105654626D01*
X133521495Y-105659234D01*
X133572292Y-105707208D01*
X133589087Y-105775029D01*
X133566550Y-105841164D01*
X133521499Y-105880202D01*
X133512182Y-105884949D01*
X133340213Y-106009890D01*
X133189890Y-106160213D01*
X133064949Y-106332182D01*
X133060484Y-106340946D01*
X133012509Y-106391742D01*
X132944688Y-106408536D01*
X132878553Y-106385998D01*
X132839516Y-106340946D01*
X132835050Y-106332182D01*
X132710109Y-106160213D01*
X132559786Y-106009890D01*
X132387820Y-105884951D01*
X132387115Y-105884591D01*
X132379054Y-105880485D01*
X132328259Y-105832512D01*
X132311463Y-105764692D01*
X132333999Y-105698556D01*
X132379054Y-105659515D01*
X132387816Y-105655051D01*
X132461383Y-105601602D01*
X132559786Y-105530109D01*
X132559788Y-105530106D01*
X132559792Y-105530104D01*
X132710104Y-105379792D01*
X132710106Y-105379788D01*
X132710109Y-105379786D01*
X132795890Y-105261717D01*
X132835051Y-105207816D01*
X132839793Y-105198508D01*
X132887763Y-105147711D01*
X132955583Y-105130911D01*
X133021719Y-105153445D01*
X133060763Y-105198500D01*
X133065373Y-105207547D01*
X133104728Y-105261716D01*
X133737037Y-104629408D01*
X133754075Y-104692993D01*
G37*
%TD.AperFunction*%
%TA.AperFunction,Conductor*%
G36*
X135335270Y-105261717D02*
G01*
X135335270Y-105261716D01*
X135374622Y-105207555D01*
X135379232Y-105198507D01*
X135427205Y-105147709D01*
X135495025Y-105130912D01*
X135561161Y-105153447D01*
X135600204Y-105198504D01*
X135604949Y-105207817D01*
X135729890Y-105379786D01*
X135880213Y-105530109D01*
X136052182Y-105655050D01*
X136060946Y-105659516D01*
X136111742Y-105707491D01*
X136128536Y-105775312D01*
X136105998Y-105841447D01*
X136060946Y-105880484D01*
X136052182Y-105884949D01*
X135880213Y-106009890D01*
X135729890Y-106160213D01*
X135604949Y-106332182D01*
X135600484Y-106340946D01*
X135552509Y-106391742D01*
X135484688Y-106408536D01*
X135418553Y-106385998D01*
X135379516Y-106340946D01*
X135375050Y-106332182D01*
X135250109Y-106160213D01*
X135099786Y-106009890D01*
X134927817Y-105884949D01*
X134918504Y-105880204D01*
X134867707Y-105832230D01*
X134850912Y-105764409D01*
X134873449Y-105698274D01*
X134918507Y-105659232D01*
X134927555Y-105654622D01*
X134981716Y-105615270D01*
X134981717Y-105615270D01*
X134349408Y-104982962D01*
X134412993Y-104965925D01*
X134527007Y-104900099D01*
X134620099Y-104807007D01*
X134685925Y-104692993D01*
X134702962Y-104629409D01*
X135335270Y-105261717D01*
G37*
%TD.AperFunction*%
%TA.AperFunction,Conductor*%
G36*
X138834075Y-104692993D02*
G01*
X138899901Y-104807007D01*
X138992993Y-104900099D01*
X139107007Y-104965925D01*
X139170590Y-104982962D01*
X138538282Y-105615269D01*
X138538282Y-105615270D01*
X138592452Y-105654626D01*
X138592451Y-105654626D01*
X138601495Y-105659234D01*
X138652292Y-105707208D01*
X138669087Y-105775029D01*
X138646550Y-105841164D01*
X138601499Y-105880202D01*
X138592182Y-105884949D01*
X138420213Y-106009890D01*
X138269890Y-106160213D01*
X138144949Y-106332182D01*
X138140484Y-106340946D01*
X138092509Y-106391742D01*
X138024688Y-106408536D01*
X137958553Y-106385998D01*
X137919516Y-106340946D01*
X137915050Y-106332182D01*
X137790109Y-106160213D01*
X137639786Y-106009890D01*
X137467820Y-105884951D01*
X137467115Y-105884591D01*
X137459054Y-105880485D01*
X137408259Y-105832512D01*
X137391463Y-105764692D01*
X137413999Y-105698556D01*
X137459054Y-105659515D01*
X137467816Y-105655051D01*
X137541383Y-105601602D01*
X137639786Y-105530109D01*
X137639788Y-105530106D01*
X137639792Y-105530104D01*
X137790104Y-105379792D01*
X137790106Y-105379788D01*
X137790109Y-105379786D01*
X137875890Y-105261717D01*
X137915051Y-105207816D01*
X137919793Y-105198508D01*
X137967763Y-105147711D01*
X138035583Y-105130911D01*
X138101719Y-105153445D01*
X138140763Y-105198500D01*
X138145373Y-105207547D01*
X138184728Y-105261716D01*
X138817037Y-104629408D01*
X138834075Y-104692993D01*
G37*
%TD.AperFunction*%
%TA.AperFunction,Conductor*%
G36*
X140415270Y-105261717D02*
G01*
X140415270Y-105261716D01*
X140454622Y-105207555D01*
X140459232Y-105198507D01*
X140507205Y-105147709D01*
X140575025Y-105130912D01*
X140641161Y-105153447D01*
X140680204Y-105198504D01*
X140684949Y-105207817D01*
X140809890Y-105379786D01*
X140960213Y-105530109D01*
X141132182Y-105655050D01*
X141140946Y-105659516D01*
X141191742Y-105707491D01*
X141208536Y-105775312D01*
X141185998Y-105841447D01*
X141140946Y-105880484D01*
X141132182Y-105884949D01*
X140960213Y-106009890D01*
X140809890Y-106160213D01*
X140684949Y-106332182D01*
X140680484Y-106340946D01*
X140632509Y-106391742D01*
X140564688Y-106408536D01*
X140498553Y-106385998D01*
X140459516Y-106340946D01*
X140455050Y-106332182D01*
X140330109Y-106160213D01*
X140179786Y-106009890D01*
X140007817Y-105884949D01*
X139998504Y-105880204D01*
X139947707Y-105832230D01*
X139930912Y-105764409D01*
X139953449Y-105698274D01*
X139998507Y-105659232D01*
X140007555Y-105654622D01*
X140061716Y-105615270D01*
X140061717Y-105615270D01*
X139429408Y-104982962D01*
X139492993Y-104965925D01*
X139607007Y-104900099D01*
X139700099Y-104807007D01*
X139765925Y-104692993D01*
X139782962Y-104629408D01*
X140415270Y-105261717D01*
G37*
%TD.AperFunction*%
%TA.AperFunction,Conductor*%
G36*
X143914075Y-104692993D02*
G01*
X143979901Y-104807007D01*
X144072993Y-104900099D01*
X144187007Y-104965925D01*
X144250590Y-104982962D01*
X143618282Y-105615269D01*
X143618282Y-105615270D01*
X143672452Y-105654626D01*
X143672451Y-105654626D01*
X143681495Y-105659234D01*
X143732292Y-105707208D01*
X143749087Y-105775029D01*
X143726550Y-105841164D01*
X143681499Y-105880202D01*
X143672182Y-105884949D01*
X143500213Y-106009890D01*
X143349890Y-106160213D01*
X143224949Y-106332182D01*
X143220484Y-106340946D01*
X143172509Y-106391742D01*
X143104688Y-106408536D01*
X143038553Y-106385998D01*
X142999516Y-106340946D01*
X142995050Y-106332182D01*
X142870109Y-106160213D01*
X142719786Y-106009890D01*
X142547820Y-105884951D01*
X142547115Y-105884591D01*
X142539054Y-105880485D01*
X142488259Y-105832512D01*
X142471463Y-105764692D01*
X142493999Y-105698556D01*
X142539054Y-105659515D01*
X142547816Y-105655051D01*
X142621383Y-105601602D01*
X142719786Y-105530109D01*
X142719788Y-105530106D01*
X142719792Y-105530104D01*
X142870104Y-105379792D01*
X142870106Y-105379788D01*
X142870109Y-105379786D01*
X142955890Y-105261717D01*
X142995051Y-105207816D01*
X142999793Y-105198508D01*
X143047763Y-105147711D01*
X143115583Y-105130911D01*
X143181719Y-105153445D01*
X143220763Y-105198500D01*
X143225373Y-105207547D01*
X143264728Y-105261716D01*
X143897037Y-104629408D01*
X143914075Y-104692993D01*
G37*
%TD.AperFunction*%
%TA.AperFunction,Conductor*%
G36*
X145495270Y-105261717D02*
G01*
X145495270Y-105261716D01*
X145534622Y-105207555D01*
X145539232Y-105198507D01*
X145587205Y-105147709D01*
X145655025Y-105130912D01*
X145721161Y-105153447D01*
X145760204Y-105198504D01*
X145764949Y-105207817D01*
X145889890Y-105379786D01*
X146040213Y-105530109D01*
X146212182Y-105655050D01*
X146220946Y-105659516D01*
X146271742Y-105707491D01*
X146288536Y-105775312D01*
X146265998Y-105841447D01*
X146220946Y-105880484D01*
X146212182Y-105884949D01*
X146040213Y-106009890D01*
X145889890Y-106160213D01*
X145764949Y-106332182D01*
X145760484Y-106340946D01*
X145712509Y-106391742D01*
X145644688Y-106408536D01*
X145578553Y-106385998D01*
X145539516Y-106340946D01*
X145535050Y-106332182D01*
X145410109Y-106160213D01*
X145259786Y-106009890D01*
X145087817Y-105884949D01*
X145078504Y-105880204D01*
X145027707Y-105832230D01*
X145010912Y-105764409D01*
X145033449Y-105698274D01*
X145078507Y-105659232D01*
X145087555Y-105654622D01*
X145141716Y-105615270D01*
X145141717Y-105615270D01*
X144509408Y-104982962D01*
X144572993Y-104965925D01*
X144687007Y-104900099D01*
X144780099Y-104807007D01*
X144845925Y-104692993D01*
X144862962Y-104629408D01*
X145495270Y-105261717D01*
G37*
%TD.AperFunction*%
%TA.AperFunction,Conductor*%
G36*
X130255270Y-105261717D02*
G01*
X130255270Y-105261716D01*
X130294622Y-105207555D01*
X130299232Y-105198507D01*
X130347205Y-105147709D01*
X130415025Y-105130912D01*
X130481161Y-105153447D01*
X130520204Y-105198504D01*
X130524949Y-105207817D01*
X130649890Y-105379786D01*
X130800213Y-105530109D01*
X130972182Y-105655050D01*
X130980946Y-105659516D01*
X131031742Y-105707491D01*
X131048536Y-105775312D01*
X131025998Y-105841447D01*
X130980946Y-105880484D01*
X130972182Y-105884949D01*
X130800215Y-106009889D01*
X130686673Y-106123431D01*
X130625350Y-106156915D01*
X130555658Y-106151931D01*
X130499725Y-106110059D01*
X130482810Y-106079082D01*
X130433797Y-105947671D01*
X130433793Y-105947664D01*
X130347547Y-105832455D01*
X130347544Y-105832452D01*
X130232335Y-105746206D01*
X130232328Y-105746202D01*
X130097482Y-105695908D01*
X130097483Y-105695908D01*
X130037883Y-105689501D01*
X130037881Y-105689500D01*
X130037873Y-105689500D01*
X130037865Y-105689500D01*
X130027309Y-105689500D01*
X129960270Y-105669815D01*
X129939628Y-105653181D01*
X129269408Y-104982962D01*
X129332993Y-104965925D01*
X129447007Y-104900099D01*
X129540099Y-104807007D01*
X129605925Y-104692993D01*
X129622962Y-104629409D01*
X130255270Y-105261717D01*
G37*
%TD.AperFunction*%
%TA.AperFunction,Conductor*%
G36*
X138447230Y-100670185D02*
G01*
X138492985Y-100722989D01*
X138502929Y-100792147D01*
X138473904Y-100855703D01*
X138467872Y-100862181D01*
X136244727Y-103085325D01*
X136244726Y-103085326D01*
X136244723Y-103085331D01*
X136201514Y-103150000D01*
X136187521Y-103170942D01*
X136173532Y-103191877D01*
X136143133Y-103265265D01*
X136099291Y-103319667D01*
X136084870Y-103328294D01*
X136052180Y-103344950D01*
X135880213Y-103469890D01*
X135729890Y-103620213D01*
X135604949Y-103792182D01*
X135600202Y-103801499D01*
X135552227Y-103852293D01*
X135484405Y-103869087D01*
X135418271Y-103846548D01*
X135379234Y-103801495D01*
X135374626Y-103792452D01*
X135335270Y-103738282D01*
X135335269Y-103738282D01*
X134702962Y-104370590D01*
X134685925Y-104307007D01*
X134620099Y-104192993D01*
X134527007Y-104099901D01*
X134412993Y-104034075D01*
X134349409Y-104017037D01*
X134981716Y-103384728D01*
X134927550Y-103345375D01*
X134738217Y-103248904D01*
X134536129Y-103183242D01*
X134326246Y-103150000D01*
X134113754Y-103150000D01*
X133903872Y-103183242D01*
X133903869Y-103183242D01*
X133701782Y-103248904D01*
X133512439Y-103345380D01*
X133458282Y-103384727D01*
X133458282Y-103384728D01*
X134090591Y-104017037D01*
X134027007Y-104034075D01*
X133912993Y-104099901D01*
X133819901Y-104192993D01*
X133754075Y-104307007D01*
X133737037Y-104370591D01*
X133104728Y-103738282D01*
X133104727Y-103738282D01*
X133065380Y-103792440D01*
X133065376Y-103792446D01*
X133060760Y-103801505D01*
X133012781Y-103852297D01*
X132944959Y-103869087D01*
X132878826Y-103846543D01*
X132839794Y-103801493D01*
X132835051Y-103792184D01*
X132835049Y-103792181D01*
X132835048Y-103792179D01*
X132710109Y-103620213D01*
X132592601Y-103502705D01*
X132559116Y-103441382D01*
X132564100Y-103371690D01*
X132592599Y-103327345D01*
X135233127Y-100686819D01*
X135294450Y-100653334D01*
X135320808Y-100650500D01*
X138380191Y-100650500D01*
X138447230Y-100670185D01*
G37*
%TD.AperFunction*%
%TA.AperFunction,Conductor*%
G36*
X141947231Y-101920185D02*
G01*
X141992986Y-101972989D01*
X142002930Y-102042147D01*
X141973905Y-102105703D01*
X141967873Y-102112181D01*
X141334727Y-102745325D01*
X141334721Y-102745332D01*
X141292764Y-102808126D01*
X141292765Y-102808127D01*
X141263534Y-102851874D01*
X141214499Y-102970255D01*
X141214497Y-102970261D01*
X141189500Y-103095928D01*
X141189500Y-103240382D01*
X141169815Y-103307421D01*
X141135408Y-103341099D01*
X141136125Y-103342085D01*
X140960213Y-103469890D01*
X140809890Y-103620213D01*
X140684949Y-103792182D01*
X140680202Y-103801499D01*
X140632227Y-103852293D01*
X140564405Y-103869087D01*
X140498271Y-103846548D01*
X140459234Y-103801495D01*
X140454626Y-103792452D01*
X140415270Y-103738282D01*
X139782962Y-104370590D01*
X139765925Y-104307007D01*
X139700099Y-104192993D01*
X139607007Y-104099901D01*
X139492993Y-104034075D01*
X139429409Y-104017037D01*
X140061716Y-103384728D01*
X140007550Y-103345375D01*
X139818217Y-103248904D01*
X139616129Y-103183242D01*
X139406246Y-103150000D01*
X139193754Y-103150000D01*
X138983872Y-103183242D01*
X138983869Y-103183242D01*
X138781782Y-103248904D01*
X138592439Y-103345380D01*
X138538282Y-103384727D01*
X138538282Y-103384728D01*
X139170591Y-104017037D01*
X139107007Y-104034075D01*
X138992993Y-104099901D01*
X138899901Y-104192993D01*
X138834075Y-104307007D01*
X138817037Y-104370591D01*
X138184728Y-103738282D01*
X138184727Y-103738282D01*
X138145380Y-103792440D01*
X138145376Y-103792446D01*
X138140760Y-103801505D01*
X138092781Y-103852297D01*
X138024959Y-103869087D01*
X137958826Y-103846543D01*
X137919794Y-103801493D01*
X137915051Y-103792184D01*
X137915049Y-103792181D01*
X137915048Y-103792179D01*
X137790109Y-103620213D01*
X137757602Y-103587706D01*
X137753263Y-103579760D01*
X137746016Y-103574335D01*
X137736781Y-103549575D01*
X137724117Y-103526383D01*
X137724762Y-103517353D01*
X137721599Y-103508871D01*
X137727215Y-103483050D01*
X137729101Y-103456691D01*
X137734919Y-103447637D01*
X137736451Y-103440598D01*
X137757602Y-103412344D01*
X139233127Y-101936819D01*
X139294450Y-101903334D01*
X139320808Y-101900500D01*
X141880192Y-101900500D01*
X141947231Y-101920185D01*
G37*
%TD.AperFunction*%
%TA.AperFunction,Conductor*%
G36*
X146562104Y-102920185D02*
G01*
X146563909Y-102921366D01*
X146587034Y-102936818D01*
X146625887Y-102962779D01*
X146624627Y-102964663D01*
X146667249Y-103006526D01*
X146682715Y-103074662D01*
X146658888Y-103140344D01*
X146603333Y-103182716D01*
X146597275Y-103184860D01*
X146401583Y-103248444D01*
X146212179Y-103344951D01*
X146040213Y-103469890D01*
X145889890Y-103620213D01*
X145764949Y-103792182D01*
X145760202Y-103801499D01*
X145712227Y-103852293D01*
X145644405Y-103869087D01*
X145578271Y-103846548D01*
X145539234Y-103801495D01*
X145534626Y-103792452D01*
X145495270Y-103738282D01*
X145495269Y-103738282D01*
X144862962Y-104370590D01*
X144845925Y-104307007D01*
X144780099Y-104192993D01*
X144687007Y-104099901D01*
X144572993Y-104034075D01*
X144509409Y-104017037D01*
X145141716Y-103384728D01*
X145087550Y-103345375D01*
X144898217Y-103248904D01*
X144696129Y-103183242D01*
X144486246Y-103150000D01*
X144273754Y-103150000D01*
X144063872Y-103183242D01*
X144063869Y-103183242D01*
X143861782Y-103248904D01*
X143672439Y-103345380D01*
X143618282Y-103384727D01*
X143618282Y-103384728D01*
X144250591Y-104017037D01*
X144187007Y-104034075D01*
X144072993Y-104099901D01*
X143979901Y-104192993D01*
X143914075Y-104307007D01*
X143897037Y-104370591D01*
X143264728Y-103738282D01*
X143264727Y-103738282D01*
X143225380Y-103792440D01*
X143225376Y-103792446D01*
X143220760Y-103801505D01*
X143172781Y-103852297D01*
X143104959Y-103869087D01*
X143038826Y-103846543D01*
X142999794Y-103801493D01*
X142995051Y-103792184D01*
X142995049Y-103792181D01*
X142995048Y-103792179D01*
X142870109Y-103620213D01*
X142772450Y-103522554D01*
X142719792Y-103469896D01*
X142676430Y-103438392D01*
X142672167Y-103434655D01*
X142656360Y-103409749D01*
X142638349Y-103386392D01*
X142637850Y-103380584D01*
X142634727Y-103375663D01*
X142634894Y-103346166D01*
X142632371Y-103316779D01*
X142635090Y-103311624D01*
X142635124Y-103305794D01*
X142651213Y-103281068D01*
X142664977Y-103254984D01*
X142666066Y-103253878D01*
X142983129Y-102936816D01*
X143044450Y-102903334D01*
X143070808Y-102900500D01*
X146495065Y-102900500D01*
X146562104Y-102920185D01*
G37*
%TD.AperFunction*%
%TA.AperFunction,Conductor*%
G36*
X129536966Y-36520185D02*
G01*
X129582721Y-36572989D01*
X129592665Y-36642147D01*
X129567540Y-36700970D01*
X129564530Y-36704810D01*
X129476522Y-36850393D01*
X129425913Y-37012807D01*
X129419500Y-37083386D01*
X129419500Y-38396613D01*
X129425913Y-38467192D01*
X129476522Y-38629606D01*
X129564530Y-38775188D01*
X129684811Y-38895469D01*
X129684813Y-38895470D01*
X129684815Y-38895472D01*
X129830394Y-38983478D01*
X129917566Y-39010641D01*
X129975712Y-39049378D01*
X130003686Y-39113403D01*
X129992605Y-39182388D01*
X129953560Y-39229344D01*
X129872782Y-39288032D01*
X129728028Y-39432786D01*
X129607715Y-39598386D01*
X129514781Y-39780776D01*
X129451522Y-39975465D01*
X129419500Y-40177648D01*
X129419500Y-40382351D01*
X129451522Y-40584534D01*
X129514781Y-40779223D01*
X129607715Y-40961613D01*
X129728028Y-41127213D01*
X129872786Y-41271971D01*
X130038388Y-41392286D01*
X130038390Y-41392287D01*
X130124294Y-41436057D01*
X130175090Y-41484031D01*
X130191886Y-41551852D01*
X130169349Y-41617987D01*
X130126455Y-41655899D01*
X130060497Y-41691155D01*
X129991086Y-41737534D01*
X129991085Y-41737534D01*
X130590589Y-42337037D01*
X130527007Y-42354075D01*
X130412993Y-42419901D01*
X130319901Y-42512993D01*
X130254075Y-42627007D01*
X130237037Y-42690588D01*
X129637534Y-42091085D01*
X129637534Y-42091086D01*
X129591158Y-42160493D01*
X129544490Y-42247801D01*
X129484185Y-42393387D01*
X129455444Y-42488135D01*
X129424701Y-42642697D01*
X129424701Y-42642700D01*
X129415000Y-42741210D01*
X129415000Y-42898789D01*
X129424701Y-42997299D01*
X129424701Y-42997302D01*
X129455444Y-43151864D01*
X129484185Y-43246612D01*
X129544490Y-43392198D01*
X129591155Y-43479501D01*
X129591161Y-43479511D01*
X129637534Y-43548912D01*
X130237037Y-42949410D01*
X130254075Y-43012993D01*
X130319901Y-43127007D01*
X130412993Y-43220099D01*
X130527007Y-43285925D01*
X130590589Y-43302962D01*
X129991085Y-43902465D01*
X130060488Y-43948838D01*
X130060498Y-43948844D01*
X130126454Y-43984099D01*
X130176298Y-44033062D01*
X130191758Y-44101200D01*
X130167926Y-44166879D01*
X130124295Y-44203942D01*
X130038386Y-44247715D01*
X129872786Y-44368028D01*
X129728028Y-44512786D01*
X129607715Y-44678386D01*
X129514781Y-44860776D01*
X129451522Y-45055465D01*
X129419500Y-45257648D01*
X129419500Y-45462351D01*
X129451522Y-45664534D01*
X129514781Y-45859223D01*
X129607715Y-46041613D01*
X129728028Y-46207213D01*
X129872786Y-46351971D01*
X130027749Y-46464556D01*
X130038390Y-46472287D01*
X130129840Y-46518883D01*
X130131080Y-46519515D01*
X130181876Y-46567490D01*
X130198671Y-46635311D01*
X130176134Y-46701446D01*
X130131080Y-46740485D01*
X130038386Y-46787715D01*
X129872786Y-46908028D01*
X129728028Y-47052786D01*
X129607715Y-47218386D01*
X129514781Y-47400776D01*
X129451522Y-47595465D01*
X129419500Y-47797648D01*
X129419500Y-48002351D01*
X129447654Y-48180111D01*
X129438699Y-48249405D01*
X129412862Y-48287190D01*
X121244726Y-56455326D01*
X121173534Y-56561874D01*
X121124499Y-56680255D01*
X121124497Y-56680261D01*
X121099500Y-56805928D01*
X121099500Y-64199191D01*
X121079815Y-64266230D01*
X121063181Y-64286872D01*
X120312181Y-65037872D01*
X120250858Y-65071357D01*
X120181166Y-65066373D01*
X120125233Y-65024501D01*
X120100816Y-64959037D01*
X120100500Y-64950191D01*
X120100500Y-64873713D01*
X120093279Y-64828122D01*
X120067246Y-64663757D01*
X120001557Y-64461588D01*
X119905051Y-64272184D01*
X119905049Y-64272181D01*
X119905048Y-64272179D01*
X119780109Y-64100213D01*
X119629786Y-63949890D01*
X119457820Y-63824951D01*
X119457115Y-63824591D01*
X119449054Y-63820485D01*
X119398259Y-63772512D01*
X119381463Y-63704692D01*
X119403999Y-63638556D01*
X119449054Y-63599515D01*
X119457816Y-63595051D01*
X119479789Y-63579086D01*
X119629786Y-63470109D01*
X119629788Y-63470106D01*
X119629792Y-63470104D01*
X119780104Y-63319792D01*
X119780106Y-63319788D01*
X119780109Y-63319786D01*
X119905048Y-63147820D01*
X119905047Y-63147820D01*
X119905051Y-63147816D01*
X120001557Y-62958412D01*
X120067246Y-62756243D01*
X120100500Y-62546287D01*
X120100500Y-62333713D01*
X120067246Y-62123757D01*
X120001557Y-61921588D01*
X119905051Y-61732184D01*
X119905049Y-61732181D01*
X119905048Y-61732179D01*
X119780109Y-61560213D01*
X119629786Y-61409890D01*
X119457817Y-61284949D01*
X119448504Y-61280204D01*
X119397707Y-61232230D01*
X119380912Y-61164409D01*
X119403449Y-61098274D01*
X119448507Y-61059232D01*
X119457555Y-61054622D01*
X119511716Y-61015270D01*
X119511717Y-61015270D01*
X118879408Y-60382962D01*
X118942993Y-60365925D01*
X119057007Y-60300099D01*
X119150099Y-60207007D01*
X119215925Y-60092993D01*
X119232962Y-60029408D01*
X119865270Y-60661717D01*
X119865270Y-60661716D01*
X119904622Y-60607554D01*
X120001095Y-60418217D01*
X120066757Y-60216130D01*
X120066757Y-60216127D01*
X120100000Y-60006246D01*
X120100000Y-59793753D01*
X120066757Y-59583872D01*
X120066757Y-59583869D01*
X120001095Y-59381782D01*
X119904624Y-59192449D01*
X119865270Y-59138282D01*
X119865269Y-59138282D01*
X119232962Y-59770590D01*
X119215925Y-59707007D01*
X119150099Y-59592993D01*
X119057007Y-59499901D01*
X118942993Y-59434075D01*
X118879409Y-59417037D01*
X119511716Y-58784728D01*
X119457550Y-58745375D01*
X119268217Y-58648904D01*
X119066129Y-58583242D01*
X118856246Y-58550000D01*
X118643754Y-58550000D01*
X118433872Y-58583242D01*
X118433869Y-58583242D01*
X118231782Y-58648904D01*
X118042439Y-58745380D01*
X117988282Y-58784727D01*
X117988282Y-58784728D01*
X118620591Y-59417037D01*
X118557007Y-59434075D01*
X118442993Y-59499901D01*
X118349901Y-59592993D01*
X118284075Y-59707007D01*
X118267037Y-59770591D01*
X117634728Y-59138282D01*
X117634727Y-59138282D01*
X117595380Y-59192439D01*
X117498904Y-59381782D01*
X117433242Y-59583869D01*
X117433242Y-59583872D01*
X117400000Y-59793753D01*
X117400000Y-60006246D01*
X117433242Y-60216127D01*
X117433242Y-60216130D01*
X117498904Y-60418217D01*
X117595375Y-60607550D01*
X117634728Y-60661716D01*
X118267037Y-60029408D01*
X118284075Y-60092993D01*
X118349901Y-60207007D01*
X118442993Y-60300099D01*
X118557007Y-60365925D01*
X118620590Y-60382962D01*
X117988282Y-61015269D01*
X117988282Y-61015270D01*
X118042452Y-61054626D01*
X118042451Y-61054626D01*
X118051495Y-61059234D01*
X118102292Y-61107208D01*
X118119087Y-61175029D01*
X118096550Y-61241164D01*
X118051499Y-61280202D01*
X118042182Y-61284949D01*
X117870213Y-61409890D01*
X117719890Y-61560213D01*
X117594951Y-61732179D01*
X117498444Y-61921585D01*
X117432753Y-62123760D01*
X117405983Y-62292781D01*
X117399500Y-62333713D01*
X117399500Y-62546287D01*
X117432754Y-62756243D01*
X117458495Y-62835466D01*
X117498444Y-62958414D01*
X117594951Y-63147820D01*
X117719890Y-63319786D01*
X117870213Y-63470109D01*
X118042182Y-63595050D01*
X118050946Y-63599516D01*
X118101742Y-63647491D01*
X118118536Y-63715312D01*
X118095998Y-63781447D01*
X118050946Y-63820484D01*
X118042182Y-63824949D01*
X117870213Y-63949890D01*
X117719890Y-64100213D01*
X117594951Y-64272179D01*
X117498444Y-64461585D01*
X117432753Y-64663760D01*
X117399500Y-64873713D01*
X117399500Y-65086286D01*
X117430225Y-65280279D01*
X117432754Y-65296243D01*
X117492546Y-65480264D01*
X117498444Y-65498414D01*
X117594951Y-65687820D01*
X117719890Y-65859786D01*
X117870213Y-66010109D01*
X118042182Y-66135050D01*
X118050946Y-66139516D01*
X118101742Y-66187491D01*
X118118536Y-66255312D01*
X118095998Y-66321447D01*
X118050946Y-66360484D01*
X118042182Y-66364949D01*
X117870213Y-66489890D01*
X117719890Y-66640213D01*
X117594951Y-66812179D01*
X117498444Y-67001585D01*
X117432753Y-67203760D01*
X117399500Y-67413713D01*
X117399500Y-67626286D01*
X117430165Y-67819901D01*
X117432754Y-67836243D01*
X117494737Y-68027007D01*
X117498444Y-68038414D01*
X117594951Y-68227820D01*
X117719890Y-68399786D01*
X117870213Y-68550109D01*
X118042182Y-68675050D01*
X118050946Y-68679516D01*
X118101742Y-68727491D01*
X118118536Y-68795312D01*
X118095998Y-68861447D01*
X118050946Y-68900484D01*
X118042182Y-68904949D01*
X117870213Y-69029890D01*
X117719890Y-69180213D01*
X117594951Y-69352179D01*
X117498444Y-69541585D01*
X117432753Y-69743760D01*
X117405983Y-69912781D01*
X117399500Y-69953713D01*
X117399500Y-70166287D01*
X117432754Y-70376243D01*
X117458495Y-70455466D01*
X117498444Y-70578414D01*
X117594951Y-70767820D01*
X117719890Y-70939786D01*
X117833430Y-71053326D01*
X117866915Y-71114649D01*
X117861931Y-71184341D01*
X117820059Y-71240274D01*
X117789083Y-71257189D01*
X117657669Y-71306203D01*
X117657664Y-71306206D01*
X117542455Y-71392452D01*
X117542452Y-71392455D01*
X117456206Y-71507664D01*
X117456202Y-71507671D01*
X117405908Y-71642517D01*
X117399501Y-71702116D01*
X117399501Y-71702123D01*
X117399500Y-71702135D01*
X117399500Y-73497870D01*
X117399501Y-73497876D01*
X117405908Y-73557483D01*
X117456202Y-73692328D01*
X117456206Y-73692335D01*
X117542452Y-73807544D01*
X117542455Y-73807547D01*
X117657664Y-73893793D01*
X117657671Y-73893797D01*
X117792517Y-73944091D01*
X117792516Y-73944091D01*
X117799444Y-73944835D01*
X117852127Y-73950500D01*
X119647872Y-73950499D01*
X119707483Y-73944091D01*
X119842331Y-73893796D01*
X119957546Y-73807546D01*
X120043796Y-73692331D01*
X120094091Y-73557483D01*
X120100500Y-73497873D01*
X120100499Y-71702128D01*
X120094091Y-71642517D01*
X120080923Y-71607213D01*
X120043797Y-71507671D01*
X120043793Y-71507664D01*
X119957547Y-71392455D01*
X119957544Y-71392452D01*
X119842335Y-71306206D01*
X119842328Y-71306202D01*
X119710917Y-71257189D01*
X119654983Y-71215318D01*
X119630566Y-71149853D01*
X119645418Y-71081580D01*
X119666563Y-71053332D01*
X119780104Y-70939792D01*
X119905051Y-70767816D01*
X119967055Y-70646124D01*
X119992351Y-70596481D01*
X119992351Y-70596480D01*
X120001555Y-70578415D01*
X120001557Y-70578412D01*
X120067246Y-70376243D01*
X120100500Y-70166287D01*
X120100500Y-69953713D01*
X120067246Y-69743757D01*
X120001557Y-69541588D01*
X119905051Y-69352184D01*
X119905049Y-69352181D01*
X119905048Y-69352179D01*
X119780109Y-69180213D01*
X119629786Y-69029890D01*
X119457820Y-68904951D01*
X119457115Y-68904591D01*
X119449054Y-68900485D01*
X119398259Y-68852512D01*
X119381463Y-68784692D01*
X119403999Y-68718556D01*
X119449054Y-68679515D01*
X119457816Y-68675051D01*
X119496959Y-68646612D01*
X119629786Y-68550109D01*
X119629788Y-68550106D01*
X119629792Y-68550104D01*
X119780104Y-68399792D01*
X119780106Y-68399788D01*
X119780109Y-68399786D01*
X119905048Y-68227820D01*
X119905047Y-68227820D01*
X119905051Y-68227816D01*
X120001557Y-68038412D01*
X120067246Y-67836243D01*
X120100500Y-67626287D01*
X120100500Y-67413713D01*
X120087307Y-67330414D01*
X120066484Y-67198945D01*
X120068123Y-67198685D01*
X120071257Y-67136126D01*
X120100655Y-67089289D01*
X122255277Y-64934669D01*
X122326465Y-64828127D01*
X122375501Y-64709743D01*
X122379820Y-64688034D01*
X122379822Y-64688028D01*
X122400500Y-64584071D01*
X122400500Y-57190807D01*
X122420185Y-57123768D01*
X122436814Y-57103131D01*
X129207819Y-50332125D01*
X129269142Y-50298641D01*
X129338834Y-50303625D01*
X129394767Y-50345497D01*
X129419184Y-50410961D01*
X129419500Y-50419807D01*
X129419500Y-50542351D01*
X129451522Y-50744534D01*
X129514781Y-50939223D01*
X129607715Y-51121613D01*
X129728028Y-51287213D01*
X129872786Y-51431971D01*
X130027749Y-51544556D01*
X130038390Y-51552287D01*
X130129840Y-51598883D01*
X130131080Y-51599515D01*
X130181876Y-51647490D01*
X130198671Y-51715311D01*
X130176134Y-51781446D01*
X130131080Y-51820485D01*
X130038386Y-51867715D01*
X129872786Y-51988028D01*
X129728028Y-52132786D01*
X129607715Y-52298386D01*
X129514781Y-52480776D01*
X129451522Y-52675465D01*
X129419500Y-52877648D01*
X129419500Y-53082351D01*
X129451522Y-53284534D01*
X129514781Y-53479223D01*
X129607715Y-53661613D01*
X129728028Y-53827213D01*
X129872786Y-53971971D01*
X130038388Y-54092286D01*
X130038390Y-54092287D01*
X130124294Y-54136057D01*
X130175090Y-54184031D01*
X130191886Y-54251852D01*
X130169349Y-54317987D01*
X130126455Y-54355899D01*
X130060497Y-54391155D01*
X129991086Y-54437534D01*
X129991085Y-54437534D01*
X130590589Y-55037037D01*
X130527007Y-55054075D01*
X130412993Y-55119901D01*
X130319901Y-55212993D01*
X130254075Y-55327007D01*
X130237037Y-55390588D01*
X129637534Y-54791085D01*
X129637534Y-54791086D01*
X129591158Y-54860493D01*
X129544490Y-54947801D01*
X129484185Y-55093387D01*
X129455444Y-55188135D01*
X129424701Y-55342697D01*
X129424701Y-55342700D01*
X129415000Y-55441210D01*
X129415000Y-55598789D01*
X129424701Y-55697299D01*
X129424701Y-55697302D01*
X129455444Y-55851864D01*
X129484185Y-55946612D01*
X129544490Y-56092198D01*
X129591155Y-56179501D01*
X129591161Y-56179511D01*
X129637534Y-56248912D01*
X130237037Y-55649410D01*
X130254075Y-55712993D01*
X130319901Y-55827007D01*
X130412993Y-55920099D01*
X130527007Y-55985925D01*
X130590589Y-56002962D01*
X129991085Y-56602465D01*
X130060488Y-56648838D01*
X130060498Y-56648844D01*
X130126454Y-56684099D01*
X130176298Y-56733062D01*
X130191758Y-56801200D01*
X130167926Y-56866879D01*
X130124295Y-56903942D01*
X130038386Y-56947715D01*
X129872786Y-57068028D01*
X129728028Y-57212786D01*
X129607715Y-57378386D01*
X129514781Y-57560776D01*
X129451522Y-57755465D01*
X129419500Y-57957648D01*
X129419500Y-58162351D01*
X129451522Y-58364534D01*
X129514781Y-58559223D01*
X129607715Y-58741613D01*
X129728028Y-58907213D01*
X129872786Y-59051971D01*
X130027749Y-59164556D01*
X130038390Y-59172287D01*
X130129840Y-59218883D01*
X130131080Y-59219515D01*
X130181876Y-59267490D01*
X130198671Y-59335311D01*
X130176134Y-59401446D01*
X130131080Y-59440485D01*
X130038386Y-59487715D01*
X129872786Y-59608028D01*
X129728028Y-59752786D01*
X129607715Y-59918386D01*
X129514781Y-60100776D01*
X129451522Y-60295465D01*
X129419500Y-60497648D01*
X129419500Y-60702351D01*
X129451522Y-60904534D01*
X129514781Y-61099223D01*
X129607715Y-61281613D01*
X129728028Y-61447213D01*
X129872786Y-61591971D01*
X130027749Y-61704556D01*
X130038390Y-61712287D01*
X130129840Y-61758883D01*
X130131080Y-61759515D01*
X130181876Y-61807490D01*
X130198671Y-61875311D01*
X130176134Y-61941446D01*
X130131080Y-61980485D01*
X130038386Y-62027715D01*
X129872786Y-62148028D01*
X129728028Y-62292786D01*
X129607715Y-62458386D01*
X129514781Y-62640776D01*
X129451522Y-62835465D01*
X129419500Y-63037648D01*
X129419500Y-63242351D01*
X129451522Y-63444534D01*
X129514781Y-63639223D01*
X129553551Y-63715312D01*
X129607140Y-63820486D01*
X129607715Y-63821613D01*
X129728028Y-63987213D01*
X129872786Y-64131971D01*
X130027749Y-64244556D01*
X130038390Y-64252287D01*
X130106267Y-64286872D01*
X130131080Y-64299515D01*
X130181876Y-64347490D01*
X130198671Y-64415311D01*
X130176134Y-64481446D01*
X130131080Y-64520485D01*
X130038386Y-64567715D01*
X129872786Y-64688028D01*
X129872784Y-64688031D01*
X129728032Y-64832782D01*
X129728028Y-64832786D01*
X129607715Y-64998386D01*
X129514781Y-65180776D01*
X129451522Y-65375465D01*
X129419500Y-65577648D01*
X129419500Y-65782351D01*
X129451522Y-65984534D01*
X129514781Y-66179223D01*
X129553551Y-66255312D01*
X129607139Y-66360484D01*
X129607715Y-66361613D01*
X129728028Y-66527213D01*
X129872786Y-66671971D01*
X130038388Y-66792286D01*
X130038390Y-66792287D01*
X130124294Y-66836057D01*
X130175090Y-66884031D01*
X130191886Y-66951852D01*
X130169349Y-67017987D01*
X130126455Y-67055899D01*
X130060497Y-67091155D01*
X129991086Y-67137534D01*
X129991085Y-67137534D01*
X130590589Y-67737037D01*
X130527007Y-67754075D01*
X130412993Y-67819901D01*
X130319901Y-67912993D01*
X130254075Y-68027007D01*
X130237037Y-68090588D01*
X129637534Y-67491085D01*
X129637534Y-67491086D01*
X129591158Y-67560493D01*
X129544490Y-67647801D01*
X129484185Y-67793387D01*
X129455444Y-67888135D01*
X129424701Y-68042697D01*
X129424701Y-68042700D01*
X129415000Y-68141210D01*
X129415000Y-68298789D01*
X129424701Y-68397299D01*
X129424701Y-68397302D01*
X129455444Y-68551864D01*
X129484185Y-68646612D01*
X129544490Y-68792198D01*
X129591155Y-68879501D01*
X129591161Y-68879511D01*
X129637534Y-68948912D01*
X130237037Y-68349410D01*
X130254075Y-68412993D01*
X130319901Y-68527007D01*
X130412993Y-68620099D01*
X130527007Y-68685925D01*
X130590589Y-68702962D01*
X129991085Y-69302465D01*
X130060488Y-69348838D01*
X130060498Y-69348844D01*
X130126454Y-69384099D01*
X130176298Y-69433062D01*
X130191758Y-69501200D01*
X130167926Y-69566879D01*
X130124295Y-69603942D01*
X130038386Y-69647715D01*
X129872786Y-69768028D01*
X129728028Y-69912786D01*
X129607715Y-70078386D01*
X129514781Y-70260776D01*
X129451522Y-70455465D01*
X129419500Y-70657648D01*
X129419500Y-70862351D01*
X129451522Y-71064534D01*
X129514781Y-71259223D01*
X129607715Y-71441613D01*
X129728028Y-71607213D01*
X129872786Y-71751971D01*
X130027749Y-71864556D01*
X130038390Y-71872287D01*
X130129840Y-71918883D01*
X130131080Y-71919515D01*
X130181876Y-71967490D01*
X130198671Y-72035311D01*
X130176134Y-72101446D01*
X130131080Y-72140485D01*
X130038386Y-72187715D01*
X129872786Y-72308028D01*
X129728028Y-72452786D01*
X129607715Y-72618386D01*
X129514781Y-72800776D01*
X129451522Y-72995465D01*
X129419500Y-73197648D01*
X129419500Y-73402351D01*
X129451522Y-73604534D01*
X129514781Y-73799223D01*
X129562968Y-73893793D01*
X129607027Y-73980264D01*
X129607715Y-73981613D01*
X129728028Y-74147213D01*
X129872786Y-74291971D01*
X130024275Y-74402032D01*
X130038390Y-74412287D01*
X130129840Y-74458883D01*
X130131080Y-74459515D01*
X130181876Y-74507490D01*
X130198671Y-74575311D01*
X130176134Y-74641446D01*
X130131080Y-74680485D01*
X130038386Y-74727715D01*
X129872786Y-74848028D01*
X129728028Y-74992786D01*
X129607715Y-75158386D01*
X129514781Y-75340776D01*
X129451522Y-75535465D01*
X129419500Y-75737648D01*
X129419500Y-75942351D01*
X129451522Y-76144534D01*
X129514781Y-76339223D01*
X129544933Y-76398398D01*
X129596956Y-76500499D01*
X129607715Y-76521613D01*
X129728028Y-76687213D01*
X129872786Y-76831971D01*
X130027749Y-76944556D01*
X130038390Y-76952287D01*
X130129840Y-76998883D01*
X130131080Y-76999515D01*
X130181876Y-77047490D01*
X130198671Y-77115311D01*
X130176134Y-77181446D01*
X130131080Y-77220485D01*
X130038386Y-77267715D01*
X129872786Y-77388028D01*
X129728028Y-77532786D01*
X129607715Y-77698386D01*
X129514781Y-77880776D01*
X129451522Y-78075465D01*
X129419500Y-78277648D01*
X129419500Y-78482351D01*
X129451522Y-78684534D01*
X129514781Y-78879223D01*
X129607715Y-79061613D01*
X129728028Y-79227213D01*
X129872786Y-79371971D01*
X130038388Y-79492286D01*
X130038390Y-79492287D01*
X130124294Y-79536057D01*
X130175090Y-79584031D01*
X130191886Y-79651852D01*
X130169349Y-79717987D01*
X130126455Y-79755899D01*
X130060497Y-79791155D01*
X129991086Y-79837534D01*
X129991085Y-79837534D01*
X130590589Y-80437037D01*
X130527007Y-80454075D01*
X130412993Y-80519901D01*
X130319901Y-80612993D01*
X130254075Y-80727007D01*
X130237037Y-80790588D01*
X129637534Y-80191085D01*
X129637534Y-80191086D01*
X129591158Y-80260493D01*
X129544490Y-80347801D01*
X129484185Y-80493387D01*
X129455444Y-80588135D01*
X129424701Y-80742697D01*
X129424701Y-80742700D01*
X129415000Y-80841210D01*
X129415000Y-80998789D01*
X129424701Y-81097299D01*
X129424701Y-81097302D01*
X129455444Y-81251864D01*
X129484185Y-81346612D01*
X129544490Y-81492198D01*
X129591155Y-81579501D01*
X129591161Y-81579511D01*
X129637534Y-81648912D01*
X130237037Y-81049410D01*
X130254075Y-81112993D01*
X130319901Y-81227007D01*
X130412993Y-81320099D01*
X130527007Y-81385925D01*
X130590589Y-81402962D01*
X129991085Y-82002465D01*
X130060488Y-82048838D01*
X130060498Y-82048844D01*
X130126454Y-82084099D01*
X130176298Y-82133062D01*
X130191758Y-82201200D01*
X130167926Y-82266879D01*
X130124295Y-82303942D01*
X130038386Y-82347715D01*
X129872786Y-82468028D01*
X129728028Y-82612786D01*
X129607715Y-82778386D01*
X129514781Y-82960776D01*
X129451522Y-83155465D01*
X129419500Y-83357648D01*
X129419500Y-83562351D01*
X129451522Y-83764534D01*
X129514781Y-83959223D01*
X129607715Y-84141613D01*
X129728028Y-84307213D01*
X129872786Y-84451971D01*
X130027749Y-84564556D01*
X130038390Y-84572287D01*
X130129840Y-84618883D01*
X130131080Y-84619515D01*
X130181876Y-84667490D01*
X130198671Y-84735311D01*
X130176134Y-84801446D01*
X130131080Y-84840485D01*
X130038386Y-84887715D01*
X129872786Y-85008028D01*
X129728028Y-85152786D01*
X129607715Y-85318386D01*
X129514781Y-85500776D01*
X129451522Y-85695465D01*
X129419500Y-85897648D01*
X129419500Y-86102351D01*
X129451522Y-86304534D01*
X129514781Y-86499223D01*
X129607715Y-86681613D01*
X129728028Y-86847213D01*
X129872786Y-86991971D01*
X130027749Y-87104556D01*
X130038390Y-87112287D01*
X130154607Y-87171503D01*
X130220776Y-87205218D01*
X130220778Y-87205218D01*
X130220781Y-87205220D01*
X130325137Y-87239127D01*
X130415465Y-87268477D01*
X130516557Y-87284488D01*
X130617648Y-87300500D01*
X130617649Y-87300500D01*
X130822351Y-87300500D01*
X130822352Y-87300500D01*
X131024534Y-87268477D01*
X131219219Y-87205220D01*
X131401610Y-87112287D01*
X131494590Y-87044732D01*
X131567213Y-86991971D01*
X131567215Y-86991968D01*
X131567219Y-86991966D01*
X131711966Y-86847219D01*
X131711968Y-86847215D01*
X131711971Y-86847213D01*
X131764732Y-86774590D01*
X131832287Y-86681610D01*
X131925220Y-86499219D01*
X131988477Y-86304534D01*
X132020500Y-86102352D01*
X132020500Y-85897648D01*
X131988477Y-85695465D01*
X131925218Y-85500776D01*
X131867638Y-85387770D01*
X131832287Y-85318390D01*
X131824556Y-85307749D01*
X131711971Y-85152786D01*
X131567213Y-85008028D01*
X131401614Y-84887715D01*
X131395006Y-84884348D01*
X131308917Y-84840483D01*
X131258123Y-84792511D01*
X131241328Y-84724690D01*
X131263865Y-84658555D01*
X131308917Y-84619516D01*
X131401610Y-84572287D01*
X131422770Y-84556913D01*
X131567213Y-84451971D01*
X131567215Y-84451968D01*
X131567219Y-84451966D01*
X131711966Y-84307219D01*
X131711968Y-84307215D01*
X131711971Y-84307213D01*
X131764732Y-84234590D01*
X131832287Y-84141610D01*
X131925220Y-83959219D01*
X131988477Y-83764534D01*
X132020500Y-83562352D01*
X132020500Y-83357648D01*
X131997098Y-83209895D01*
X132510000Y-83209895D01*
X137162057Y-86822663D01*
X137202931Y-86879327D01*
X137210000Y-86920597D01*
X137210000Y-87870000D01*
X142010000Y-87870000D01*
X142010000Y-86920597D01*
X142029685Y-86853558D01*
X142057941Y-86822664D01*
X146710000Y-83209895D01*
X146710000Y-78870000D01*
X132510000Y-78870000D01*
X132510000Y-83209895D01*
X131997098Y-83209895D01*
X131988477Y-83155466D01*
X131925220Y-82960781D01*
X131925218Y-82960778D01*
X131925218Y-82960776D01*
X131891503Y-82894607D01*
X131832287Y-82778390D01*
X131824556Y-82767749D01*
X131711971Y-82612786D01*
X131567217Y-82468032D01*
X131490415Y-82412232D01*
X131447750Y-82356902D01*
X131441771Y-82287288D01*
X131474377Y-82225494D01*
X131532640Y-82191765D01*
X131553039Y-82186559D01*
X131609584Y-82163136D01*
X131609584Y-82163135D01*
X130849410Y-81402962D01*
X130912993Y-81385925D01*
X131027007Y-81320099D01*
X131120099Y-81227007D01*
X131185925Y-81112993D01*
X131202962Y-81049411D01*
X131963135Y-81809584D01*
X131963136Y-81809584D01*
X131986552Y-81753053D01*
X132004544Y-81702053D01*
X132024999Y-81559780D01*
X132025000Y-81559779D01*
X132025000Y-80280214D01*
X132022106Y-80226237D01*
X132022106Y-80226235D01*
X131986561Y-80086969D01*
X131986559Y-80086962D01*
X131963135Y-80030414D01*
X131202962Y-80790588D01*
X131185925Y-80727007D01*
X131120099Y-80612993D01*
X131027007Y-80519901D01*
X130912993Y-80454075D01*
X130849410Y-80437037D01*
X131609584Y-79676862D01*
X131553059Y-79653449D01*
X131553048Y-79653445D01*
X131524374Y-79643329D01*
X131467703Y-79602462D01*
X131442122Y-79537443D01*
X131455754Y-79468916D01*
X131492745Y-79426074D01*
X131567215Y-79371969D01*
X131567215Y-79371968D01*
X131567219Y-79371966D01*
X131711966Y-79227219D01*
X131711968Y-79227215D01*
X131711971Y-79227213D01*
X131764732Y-79154590D01*
X131832287Y-79061610D01*
X131925220Y-78879219D01*
X131988477Y-78684534D01*
X132020500Y-78482352D01*
X132020500Y-78277648D01*
X131988477Y-78075466D01*
X131925220Y-77880781D01*
X131925218Y-77880778D01*
X131925218Y-77880776D01*
X131891503Y-77814607D01*
X131832287Y-77698390D01*
X131824556Y-77687749D01*
X131711971Y-77532786D01*
X131567213Y-77388028D01*
X131401614Y-77267715D01*
X131395006Y-77264348D01*
X131308917Y-77220483D01*
X131258123Y-77172511D01*
X131241328Y-77104690D01*
X131263865Y-77038555D01*
X131308917Y-76999516D01*
X131401610Y-76952287D01*
X131422770Y-76936913D01*
X131567213Y-76831971D01*
X131567215Y-76831968D01*
X131567219Y-76831966D01*
X131711966Y-76687219D01*
X131711968Y-76687215D01*
X131711971Y-76687213D01*
X131764732Y-76614590D01*
X131832287Y-76521610D01*
X131925220Y-76339219D01*
X131988477Y-76144534D01*
X132020500Y-75942352D01*
X132020500Y-75737648D01*
X131988477Y-75535466D01*
X131983366Y-75519737D01*
X131925218Y-75340776D01*
X131884207Y-75260288D01*
X131832287Y-75158390D01*
X131814622Y-75134076D01*
X131711971Y-74992786D01*
X131567213Y-74848028D01*
X131401614Y-74727715D01*
X131395006Y-74724348D01*
X131308917Y-74680483D01*
X131258123Y-74632511D01*
X131241328Y-74564690D01*
X131263865Y-74498555D01*
X131308917Y-74459516D01*
X131401610Y-74412287D01*
X131461366Y-74368872D01*
X131567213Y-74291971D01*
X131567215Y-74291968D01*
X131567219Y-74291966D01*
X131711966Y-74147219D01*
X131711968Y-74147215D01*
X131711971Y-74147213D01*
X131797973Y-74028839D01*
X131832287Y-73981610D01*
X131925220Y-73799219D01*
X131988477Y-73604534D01*
X132020500Y-73402352D01*
X132020500Y-73197648D01*
X131988477Y-72995466D01*
X131925220Y-72800781D01*
X131925218Y-72800778D01*
X131925218Y-72800776D01*
X131874867Y-72701958D01*
X131832287Y-72618390D01*
X131820090Y-72601602D01*
X131711971Y-72452786D01*
X131567213Y-72308028D01*
X131401614Y-72187715D01*
X131395006Y-72184348D01*
X131308917Y-72140483D01*
X131258123Y-72092511D01*
X131241328Y-72024690D01*
X131263865Y-71958555D01*
X131308917Y-71919516D01*
X131401610Y-71872287D01*
X131422770Y-71856913D01*
X131567213Y-71751971D01*
X131567215Y-71751968D01*
X131567219Y-71751966D01*
X131711966Y-71607219D01*
X131711968Y-71607215D01*
X131711971Y-71607213D01*
X131784291Y-71507671D01*
X131832287Y-71441610D01*
X131925220Y-71259219D01*
X131988477Y-71064534D01*
X132020500Y-70862352D01*
X132020500Y-70657648D01*
X131988477Y-70455466D01*
X131925220Y-70260781D01*
X131925218Y-70260778D01*
X131925218Y-70260776D01*
X131877072Y-70166286D01*
X131832287Y-70078390D01*
X131824556Y-70067749D01*
X131711971Y-69912786D01*
X131567217Y-69768032D01*
X131490415Y-69712232D01*
X131447750Y-69656902D01*
X131441771Y-69587288D01*
X131474377Y-69525494D01*
X131532640Y-69491765D01*
X131553039Y-69486559D01*
X131609584Y-69463136D01*
X131609584Y-69463135D01*
X130849410Y-68702962D01*
X130912993Y-68685925D01*
X131027007Y-68620099D01*
X131120099Y-68527007D01*
X131185925Y-68412993D01*
X131202962Y-68349411D01*
X131963135Y-69109584D01*
X131963136Y-69109584D01*
X131986552Y-69053053D01*
X132004544Y-69002053D01*
X132024999Y-68859780D01*
X132025000Y-68859779D01*
X132025000Y-67580224D01*
X132024999Y-67580204D01*
X132022106Y-67526237D01*
X132022106Y-67526235D01*
X131986561Y-67386969D01*
X131986559Y-67386962D01*
X131963135Y-67330414D01*
X131202962Y-68090588D01*
X131185925Y-68027007D01*
X131120099Y-67912993D01*
X131027007Y-67819901D01*
X130912993Y-67754075D01*
X130849410Y-67737037D01*
X131609584Y-66976862D01*
X131553059Y-66953449D01*
X131553048Y-66953445D01*
X131524374Y-66943329D01*
X131467703Y-66902462D01*
X131442122Y-66837443D01*
X131455754Y-66768916D01*
X131492745Y-66726074D01*
X131567215Y-66671969D01*
X131567215Y-66671968D01*
X131567219Y-66671966D01*
X131711966Y-66527219D01*
X131711968Y-66527215D01*
X131711971Y-66527213D01*
X131764732Y-66454590D01*
X131832287Y-66361610D01*
X131925220Y-66179219D01*
X131988477Y-65984534D01*
X132020500Y-65782352D01*
X132020500Y-65577648D01*
X132005076Y-65480264D01*
X131988477Y-65375465D01*
X131925218Y-65180776D01*
X131877072Y-65086286D01*
X131832287Y-64998390D01*
X131785995Y-64934674D01*
X131711971Y-64832786D01*
X131567213Y-64688028D01*
X131401614Y-64567715D01*
X131395006Y-64564348D01*
X131308917Y-64520483D01*
X131258123Y-64472511D01*
X131241328Y-64404690D01*
X131263865Y-64338555D01*
X131308917Y-64299516D01*
X131401610Y-64252287D01*
X131474691Y-64199191D01*
X131567213Y-64131971D01*
X131567215Y-64131968D01*
X131567219Y-64131966D01*
X131711966Y-63987219D01*
X131711968Y-63987215D01*
X131711971Y-63987213D01*
X131764732Y-63914590D01*
X131832287Y-63821610D01*
X131925220Y-63639219D01*
X131988477Y-63444534D01*
X132020500Y-63242352D01*
X132020500Y-63037648D01*
X131988477Y-62835466D01*
X131925220Y-62640781D01*
X131925218Y-62640778D01*
X131925218Y-62640776D01*
X131877072Y-62546286D01*
X131832287Y-62458390D01*
X131824556Y-62447749D01*
X131711971Y-62292786D01*
X131567213Y-62148028D01*
X131401614Y-62027715D01*
X131395006Y-62024348D01*
X131308917Y-61980483D01*
X131258123Y-61932511D01*
X131241328Y-61864690D01*
X131263865Y-61798555D01*
X131308917Y-61759516D01*
X131401610Y-61712287D01*
X131422770Y-61696913D01*
X131567213Y-61591971D01*
X131567215Y-61591968D01*
X131567219Y-61591966D01*
X131711966Y-61447219D01*
X131711968Y-61447215D01*
X131711971Y-61447213D01*
X131764732Y-61374590D01*
X131832287Y-61281610D01*
X131925220Y-61099219D01*
X131988477Y-60904534D01*
X132020500Y-60702352D01*
X132020500Y-60497648D01*
X131988477Y-60295466D01*
X131925220Y-60100781D01*
X131925218Y-60100778D01*
X131925218Y-60100776D01*
X131877052Y-60006246D01*
X131832287Y-59918390D01*
X131818925Y-59899999D01*
X131711971Y-59752786D01*
X131567213Y-59608028D01*
X131401614Y-59487715D01*
X131395006Y-59484348D01*
X131308917Y-59440483D01*
X131258123Y-59392511D01*
X131241328Y-59324690D01*
X131263865Y-59258555D01*
X131308917Y-59219516D01*
X131401610Y-59172287D01*
X131448414Y-59138282D01*
X131567213Y-59051971D01*
X131567215Y-59051968D01*
X131567219Y-59051966D01*
X131711966Y-58907219D01*
X131711968Y-58907215D01*
X131711971Y-58907213D01*
X131800960Y-58784728D01*
X131832287Y-58741610D01*
X131925220Y-58559219D01*
X131988477Y-58364534D01*
X132020500Y-58162352D01*
X132020500Y-57957648D01*
X131988477Y-57755466D01*
X131925220Y-57560781D01*
X131925218Y-57560778D01*
X131925218Y-57560776D01*
X131891503Y-57494607D01*
X131832287Y-57378390D01*
X131824556Y-57367749D01*
X131711971Y-57212786D01*
X131567217Y-57068032D01*
X131490415Y-57012232D01*
X131447750Y-56956902D01*
X131441771Y-56887288D01*
X131474377Y-56825494D01*
X131532640Y-56791765D01*
X131553039Y-56786559D01*
X131609584Y-56763136D01*
X131609584Y-56763135D01*
X130849410Y-56002962D01*
X130912993Y-55985925D01*
X131027007Y-55920099D01*
X131120099Y-55827007D01*
X131185925Y-55712993D01*
X131202962Y-55649411D01*
X131963135Y-56409584D01*
X131963136Y-56409584D01*
X131986552Y-56353053D01*
X132004544Y-56302053D01*
X132024999Y-56159780D01*
X132025000Y-56159779D01*
X132025000Y-54880224D01*
X132024999Y-54880204D01*
X132022106Y-54826237D01*
X132022106Y-54826235D01*
X131986561Y-54686969D01*
X131986559Y-54686962D01*
X131963135Y-54630414D01*
X131202962Y-55390588D01*
X131185925Y-55327007D01*
X131120099Y-55212993D01*
X131027007Y-55119901D01*
X130912993Y-55054075D01*
X130849410Y-55037037D01*
X131609584Y-54276862D01*
X131553059Y-54253449D01*
X131553048Y-54253445D01*
X131524374Y-54243329D01*
X131467703Y-54202462D01*
X131442122Y-54137443D01*
X131455754Y-54068916D01*
X131492745Y-54026074D01*
X131567215Y-53971969D01*
X131567215Y-53971968D01*
X131567219Y-53971966D01*
X131711966Y-53827219D01*
X131711968Y-53827215D01*
X131711971Y-53827213D01*
X131764732Y-53754590D01*
X131832287Y-53661610D01*
X131925220Y-53479219D01*
X131988477Y-53284534D01*
X132020500Y-53082352D01*
X132020500Y-52877648D01*
X131988477Y-52675466D01*
X131925220Y-52480781D01*
X131925218Y-52480778D01*
X131925218Y-52480776D01*
X131891503Y-52414607D01*
X131832287Y-52298390D01*
X131824556Y-52287749D01*
X131711971Y-52132786D01*
X131567213Y-51988028D01*
X131401614Y-51867715D01*
X131395006Y-51864348D01*
X131308917Y-51820483D01*
X131258123Y-51772511D01*
X131241328Y-51704690D01*
X131263865Y-51638555D01*
X131308917Y-51599516D01*
X131401610Y-51552287D01*
X131422770Y-51536913D01*
X131567213Y-51431971D01*
X131567215Y-51431968D01*
X131567219Y-51431966D01*
X131711966Y-51287219D01*
X131711968Y-51287215D01*
X131711971Y-51287213D01*
X131764732Y-51214590D01*
X131832287Y-51121610D01*
X131925220Y-50939219D01*
X131988477Y-50744534D01*
X132020500Y-50542352D01*
X132020500Y-50337648D01*
X131988477Y-50135466D01*
X131925220Y-49940781D01*
X131925218Y-49940778D01*
X131925218Y-49940776D01*
X131891503Y-49874607D01*
X131832287Y-49758390D01*
X131824556Y-49747749D01*
X131711971Y-49592786D01*
X131567213Y-49448028D01*
X131401614Y-49327715D01*
X131395006Y-49324348D01*
X131308917Y-49280483D01*
X131258123Y-49232511D01*
X131241328Y-49164690D01*
X131263865Y-49098555D01*
X131308917Y-49059516D01*
X131401610Y-49012287D01*
X131422770Y-48996913D01*
X131567213Y-48891971D01*
X131567215Y-48891968D01*
X131567219Y-48891966D01*
X131711966Y-48747219D01*
X131711968Y-48747215D01*
X131711971Y-48747213D01*
X131782236Y-48650500D01*
X131832287Y-48581610D01*
X131925220Y-48399219D01*
X131988477Y-48204534D01*
X132020500Y-48002352D01*
X132020500Y-47797648D01*
X131988477Y-47595466D01*
X131925220Y-47400781D01*
X131925218Y-47400778D01*
X131925218Y-47400776D01*
X131882556Y-47317048D01*
X131832287Y-47218390D01*
X131824556Y-47207749D01*
X131711971Y-47052786D01*
X131567213Y-46908028D01*
X131401614Y-46787715D01*
X131329743Y-46751095D01*
X131308917Y-46740483D01*
X131258123Y-46692511D01*
X131241328Y-46624690D01*
X131263865Y-46558555D01*
X131308917Y-46519516D01*
X131401610Y-46472287D01*
X131422770Y-46456913D01*
X131567213Y-46351971D01*
X131567215Y-46351968D01*
X131567219Y-46351966D01*
X131711966Y-46207219D01*
X131711968Y-46207215D01*
X131711971Y-46207213D01*
X131764732Y-46134590D01*
X131832287Y-46041610D01*
X131925220Y-45859219D01*
X131988477Y-45664534D01*
X132020500Y-45462352D01*
X132020500Y-45257648D01*
X131988477Y-45055465D01*
X131925218Y-44860776D01*
X131890398Y-44792439D01*
X131832287Y-44678390D01*
X131824556Y-44667749D01*
X131711971Y-44512786D01*
X131567217Y-44368032D01*
X131490415Y-44312232D01*
X131447750Y-44256902D01*
X131441771Y-44187288D01*
X131474377Y-44125494D01*
X131532640Y-44091765D01*
X131553039Y-44086559D01*
X131609584Y-44063136D01*
X131609584Y-44063135D01*
X130849410Y-43302962D01*
X130912993Y-43285925D01*
X131027007Y-43220099D01*
X131120099Y-43127007D01*
X131185925Y-43012993D01*
X131202962Y-42949411D01*
X131963135Y-43709584D01*
X131963136Y-43709584D01*
X131986552Y-43653053D01*
X132004544Y-43602053D01*
X132024999Y-43459780D01*
X132025000Y-43459779D01*
X132025000Y-42180224D01*
X132024999Y-42180204D01*
X132022106Y-42126237D01*
X132022106Y-42126235D01*
X131986561Y-41986969D01*
X131986559Y-41986962D01*
X131963135Y-41930414D01*
X131202962Y-42690588D01*
X131185925Y-42627007D01*
X131120099Y-42512993D01*
X131027007Y-42419901D01*
X130912993Y-42354075D01*
X130849410Y-42337037D01*
X131609584Y-41576862D01*
X131553059Y-41553449D01*
X131553048Y-41553445D01*
X131524374Y-41543329D01*
X131467703Y-41502462D01*
X131442122Y-41437443D01*
X131455754Y-41368916D01*
X131492745Y-41326074D01*
X131567215Y-41271969D01*
X131567215Y-41271968D01*
X131567219Y-41271966D01*
X131711966Y-41127219D01*
X131711968Y-41127215D01*
X131711971Y-41127213D01*
X131764732Y-41054590D01*
X131832287Y-40961610D01*
X131925220Y-40779219D01*
X131988477Y-40584534D01*
X132020500Y-40382352D01*
X132020500Y-40177648D01*
X131988477Y-39975466D01*
X131925220Y-39780781D01*
X131925218Y-39780778D01*
X131925218Y-39780776D01*
X131891503Y-39714607D01*
X131832287Y-39598390D01*
X131824556Y-39587749D01*
X131711971Y-39432786D01*
X131567217Y-39288032D01*
X131567212Y-39288028D01*
X131486440Y-39229344D01*
X131443774Y-39174015D01*
X131437795Y-39104401D01*
X131470400Y-39042606D01*
X131522433Y-39010641D01*
X131609606Y-38983478D01*
X131755185Y-38895472D01*
X131875472Y-38775185D01*
X131963478Y-38629606D01*
X132014086Y-38467196D01*
X132020500Y-38396616D01*
X132020500Y-37083384D01*
X132014086Y-37012804D01*
X131963478Y-36850394D01*
X131875472Y-36704815D01*
X131875469Y-36704810D01*
X131872460Y-36700970D01*
X131846613Y-36636057D01*
X131859963Y-36567475D01*
X131908273Y-36516998D01*
X131970073Y-36500500D01*
X147611849Y-36500500D01*
X147678888Y-36520185D01*
X147724643Y-36572989D01*
X147734587Y-36642147D01*
X147705562Y-36705703D01*
X147684734Y-36724818D01*
X147652786Y-36748028D01*
X147508028Y-36892786D01*
X147387715Y-37058386D01*
X147294781Y-37240776D01*
X147231522Y-37435465D01*
X147199500Y-37637648D01*
X147199500Y-37842351D01*
X147231522Y-38044534D01*
X147294781Y-38239223D01*
X147358691Y-38364653D01*
X147374976Y-38396613D01*
X147387715Y-38421613D01*
X147508028Y-38587213D01*
X147652786Y-38731971D01*
X147807749Y-38844556D01*
X147818390Y-38852287D01*
X147903139Y-38895469D01*
X147911080Y-38899515D01*
X147961876Y-38947490D01*
X147978671Y-39015311D01*
X147956134Y-39081446D01*
X147911080Y-39120485D01*
X147818386Y-39167715D01*
X147652786Y-39288028D01*
X147508028Y-39432786D01*
X147387715Y-39598386D01*
X147294781Y-39780776D01*
X147231522Y-39975465D01*
X147199500Y-40177648D01*
X147199500Y-40382351D01*
X147231522Y-40584534D01*
X147294781Y-40779223D01*
X147387715Y-40961613D01*
X147508028Y-41127213D01*
X147652782Y-41271967D01*
X147652787Y-41271971D01*
X147729583Y-41327767D01*
X147772249Y-41383097D01*
X147778228Y-41452710D01*
X147745622Y-41514505D01*
X147687365Y-41548233D01*
X147666973Y-41553437D01*
X147666962Y-41553441D01*
X147610415Y-41576863D01*
X148370589Y-42337037D01*
X148307007Y-42354075D01*
X148192993Y-42419901D01*
X148099901Y-42512993D01*
X148034075Y-42627007D01*
X148017037Y-42690589D01*
X147256863Y-41930415D01*
X147256862Y-41930415D01*
X147233446Y-41986947D01*
X147233431Y-41986987D01*
X147215457Y-42037939D01*
X147215455Y-42037946D01*
X147195000Y-42180219D01*
X147195000Y-43459785D01*
X147197893Y-43513762D01*
X147197893Y-43513764D01*
X147233438Y-43653030D01*
X147233442Y-43653043D01*
X147256862Y-43709584D01*
X148017037Y-42949410D01*
X148034075Y-43012993D01*
X148099901Y-43127007D01*
X148192993Y-43220099D01*
X148307007Y-43285925D01*
X148370589Y-43302962D01*
X147610414Y-44063135D01*
X147666960Y-44086557D01*
X147666986Y-44086567D01*
X147695621Y-44096669D01*
X147752294Y-44137534D01*
X147777876Y-44202552D01*
X147764246Y-44271080D01*
X147727256Y-44313924D01*
X147652782Y-44368032D01*
X147508028Y-44512786D01*
X147387715Y-44678386D01*
X147294781Y-44860776D01*
X147231522Y-45055465D01*
X147199500Y-45257648D01*
X147199500Y-45462351D01*
X147231522Y-45664534D01*
X147294781Y-45859223D01*
X147387715Y-46041613D01*
X147508028Y-46207213D01*
X147652786Y-46351971D01*
X147807749Y-46464556D01*
X147818390Y-46472287D01*
X147909840Y-46518883D01*
X147911080Y-46519515D01*
X147961876Y-46567490D01*
X147978671Y-46635311D01*
X147956134Y-46701446D01*
X147911080Y-46740485D01*
X147818386Y-46787715D01*
X147652786Y-46908028D01*
X147508028Y-47052786D01*
X147387715Y-47218386D01*
X147294781Y-47400776D01*
X147231522Y-47595465D01*
X147199500Y-47797648D01*
X147199500Y-48002351D01*
X147231522Y-48204534D01*
X147294781Y-48399223D01*
X147387715Y-48581613D01*
X147508028Y-48747213D01*
X147652786Y-48891971D01*
X147800790Y-48999500D01*
X147818390Y-49012287D01*
X147909840Y-49058883D01*
X147911080Y-49059515D01*
X147961876Y-49107490D01*
X147978671Y-49175311D01*
X147956134Y-49241446D01*
X147911080Y-49280485D01*
X147818386Y-49327715D01*
X147652786Y-49448028D01*
X147508028Y-49592786D01*
X147387715Y-49758386D01*
X147294781Y-49940776D01*
X147231522Y-50135465D01*
X147199500Y-50337648D01*
X147199500Y-50542351D01*
X147231522Y-50744534D01*
X147294781Y-50939223D01*
X147387715Y-51121613D01*
X147508028Y-51287213D01*
X147652786Y-51431971D01*
X147807749Y-51544556D01*
X147818390Y-51552287D01*
X147909840Y-51598883D01*
X147911080Y-51599515D01*
X147961876Y-51647490D01*
X147978671Y-51715311D01*
X147956134Y-51781446D01*
X147911080Y-51820485D01*
X147818386Y-51867715D01*
X147652786Y-51988028D01*
X147508028Y-52132786D01*
X147387715Y-52298386D01*
X147294781Y-52480776D01*
X147231522Y-52675465D01*
X147199500Y-52877648D01*
X147199500Y-53082351D01*
X147231522Y-53284534D01*
X147294781Y-53479223D01*
X147387715Y-53661613D01*
X147508028Y-53827213D01*
X147652782Y-53971967D01*
X147652787Y-53971971D01*
X147729583Y-54027767D01*
X147772249Y-54083097D01*
X147778228Y-54152710D01*
X147745622Y-54214505D01*
X147687365Y-54248233D01*
X147666973Y-54253437D01*
X147666962Y-54253441D01*
X147610415Y-54276863D01*
X148370589Y-55037037D01*
X148307007Y-55054075D01*
X148192993Y-55119901D01*
X148099901Y-55212993D01*
X148034075Y-55327007D01*
X148017037Y-55390589D01*
X147256863Y-54630415D01*
X147256862Y-54630415D01*
X147233446Y-54686947D01*
X147233431Y-54686987D01*
X147215457Y-54737939D01*
X147215455Y-54737946D01*
X147195000Y-54880219D01*
X147195000Y-56159785D01*
X147197893Y-56213762D01*
X147197893Y-56213764D01*
X147233438Y-56353030D01*
X147233442Y-56353043D01*
X147256862Y-56409584D01*
X148017037Y-55649410D01*
X148034075Y-55712993D01*
X148099901Y-55827007D01*
X148192993Y-55920099D01*
X148307007Y-55985925D01*
X148370589Y-56002962D01*
X147610414Y-56763135D01*
X147666960Y-56786557D01*
X147666986Y-56786567D01*
X147695621Y-56796669D01*
X147752294Y-56837534D01*
X147777876Y-56902552D01*
X147764246Y-56971080D01*
X147727256Y-57013924D01*
X147652782Y-57068032D01*
X147508028Y-57212786D01*
X147387715Y-57378386D01*
X147294781Y-57560776D01*
X147231522Y-57755465D01*
X147199500Y-57957648D01*
X147199500Y-58162351D01*
X147231522Y-58364534D01*
X147294781Y-58559223D01*
X147387715Y-58741613D01*
X147508028Y-58907213D01*
X147652786Y-59051971D01*
X147807749Y-59164556D01*
X147818390Y-59172287D01*
X147909840Y-59218883D01*
X147911080Y-59219515D01*
X147961876Y-59267490D01*
X147978671Y-59335311D01*
X147956134Y-59401446D01*
X147911080Y-59440485D01*
X147818386Y-59487715D01*
X147652786Y-59608028D01*
X147508028Y-59752786D01*
X147387715Y-59918386D01*
X147294781Y-60100776D01*
X147231522Y-60295465D01*
X147199500Y-60497648D01*
X147199500Y-60702351D01*
X147231522Y-60904534D01*
X147294781Y-61099223D01*
X147387715Y-61281613D01*
X147508028Y-61447213D01*
X147652786Y-61591971D01*
X147807749Y-61704556D01*
X147818390Y-61712287D01*
X147909840Y-61758883D01*
X147911080Y-61759515D01*
X147961876Y-61807490D01*
X147978671Y-61875311D01*
X147956134Y-61941446D01*
X147911080Y-61980485D01*
X147818386Y-62027715D01*
X147652786Y-62148028D01*
X147508028Y-62292786D01*
X147387715Y-62458386D01*
X147294781Y-62640776D01*
X147231522Y-62835465D01*
X147199500Y-63037648D01*
X147199500Y-63242351D01*
X147231522Y-63444534D01*
X147294781Y-63639223D01*
X147333551Y-63715312D01*
X147387140Y-63820486D01*
X147387715Y-63821613D01*
X147508028Y-63987213D01*
X147652786Y-64131971D01*
X147807749Y-64244556D01*
X147818390Y-64252287D01*
X147886267Y-64286872D01*
X147911080Y-64299515D01*
X147961876Y-64347490D01*
X147978671Y-64415311D01*
X147956134Y-64481446D01*
X147911080Y-64520485D01*
X147818386Y-64567715D01*
X147652786Y-64688028D01*
X147652784Y-64688031D01*
X147508032Y-64832782D01*
X147508028Y-64832786D01*
X147387715Y-64998386D01*
X147294781Y-65180776D01*
X147231522Y-65375465D01*
X147199500Y-65577648D01*
X147199500Y-65782351D01*
X147231522Y-65984534D01*
X147294781Y-66179223D01*
X147333551Y-66255312D01*
X147387139Y-66360484D01*
X147387715Y-66361613D01*
X147508028Y-66527213D01*
X147652782Y-66671967D01*
X147652787Y-66671971D01*
X147729583Y-66727767D01*
X147772249Y-66783097D01*
X147778228Y-66852710D01*
X147745622Y-66914505D01*
X147687365Y-66948233D01*
X147666973Y-66953437D01*
X147666962Y-66953441D01*
X147610415Y-66976863D01*
X148370589Y-67737037D01*
X148307007Y-67754075D01*
X148192993Y-67819901D01*
X148099901Y-67912993D01*
X148034075Y-68027007D01*
X148017037Y-68090589D01*
X147256863Y-67330415D01*
X147256862Y-67330415D01*
X147233446Y-67386947D01*
X147233431Y-67386987D01*
X147215457Y-67437939D01*
X147215455Y-67437946D01*
X147195000Y-67580219D01*
X147195000Y-68859785D01*
X147197893Y-68913762D01*
X147197893Y-68913764D01*
X147233438Y-69053030D01*
X147233442Y-69053043D01*
X147256862Y-69109584D01*
X148017037Y-68349410D01*
X148034075Y-68412993D01*
X148099901Y-68527007D01*
X148192993Y-68620099D01*
X148307007Y-68685925D01*
X148370589Y-68702962D01*
X147610414Y-69463135D01*
X147666960Y-69486557D01*
X147666986Y-69486567D01*
X147695621Y-69496669D01*
X147752294Y-69537534D01*
X147777876Y-69602552D01*
X147764246Y-69671080D01*
X147727256Y-69713924D01*
X147652782Y-69768032D01*
X147508028Y-69912786D01*
X147387715Y-70078386D01*
X147294781Y-70260776D01*
X147231522Y-70455465D01*
X147199500Y-70657648D01*
X147199500Y-70862351D01*
X147231522Y-71064534D01*
X147294781Y-71259223D01*
X147387715Y-71441613D01*
X147508028Y-71607213D01*
X147652786Y-71751971D01*
X147807749Y-71864556D01*
X147818390Y-71872287D01*
X147909840Y-71918883D01*
X147911080Y-71919515D01*
X147961876Y-71967490D01*
X147978671Y-72035311D01*
X147956134Y-72101446D01*
X147911080Y-72140485D01*
X147818386Y-72187715D01*
X147652786Y-72308028D01*
X147508028Y-72452786D01*
X147387715Y-72618386D01*
X147294781Y-72800776D01*
X147231522Y-72995465D01*
X147199500Y-73197648D01*
X147199500Y-73402351D01*
X147231522Y-73604534D01*
X147294781Y-73799223D01*
X147342968Y-73893793D01*
X147387027Y-73980264D01*
X147387715Y-73981613D01*
X147508028Y-74147213D01*
X147652786Y-74291971D01*
X147804275Y-74402032D01*
X147818390Y-74412287D01*
X147909840Y-74458883D01*
X147911080Y-74459515D01*
X147961876Y-74507490D01*
X147978671Y-74575311D01*
X147956134Y-74641446D01*
X147911080Y-74680485D01*
X147818386Y-74727715D01*
X147652786Y-74848028D01*
X147508028Y-74992786D01*
X147387715Y-75158386D01*
X147294781Y-75340776D01*
X147231522Y-75535465D01*
X147199500Y-75737648D01*
X147199500Y-75942351D01*
X147231522Y-76144534D01*
X147294781Y-76339223D01*
X147324933Y-76398398D01*
X147376956Y-76500499D01*
X147387715Y-76521613D01*
X147508028Y-76687213D01*
X147652786Y-76831971D01*
X147807749Y-76944556D01*
X147818390Y-76952287D01*
X147909840Y-76998883D01*
X147911080Y-76999515D01*
X147961876Y-77047490D01*
X147978671Y-77115311D01*
X147956134Y-77181446D01*
X147911080Y-77220485D01*
X147818386Y-77267715D01*
X147652786Y-77388028D01*
X147508028Y-77532786D01*
X147387715Y-77698386D01*
X147294781Y-77880776D01*
X147231522Y-78075465D01*
X147199500Y-78277648D01*
X147199500Y-78482351D01*
X147231522Y-78684534D01*
X147294781Y-78879223D01*
X147387715Y-79061613D01*
X147508028Y-79227213D01*
X147652782Y-79371967D01*
X147652787Y-79371971D01*
X147729583Y-79427767D01*
X147772249Y-79483097D01*
X147778228Y-79552710D01*
X147745622Y-79614505D01*
X147687365Y-79648233D01*
X147666973Y-79653437D01*
X147666962Y-79653441D01*
X147610415Y-79676863D01*
X148370589Y-80437037D01*
X148307007Y-80454075D01*
X148192993Y-80519901D01*
X148099901Y-80612993D01*
X148034075Y-80727007D01*
X148017037Y-80790589D01*
X147256863Y-80030415D01*
X147256862Y-80030415D01*
X147233446Y-80086947D01*
X147233431Y-80086987D01*
X147215457Y-80137939D01*
X147215455Y-80137946D01*
X147195000Y-80280219D01*
X147195000Y-81559785D01*
X147197893Y-81613762D01*
X147197893Y-81613764D01*
X147233438Y-81753030D01*
X147233442Y-81753043D01*
X147256862Y-81809584D01*
X148017037Y-81049410D01*
X148034075Y-81112993D01*
X148099901Y-81227007D01*
X148192993Y-81320099D01*
X148307007Y-81385925D01*
X148370589Y-81402962D01*
X147610414Y-82163135D01*
X147666960Y-82186557D01*
X147666986Y-82186567D01*
X147695621Y-82196669D01*
X147752294Y-82237534D01*
X147777876Y-82302552D01*
X147764246Y-82371080D01*
X147727256Y-82413924D01*
X147652782Y-82468032D01*
X147508028Y-82612786D01*
X147387715Y-82778386D01*
X147294781Y-82960776D01*
X147231522Y-83155465D01*
X147199500Y-83357648D01*
X147199500Y-83562351D01*
X147231522Y-83764534D01*
X147294781Y-83959223D01*
X147387715Y-84141613D01*
X147508028Y-84307213D01*
X147652786Y-84451971D01*
X147807749Y-84564556D01*
X147818390Y-84572287D01*
X147909840Y-84618883D01*
X147911080Y-84619515D01*
X147961876Y-84667490D01*
X147978671Y-84735311D01*
X147956134Y-84801446D01*
X147911080Y-84840485D01*
X147818386Y-84887715D01*
X147652786Y-85008028D01*
X147508028Y-85152786D01*
X147387715Y-85318386D01*
X147294781Y-85500776D01*
X147231522Y-85695465D01*
X147199500Y-85897648D01*
X147199500Y-86102351D01*
X147231522Y-86304534D01*
X147294781Y-86499223D01*
X147387715Y-86681613D01*
X147508028Y-86847213D01*
X147652786Y-86991971D01*
X147807749Y-87104556D01*
X147818390Y-87112287D01*
X147934607Y-87171503D01*
X148000776Y-87205218D01*
X148000778Y-87205218D01*
X148000781Y-87205220D01*
X148105137Y-87239127D01*
X148195465Y-87268477D01*
X148296557Y-87284488D01*
X148397648Y-87300500D01*
X148397649Y-87300500D01*
X148602351Y-87300500D01*
X148602352Y-87300500D01*
X148804534Y-87268477D01*
X148999219Y-87205220D01*
X149181610Y-87112287D01*
X149274590Y-87044732D01*
X149347213Y-86991971D01*
X149347215Y-86991968D01*
X149347219Y-86991966D01*
X149491966Y-86847219D01*
X149491968Y-86847215D01*
X149491971Y-86847213D01*
X149544732Y-86774590D01*
X149612287Y-86681610D01*
X149705220Y-86499219D01*
X149768477Y-86304534D01*
X149800500Y-86102352D01*
X149800500Y-85897648D01*
X149768477Y-85695465D01*
X149705218Y-85500776D01*
X149647638Y-85387770D01*
X149612287Y-85318390D01*
X149604556Y-85307749D01*
X149491971Y-85152786D01*
X149347213Y-85008028D01*
X149181614Y-84887715D01*
X149175006Y-84884348D01*
X149088917Y-84840483D01*
X149038123Y-84792511D01*
X149021328Y-84724690D01*
X149043865Y-84658555D01*
X149088917Y-84619516D01*
X149181610Y-84572287D01*
X149202770Y-84556913D01*
X149347213Y-84451971D01*
X149347215Y-84451968D01*
X149347219Y-84451966D01*
X149491966Y-84307219D01*
X149491968Y-84307215D01*
X149491971Y-84307213D01*
X149544732Y-84234590D01*
X149612287Y-84141610D01*
X149705220Y-83959219D01*
X149768477Y-83764534D01*
X149800500Y-83562352D01*
X149800500Y-83357648D01*
X149768477Y-83155466D01*
X149705220Y-82960781D01*
X149705218Y-82960778D01*
X149705218Y-82960776D01*
X149671503Y-82894607D01*
X149612287Y-82778390D01*
X149604556Y-82767749D01*
X149491971Y-82612786D01*
X149347213Y-82468028D01*
X149181614Y-82347715D01*
X149173410Y-82343535D01*
X149095703Y-82303941D01*
X149044908Y-82255968D01*
X149028113Y-82188147D01*
X149050650Y-82122012D01*
X149093546Y-82084099D01*
X149159503Y-82048843D01*
X149159515Y-82048837D01*
X149228913Y-82002465D01*
X148629410Y-81402962D01*
X148692993Y-81385925D01*
X148807007Y-81320099D01*
X148900099Y-81227007D01*
X148965925Y-81112993D01*
X148982962Y-81049410D01*
X149582465Y-81648913D01*
X149628837Y-81579515D01*
X149628838Y-81579511D01*
X149675509Y-81492198D01*
X149735814Y-81346612D01*
X149764555Y-81251864D01*
X149795298Y-81097302D01*
X149795298Y-81097299D01*
X149805000Y-80998789D01*
X149805000Y-80841210D01*
X149795298Y-80742700D01*
X149795298Y-80742697D01*
X149764555Y-80588135D01*
X149735814Y-80493387D01*
X149675509Y-80347801D01*
X149628844Y-80260498D01*
X149628838Y-80260488D01*
X149582465Y-80191085D01*
X148982962Y-80790588D01*
X148965925Y-80727007D01*
X148900099Y-80612993D01*
X148807007Y-80519901D01*
X148692993Y-80454075D01*
X148629410Y-80437037D01*
X149228912Y-79837534D01*
X149159511Y-79791161D01*
X149159500Y-79791155D01*
X149093545Y-79755900D01*
X149043701Y-79706937D01*
X149028241Y-79638799D01*
X149052073Y-79573119D01*
X149095702Y-79536059D01*
X149181610Y-79492287D01*
X149272745Y-79426074D01*
X149347213Y-79371971D01*
X149347215Y-79371968D01*
X149347219Y-79371966D01*
X149491966Y-79227219D01*
X149491968Y-79227215D01*
X149491971Y-79227213D01*
X149544732Y-79154590D01*
X149612287Y-79061610D01*
X149705220Y-78879219D01*
X149768477Y-78684534D01*
X149800500Y-78482352D01*
X149800500Y-78277648D01*
X149768477Y-78075466D01*
X149705220Y-77880781D01*
X149705218Y-77880778D01*
X149705218Y-77880776D01*
X149671503Y-77814607D01*
X149612287Y-77698390D01*
X149604556Y-77687749D01*
X149491971Y-77532786D01*
X149347213Y-77388028D01*
X149181614Y-77267715D01*
X149175006Y-77264348D01*
X149088917Y-77220483D01*
X149038123Y-77172511D01*
X149021328Y-77104690D01*
X149043865Y-77038555D01*
X149088917Y-76999516D01*
X149181610Y-76952287D01*
X149202770Y-76936913D01*
X149347213Y-76831971D01*
X149347215Y-76831968D01*
X149347219Y-76831966D01*
X149491966Y-76687219D01*
X149491968Y-76687215D01*
X149491971Y-76687213D01*
X149544732Y-76614590D01*
X149612287Y-76521610D01*
X149705220Y-76339219D01*
X149768477Y-76144534D01*
X149800500Y-75942352D01*
X149800500Y-75737648D01*
X149768477Y-75535466D01*
X149763366Y-75519737D01*
X149705218Y-75340776D01*
X149664207Y-75260288D01*
X149612287Y-75158390D01*
X149594622Y-75134076D01*
X149491971Y-74992786D01*
X149347213Y-74848028D01*
X149181614Y-74727715D01*
X149175006Y-74724348D01*
X149088917Y-74680483D01*
X149038123Y-74632511D01*
X149021328Y-74564690D01*
X149043865Y-74498555D01*
X149088917Y-74459516D01*
X149181610Y-74412287D01*
X149241366Y-74368872D01*
X149347213Y-74291971D01*
X149347215Y-74291968D01*
X149347219Y-74291966D01*
X149491966Y-74147219D01*
X149491968Y-74147215D01*
X149491971Y-74147213D01*
X149577973Y-74028839D01*
X149612287Y-73981610D01*
X149705220Y-73799219D01*
X149768477Y-73604534D01*
X149800500Y-73402352D01*
X149800500Y-73197648D01*
X149768477Y-72995466D01*
X149705220Y-72800781D01*
X149705218Y-72800778D01*
X149705218Y-72800776D01*
X149654867Y-72701958D01*
X149612287Y-72618390D01*
X149600090Y-72601602D01*
X149491971Y-72452786D01*
X149347213Y-72308028D01*
X149181614Y-72187715D01*
X149175006Y-72184348D01*
X149088917Y-72140483D01*
X149038123Y-72092511D01*
X149021328Y-72024690D01*
X149043865Y-71958555D01*
X149088917Y-71919516D01*
X149181610Y-71872287D01*
X149202770Y-71856913D01*
X149347213Y-71751971D01*
X149347215Y-71751968D01*
X149347219Y-71751966D01*
X149491966Y-71607219D01*
X149491968Y-71607215D01*
X149491971Y-71607213D01*
X149564291Y-71507671D01*
X149612287Y-71441610D01*
X149705220Y-71259219D01*
X149768477Y-71064534D01*
X149800500Y-70862352D01*
X149800500Y-70657648D01*
X149768477Y-70455466D01*
X149705220Y-70260781D01*
X149705218Y-70260778D01*
X149705218Y-70260776D01*
X149657072Y-70166286D01*
X149612287Y-70078390D01*
X149604556Y-70067749D01*
X149491971Y-69912786D01*
X149347213Y-69768028D01*
X149181614Y-69647715D01*
X149173410Y-69643535D01*
X149095703Y-69603941D01*
X149044908Y-69555968D01*
X149028113Y-69488147D01*
X149050650Y-69422012D01*
X149093546Y-69384099D01*
X149159503Y-69348843D01*
X149159515Y-69348837D01*
X149228913Y-69302465D01*
X148629410Y-68702962D01*
X148692993Y-68685925D01*
X148807007Y-68620099D01*
X148900099Y-68527007D01*
X148965925Y-68412993D01*
X148982962Y-68349410D01*
X149582465Y-68948913D01*
X149628837Y-68879515D01*
X149628838Y-68879511D01*
X149675509Y-68792198D01*
X149735814Y-68646612D01*
X149764555Y-68551864D01*
X149795298Y-68397302D01*
X149795298Y-68397299D01*
X149805000Y-68298789D01*
X149805000Y-68141210D01*
X149795298Y-68042700D01*
X149795298Y-68042697D01*
X149764555Y-67888135D01*
X149735814Y-67793387D01*
X149675509Y-67647801D01*
X149628844Y-67560498D01*
X149628838Y-67560488D01*
X149582465Y-67491085D01*
X148982962Y-68090588D01*
X148965925Y-68027007D01*
X148900099Y-67912993D01*
X148807007Y-67819901D01*
X148692993Y-67754075D01*
X148629410Y-67737037D01*
X149228912Y-67137534D01*
X149159511Y-67091161D01*
X149159500Y-67091155D01*
X149093545Y-67055900D01*
X149043701Y-67006937D01*
X149028241Y-66938799D01*
X149052073Y-66873119D01*
X149095702Y-66836059D01*
X149181610Y-66792287D01*
X149284794Y-66717320D01*
X149347213Y-66671971D01*
X149347215Y-66671968D01*
X149347219Y-66671966D01*
X149491966Y-66527219D01*
X149491968Y-66527215D01*
X149491971Y-66527213D01*
X149544732Y-66454590D01*
X149612287Y-66361610D01*
X149705220Y-66179219D01*
X149768477Y-65984534D01*
X149800500Y-65782352D01*
X149800500Y-65577648D01*
X149785076Y-65480264D01*
X149768477Y-65375465D01*
X149705218Y-65180776D01*
X149657072Y-65086286D01*
X149612287Y-64998390D01*
X149565995Y-64934674D01*
X149491971Y-64832786D01*
X149347213Y-64688028D01*
X149181614Y-64567715D01*
X149175006Y-64564348D01*
X149088917Y-64520483D01*
X149038123Y-64472511D01*
X149021328Y-64404690D01*
X149043865Y-64338555D01*
X149088917Y-64299516D01*
X149181610Y-64252287D01*
X149254691Y-64199191D01*
X149347213Y-64131971D01*
X149347215Y-64131968D01*
X149347219Y-64131966D01*
X149491966Y-63987219D01*
X149491968Y-63987215D01*
X149491971Y-63987213D01*
X149544732Y-63914590D01*
X149612287Y-63821610D01*
X149705220Y-63639219D01*
X149768477Y-63444534D01*
X149800500Y-63242352D01*
X149800500Y-63037648D01*
X149768477Y-62835466D01*
X149705220Y-62640781D01*
X149705218Y-62640778D01*
X149705218Y-62640776D01*
X149657072Y-62546286D01*
X149612287Y-62458390D01*
X149604556Y-62447749D01*
X149491971Y-62292786D01*
X149347213Y-62148028D01*
X149181614Y-62027715D01*
X149175006Y-62024348D01*
X149088917Y-61980483D01*
X149038123Y-61932511D01*
X149021328Y-61864690D01*
X149043865Y-61798555D01*
X149088917Y-61759516D01*
X149181610Y-61712287D01*
X149202770Y-61696913D01*
X149347213Y-61591971D01*
X149347215Y-61591968D01*
X149347219Y-61591966D01*
X149491966Y-61447219D01*
X149491968Y-61447215D01*
X149491971Y-61447213D01*
X149544732Y-61374590D01*
X149612287Y-61281610D01*
X149705220Y-61099219D01*
X149768477Y-60904534D01*
X149800500Y-60702352D01*
X149800500Y-60497648D01*
X149768477Y-60295466D01*
X149705220Y-60100781D01*
X149705218Y-60100778D01*
X149705218Y-60100776D01*
X149657052Y-60006246D01*
X149612287Y-59918390D01*
X149598925Y-59899999D01*
X149491971Y-59752786D01*
X149347213Y-59608028D01*
X149181614Y-59487715D01*
X149175006Y-59484348D01*
X149088917Y-59440483D01*
X149038123Y-59392511D01*
X149021328Y-59324690D01*
X149043865Y-59258555D01*
X149088917Y-59219516D01*
X149181610Y-59172287D01*
X149228414Y-59138282D01*
X149347213Y-59051971D01*
X149347215Y-59051968D01*
X149347219Y-59051966D01*
X149491966Y-58907219D01*
X149491968Y-58907215D01*
X149491971Y-58907213D01*
X149580960Y-58784728D01*
X149612287Y-58741610D01*
X149705220Y-58559219D01*
X149768477Y-58364534D01*
X149800500Y-58162352D01*
X149800500Y-57957648D01*
X149768477Y-57755466D01*
X149705220Y-57560781D01*
X149705218Y-57560778D01*
X149705218Y-57560776D01*
X149671503Y-57494607D01*
X149612287Y-57378390D01*
X149604556Y-57367749D01*
X149491971Y-57212786D01*
X149347213Y-57068028D01*
X149181614Y-56947715D01*
X149173410Y-56943535D01*
X149095703Y-56903941D01*
X149044908Y-56855968D01*
X149028113Y-56788147D01*
X149050650Y-56722012D01*
X149093546Y-56684099D01*
X149159503Y-56648843D01*
X149159515Y-56648837D01*
X149228913Y-56602465D01*
X148629410Y-56002962D01*
X148692993Y-55985925D01*
X148807007Y-55920099D01*
X148900099Y-55827007D01*
X148965925Y-55712993D01*
X148982962Y-55649410D01*
X149582465Y-56248913D01*
X149628837Y-56179515D01*
X149628838Y-56179511D01*
X149675509Y-56092198D01*
X149735814Y-55946612D01*
X149764555Y-55851864D01*
X149795298Y-55697302D01*
X149795298Y-55697299D01*
X149805000Y-55598789D01*
X149805000Y-55441210D01*
X149795298Y-55342700D01*
X149795298Y-55342697D01*
X149764555Y-55188135D01*
X149735814Y-55093387D01*
X149675509Y-54947801D01*
X149628844Y-54860498D01*
X149628838Y-54860488D01*
X149582465Y-54791085D01*
X148982962Y-55390588D01*
X148965925Y-55327007D01*
X148900099Y-55212993D01*
X148807007Y-55119901D01*
X148692993Y-55054075D01*
X148629410Y-55037037D01*
X149228912Y-54437534D01*
X149159511Y-54391161D01*
X149159500Y-54391155D01*
X149093545Y-54355900D01*
X149043701Y-54306937D01*
X149028241Y-54238799D01*
X149052073Y-54173119D01*
X149095702Y-54136059D01*
X149181610Y-54092287D01*
X149272745Y-54026074D01*
X149347213Y-53971971D01*
X149347215Y-53971968D01*
X149347219Y-53971966D01*
X149491966Y-53827219D01*
X149491968Y-53827215D01*
X149491971Y-53827213D01*
X149544732Y-53754590D01*
X149612287Y-53661610D01*
X149705220Y-53479219D01*
X149768477Y-53284534D01*
X149800500Y-53082352D01*
X149800500Y-52877648D01*
X149768477Y-52675466D01*
X149705220Y-52480781D01*
X149705218Y-52480778D01*
X149705218Y-52480776D01*
X149671503Y-52414607D01*
X149612287Y-52298390D01*
X149604556Y-52287749D01*
X149491971Y-52132786D01*
X149347213Y-51988028D01*
X149181614Y-51867715D01*
X149175006Y-51864348D01*
X149088917Y-51820483D01*
X149038123Y-51772511D01*
X149021328Y-51704690D01*
X149043865Y-51638555D01*
X149088917Y-51599516D01*
X149181610Y-51552287D01*
X149202770Y-51536913D01*
X149347213Y-51431971D01*
X149347215Y-51431968D01*
X149347219Y-51431966D01*
X149491966Y-51287219D01*
X149491968Y-51287215D01*
X149491971Y-51287213D01*
X149544732Y-51214590D01*
X149612287Y-51121610D01*
X149705220Y-50939219D01*
X149768477Y-50744534D01*
X149800500Y-50542352D01*
X149800500Y-50337648D01*
X149768477Y-50135466D01*
X149705220Y-49940781D01*
X149705218Y-49940778D01*
X149705218Y-49940776D01*
X149671503Y-49874607D01*
X149612287Y-49758390D01*
X149604556Y-49747749D01*
X149491971Y-49592786D01*
X149347213Y-49448028D01*
X149181614Y-49327715D01*
X149175006Y-49324348D01*
X149088917Y-49280483D01*
X149038123Y-49232511D01*
X149021328Y-49164690D01*
X149043865Y-49098555D01*
X149088917Y-49059516D01*
X149181610Y-49012287D01*
X149202770Y-48996913D01*
X149347213Y-48891971D01*
X149347215Y-48891968D01*
X149347219Y-48891966D01*
X149491966Y-48747219D01*
X149494650Y-48743524D01*
X149525100Y-48701615D01*
X149580429Y-48658949D01*
X149625418Y-48650500D01*
X150287770Y-48650500D01*
X150354809Y-48670185D01*
X150375451Y-48686819D01*
X151213181Y-49524549D01*
X151246666Y-49585872D01*
X151249500Y-49612230D01*
X151249500Y-88625500D01*
X151229815Y-88692539D01*
X151177011Y-88738294D01*
X151125500Y-88749500D01*
X117862230Y-88749500D01*
X117795191Y-88729815D01*
X117774549Y-88713181D01*
X114536819Y-85475451D01*
X114503334Y-85414128D01*
X114500500Y-85387770D01*
X114500500Y-82304604D01*
X114509939Y-82257151D01*
X114510921Y-82254780D01*
X114519737Y-82233497D01*
X114550500Y-82078842D01*
X114550500Y-81921158D01*
X114550500Y-81921155D01*
X114550499Y-81921153D01*
X114519738Y-81766510D01*
X114519737Y-81766503D01*
X114471030Y-81648912D01*
X114459397Y-81620827D01*
X114459390Y-81620814D01*
X114371789Y-81489711D01*
X114371786Y-81489707D01*
X114260292Y-81378213D01*
X114260288Y-81378210D01*
X114129185Y-81290609D01*
X114129172Y-81290602D01*
X113983501Y-81230264D01*
X113983489Y-81230261D01*
X113828845Y-81199500D01*
X113828842Y-81199500D01*
X113671158Y-81199500D01*
X113671155Y-81199500D01*
X113516510Y-81230261D01*
X113516498Y-81230264D01*
X113370827Y-81290602D01*
X113370814Y-81290609D01*
X113239711Y-81378210D01*
X113239707Y-81378213D01*
X113128213Y-81489707D01*
X113128210Y-81489711D01*
X113040609Y-81620814D01*
X113040602Y-81620827D01*
X112980264Y-81766498D01*
X112980261Y-81766510D01*
X112949500Y-81921153D01*
X112949500Y-82078846D01*
X112980261Y-82233489D01*
X112980263Y-82233497D01*
X112990061Y-82257151D01*
X112999500Y-82304604D01*
X112999500Y-85823918D01*
X112999500Y-85823920D01*
X112999499Y-85823920D01*
X113028340Y-85968907D01*
X113028343Y-85968917D01*
X113084914Y-86105492D01*
X113117812Y-86154727D01*
X113117813Y-86154730D01*
X113167046Y-86228414D01*
X113167052Y-86228421D01*
X117021578Y-90082947D01*
X117021585Y-90082953D01*
X117079704Y-90121786D01*
X117079706Y-90121787D01*
X117079709Y-90121789D01*
X117144505Y-90165084D01*
X117281087Y-90221658D01*
X117281091Y-90221658D01*
X117281092Y-90221659D01*
X117426079Y-90250500D01*
X117426082Y-90250500D01*
X117426083Y-90250500D01*
X117573918Y-90250500D01*
X151695396Y-90250500D01*
X151742844Y-90259937D01*
X151766503Y-90269737D01*
X151766508Y-90269738D01*
X151766511Y-90269739D01*
X151921153Y-90300499D01*
X151921156Y-90300500D01*
X151921158Y-90300500D01*
X152078844Y-90300500D01*
X152078845Y-90300499D01*
X152233497Y-90269737D01*
X152379179Y-90209394D01*
X152510289Y-90121789D01*
X152621789Y-90010289D01*
X152709394Y-89879179D01*
X152769737Y-89733497D01*
X152800500Y-89578842D01*
X152800500Y-89421158D01*
X152800500Y-89421155D01*
X152800499Y-89421153D01*
X152769739Y-89266511D01*
X152769738Y-89266508D01*
X152769737Y-89266503D01*
X152759937Y-89242844D01*
X152750500Y-89195396D01*
X152750500Y-49176079D01*
X152721659Y-49031092D01*
X152721658Y-49031091D01*
X152721658Y-49031087D01*
X152708574Y-48999500D01*
X152665087Y-48894511D01*
X152665085Y-48894507D01*
X152665084Y-48894505D01*
X152663387Y-48891966D01*
X152625268Y-48834916D01*
X152625267Y-48834914D01*
X152582956Y-48771589D01*
X152582952Y-48771584D01*
X151221348Y-47409980D01*
X151221347Y-47409980D01*
X151128416Y-47317048D01*
X151046356Y-47262219D01*
X151046355Y-47262218D01*
X151005492Y-47234914D01*
X151005490Y-47234913D01*
X150868917Y-47178343D01*
X150868907Y-47178340D01*
X150723920Y-47149500D01*
X150723918Y-47149500D01*
X149625418Y-47149500D01*
X149558379Y-47129815D01*
X149525100Y-47098385D01*
X149491971Y-47052787D01*
X149491967Y-47052782D01*
X149347213Y-46908028D01*
X149181614Y-46787715D01*
X149109743Y-46751095D01*
X149088917Y-46740483D01*
X149038123Y-46692511D01*
X149021328Y-46624690D01*
X149043865Y-46558555D01*
X149088917Y-46519516D01*
X149181610Y-46472287D01*
X149202770Y-46456913D01*
X149347213Y-46351971D01*
X149347215Y-46351968D01*
X149347219Y-46351966D01*
X149491966Y-46207219D01*
X149491968Y-46207215D01*
X149491971Y-46207213D01*
X149544732Y-46134590D01*
X149612287Y-46041610D01*
X149705220Y-45859219D01*
X149768477Y-45664534D01*
X149800500Y-45462352D01*
X149800500Y-45257648D01*
X149768477Y-45055465D01*
X149705218Y-44860776D01*
X149670398Y-44792439D01*
X149612287Y-44678390D01*
X149604556Y-44667749D01*
X149491971Y-44512786D01*
X149347213Y-44368028D01*
X149181614Y-44247715D01*
X149157811Y-44235587D01*
X149095703Y-44203941D01*
X149044908Y-44155968D01*
X149028113Y-44088147D01*
X149050650Y-44022012D01*
X149093546Y-43984099D01*
X149159503Y-43948843D01*
X149159515Y-43948837D01*
X149228913Y-43902465D01*
X148629410Y-43302962D01*
X148692993Y-43285925D01*
X148807007Y-43220099D01*
X148900099Y-43127007D01*
X148965925Y-43012993D01*
X148982962Y-42949410D01*
X149582465Y-43548913D01*
X149628837Y-43479515D01*
X149628838Y-43479511D01*
X149675509Y-43392198D01*
X149735814Y-43246612D01*
X149764555Y-43151864D01*
X149795298Y-42997302D01*
X149795298Y-42997299D01*
X149805000Y-42898789D01*
X149805000Y-42741210D01*
X149795298Y-42642700D01*
X149795298Y-42642697D01*
X149764555Y-42488135D01*
X149735814Y-42393387D01*
X149675509Y-42247801D01*
X149628844Y-42160498D01*
X149628838Y-42160488D01*
X149582465Y-42091085D01*
X148982962Y-42690588D01*
X148965925Y-42627007D01*
X148900099Y-42512993D01*
X148807007Y-42419901D01*
X148692993Y-42354075D01*
X148629410Y-42337037D01*
X149228912Y-41737534D01*
X149159511Y-41691161D01*
X149159500Y-41691155D01*
X149093545Y-41655900D01*
X149043701Y-41606937D01*
X149028241Y-41538799D01*
X149052073Y-41473119D01*
X149095702Y-41436059D01*
X149181610Y-41392287D01*
X149272745Y-41326074D01*
X149347213Y-41271971D01*
X149347215Y-41271968D01*
X149347219Y-41271966D01*
X149491966Y-41127219D01*
X149491968Y-41127215D01*
X149491971Y-41127213D01*
X149544732Y-41054590D01*
X149612287Y-40961610D01*
X149705220Y-40779219D01*
X149768477Y-40584534D01*
X149800500Y-40382352D01*
X149800500Y-40177648D01*
X149768477Y-39975466D01*
X149705220Y-39780781D01*
X149705218Y-39780778D01*
X149705218Y-39780776D01*
X149671503Y-39714607D01*
X149612287Y-39598390D01*
X149604556Y-39587749D01*
X149491971Y-39432786D01*
X149347213Y-39288028D01*
X149181614Y-39167715D01*
X149175006Y-39164348D01*
X149088917Y-39120483D01*
X149038123Y-39072511D01*
X149021328Y-39004690D01*
X149043865Y-38938555D01*
X149088917Y-38899516D01*
X149181610Y-38852287D01*
X149287733Y-38775185D01*
X149347213Y-38731971D01*
X149347215Y-38731968D01*
X149347219Y-38731966D01*
X149491966Y-38587219D01*
X149491968Y-38587215D01*
X149491971Y-38587213D01*
X149579170Y-38467192D01*
X149612287Y-38421610D01*
X149705220Y-38239219D01*
X149768477Y-38044534D01*
X149800500Y-37842352D01*
X149800500Y-37637648D01*
X149768477Y-37435466D01*
X149705220Y-37240781D01*
X149705218Y-37240778D01*
X149705218Y-37240776D01*
X149671503Y-37174607D01*
X149612287Y-37058390D01*
X149604556Y-37047749D01*
X149491971Y-36892786D01*
X149347213Y-36748028D01*
X149315266Y-36724818D01*
X149272600Y-36669489D01*
X149266621Y-36599875D01*
X149299226Y-36538080D01*
X149360065Y-36503723D01*
X149388151Y-36500500D01*
X168625500Y-36500500D01*
X168692539Y-36520185D01*
X168738294Y-36572989D01*
X168749500Y-36624500D01*
X168749500Y-110625500D01*
X168729815Y-110692539D01*
X168677011Y-110738294D01*
X168625500Y-110749500D01*
X110874500Y-110749500D01*
X110807461Y-110729815D01*
X110761706Y-110677011D01*
X110750500Y-110625500D01*
X110750500Y-107368872D01*
X111999500Y-107368872D01*
X111999500Y-107631127D01*
X112014864Y-107747820D01*
X112033730Y-107891116D01*
X112101602Y-108144418D01*
X112101605Y-108144428D01*
X112201953Y-108386690D01*
X112201958Y-108386700D01*
X112333075Y-108613803D01*
X112492718Y-108821851D01*
X112492726Y-108821860D01*
X112678140Y-109007274D01*
X112678148Y-109007281D01*
X112886196Y-109166924D01*
X113113299Y-109298041D01*
X113113309Y-109298046D01*
X113355571Y-109398394D01*
X113355581Y-109398398D01*
X113608884Y-109466270D01*
X113868880Y-109500500D01*
X113868887Y-109500500D01*
X114131113Y-109500500D01*
X114131120Y-109500500D01*
X114391116Y-109466270D01*
X114644419Y-109398398D01*
X114886697Y-109298043D01*
X115113803Y-109166924D01*
X115321851Y-109007282D01*
X115321855Y-109007277D01*
X115321860Y-109007274D01*
X115507274Y-108821860D01*
X115507277Y-108821855D01*
X115507282Y-108821851D01*
X115666924Y-108613803D01*
X115798043Y-108386697D01*
X115799123Y-108384091D01*
X115837452Y-108291555D01*
X115898398Y-108144419D01*
X115966270Y-107891116D01*
X116000500Y-107631120D01*
X116000500Y-107368880D01*
X115966270Y-107108884D01*
X115898398Y-106855581D01*
X115800204Y-106618520D01*
X115798046Y-106613309D01*
X115798041Y-106613299D01*
X115666924Y-106386196D01*
X115535016Y-106214293D01*
X115507282Y-106178149D01*
X115507281Y-106178148D01*
X115507279Y-106178145D01*
X115471269Y-106142135D01*
X127789500Y-106142135D01*
X127789500Y-107937870D01*
X127789501Y-107937876D01*
X127795908Y-107997483D01*
X127846202Y-108132328D01*
X127846206Y-108132335D01*
X127932452Y-108247544D01*
X127932455Y-108247547D01*
X128047664Y-108333793D01*
X128047671Y-108333797D01*
X128182517Y-108384091D01*
X128182516Y-108384091D01*
X128189444Y-108384835D01*
X128242127Y-108390500D01*
X130037872Y-108390499D01*
X130097483Y-108384091D01*
X130232331Y-108333796D01*
X130347546Y-108247546D01*
X130433796Y-108132331D01*
X130482810Y-108000916D01*
X130524681Y-107944984D01*
X130590145Y-107920566D01*
X130658418Y-107935417D01*
X130686673Y-107956569D01*
X130800213Y-108070109D01*
X130972179Y-108195048D01*
X130972181Y-108195049D01*
X130972184Y-108195051D01*
X131161588Y-108291557D01*
X131363757Y-108357246D01*
X131573713Y-108390500D01*
X131573714Y-108390500D01*
X131786286Y-108390500D01*
X131786287Y-108390500D01*
X131996243Y-108357246D01*
X132198412Y-108291557D01*
X132387816Y-108195051D01*
X132457493Y-108144428D01*
X132559786Y-108070109D01*
X132559788Y-108070106D01*
X132559792Y-108070104D01*
X132710104Y-107919792D01*
X132710106Y-107919788D01*
X132710109Y-107919786D01*
X132835048Y-107747820D01*
X132835047Y-107747820D01*
X132835051Y-107747816D01*
X132839514Y-107739054D01*
X132887488Y-107688259D01*
X132955308Y-107671463D01*
X133021444Y-107693999D01*
X133060486Y-107739056D01*
X133064951Y-107747820D01*
X133189890Y-107919786D01*
X133340213Y-108070109D01*
X133512179Y-108195048D01*
X133512181Y-108195049D01*
X133512184Y-108195051D01*
X133701588Y-108291557D01*
X133903757Y-108357246D01*
X134113713Y-108390500D01*
X134113714Y-108390500D01*
X134326286Y-108390500D01*
X134326287Y-108390500D01*
X134536243Y-108357246D01*
X134738412Y-108291557D01*
X134927816Y-108195051D01*
X134997493Y-108144428D01*
X135099786Y-108070109D01*
X135099788Y-108070106D01*
X135099792Y-108070104D01*
X135250104Y-107919792D01*
X135250106Y-107919788D01*
X135250109Y-107919786D01*
X135375048Y-107747820D01*
X135375047Y-107747820D01*
X135375051Y-107747816D01*
X135379514Y-107739054D01*
X135427488Y-107688259D01*
X135495308Y-107671463D01*
X135561444Y-107693999D01*
X135600486Y-107739056D01*
X135604951Y-107747820D01*
X135729890Y-107919786D01*
X135880213Y-108070109D01*
X136052179Y-108195048D01*
X136052181Y-108195049D01*
X136052184Y-108195051D01*
X136241588Y-108291557D01*
X136443757Y-108357246D01*
X136653713Y-108390500D01*
X136653714Y-108390500D01*
X136866286Y-108390500D01*
X136866287Y-108390500D01*
X137076243Y-108357246D01*
X137278412Y-108291557D01*
X137467816Y-108195051D01*
X137537493Y-108144428D01*
X137639786Y-108070109D01*
X137639788Y-108070106D01*
X137639792Y-108070104D01*
X137790104Y-107919792D01*
X137790106Y-107919788D01*
X137790109Y-107919786D01*
X137915048Y-107747820D01*
X137915047Y-107747820D01*
X137915051Y-107747816D01*
X137919514Y-107739054D01*
X137967488Y-107688259D01*
X138035308Y-107671463D01*
X138101444Y-107693999D01*
X138140486Y-107739056D01*
X138144951Y-107747820D01*
X138269890Y-107919786D01*
X138420213Y-108070109D01*
X138592179Y-108195048D01*
X138592181Y-108195049D01*
X138592184Y-108195051D01*
X138781588Y-108291557D01*
X138983757Y-108357246D01*
X139193713Y-108390500D01*
X139193714Y-108390500D01*
X139406286Y-108390500D01*
X139406287Y-108390500D01*
X139616243Y-108357246D01*
X139818412Y-108291557D01*
X140007816Y-108195051D01*
X140077493Y-108144428D01*
X140179786Y-108070109D01*
X140179788Y-108070106D01*
X140179792Y-108070104D01*
X140330104Y-107919792D01*
X140330106Y-107919788D01*
X140330109Y-107919786D01*
X140455048Y-107747820D01*
X140455047Y-107747820D01*
X140455051Y-107747816D01*
X140459514Y-107739054D01*
X140507488Y-107688259D01*
X140575308Y-107671463D01*
X140641444Y-107693999D01*
X140680486Y-107739056D01*
X140684951Y-107747820D01*
X140809890Y-107919786D01*
X140960213Y-108070109D01*
X141132179Y-108195048D01*
X141132181Y-108195049D01*
X141132184Y-108195051D01*
X141321588Y-108291557D01*
X141523757Y-108357246D01*
X141733713Y-108390500D01*
X141733714Y-108390500D01*
X141946286Y-108390500D01*
X141946287Y-108390500D01*
X142156243Y-108357246D01*
X142358412Y-108291557D01*
X142547816Y-108195051D01*
X142617493Y-108144428D01*
X142719786Y-108070109D01*
X142719788Y-108070106D01*
X142719792Y-108070104D01*
X142870104Y-107919792D01*
X142870106Y-107919788D01*
X142870109Y-107919786D01*
X142995048Y-107747820D01*
X142995047Y-107747820D01*
X142995051Y-107747816D01*
X142999514Y-107739054D01*
X143047488Y-107688259D01*
X143115308Y-107671463D01*
X143181444Y-107693999D01*
X143220486Y-107739056D01*
X143224951Y-107747820D01*
X143349890Y-107919786D01*
X143500213Y-108070109D01*
X143672179Y-108195048D01*
X143672181Y-108195049D01*
X143672184Y-108195051D01*
X143861588Y-108291557D01*
X144063757Y-108357246D01*
X144273713Y-108390500D01*
X144273714Y-108390500D01*
X144486286Y-108390500D01*
X144486287Y-108390500D01*
X144696243Y-108357246D01*
X144898412Y-108291557D01*
X145087816Y-108195051D01*
X145157493Y-108144428D01*
X145259786Y-108070109D01*
X145259788Y-108070106D01*
X145259792Y-108070104D01*
X145410104Y-107919792D01*
X145410106Y-107919788D01*
X145410109Y-107919786D01*
X145535048Y-107747820D01*
X145535047Y-107747820D01*
X145535051Y-107747816D01*
X145539514Y-107739054D01*
X145587488Y-107688259D01*
X145655308Y-107671463D01*
X145721444Y-107693999D01*
X145760486Y-107739056D01*
X145764951Y-107747820D01*
X145889890Y-107919786D01*
X146040213Y-108070109D01*
X146212179Y-108195048D01*
X146212181Y-108195049D01*
X146212184Y-108195051D01*
X146401588Y-108291557D01*
X146603757Y-108357246D01*
X146813713Y-108390500D01*
X146813714Y-108390500D01*
X147026286Y-108390500D01*
X147026287Y-108390500D01*
X147236243Y-108357246D01*
X147406207Y-108302020D01*
X147476043Y-108300026D01*
X147535876Y-108336106D01*
X147559082Y-108372500D01*
X147609407Y-108493998D01*
X147680601Y-108600548D01*
X148585325Y-109505272D01*
X148585331Y-109505277D01*
X148691874Y-109576466D01*
X148761221Y-109605189D01*
X148810256Y-109625501D01*
X148810259Y-109625501D01*
X148810260Y-109625502D01*
X148935928Y-109650500D01*
X148935931Y-109650500D01*
X155064071Y-109650500D01*
X155148615Y-109633682D01*
X155189744Y-109625501D01*
X155308127Y-109576465D01*
X155414669Y-109505277D01*
X156463484Y-108456462D01*
X157551075Y-107368872D01*
X163499500Y-107368872D01*
X163499500Y-107631127D01*
X163514864Y-107747820D01*
X163533730Y-107891116D01*
X163601602Y-108144418D01*
X163601605Y-108144428D01*
X163701953Y-108386690D01*
X163701958Y-108386700D01*
X163833075Y-108613803D01*
X163992718Y-108821851D01*
X163992726Y-108821860D01*
X164178140Y-109007274D01*
X164178148Y-109007281D01*
X164386196Y-109166924D01*
X164613299Y-109298041D01*
X164613309Y-109298046D01*
X164855571Y-109398394D01*
X164855581Y-109398398D01*
X165108884Y-109466270D01*
X165368880Y-109500500D01*
X165368887Y-109500500D01*
X165631113Y-109500500D01*
X165631120Y-109500500D01*
X165891116Y-109466270D01*
X166144419Y-109398398D01*
X166386697Y-109298043D01*
X166613803Y-109166924D01*
X166821851Y-109007282D01*
X166821855Y-109007277D01*
X166821860Y-109007274D01*
X167007274Y-108821860D01*
X167007277Y-108821855D01*
X167007282Y-108821851D01*
X167166924Y-108613803D01*
X167298043Y-108386697D01*
X167299123Y-108384091D01*
X167337452Y-108291555D01*
X167398398Y-108144419D01*
X167466270Y-107891116D01*
X167500500Y-107631120D01*
X167500500Y-107368880D01*
X167466270Y-107108884D01*
X167398398Y-106855581D01*
X167300204Y-106618520D01*
X167298046Y-106613309D01*
X167298041Y-106613299D01*
X167166924Y-106386196D01*
X167007281Y-106178148D01*
X167007274Y-106178140D01*
X166821860Y-105992726D01*
X166821851Y-105992718D01*
X166613803Y-105833075D01*
X166386700Y-105701958D01*
X166386690Y-105701953D01*
X166144428Y-105601605D01*
X166144421Y-105601603D01*
X166144419Y-105601602D01*
X165891116Y-105533730D01*
X165833339Y-105526123D01*
X165631127Y-105499500D01*
X165631120Y-105499500D01*
X165368880Y-105499500D01*
X165368872Y-105499500D01*
X165137772Y-105529926D01*
X165108884Y-105533730D01*
X164855581Y-105601602D01*
X164855571Y-105601605D01*
X164613309Y-105701953D01*
X164613299Y-105701958D01*
X164386196Y-105833075D01*
X164178148Y-105992718D01*
X163992718Y-106178148D01*
X163833075Y-106386196D01*
X163701958Y-106613299D01*
X163701953Y-106613309D01*
X163601605Y-106855571D01*
X163601602Y-106855581D01*
X163533730Y-107108885D01*
X163499500Y-107368872D01*
X157551075Y-107368872D01*
X157642807Y-107277140D01*
X162200444Y-102719502D01*
X162200445Y-102719501D01*
X162200449Y-102719497D01*
X162271637Y-102612955D01*
X162320673Y-102494572D01*
X162331579Y-102439744D01*
X162341666Y-102389037D01*
X162345672Y-102368898D01*
X162345672Y-101807193D01*
X162365357Y-101740154D01*
X162366499Y-101738408D01*
X162399394Y-101689179D01*
X162459737Y-101543497D01*
X162490500Y-101388842D01*
X162490500Y-101231158D01*
X162490500Y-101231155D01*
X162490499Y-101231153D01*
X162478565Y-101171158D01*
X162459737Y-101076503D01*
X162459735Y-101076498D01*
X162399397Y-100930827D01*
X162399390Y-100930814D01*
X162311789Y-100799711D01*
X162311786Y-100799707D01*
X162200292Y-100688213D01*
X162200288Y-100688210D01*
X162069185Y-100600609D01*
X162069172Y-100600602D01*
X161923501Y-100540264D01*
X161923489Y-100540261D01*
X161768845Y-100509500D01*
X161768842Y-100509500D01*
X161611158Y-100509500D01*
X161611155Y-100509500D01*
X161456510Y-100540261D01*
X161456498Y-100540264D01*
X161310827Y-100600602D01*
X161310814Y-100600609D01*
X161179711Y-100688210D01*
X161179707Y-100688213D01*
X161068213Y-100799707D01*
X161068210Y-100799711D01*
X160980609Y-100930814D01*
X160980602Y-100930827D01*
X160920264Y-101076498D01*
X160920261Y-101076510D01*
X160889500Y-101231153D01*
X160889500Y-101388846D01*
X160920261Y-101543489D01*
X160920264Y-101543501D01*
X160980602Y-101689172D01*
X160980606Y-101689179D01*
X161023774Y-101753785D01*
X161029425Y-101771831D01*
X161039649Y-101787740D01*
X161044100Y-101818697D01*
X161044652Y-101820460D01*
X161044672Y-101822675D01*
X161044672Y-101984020D01*
X161024987Y-102051059D01*
X161008353Y-102071701D01*
X154766873Y-108313181D01*
X154705550Y-108346666D01*
X154679192Y-108349500D01*
X152876869Y-108349500D01*
X152809830Y-108329815D01*
X152764075Y-108277011D01*
X152754131Y-108207853D01*
X152783156Y-108144297D01*
X152803984Y-108125181D01*
X152879792Y-108070104D01*
X153030104Y-107919792D01*
X153030106Y-107919788D01*
X153030109Y-107919786D01*
X153157915Y-107743875D01*
X153159259Y-107744851D01*
X153205705Y-107702834D01*
X153259618Y-107690500D01*
X154024071Y-107690500D01*
X154119772Y-107671463D01*
X154149744Y-107665501D01*
X154268127Y-107616465D01*
X154295810Y-107597968D01*
X154374669Y-107545277D01*
X159255277Y-102664669D01*
X159326465Y-102558127D01*
X159375501Y-102439744D01*
X159376258Y-102435938D01*
X159376261Y-102435938D01*
X159376261Y-102435920D01*
X159400500Y-102314069D01*
X159400500Y-75185931D01*
X159400500Y-75185928D01*
X159375502Y-75060261D01*
X159375501Y-75060260D01*
X159375501Y-75060256D01*
X159326465Y-74941873D01*
X159325042Y-74939744D01*
X159255277Y-74835331D01*
X159255275Y-74835329D01*
X159255273Y-74835326D01*
X159255272Y-74835325D01*
X159067014Y-74647068D01*
X159060066Y-74635751D01*
X159052451Y-74629545D01*
X159044119Y-74609775D01*
X159036827Y-74597898D01*
X159034526Y-74590857D01*
X159019737Y-74516503D01*
X158959394Y-74370821D01*
X158959392Y-74370818D01*
X158959390Y-74370814D01*
X158958092Y-74368872D01*
X163499500Y-74368872D01*
X163499500Y-74631127D01*
X163512217Y-74727713D01*
X163533730Y-74891116D01*
X163597520Y-75129185D01*
X163601602Y-75144418D01*
X163601605Y-75144428D01*
X163701953Y-75386690D01*
X163701958Y-75386700D01*
X163833075Y-75613803D01*
X163992718Y-75821851D01*
X163992726Y-75821860D01*
X164178140Y-76007274D01*
X164178148Y-76007281D01*
X164386196Y-76166924D01*
X164613299Y-76298041D01*
X164613309Y-76298046D01*
X164855571Y-76398394D01*
X164855581Y-76398398D01*
X165108884Y-76466270D01*
X165368880Y-76500500D01*
X165368887Y-76500500D01*
X165631113Y-76500500D01*
X165631120Y-76500500D01*
X165891116Y-76466270D01*
X166144419Y-76398398D01*
X166386697Y-76298043D01*
X166613803Y-76166924D01*
X166821851Y-76007282D01*
X166821855Y-76007277D01*
X166821860Y-76007274D01*
X167007274Y-75821860D01*
X167007277Y-75821855D01*
X167007282Y-75821851D01*
X167166924Y-75613803D01*
X167298043Y-75386697D01*
X167398398Y-75144419D01*
X167466270Y-74891116D01*
X167500500Y-74631120D01*
X167500500Y-74368880D01*
X167466270Y-74108884D01*
X167398398Y-73855581D01*
X167378501Y-73807546D01*
X167298046Y-73613309D01*
X167298041Y-73613299D01*
X167166924Y-73386196D01*
X167007281Y-73178148D01*
X167007274Y-73178140D01*
X166821860Y-72992726D01*
X166821851Y-72992718D01*
X166613803Y-72833075D01*
X166386700Y-72701958D01*
X166386690Y-72701953D01*
X166144428Y-72601605D01*
X166144421Y-72601603D01*
X166144419Y-72601602D01*
X165891116Y-72533730D01*
X165833339Y-72526123D01*
X165631127Y-72499500D01*
X165631120Y-72499500D01*
X165368880Y-72499500D01*
X165368872Y-72499500D01*
X165137772Y-72529926D01*
X165108884Y-72533730D01*
X164855581Y-72601602D01*
X164855571Y-72601605D01*
X164613309Y-72701953D01*
X164613299Y-72701958D01*
X164386196Y-72833075D01*
X164178148Y-72992718D01*
X163992718Y-73178148D01*
X163833075Y-73386196D01*
X163701958Y-73613299D01*
X163701953Y-73613309D01*
X163601605Y-73855571D01*
X163601602Y-73855581D01*
X163533730Y-74108884D01*
X163531185Y-74128213D01*
X163499500Y-74368872D01*
X158958092Y-74368872D01*
X158871789Y-74239711D01*
X158871786Y-74239707D01*
X158760292Y-74128213D01*
X158760288Y-74128210D01*
X158629185Y-74040609D01*
X158629172Y-74040602D01*
X158483501Y-73980264D01*
X158483489Y-73980261D01*
X158328845Y-73949500D01*
X158328842Y-73949500D01*
X158171158Y-73949500D01*
X158171155Y-73949500D01*
X158016510Y-73980261D01*
X158016498Y-73980264D01*
X157870827Y-74040602D01*
X157870814Y-74040609D01*
X157739711Y-74128210D01*
X157739707Y-74128213D01*
X157628213Y-74239707D01*
X157628210Y-74239711D01*
X157540609Y-74370814D01*
X157540602Y-74370827D01*
X157480264Y-74516498D01*
X157480261Y-74516510D01*
X157449500Y-74671153D01*
X157449500Y-74828846D01*
X157480261Y-74983489D01*
X157480264Y-74983501D01*
X157540602Y-75129172D01*
X157540609Y-75129185D01*
X157628210Y-75260288D01*
X157628213Y-75260292D01*
X157739707Y-75371786D01*
X157739711Y-75371789D01*
X157870814Y-75459390D01*
X157870827Y-75459397D01*
X158022131Y-75522068D01*
X158021114Y-75524522D01*
X158069930Y-75556510D01*
X158098390Y-75620321D01*
X158099500Y-75636878D01*
X158099500Y-101929191D01*
X158079815Y-101996230D01*
X158063181Y-102016872D01*
X157612181Y-102467872D01*
X157550858Y-102501357D01*
X157481166Y-102496373D01*
X157425233Y-102454501D01*
X157400816Y-102389037D01*
X157400500Y-102380191D01*
X157400500Y-99004935D01*
X157420185Y-98937896D01*
X157421366Y-98936090D01*
X157459394Y-98879179D01*
X157519737Y-98733497D01*
X157550500Y-98578842D01*
X157550500Y-98421158D01*
X157550500Y-98421155D01*
X157550499Y-98421153D01*
X157519738Y-98266510D01*
X157519737Y-98266503D01*
X157519735Y-98266498D01*
X157459397Y-98120827D01*
X157459390Y-98120814D01*
X157371789Y-97989711D01*
X157371786Y-97989707D01*
X157260292Y-97878213D01*
X157260288Y-97878210D01*
X157165213Y-97814682D01*
X157120408Y-97761069D01*
X157111701Y-97691744D01*
X157119541Y-97664131D01*
X157125501Y-97649744D01*
X157150500Y-97524069D01*
X157150500Y-66754935D01*
X157170185Y-66687896D01*
X157171366Y-66686090D01*
X157209394Y-66629179D01*
X157269737Y-66483497D01*
X157300500Y-66328842D01*
X157300500Y-66171158D01*
X157300500Y-66171155D01*
X157300499Y-66171153D01*
X157269738Y-66016510D01*
X157269737Y-66016503D01*
X157267089Y-66010109D01*
X157209397Y-65870827D01*
X157209390Y-65870814D01*
X157121789Y-65739711D01*
X157121786Y-65739707D01*
X157010292Y-65628213D01*
X157010288Y-65628210D01*
X156879185Y-65540609D01*
X156879172Y-65540602D01*
X156733501Y-65480264D01*
X156733489Y-65480261D01*
X156578845Y-65449500D01*
X156578842Y-65449500D01*
X156421158Y-65449500D01*
X156421155Y-65449500D01*
X156266510Y-65480261D01*
X156266498Y-65480264D01*
X156120827Y-65540602D01*
X156120814Y-65540609D01*
X155989711Y-65628210D01*
X155989707Y-65628213D01*
X155878213Y-65739707D01*
X155878210Y-65739711D01*
X155790609Y-65870814D01*
X155790602Y-65870827D01*
X155730264Y-66016498D01*
X155730261Y-66016510D01*
X155699500Y-66171153D01*
X155699500Y-66328846D01*
X155730261Y-66483489D01*
X155730264Y-66483501D01*
X155790602Y-66629172D01*
X155790606Y-66629179D01*
X155828602Y-66686044D01*
X155849480Y-66752721D01*
X155849500Y-66754935D01*
X155849500Y-97139191D01*
X155829815Y-97206230D01*
X155813181Y-97226872D01*
X149890710Y-103149342D01*
X149829387Y-103182827D01*
X149781245Y-103182315D01*
X149781055Y-103183516D01*
X149676111Y-103166894D01*
X149566287Y-103149500D01*
X149353713Y-103149500D01*
X149305042Y-103157208D01*
X149143760Y-103182753D01*
X148941585Y-103248444D01*
X148752179Y-103344951D01*
X148580213Y-103469890D01*
X148429890Y-103620213D01*
X148304949Y-103792182D01*
X148300484Y-103800946D01*
X148252509Y-103851742D01*
X148184688Y-103868536D01*
X148118553Y-103845998D01*
X148079516Y-103800946D01*
X148075050Y-103792182D01*
X147950109Y-103620213D01*
X147799786Y-103469890D01*
X147627820Y-103344951D01*
X147438416Y-103248444D01*
X147333817Y-103214458D01*
X147276142Y-103175020D01*
X147248944Y-103110661D01*
X147260859Y-103041815D01*
X147308103Y-102990339D01*
X147324674Y-102981970D01*
X147379179Y-102959394D01*
X147510289Y-102871789D01*
X147621789Y-102760289D01*
X147709394Y-102629179D01*
X147769737Y-102483497D01*
X147800500Y-102328842D01*
X147800500Y-102171158D01*
X147800500Y-102171155D01*
X147800499Y-102171153D01*
X147787480Y-102105703D01*
X147769737Y-102016503D01*
X147736731Y-101936819D01*
X147709397Y-101870827D01*
X147709390Y-101870814D01*
X147621789Y-101739711D01*
X147621786Y-101739707D01*
X147510292Y-101628213D01*
X147510288Y-101628210D01*
X147379185Y-101540609D01*
X147379172Y-101540602D01*
X147233501Y-101480264D01*
X147233489Y-101480261D01*
X147078845Y-101449500D01*
X147078842Y-101449500D01*
X146921158Y-101449500D01*
X146921155Y-101449500D01*
X146766510Y-101480261D01*
X146766498Y-101480264D01*
X146620827Y-101540602D01*
X146620820Y-101540606D01*
X146591928Y-101559911D01*
X146563955Y-101578602D01*
X146545908Y-101584253D01*
X146530000Y-101594477D01*
X146499040Y-101598928D01*
X146497279Y-101599480D01*
X146495065Y-101599500D01*
X146397757Y-101599500D01*
X146330718Y-101579815D01*
X146284963Y-101527011D01*
X146275019Y-101457853D01*
X146276140Y-101451308D01*
X146300500Y-101328844D01*
X146300500Y-101171155D01*
X146300499Y-101171153D01*
X146269738Y-101016510D01*
X146269737Y-101016503D01*
X146234244Y-100930814D01*
X146209397Y-100870827D01*
X146209390Y-100870814D01*
X146121789Y-100739711D01*
X146121786Y-100739707D01*
X146094760Y-100712681D01*
X146061275Y-100651358D01*
X146066259Y-100581666D01*
X146094760Y-100537319D01*
X146121786Y-100510292D01*
X146121789Y-100510289D01*
X146209394Y-100379179D01*
X146269737Y-100233497D01*
X146300500Y-100078842D01*
X146300500Y-99921158D01*
X146300500Y-99921155D01*
X146300499Y-99921153D01*
X146269738Y-99766510D01*
X146269737Y-99766503D01*
X146269735Y-99766498D01*
X146209397Y-99620827D01*
X146209390Y-99620814D01*
X146121789Y-99489711D01*
X146121786Y-99489707D01*
X146010292Y-99378213D01*
X146010288Y-99378210D01*
X145879185Y-99290609D01*
X145879172Y-99290602D01*
X145733501Y-99230264D01*
X145733489Y-99230261D01*
X145578845Y-99199500D01*
X145578842Y-99199500D01*
X145421158Y-99199500D01*
X145421155Y-99199500D01*
X145266510Y-99230261D01*
X145266498Y-99230264D01*
X145120827Y-99290602D01*
X145120820Y-99290606D01*
X145091928Y-99309911D01*
X145063955Y-99328602D01*
X144997279Y-99349480D01*
X144995065Y-99349500D01*
X134935929Y-99349500D01*
X134810261Y-99374497D01*
X134810255Y-99374499D01*
X134691874Y-99423534D01*
X134585326Y-99494726D01*
X134585325Y-99494727D01*
X131244723Y-102835331D01*
X131244715Y-102835337D01*
X131174725Y-102905329D01*
X131174721Y-102905334D01*
X131103538Y-103011866D01*
X131103533Y-103011875D01*
X131054499Y-103130255D01*
X131054497Y-103130261D01*
X131028311Y-103261906D01*
X131026047Y-103261455D01*
X131003729Y-103316720D01*
X130975737Y-103341552D01*
X130976125Y-103342085D01*
X130800213Y-103469890D01*
X130649890Y-103620213D01*
X130524949Y-103792182D01*
X130520202Y-103801499D01*
X130472227Y-103852293D01*
X130404405Y-103869087D01*
X130338271Y-103846548D01*
X130299234Y-103801495D01*
X130294626Y-103792452D01*
X130255270Y-103738282D01*
X130255269Y-103738282D01*
X129622962Y-104370590D01*
X129605925Y-104307007D01*
X129540099Y-104192993D01*
X129447007Y-104099901D01*
X129332993Y-104034075D01*
X129269409Y-104017037D01*
X129901716Y-103384728D01*
X129847550Y-103345375D01*
X129658217Y-103248904D01*
X129456129Y-103183242D01*
X129246246Y-103150000D01*
X129033754Y-103150000D01*
X128823872Y-103183242D01*
X128823869Y-103183242D01*
X128621782Y-103248904D01*
X128432439Y-103345380D01*
X128378282Y-103384727D01*
X128378282Y-103384728D01*
X129010591Y-104017037D01*
X128947007Y-104034075D01*
X128832993Y-104099901D01*
X128739901Y-104192993D01*
X128674075Y-104307007D01*
X128657037Y-104370591D01*
X128024728Y-103738282D01*
X128024727Y-103738282D01*
X127985380Y-103792439D01*
X127888904Y-103981782D01*
X127823242Y-104183869D01*
X127823242Y-104183872D01*
X127790000Y-104393753D01*
X127790000Y-104606246D01*
X127823242Y-104816127D01*
X127823242Y-104816130D01*
X127888904Y-105018217D01*
X127985375Y-105207550D01*
X128024728Y-105261716D01*
X128657037Y-104629408D01*
X128674075Y-104692993D01*
X128739901Y-104807007D01*
X128832993Y-104900099D01*
X128947007Y-104965925D01*
X129010590Y-104982962D01*
X128340370Y-105653181D01*
X128279047Y-105686666D01*
X128252698Y-105689500D01*
X128242134Y-105689500D01*
X128242123Y-105689501D01*
X128182516Y-105695908D01*
X128047671Y-105746202D01*
X128047664Y-105746206D01*
X127932455Y-105832452D01*
X127932452Y-105832455D01*
X127846206Y-105947664D01*
X127846202Y-105947671D01*
X127795908Y-106082517D01*
X127789501Y-106142116D01*
X127789500Y-106142135D01*
X115471269Y-106142135D01*
X115321860Y-105992726D01*
X115321851Y-105992718D01*
X115113803Y-105833075D01*
X114886700Y-105701958D01*
X114886690Y-105701953D01*
X114644428Y-105601605D01*
X114644421Y-105601603D01*
X114644419Y-105601602D01*
X114391116Y-105533730D01*
X114333339Y-105526123D01*
X114131127Y-105499500D01*
X114131120Y-105499500D01*
X113868880Y-105499500D01*
X113868872Y-105499500D01*
X113637772Y-105529926D01*
X113608884Y-105533730D01*
X113355581Y-105601602D01*
X113355571Y-105601605D01*
X113113309Y-105701953D01*
X113113299Y-105701958D01*
X112886196Y-105833075D01*
X112678148Y-105992718D01*
X112492718Y-106178148D01*
X112333075Y-106386196D01*
X112201958Y-106613299D01*
X112201953Y-106613309D01*
X112101605Y-106855571D01*
X112101602Y-106855581D01*
X112033730Y-107108885D01*
X111999500Y-107368872D01*
X110750500Y-107368872D01*
X110750500Y-50868872D01*
X111999500Y-50868872D01*
X111999500Y-51131127D01*
X112020051Y-51287219D01*
X112033730Y-51391116D01*
X112089570Y-51599515D01*
X112101602Y-51644418D01*
X112101605Y-51644428D01*
X112201953Y-51886690D01*
X112201958Y-51886700D01*
X112333075Y-52113803D01*
X112492718Y-52321851D01*
X112492726Y-52321860D01*
X112678140Y-52507274D01*
X112678148Y-52507281D01*
X112886196Y-52666924D01*
X113113299Y-52798041D01*
X113113309Y-52798046D01*
X113305486Y-52877648D01*
X113355581Y-52898398D01*
X113608884Y-52966270D01*
X113868880Y-53000500D01*
X113868887Y-53000500D01*
X114131113Y-53000500D01*
X114131120Y-53000500D01*
X114391116Y-52966270D01*
X114644419Y-52898398D01*
X114886697Y-52798043D01*
X115113803Y-52666924D01*
X115321851Y-52507282D01*
X115321855Y-52507277D01*
X115321860Y-52507274D01*
X115507274Y-52321860D01*
X115507277Y-52321855D01*
X115507282Y-52321851D01*
X115666924Y-52113803D01*
X115798043Y-51886697D01*
X115805907Y-51867713D01*
X115845340Y-51772511D01*
X115898398Y-51644419D01*
X115966270Y-51391116D01*
X116000500Y-51131120D01*
X116000500Y-50868880D01*
X115966270Y-50608884D01*
X115898398Y-50355581D01*
X115845294Y-50227376D01*
X115798046Y-50113309D01*
X115798041Y-50113299D01*
X115666924Y-49886196D01*
X115507281Y-49678148D01*
X115507274Y-49678140D01*
X115321860Y-49492726D01*
X115321851Y-49492718D01*
X115113803Y-49333075D01*
X114886700Y-49201958D01*
X114886690Y-49201953D01*
X114644428Y-49101605D01*
X114644421Y-49101603D01*
X114644419Y-49101602D01*
X114391116Y-49033730D01*
X114333339Y-49026123D01*
X114131127Y-48999500D01*
X114131120Y-48999500D01*
X113868880Y-48999500D01*
X113868872Y-48999500D01*
X113637772Y-49029926D01*
X113608884Y-49033730D01*
X113512653Y-49059515D01*
X113355581Y-49101602D01*
X113355571Y-49101605D01*
X113113309Y-49201953D01*
X113113299Y-49201958D01*
X112886196Y-49333075D01*
X112678148Y-49492718D01*
X112492718Y-49678148D01*
X112333075Y-49886196D01*
X112201958Y-50113299D01*
X112201953Y-50113309D01*
X112101605Y-50355571D01*
X112101602Y-50355581D01*
X112051558Y-50542351D01*
X112033730Y-50608885D01*
X111999500Y-50868872D01*
X110750500Y-50868872D01*
X110750500Y-39522135D01*
X116899500Y-39522135D01*
X116899500Y-41317870D01*
X116899501Y-41317876D01*
X116905908Y-41377483D01*
X116956202Y-41512328D01*
X116956206Y-41512335D01*
X117042452Y-41627544D01*
X117042455Y-41627547D01*
X117157664Y-41713793D01*
X117157671Y-41713797D01*
X117289082Y-41762810D01*
X117345016Y-41804681D01*
X117369433Y-41870145D01*
X117354582Y-41938418D01*
X117333431Y-41966673D01*
X117219889Y-42080215D01*
X117094951Y-42252179D01*
X116998444Y-42441585D01*
X116932753Y-42643760D01*
X116899500Y-42853713D01*
X116899500Y-43066286D01*
X116923861Y-43220099D01*
X116932754Y-43276243D01*
X116970430Y-43392198D01*
X116998444Y-43478414D01*
X117094951Y-43667820D01*
X117219890Y-43839786D01*
X117370213Y-43990109D01*
X117542179Y-44115048D01*
X117542181Y-44115049D01*
X117542184Y-44115051D01*
X117551493Y-44119794D01*
X117602290Y-44167766D01*
X117619087Y-44235587D01*
X117596552Y-44301722D01*
X117551505Y-44340760D01*
X117542446Y-44345376D01*
X117542440Y-44345380D01*
X117488282Y-44384727D01*
X117488282Y-44384728D01*
X118120591Y-45017037D01*
X118057007Y-45034075D01*
X117942993Y-45099901D01*
X117849901Y-45192993D01*
X117784075Y-45307007D01*
X117767037Y-45370591D01*
X117134728Y-44738282D01*
X117134727Y-44738282D01*
X117095380Y-44792439D01*
X116998904Y-44981782D01*
X116933242Y-45183869D01*
X116933242Y-45183872D01*
X116900000Y-45393753D01*
X116900000Y-45606246D01*
X116933242Y-45816127D01*
X116933242Y-45816130D01*
X116998904Y-46018217D01*
X117095375Y-46207550D01*
X117134728Y-46261716D01*
X117767037Y-45629408D01*
X117784075Y-45692993D01*
X117849901Y-45807007D01*
X117942993Y-45900099D01*
X118057007Y-45965925D01*
X118120590Y-45982962D01*
X117488282Y-46615269D01*
X117488282Y-46615270D01*
X117542449Y-46654624D01*
X117731782Y-46751095D01*
X117933870Y-46816757D01*
X118143754Y-46850000D01*
X118356246Y-46850000D01*
X118566127Y-46816757D01*
X118566130Y-46816757D01*
X118768217Y-46751095D01*
X118957554Y-46654622D01*
X119011716Y-46615270D01*
X119011717Y-46615270D01*
X118379408Y-45982962D01*
X118442993Y-45965925D01*
X118557007Y-45900099D01*
X118650099Y-45807007D01*
X118715925Y-45692993D01*
X118732962Y-45629408D01*
X119365270Y-46261717D01*
X119365270Y-46261716D01*
X119404622Y-46207554D01*
X119501095Y-46018217D01*
X119566757Y-45816130D01*
X119566757Y-45816127D01*
X119600000Y-45606246D01*
X119600000Y-45393753D01*
X119566757Y-45183872D01*
X119566757Y-45183869D01*
X119501095Y-44981782D01*
X119404624Y-44792449D01*
X119365270Y-44738282D01*
X119365269Y-44738282D01*
X118732962Y-45370590D01*
X118715925Y-45307007D01*
X118650099Y-45192993D01*
X118557007Y-45099901D01*
X118442993Y-45034075D01*
X118379409Y-45017037D01*
X119011716Y-44384728D01*
X118957547Y-44345373D01*
X118957547Y-44345372D01*
X118948500Y-44340763D01*
X118897706Y-44292788D01*
X118880912Y-44224966D01*
X118903451Y-44158832D01*
X118948508Y-44119793D01*
X118957816Y-44115051D01*
X119070665Y-44033062D01*
X119129786Y-43990109D01*
X119129788Y-43990106D01*
X119129792Y-43990104D01*
X119280104Y-43839792D01*
X119280106Y-43839788D01*
X119280109Y-43839786D01*
X119405048Y-43667820D01*
X119405047Y-43667820D01*
X119405051Y-43667816D01*
X119501557Y-43478412D01*
X119567246Y-43276243D01*
X119600500Y-43066287D01*
X119600500Y-42853713D01*
X119584734Y-42754174D01*
X119567246Y-42643760D01*
X119567246Y-42643757D01*
X119501557Y-42441588D01*
X119405051Y-42252184D01*
X119405049Y-42252181D01*
X119405048Y-42252179D01*
X119280109Y-42080213D01*
X119166569Y-41966673D01*
X119133084Y-41905350D01*
X119138068Y-41835658D01*
X119179940Y-41779725D01*
X119210915Y-41762810D01*
X119342331Y-41713796D01*
X119457546Y-41627546D01*
X119543796Y-41512331D01*
X119594091Y-41377483D01*
X119600500Y-41317873D01*
X119600499Y-39522128D01*
X119594091Y-39462517D01*
X119583000Y-39432781D01*
X119543797Y-39327671D01*
X119543793Y-39327664D01*
X119457547Y-39212455D01*
X119457544Y-39212452D01*
X119342335Y-39126206D01*
X119342328Y-39126202D01*
X119207482Y-39075908D01*
X119207483Y-39075908D01*
X119147883Y-39069501D01*
X119147881Y-39069500D01*
X119147873Y-39069500D01*
X119147864Y-39069500D01*
X117352129Y-39069500D01*
X117352123Y-39069501D01*
X117292516Y-39075908D01*
X117157671Y-39126202D01*
X117157664Y-39126206D01*
X117042455Y-39212452D01*
X117042452Y-39212455D01*
X116956206Y-39327664D01*
X116956202Y-39327671D01*
X116905908Y-39462517D01*
X116899501Y-39522116D01*
X116899501Y-39522123D01*
X116899500Y-39522135D01*
X110750500Y-39522135D01*
X110750500Y-36624500D01*
X110770185Y-36557461D01*
X110822989Y-36511706D01*
X110874500Y-36500500D01*
X129469927Y-36500500D01*
X129536966Y-36520185D01*
G37*
%TD.AperFunction*%
%TD*%
M02*
