M48
; DRILL file {KiCad 9.0.6} date 2025-12-21T20:55:14+0100
; FORMAT={-:-/ absolute / metric / decimal}
; #@! TF.CreationDate,2025-12-21T20:55:14+01:00
; #@! TF.GenerationSoftware,Kicad,Pcbnew,9.0.6
; #@! TF.FileFunction,Plated,1,2,PTH
FMAT,2
METRIC
; #@! TA.AperFunction,Plated,PTH,ViaDrill
T1C0.300
; #@! TA.AperFunction,Plated,PTH,ComponentDrill
T2C1.000
%
G90
G05
T1
X111.5Y-85.75
X112.75Y-66.0
X113.75Y-82.0
X118.5Y-107.25
X122.25Y-45.5
X124.75Y-105.0
X126.25Y-86.25
X139.0Y-93.25
X140.0Y-48.25
X140.0Y-71.75
X145.5Y-100.0
X145.5Y-101.25
X147.0Y-102.25
X152.0Y-89.5
X153.5Y-81.0
X156.5Y-66.25
X156.75Y-98.5
X158.0Y-89.5
X158.25Y-74.75
X159.25Y-58.75
X159.25Y-64.75
X160.0Y-107.25
X161.69Y-101.31
X165.25Y-40.75
X165.5Y-64.75
X165.75Y-58.75
T2
X118.25Y-40.42
X118.25Y-42.96
X118.25Y-45.5
X118.75Y-59.9
X118.75Y-62.44
X118.75Y-64.98
X118.75Y-67.52
X118.75Y-70.06
X118.75Y-72.6
X129.14Y-104.5
X129.14Y-107.04
X130.72Y-37.74
X130.72Y-40.28
X130.72Y-42.82
X130.72Y-45.36
X130.72Y-47.9
X130.72Y-50.44
X130.72Y-52.98
X130.72Y-55.52
X130.72Y-58.06
X130.72Y-60.6
X130.72Y-63.14
X130.72Y-65.68
X130.72Y-68.22
X130.72Y-70.76
X130.72Y-73.3
X130.72Y-75.84
X130.72Y-78.38
X130.72Y-80.92
X130.72Y-83.46
X130.72Y-86.0
X131.68Y-104.5
X131.68Y-107.04
X134.22Y-104.5
X134.22Y-107.04
X136.76Y-104.5
X136.76Y-107.04
X139.3Y-104.5
X139.3Y-107.04
X141.84Y-104.5
X141.84Y-107.04
X144.38Y-104.5
X144.38Y-107.04
X146.92Y-104.5
X146.92Y-107.04
X148.5Y-37.74
X148.5Y-40.28
X148.5Y-42.82
X148.5Y-45.36
X148.5Y-47.9
X148.5Y-50.44
X148.5Y-52.98
X148.5Y-55.52
X148.5Y-58.06
X148.5Y-60.6
X148.5Y-63.14
X148.5Y-65.68
X148.5Y-68.22
X148.5Y-70.76
X148.5Y-73.3
X148.5Y-75.84
X148.5Y-78.38
X148.5Y-80.92
X148.5Y-83.46
X148.5Y-86.0
X149.46Y-104.5
X149.46Y-107.04
X152.0Y-104.5
X152.0Y-107.04
M30
