%TF.GenerationSoftware,KiCad,Pcbnew,9.0.6*%
%TF.CreationDate,2025-12-21T20:56:21+01:00*%
%TF.ProjectId,acsi2tnfs,61637369-3274-46e6-9673-2e6b69636164,rev?*%
%TF.SameCoordinates,Original*%
%TF.FileFunction,Legend,Top*%
%TF.FilePolarity,Positive*%
%FSLAX46Y46*%
G04 Gerber Fmt 4.6, Leading zero omitted, Abs format (unit mm)*
G04 Created by KiCad (PCBNEW 9.0.6) date 2025-12-21 20:56:21*
%MOMM*%
%LPD*%
G01*
G04 APERTURE LIST*
%ADD10C,0.300000*%
%ADD11C,0.150000*%
%ADD12C,0.120000*%
G04 APERTURE END LIST*
D10*
X113483082Y-99372257D02*
X114197368Y-99372257D01*
X113340225Y-99800828D02*
X113840225Y-98300828D01*
X113840225Y-98300828D02*
X114340225Y-99800828D01*
X114625939Y-98800828D02*
X115197367Y-98800828D01*
X114840224Y-98300828D02*
X114840224Y-99586542D01*
X114840224Y-99586542D02*
X114911653Y-99729400D01*
X114911653Y-99729400D02*
X115054510Y-99800828D01*
X115054510Y-99800828D02*
X115197367Y-99800828D01*
X116340225Y-99800828D02*
X116340225Y-99015114D01*
X116340225Y-99015114D02*
X116268796Y-98872257D01*
X116268796Y-98872257D02*
X116125939Y-98800828D01*
X116125939Y-98800828D02*
X115840225Y-98800828D01*
X115840225Y-98800828D02*
X115697367Y-98872257D01*
X116340225Y-99729400D02*
X116197367Y-99800828D01*
X116197367Y-99800828D02*
X115840225Y-99800828D01*
X115840225Y-99800828D02*
X115697367Y-99729400D01*
X115697367Y-99729400D02*
X115625939Y-99586542D01*
X115625939Y-99586542D02*
X115625939Y-99443685D01*
X115625939Y-99443685D02*
X115697367Y-99300828D01*
X115697367Y-99300828D02*
X115840225Y-99229400D01*
X115840225Y-99229400D02*
X116197367Y-99229400D01*
X116197367Y-99229400D02*
X116340225Y-99157971D01*
X117054510Y-99800828D02*
X117054510Y-98800828D01*
X117054510Y-99086542D02*
X117125939Y-98943685D01*
X117125939Y-98943685D02*
X117197368Y-98872257D01*
X117197368Y-98872257D02*
X117340225Y-98800828D01*
X117340225Y-98800828D02*
X117483082Y-98800828D01*
X117983081Y-99800828D02*
X117983081Y-98800828D01*
X117983081Y-98300828D02*
X117911653Y-98372257D01*
X117911653Y-98372257D02*
X117983081Y-98443685D01*
X117983081Y-98443685D02*
X118054510Y-98372257D01*
X118054510Y-98372257D02*
X117983081Y-98300828D01*
X117983081Y-98300828D02*
X117983081Y-98443685D01*
X119768796Y-99729400D02*
X119983082Y-99800828D01*
X119983082Y-99800828D02*
X120340224Y-99800828D01*
X120340224Y-99800828D02*
X120483082Y-99729400D01*
X120483082Y-99729400D02*
X120554510Y-99657971D01*
X120554510Y-99657971D02*
X120625939Y-99515114D01*
X120625939Y-99515114D02*
X120625939Y-99372257D01*
X120625939Y-99372257D02*
X120554510Y-99229400D01*
X120554510Y-99229400D02*
X120483082Y-99157971D01*
X120483082Y-99157971D02*
X120340224Y-99086542D01*
X120340224Y-99086542D02*
X120054510Y-99015114D01*
X120054510Y-99015114D02*
X119911653Y-98943685D01*
X119911653Y-98943685D02*
X119840224Y-98872257D01*
X119840224Y-98872257D02*
X119768796Y-98729400D01*
X119768796Y-98729400D02*
X119768796Y-98586542D01*
X119768796Y-98586542D02*
X119840224Y-98443685D01*
X119840224Y-98443685D02*
X119911653Y-98372257D01*
X119911653Y-98372257D02*
X120054510Y-98300828D01*
X120054510Y-98300828D02*
X120411653Y-98300828D01*
X120411653Y-98300828D02*
X120625939Y-98372257D01*
X121054510Y-98300828D02*
X121911653Y-98300828D01*
X121483081Y-99800828D02*
X121483081Y-98300828D01*
X123483081Y-99372257D02*
X124197367Y-99372257D01*
X123340224Y-99800828D02*
X123840224Y-98300828D01*
X123840224Y-98300828D02*
X124340224Y-99800828D01*
X124768795Y-99729400D02*
X124983081Y-99800828D01*
X124983081Y-99800828D02*
X125340223Y-99800828D01*
X125340223Y-99800828D02*
X125483081Y-99729400D01*
X125483081Y-99729400D02*
X125554509Y-99657971D01*
X125554509Y-99657971D02*
X125625938Y-99515114D01*
X125625938Y-99515114D02*
X125625938Y-99372257D01*
X125625938Y-99372257D02*
X125554509Y-99229400D01*
X125554509Y-99229400D02*
X125483081Y-99157971D01*
X125483081Y-99157971D02*
X125340223Y-99086542D01*
X125340223Y-99086542D02*
X125054509Y-99015114D01*
X125054509Y-99015114D02*
X124911652Y-98943685D01*
X124911652Y-98943685D02*
X124840223Y-98872257D01*
X124840223Y-98872257D02*
X124768795Y-98729400D01*
X124768795Y-98729400D02*
X124768795Y-98586542D01*
X124768795Y-98586542D02*
X124840223Y-98443685D01*
X124840223Y-98443685D02*
X124911652Y-98372257D01*
X124911652Y-98372257D02*
X125054509Y-98300828D01*
X125054509Y-98300828D02*
X125411652Y-98300828D01*
X125411652Y-98300828D02*
X125625938Y-98372257D01*
X127125937Y-99657971D02*
X127054509Y-99729400D01*
X127054509Y-99729400D02*
X126840223Y-99800828D01*
X126840223Y-99800828D02*
X126697366Y-99800828D01*
X126697366Y-99800828D02*
X126483080Y-99729400D01*
X126483080Y-99729400D02*
X126340223Y-99586542D01*
X126340223Y-99586542D02*
X126268794Y-99443685D01*
X126268794Y-99443685D02*
X126197366Y-99157971D01*
X126197366Y-99157971D02*
X126197366Y-98943685D01*
X126197366Y-98943685D02*
X126268794Y-98657971D01*
X126268794Y-98657971D02*
X126340223Y-98515114D01*
X126340223Y-98515114D02*
X126483080Y-98372257D01*
X126483080Y-98372257D02*
X126697366Y-98300828D01*
X126697366Y-98300828D02*
X126840223Y-98300828D01*
X126840223Y-98300828D02*
X127054509Y-98372257D01*
X127054509Y-98372257D02*
X127125937Y-98443685D01*
X127768794Y-99800828D02*
X127768794Y-98300828D01*
X129625937Y-98800828D02*
X129625937Y-99800828D01*
X129625937Y-98943685D02*
X129697366Y-98872257D01*
X129697366Y-98872257D02*
X129840223Y-98800828D01*
X129840223Y-98800828D02*
X130054509Y-98800828D01*
X130054509Y-98800828D02*
X130197366Y-98872257D01*
X130197366Y-98872257D02*
X130268795Y-99015114D01*
X130268795Y-99015114D02*
X130268795Y-99800828D01*
X131554509Y-99729400D02*
X131411652Y-99800828D01*
X131411652Y-99800828D02*
X131125938Y-99800828D01*
X131125938Y-99800828D02*
X130983080Y-99729400D01*
X130983080Y-99729400D02*
X130911652Y-99586542D01*
X130911652Y-99586542D02*
X130911652Y-99015114D01*
X130911652Y-99015114D02*
X130983080Y-98872257D01*
X130983080Y-98872257D02*
X131125938Y-98800828D01*
X131125938Y-98800828D02*
X131411652Y-98800828D01*
X131411652Y-98800828D02*
X131554509Y-98872257D01*
X131554509Y-98872257D02*
X131625938Y-99015114D01*
X131625938Y-99015114D02*
X131625938Y-99157971D01*
X131625938Y-99157971D02*
X130911652Y-99300828D01*
X132054509Y-98800828D02*
X132625937Y-98800828D01*
X132268794Y-98300828D02*
X132268794Y-99586542D01*
X132268794Y-99586542D02*
X132340223Y-99729400D01*
X132340223Y-99729400D02*
X132483080Y-99800828D01*
X132483080Y-99800828D02*
X132625937Y-99800828D01*
X133768795Y-99800828D02*
X133768795Y-98300828D01*
X133768795Y-99729400D02*
X133625937Y-99800828D01*
X133625937Y-99800828D02*
X133340223Y-99800828D01*
X133340223Y-99800828D02*
X133197366Y-99729400D01*
X133197366Y-99729400D02*
X133125937Y-99657971D01*
X133125937Y-99657971D02*
X133054509Y-99515114D01*
X133054509Y-99515114D02*
X133054509Y-99086542D01*
X133054509Y-99086542D02*
X133125937Y-98943685D01*
X133125937Y-98943685D02*
X133197366Y-98872257D01*
X133197366Y-98872257D02*
X133340223Y-98800828D01*
X133340223Y-98800828D02*
X133625937Y-98800828D01*
X133625937Y-98800828D02*
X133768795Y-98872257D01*
X134483080Y-99800828D02*
X134483080Y-98800828D01*
X134483080Y-99086542D02*
X134554509Y-98943685D01*
X134554509Y-98943685D02*
X134625938Y-98872257D01*
X134625938Y-98872257D02*
X134768795Y-98800828D01*
X134768795Y-98800828D02*
X134911652Y-98800828D01*
X135411651Y-99800828D02*
X135411651Y-98800828D01*
X135411651Y-98300828D02*
X135340223Y-98372257D01*
X135340223Y-98372257D02*
X135411651Y-98443685D01*
X135411651Y-98443685D02*
X135483080Y-98372257D01*
X135483080Y-98372257D02*
X135411651Y-98300828D01*
X135411651Y-98300828D02*
X135411651Y-98443685D01*
X135983080Y-98800828D02*
X136340223Y-99800828D01*
X136340223Y-99800828D02*
X136697366Y-98800828D01*
X137840223Y-99729400D02*
X137697366Y-99800828D01*
X137697366Y-99800828D02*
X137411652Y-99800828D01*
X137411652Y-99800828D02*
X137268794Y-99729400D01*
X137268794Y-99729400D02*
X137197366Y-99586542D01*
X137197366Y-99586542D02*
X137197366Y-99015114D01*
X137197366Y-99015114D02*
X137268794Y-98872257D01*
X137268794Y-98872257D02*
X137411652Y-98800828D01*
X137411652Y-98800828D02*
X137697366Y-98800828D01*
X137697366Y-98800828D02*
X137840223Y-98872257D01*
X137840223Y-98872257D02*
X137911652Y-99015114D01*
X137911652Y-99015114D02*
X137911652Y-99157971D01*
X137911652Y-99157971D02*
X137197366Y-99300828D01*
X140340223Y-99800828D02*
X140340223Y-99015114D01*
X140340223Y-99015114D02*
X140268794Y-98872257D01*
X140268794Y-98872257D02*
X140125937Y-98800828D01*
X140125937Y-98800828D02*
X139840223Y-98800828D01*
X139840223Y-98800828D02*
X139697365Y-98872257D01*
X140340223Y-99729400D02*
X140197365Y-99800828D01*
X140197365Y-99800828D02*
X139840223Y-99800828D01*
X139840223Y-99800828D02*
X139697365Y-99729400D01*
X139697365Y-99729400D02*
X139625937Y-99586542D01*
X139625937Y-99586542D02*
X139625937Y-99443685D01*
X139625937Y-99443685D02*
X139697365Y-99300828D01*
X139697365Y-99300828D02*
X139840223Y-99229400D01*
X139840223Y-99229400D02*
X140197365Y-99229400D01*
X140197365Y-99229400D02*
X140340223Y-99157971D01*
X141054508Y-98800828D02*
X141054508Y-99800828D01*
X141054508Y-98943685D02*
X141125937Y-98872257D01*
X141125937Y-98872257D02*
X141268794Y-98800828D01*
X141268794Y-98800828D02*
X141483080Y-98800828D01*
X141483080Y-98800828D02*
X141625937Y-98872257D01*
X141625937Y-98872257D02*
X141697366Y-99015114D01*
X141697366Y-99015114D02*
X141697366Y-99800828D01*
X143054509Y-99800828D02*
X143054509Y-98300828D01*
X143054509Y-99729400D02*
X142911651Y-99800828D01*
X142911651Y-99800828D02*
X142625937Y-99800828D01*
X142625937Y-99800828D02*
X142483080Y-99729400D01*
X142483080Y-99729400D02*
X142411651Y-99657971D01*
X142411651Y-99657971D02*
X142340223Y-99515114D01*
X142340223Y-99515114D02*
X142340223Y-99086542D01*
X142340223Y-99086542D02*
X142411651Y-98943685D01*
X142411651Y-98943685D02*
X142483080Y-98872257D01*
X142483080Y-98872257D02*
X142625937Y-98800828D01*
X142625937Y-98800828D02*
X142911651Y-98800828D01*
X142911651Y-98800828D02*
X143054509Y-98872257D01*
X144911651Y-99800828D02*
X144911651Y-98300828D01*
X145554509Y-99800828D02*
X145554509Y-99015114D01*
X145554509Y-99015114D02*
X145483080Y-98872257D01*
X145483080Y-98872257D02*
X145340223Y-98800828D01*
X145340223Y-98800828D02*
X145125937Y-98800828D01*
X145125937Y-98800828D02*
X144983080Y-98872257D01*
X144983080Y-98872257D02*
X144911651Y-98943685D01*
X146911652Y-99800828D02*
X146911652Y-99015114D01*
X146911652Y-99015114D02*
X146840223Y-98872257D01*
X146840223Y-98872257D02*
X146697366Y-98800828D01*
X146697366Y-98800828D02*
X146411652Y-98800828D01*
X146411652Y-98800828D02*
X146268794Y-98872257D01*
X146911652Y-99729400D02*
X146768794Y-99800828D01*
X146768794Y-99800828D02*
X146411652Y-99800828D01*
X146411652Y-99800828D02*
X146268794Y-99729400D01*
X146268794Y-99729400D02*
X146197366Y-99586542D01*
X146197366Y-99586542D02*
X146197366Y-99443685D01*
X146197366Y-99443685D02*
X146268794Y-99300828D01*
X146268794Y-99300828D02*
X146411652Y-99229400D01*
X146411652Y-99229400D02*
X146768794Y-99229400D01*
X146768794Y-99229400D02*
X146911652Y-99157971D01*
X147625937Y-99800828D02*
X147625937Y-98800828D01*
X147625937Y-99086542D02*
X147697366Y-98943685D01*
X147697366Y-98943685D02*
X147768795Y-98872257D01*
X147768795Y-98872257D02*
X147911652Y-98800828D01*
X147911652Y-98800828D02*
X148054509Y-98800828D01*
X149197366Y-99800828D02*
X149197366Y-98300828D01*
X149197366Y-99729400D02*
X149054508Y-99800828D01*
X149054508Y-99800828D02*
X148768794Y-99800828D01*
X148768794Y-99800828D02*
X148625937Y-99729400D01*
X148625937Y-99729400D02*
X148554508Y-99657971D01*
X148554508Y-99657971D02*
X148483080Y-99515114D01*
X148483080Y-99515114D02*
X148483080Y-99086542D01*
X148483080Y-99086542D02*
X148554508Y-98943685D01*
X148554508Y-98943685D02*
X148625937Y-98872257D01*
X148625937Y-98872257D02*
X148768794Y-98800828D01*
X148768794Y-98800828D02*
X149054508Y-98800828D01*
X149054508Y-98800828D02*
X149197366Y-98872257D01*
X150554509Y-99800828D02*
X150554509Y-98300828D01*
X150554509Y-99729400D02*
X150411651Y-99800828D01*
X150411651Y-99800828D02*
X150125937Y-99800828D01*
X150125937Y-99800828D02*
X149983080Y-99729400D01*
X149983080Y-99729400D02*
X149911651Y-99657971D01*
X149911651Y-99657971D02*
X149840223Y-99515114D01*
X149840223Y-99515114D02*
X149840223Y-99086542D01*
X149840223Y-99086542D02*
X149911651Y-98943685D01*
X149911651Y-98943685D02*
X149983080Y-98872257D01*
X149983080Y-98872257D02*
X150125937Y-98800828D01*
X150125937Y-98800828D02*
X150411651Y-98800828D01*
X150411651Y-98800828D02*
X150554509Y-98872257D01*
X151268794Y-99800828D02*
X151268794Y-98800828D01*
X151268794Y-98300828D02*
X151197366Y-98372257D01*
X151197366Y-98372257D02*
X151268794Y-98443685D01*
X151268794Y-98443685D02*
X151340223Y-98372257D01*
X151340223Y-98372257D02*
X151268794Y-98300828D01*
X151268794Y-98300828D02*
X151268794Y-98443685D01*
X151911652Y-99729400D02*
X152054509Y-99800828D01*
X152054509Y-99800828D02*
X152340223Y-99800828D01*
X152340223Y-99800828D02*
X152483080Y-99729400D01*
X152483080Y-99729400D02*
X152554509Y-99586542D01*
X152554509Y-99586542D02*
X152554509Y-99515114D01*
X152554509Y-99515114D02*
X152483080Y-99372257D01*
X152483080Y-99372257D02*
X152340223Y-99300828D01*
X152340223Y-99300828D02*
X152125938Y-99300828D01*
X152125938Y-99300828D02*
X151983080Y-99229400D01*
X151983080Y-99229400D02*
X151911652Y-99086542D01*
X151911652Y-99086542D02*
X151911652Y-99015114D01*
X151911652Y-99015114D02*
X151983080Y-98872257D01*
X151983080Y-98872257D02*
X152125938Y-98800828D01*
X152125938Y-98800828D02*
X152340223Y-98800828D01*
X152340223Y-98800828D02*
X152483080Y-98872257D01*
X153197366Y-99800828D02*
X153197366Y-98300828D01*
X153340224Y-99229400D02*
X153768795Y-99800828D01*
X153768795Y-98800828D02*
X153197366Y-99372257D01*
X156125938Y-99729400D02*
X155983081Y-99800828D01*
X155983081Y-99800828D02*
X155697367Y-99800828D01*
X155697367Y-99800828D02*
X155554509Y-99729400D01*
X155554509Y-99729400D02*
X155483081Y-99586542D01*
X155483081Y-99586542D02*
X155483081Y-99015114D01*
X155483081Y-99015114D02*
X155554509Y-98872257D01*
X155554509Y-98872257D02*
X155697367Y-98800828D01*
X155697367Y-98800828D02*
X155983081Y-98800828D01*
X155983081Y-98800828D02*
X156125938Y-98872257D01*
X156125938Y-98872257D02*
X156197367Y-99015114D01*
X156197367Y-99015114D02*
X156197367Y-99157971D01*
X156197367Y-99157971D02*
X155483081Y-99300828D01*
X156840223Y-99800828D02*
X156840223Y-98800828D01*
X156840223Y-98943685D02*
X156911652Y-98872257D01*
X156911652Y-98872257D02*
X157054509Y-98800828D01*
X157054509Y-98800828D02*
X157268795Y-98800828D01*
X157268795Y-98800828D02*
X157411652Y-98872257D01*
X157411652Y-98872257D02*
X157483081Y-99015114D01*
X157483081Y-99015114D02*
X157483081Y-99800828D01*
X157483081Y-99015114D02*
X157554509Y-98872257D01*
X157554509Y-98872257D02*
X157697366Y-98800828D01*
X157697366Y-98800828D02*
X157911652Y-98800828D01*
X157911652Y-98800828D02*
X158054509Y-98872257D01*
X158054509Y-98872257D02*
X158125938Y-99015114D01*
X158125938Y-99015114D02*
X158125938Y-99800828D01*
X159483081Y-98800828D02*
X159483081Y-99800828D01*
X158840223Y-98800828D02*
X158840223Y-99586542D01*
X158840223Y-99586542D02*
X158911652Y-99729400D01*
X158911652Y-99729400D02*
X159054509Y-99800828D01*
X159054509Y-99800828D02*
X159268795Y-99800828D01*
X159268795Y-99800828D02*
X159411652Y-99729400D01*
X159411652Y-99729400D02*
X159483081Y-99657971D01*
X160411652Y-99800828D02*
X160268795Y-99729400D01*
X160268795Y-99729400D02*
X160197366Y-99586542D01*
X160197366Y-99586542D02*
X160197366Y-98300828D01*
X161625938Y-99800828D02*
X161625938Y-99015114D01*
X161625938Y-99015114D02*
X161554509Y-98872257D01*
X161554509Y-98872257D02*
X161411652Y-98800828D01*
X161411652Y-98800828D02*
X161125938Y-98800828D01*
X161125938Y-98800828D02*
X160983080Y-98872257D01*
X161625938Y-99729400D02*
X161483080Y-99800828D01*
X161483080Y-99800828D02*
X161125938Y-99800828D01*
X161125938Y-99800828D02*
X160983080Y-99729400D01*
X160983080Y-99729400D02*
X160911652Y-99586542D01*
X160911652Y-99586542D02*
X160911652Y-99443685D01*
X160911652Y-99443685D02*
X160983080Y-99300828D01*
X160983080Y-99300828D02*
X161125938Y-99229400D01*
X161125938Y-99229400D02*
X161483080Y-99229400D01*
X161483080Y-99229400D02*
X161625938Y-99157971D01*
X162125938Y-98800828D02*
X162697366Y-98800828D01*
X162340223Y-98300828D02*
X162340223Y-99586542D01*
X162340223Y-99586542D02*
X162411652Y-99729400D01*
X162411652Y-99729400D02*
X162554509Y-99800828D01*
X162554509Y-99800828D02*
X162697366Y-99800828D01*
X163411652Y-99800828D02*
X163268795Y-99729400D01*
X163268795Y-99729400D02*
X163197366Y-99657971D01*
X163197366Y-99657971D02*
X163125938Y-99515114D01*
X163125938Y-99515114D02*
X163125938Y-99086542D01*
X163125938Y-99086542D02*
X163197366Y-98943685D01*
X163197366Y-98943685D02*
X163268795Y-98872257D01*
X163268795Y-98872257D02*
X163411652Y-98800828D01*
X163411652Y-98800828D02*
X163625938Y-98800828D01*
X163625938Y-98800828D02*
X163768795Y-98872257D01*
X163768795Y-98872257D02*
X163840224Y-98943685D01*
X163840224Y-98943685D02*
X163911652Y-99086542D01*
X163911652Y-99086542D02*
X163911652Y-99515114D01*
X163911652Y-99515114D02*
X163840224Y-99657971D01*
X163840224Y-99657971D02*
X163768795Y-99729400D01*
X163768795Y-99729400D02*
X163625938Y-99800828D01*
X163625938Y-99800828D02*
X163411652Y-99800828D01*
X164554509Y-99800828D02*
X164554509Y-98800828D01*
X164554509Y-99086542D02*
X164625938Y-98943685D01*
X164625938Y-98943685D02*
X164697367Y-98872257D01*
X164697367Y-98872257D02*
X164840224Y-98800828D01*
X164840224Y-98800828D02*
X164983081Y-98800828D01*
D11*
X158495833Y-41054819D02*
X158162500Y-40578628D01*
X157924405Y-41054819D02*
X157924405Y-40054819D01*
X157924405Y-40054819D02*
X158305357Y-40054819D01*
X158305357Y-40054819D02*
X158400595Y-40102438D01*
X158400595Y-40102438D02*
X158448214Y-40150057D01*
X158448214Y-40150057D02*
X158495833Y-40245295D01*
X158495833Y-40245295D02*
X158495833Y-40388152D01*
X158495833Y-40388152D02*
X158448214Y-40483390D01*
X158448214Y-40483390D02*
X158400595Y-40531009D01*
X158400595Y-40531009D02*
X158305357Y-40578628D01*
X158305357Y-40578628D02*
X157924405Y-40578628D01*
X158829167Y-40054819D02*
X159448214Y-40054819D01*
X159448214Y-40054819D02*
X159114881Y-40435771D01*
X159114881Y-40435771D02*
X159257738Y-40435771D01*
X159257738Y-40435771D02*
X159352976Y-40483390D01*
X159352976Y-40483390D02*
X159400595Y-40531009D01*
X159400595Y-40531009D02*
X159448214Y-40626247D01*
X159448214Y-40626247D02*
X159448214Y-40864342D01*
X159448214Y-40864342D02*
X159400595Y-40959580D01*
X159400595Y-40959580D02*
X159352976Y-41007200D01*
X159352976Y-41007200D02*
X159257738Y-41054819D01*
X159257738Y-41054819D02*
X158972024Y-41054819D01*
X158972024Y-41054819D02*
X158876786Y-41007200D01*
X158876786Y-41007200D02*
X158829167Y-40959580D01*
X159833333Y-71354819D02*
X159500000Y-70878628D01*
X159261905Y-71354819D02*
X159261905Y-70354819D01*
X159261905Y-70354819D02*
X159642857Y-70354819D01*
X159642857Y-70354819D02*
X159738095Y-70402438D01*
X159738095Y-70402438D02*
X159785714Y-70450057D01*
X159785714Y-70450057D02*
X159833333Y-70545295D01*
X159833333Y-70545295D02*
X159833333Y-70688152D01*
X159833333Y-70688152D02*
X159785714Y-70783390D01*
X159785714Y-70783390D02*
X159738095Y-70831009D01*
X159738095Y-70831009D02*
X159642857Y-70878628D01*
X159642857Y-70878628D02*
X159261905Y-70878628D01*
X160214286Y-70450057D02*
X160261905Y-70402438D01*
X160261905Y-70402438D02*
X160357143Y-70354819D01*
X160357143Y-70354819D02*
X160595238Y-70354819D01*
X160595238Y-70354819D02*
X160690476Y-70402438D01*
X160690476Y-70402438D02*
X160738095Y-70450057D01*
X160738095Y-70450057D02*
X160785714Y-70545295D01*
X160785714Y-70545295D02*
X160785714Y-70640533D01*
X160785714Y-70640533D02*
X160738095Y-70783390D01*
X160738095Y-70783390D02*
X160166667Y-71354819D01*
X160166667Y-71354819D02*
X160785714Y-71354819D01*
X155670833Y-71354819D02*
X155337500Y-70878628D01*
X155099405Y-71354819D02*
X155099405Y-70354819D01*
X155099405Y-70354819D02*
X155480357Y-70354819D01*
X155480357Y-70354819D02*
X155575595Y-70402438D01*
X155575595Y-70402438D02*
X155623214Y-70450057D01*
X155623214Y-70450057D02*
X155670833Y-70545295D01*
X155670833Y-70545295D02*
X155670833Y-70688152D01*
X155670833Y-70688152D02*
X155623214Y-70783390D01*
X155623214Y-70783390D02*
X155575595Y-70831009D01*
X155575595Y-70831009D02*
X155480357Y-70878628D01*
X155480357Y-70878628D02*
X155099405Y-70878628D01*
X156623214Y-71354819D02*
X156051786Y-71354819D01*
X156337500Y-71354819D02*
X156337500Y-70354819D01*
X156337500Y-70354819D02*
X156242262Y-70497676D01*
X156242262Y-70497676D02*
X156147024Y-70592914D01*
X156147024Y-70592914D02*
X156051786Y-70640533D01*
X158670833Y-46104819D02*
X158337500Y-45628628D01*
X158099405Y-46104819D02*
X158099405Y-45104819D01*
X158099405Y-45104819D02*
X158480357Y-45104819D01*
X158480357Y-45104819D02*
X158575595Y-45152438D01*
X158575595Y-45152438D02*
X158623214Y-45200057D01*
X158623214Y-45200057D02*
X158670833Y-45295295D01*
X158670833Y-45295295D02*
X158670833Y-45438152D01*
X158670833Y-45438152D02*
X158623214Y-45533390D01*
X158623214Y-45533390D02*
X158575595Y-45581009D01*
X158575595Y-45581009D02*
X158480357Y-45628628D01*
X158480357Y-45628628D02*
X158099405Y-45628628D01*
X159527976Y-45438152D02*
X159527976Y-46104819D01*
X159289881Y-45057200D02*
X159051786Y-45771485D01*
X159051786Y-45771485D02*
X159670833Y-45771485D01*
X126214819Y-106103333D02*
X126929104Y-106103333D01*
X126929104Y-106103333D02*
X127071961Y-106150952D01*
X127071961Y-106150952D02*
X127167200Y-106246190D01*
X127167200Y-106246190D02*
X127214819Y-106389047D01*
X127214819Y-106389047D02*
X127214819Y-106484285D01*
X126310057Y-105674761D02*
X126262438Y-105627142D01*
X126262438Y-105627142D02*
X126214819Y-105531904D01*
X126214819Y-105531904D02*
X126214819Y-105293809D01*
X126214819Y-105293809D02*
X126262438Y-105198571D01*
X126262438Y-105198571D02*
X126310057Y-105150952D01*
X126310057Y-105150952D02*
X126405295Y-105103333D01*
X126405295Y-105103333D02*
X126500533Y-105103333D01*
X126500533Y-105103333D02*
X126643390Y-105150952D01*
X126643390Y-105150952D02*
X127214819Y-105722380D01*
X127214819Y-105722380D02*
X127214819Y-105103333D01*
X125988095Y-95954819D02*
X125988095Y-96764342D01*
X125988095Y-96764342D02*
X126035714Y-96859580D01*
X126035714Y-96859580D02*
X126083333Y-96907200D01*
X126083333Y-96907200D02*
X126178571Y-96954819D01*
X126178571Y-96954819D02*
X126369047Y-96954819D01*
X126369047Y-96954819D02*
X126464285Y-96907200D01*
X126464285Y-96907200D02*
X126511904Y-96859580D01*
X126511904Y-96859580D02*
X126559523Y-96764342D01*
X126559523Y-96764342D02*
X126559523Y-95954819D01*
X127559523Y-96954819D02*
X126988095Y-96954819D01*
X127273809Y-96954819D02*
X127273809Y-95954819D01*
X127273809Y-95954819D02*
X127178571Y-96097676D01*
X127178571Y-96097676D02*
X127083333Y-96192914D01*
X127083333Y-96192914D02*
X126988095Y-96240533D01*
X117916666Y-37494819D02*
X117916666Y-38209104D01*
X117916666Y-38209104D02*
X117869047Y-38351961D01*
X117869047Y-38351961D02*
X117773809Y-38447200D01*
X117773809Y-38447200D02*
X117630952Y-38494819D01*
X117630952Y-38494819D02*
X117535714Y-38494819D01*
X118916666Y-38494819D02*
X118345238Y-38494819D01*
X118630952Y-38494819D02*
X118630952Y-37494819D01*
X118630952Y-37494819D02*
X118535714Y-37637676D01*
X118535714Y-37637676D02*
X118440476Y-37732914D01*
X118440476Y-37732914D02*
X118345238Y-37780533D01*
X115704819Y-45297618D02*
X114704819Y-45297618D01*
X114704819Y-45297618D02*
X114704819Y-45059523D01*
X114704819Y-45059523D02*
X114752438Y-44916666D01*
X114752438Y-44916666D02*
X114847676Y-44821428D01*
X114847676Y-44821428D02*
X114942914Y-44773809D01*
X114942914Y-44773809D02*
X115133390Y-44726190D01*
X115133390Y-44726190D02*
X115276247Y-44726190D01*
X115276247Y-44726190D02*
X115466723Y-44773809D01*
X115466723Y-44773809D02*
X115561961Y-44821428D01*
X115561961Y-44821428D02*
X115657200Y-44916666D01*
X115657200Y-44916666D02*
X115704819Y-45059523D01*
X115704819Y-45059523D02*
X115704819Y-45297618D01*
X115657200Y-43916666D02*
X115704819Y-44011904D01*
X115704819Y-44011904D02*
X115704819Y-44202380D01*
X115704819Y-44202380D02*
X115657200Y-44297618D01*
X115657200Y-44297618D02*
X115561961Y-44345237D01*
X115561961Y-44345237D02*
X115181009Y-44345237D01*
X115181009Y-44345237D02*
X115085771Y-44297618D01*
X115085771Y-44297618D02*
X115038152Y-44202380D01*
X115038152Y-44202380D02*
X115038152Y-44011904D01*
X115038152Y-44011904D02*
X115085771Y-43916666D01*
X115085771Y-43916666D02*
X115181009Y-43869047D01*
X115181009Y-43869047D02*
X115276247Y-43869047D01*
X115276247Y-43869047D02*
X115371485Y-44345237D01*
X115704819Y-43440475D02*
X114704819Y-43440475D01*
X115085771Y-43440475D02*
X115038152Y-43345237D01*
X115038152Y-43345237D02*
X115038152Y-43154761D01*
X115038152Y-43154761D02*
X115085771Y-43059523D01*
X115085771Y-43059523D02*
X115133390Y-43011904D01*
X115133390Y-43011904D02*
X115228628Y-42964285D01*
X115228628Y-42964285D02*
X115514342Y-42964285D01*
X115514342Y-42964285D02*
X115609580Y-43011904D01*
X115609580Y-43011904D02*
X115657200Y-43059523D01*
X115657200Y-43059523D02*
X115704819Y-43154761D01*
X115704819Y-43154761D02*
X115704819Y-43345237D01*
X115704819Y-43345237D02*
X115657200Y-43440475D01*
X115038152Y-42107142D02*
X115704819Y-42107142D01*
X115038152Y-42535713D02*
X115561961Y-42535713D01*
X115561961Y-42535713D02*
X115657200Y-42488094D01*
X115657200Y-42488094D02*
X115704819Y-42392856D01*
X115704819Y-42392856D02*
X115704819Y-42249999D01*
X115704819Y-42249999D02*
X115657200Y-42154761D01*
X115657200Y-42154761D02*
X115609580Y-42107142D01*
X115038152Y-41202380D02*
X115847676Y-41202380D01*
X115847676Y-41202380D02*
X115942914Y-41249999D01*
X115942914Y-41249999D02*
X115990533Y-41297618D01*
X115990533Y-41297618D02*
X116038152Y-41392856D01*
X116038152Y-41392856D02*
X116038152Y-41535713D01*
X116038152Y-41535713D02*
X115990533Y-41630951D01*
X115657200Y-41202380D02*
X115704819Y-41297618D01*
X115704819Y-41297618D02*
X115704819Y-41488094D01*
X115704819Y-41488094D02*
X115657200Y-41583332D01*
X115657200Y-41583332D02*
X115609580Y-41630951D01*
X115609580Y-41630951D02*
X115514342Y-41678570D01*
X115514342Y-41678570D02*
X115228628Y-41678570D01*
X115228628Y-41678570D02*
X115133390Y-41630951D01*
X115133390Y-41630951D02*
X115085771Y-41583332D01*
X115085771Y-41583332D02*
X115038152Y-41488094D01*
X115038152Y-41488094D02*
X115038152Y-41297618D01*
X115038152Y-41297618D02*
X115085771Y-41202380D01*
X151988095Y-95954819D02*
X151988095Y-96764342D01*
X151988095Y-96764342D02*
X152035714Y-96859580D01*
X152035714Y-96859580D02*
X152083333Y-96907200D01*
X152083333Y-96907200D02*
X152178571Y-96954819D01*
X152178571Y-96954819D02*
X152369047Y-96954819D01*
X152369047Y-96954819D02*
X152464285Y-96907200D01*
X152464285Y-96907200D02*
X152511904Y-96859580D01*
X152511904Y-96859580D02*
X152559523Y-96764342D01*
X152559523Y-96764342D02*
X152559523Y-95954819D01*
X152988095Y-96050057D02*
X153035714Y-96002438D01*
X153035714Y-96002438D02*
X153130952Y-95954819D01*
X153130952Y-95954819D02*
X153369047Y-95954819D01*
X153369047Y-95954819D02*
X153464285Y-96002438D01*
X153464285Y-96002438D02*
X153511904Y-96050057D01*
X153511904Y-96050057D02*
X153559523Y-96145295D01*
X153559523Y-96145295D02*
X153559523Y-96240533D01*
X153559523Y-96240533D02*
X153511904Y-96383390D01*
X153511904Y-96383390D02*
X152940476Y-96954819D01*
X152940476Y-96954819D02*
X153559523Y-96954819D01*
X118416666Y-74434819D02*
X118416666Y-75149104D01*
X118416666Y-75149104D02*
X118369047Y-75291961D01*
X118369047Y-75291961D02*
X118273809Y-75387200D01*
X118273809Y-75387200D02*
X118130952Y-75434819D01*
X118130952Y-75434819D02*
X118035714Y-75434819D01*
X118797619Y-74434819D02*
X119416666Y-74434819D01*
X119416666Y-74434819D02*
X119083333Y-74815771D01*
X119083333Y-74815771D02*
X119226190Y-74815771D01*
X119226190Y-74815771D02*
X119321428Y-74863390D01*
X119321428Y-74863390D02*
X119369047Y-74911009D01*
X119369047Y-74911009D02*
X119416666Y-75006247D01*
X119416666Y-75006247D02*
X119416666Y-75244342D01*
X119416666Y-75244342D02*
X119369047Y-75339580D01*
X119369047Y-75339580D02*
X119321428Y-75387200D01*
X119321428Y-75387200D02*
X119226190Y-75434819D01*
X119226190Y-75434819D02*
X118940476Y-75434819D01*
X118940476Y-75434819D02*
X118845238Y-75387200D01*
X118845238Y-75387200D02*
X118797619Y-75339580D01*
X115204819Y-69369047D02*
X115204819Y-68797619D01*
X116204819Y-69083333D02*
X115204819Y-69083333D01*
X116204819Y-68321428D02*
X116157200Y-68416666D01*
X116157200Y-68416666D02*
X116109580Y-68464285D01*
X116109580Y-68464285D02*
X116014342Y-68511904D01*
X116014342Y-68511904D02*
X115728628Y-68511904D01*
X115728628Y-68511904D02*
X115633390Y-68464285D01*
X115633390Y-68464285D02*
X115585771Y-68416666D01*
X115585771Y-68416666D02*
X115538152Y-68321428D01*
X115538152Y-68321428D02*
X115538152Y-68178571D01*
X115538152Y-68178571D02*
X115585771Y-68083333D01*
X115585771Y-68083333D02*
X115633390Y-68035714D01*
X115633390Y-68035714D02*
X115728628Y-67988095D01*
X115728628Y-67988095D02*
X116014342Y-67988095D01*
X116014342Y-67988095D02*
X116109580Y-68035714D01*
X116109580Y-68035714D02*
X116157200Y-68083333D01*
X116157200Y-68083333D02*
X116204819Y-68178571D01*
X116204819Y-68178571D02*
X116204819Y-68321428D01*
X116157200Y-66845237D02*
X116204819Y-66702380D01*
X116204819Y-66702380D02*
X116204819Y-66464285D01*
X116204819Y-66464285D02*
X116157200Y-66369047D01*
X116157200Y-66369047D02*
X116109580Y-66321428D01*
X116109580Y-66321428D02*
X116014342Y-66273809D01*
X116014342Y-66273809D02*
X115919104Y-66273809D01*
X115919104Y-66273809D02*
X115823866Y-66321428D01*
X115823866Y-66321428D02*
X115776247Y-66369047D01*
X115776247Y-66369047D02*
X115728628Y-66464285D01*
X115728628Y-66464285D02*
X115681009Y-66654761D01*
X115681009Y-66654761D02*
X115633390Y-66749999D01*
X115633390Y-66749999D02*
X115585771Y-66797618D01*
X115585771Y-66797618D02*
X115490533Y-66845237D01*
X115490533Y-66845237D02*
X115395295Y-66845237D01*
X115395295Y-66845237D02*
X115300057Y-66797618D01*
X115300057Y-66797618D02*
X115252438Y-66749999D01*
X115252438Y-66749999D02*
X115204819Y-66654761D01*
X115204819Y-66654761D02*
X115204819Y-66416666D01*
X115204819Y-66416666D02*
X115252438Y-66273809D01*
X116204819Y-65845237D02*
X115204819Y-65845237D01*
X115204819Y-65845237D02*
X115204819Y-65607142D01*
X115204819Y-65607142D02*
X115252438Y-65464285D01*
X115252438Y-65464285D02*
X115347676Y-65369047D01*
X115347676Y-65369047D02*
X115442914Y-65321428D01*
X115442914Y-65321428D02*
X115633390Y-65273809D01*
X115633390Y-65273809D02*
X115776247Y-65273809D01*
X115776247Y-65273809D02*
X115966723Y-65321428D01*
X115966723Y-65321428D02*
X116061961Y-65369047D01*
X116061961Y-65369047D02*
X116157200Y-65464285D01*
X116157200Y-65464285D02*
X116204819Y-65607142D01*
X116204819Y-65607142D02*
X116204819Y-65845237D01*
X116157200Y-63654761D02*
X116204819Y-63749999D01*
X116204819Y-63749999D02*
X116204819Y-63940475D01*
X116204819Y-63940475D02*
X116157200Y-64035713D01*
X116157200Y-64035713D02*
X116109580Y-64083332D01*
X116109580Y-64083332D02*
X116014342Y-64130951D01*
X116014342Y-64130951D02*
X115728628Y-64130951D01*
X115728628Y-64130951D02*
X115633390Y-64083332D01*
X115633390Y-64083332D02*
X115585771Y-64035713D01*
X115585771Y-64035713D02*
X115538152Y-63940475D01*
X115538152Y-63940475D02*
X115538152Y-63749999D01*
X115538152Y-63749999D02*
X115585771Y-63654761D01*
X116204819Y-62797618D02*
X115681009Y-62797618D01*
X115681009Y-62797618D02*
X115585771Y-62845237D01*
X115585771Y-62845237D02*
X115538152Y-62940475D01*
X115538152Y-62940475D02*
X115538152Y-63130951D01*
X115538152Y-63130951D02*
X115585771Y-63226189D01*
X116157200Y-62797618D02*
X116204819Y-62892856D01*
X116204819Y-62892856D02*
X116204819Y-63130951D01*
X116204819Y-63130951D02*
X116157200Y-63226189D01*
X116157200Y-63226189D02*
X116061961Y-63273808D01*
X116061961Y-63273808D02*
X115966723Y-63273808D01*
X115966723Y-63273808D02*
X115871485Y-63226189D01*
X115871485Y-63226189D02*
X115823866Y-63130951D01*
X115823866Y-63130951D02*
X115823866Y-62892856D01*
X115823866Y-62892856D02*
X115776247Y-62797618D01*
X116204819Y-62321427D02*
X115538152Y-62321427D01*
X115728628Y-62321427D02*
X115633390Y-62273808D01*
X115633390Y-62273808D02*
X115585771Y-62226189D01*
X115585771Y-62226189D02*
X115538152Y-62130951D01*
X115538152Y-62130951D02*
X115538152Y-62035713D01*
X116204819Y-61273808D02*
X115204819Y-61273808D01*
X116157200Y-61273808D02*
X116204819Y-61369046D01*
X116204819Y-61369046D02*
X116204819Y-61559522D01*
X116204819Y-61559522D02*
X116157200Y-61654760D01*
X116157200Y-61654760D02*
X116109580Y-61702379D01*
X116109580Y-61702379D02*
X116014342Y-61749998D01*
X116014342Y-61749998D02*
X115728628Y-61749998D01*
X115728628Y-61749998D02*
X115633390Y-61702379D01*
X115633390Y-61702379D02*
X115585771Y-61654760D01*
X115585771Y-61654760D02*
X115538152Y-61559522D01*
X115538152Y-61559522D02*
X115538152Y-61369046D01*
X115538152Y-61369046D02*
X115585771Y-61273808D01*
X163574405Y-41104819D02*
X163574405Y-40104819D01*
X163574405Y-40104819D02*
X163812500Y-40104819D01*
X163812500Y-40104819D02*
X163955357Y-40152438D01*
X163955357Y-40152438D02*
X164050595Y-40247676D01*
X164050595Y-40247676D02*
X164098214Y-40342914D01*
X164098214Y-40342914D02*
X164145833Y-40533390D01*
X164145833Y-40533390D02*
X164145833Y-40676247D01*
X164145833Y-40676247D02*
X164098214Y-40866723D01*
X164098214Y-40866723D02*
X164050595Y-40961961D01*
X164050595Y-40961961D02*
X163955357Y-41057200D01*
X163955357Y-41057200D02*
X163812500Y-41104819D01*
X163812500Y-41104819D02*
X163574405Y-41104819D01*
X165098214Y-41104819D02*
X164526786Y-41104819D01*
X164812500Y-41104819D02*
X164812500Y-40104819D01*
X164812500Y-40104819D02*
X164717262Y-40247676D01*
X164717262Y-40247676D02*
X164622024Y-40342914D01*
X164622024Y-40342914D02*
X164526786Y-40390533D01*
X166583333Y-53109580D02*
X166535714Y-53157200D01*
X166535714Y-53157200D02*
X166392857Y-53204819D01*
X166392857Y-53204819D02*
X166297619Y-53204819D01*
X166297619Y-53204819D02*
X166154762Y-53157200D01*
X166154762Y-53157200D02*
X166059524Y-53061961D01*
X166059524Y-53061961D02*
X166011905Y-52966723D01*
X166011905Y-52966723D02*
X165964286Y-52776247D01*
X165964286Y-52776247D02*
X165964286Y-52633390D01*
X165964286Y-52633390D02*
X166011905Y-52442914D01*
X166011905Y-52442914D02*
X166059524Y-52347676D01*
X166059524Y-52347676D02*
X166154762Y-52252438D01*
X166154762Y-52252438D02*
X166297619Y-52204819D01*
X166297619Y-52204819D02*
X166392857Y-52204819D01*
X166392857Y-52204819D02*
X166535714Y-52252438D01*
X166535714Y-52252438D02*
X166583333Y-52300057D01*
X167440476Y-52204819D02*
X167250000Y-52204819D01*
X167250000Y-52204819D02*
X167154762Y-52252438D01*
X167154762Y-52252438D02*
X167107143Y-52300057D01*
X167107143Y-52300057D02*
X167011905Y-52442914D01*
X167011905Y-52442914D02*
X166964286Y-52633390D01*
X166964286Y-52633390D02*
X166964286Y-53014342D01*
X166964286Y-53014342D02*
X167011905Y-53109580D01*
X167011905Y-53109580D02*
X167059524Y-53157200D01*
X167059524Y-53157200D02*
X167154762Y-53204819D01*
X167154762Y-53204819D02*
X167345238Y-53204819D01*
X167345238Y-53204819D02*
X167440476Y-53157200D01*
X167440476Y-53157200D02*
X167488095Y-53109580D01*
X167488095Y-53109580D02*
X167535714Y-53014342D01*
X167535714Y-53014342D02*
X167535714Y-52776247D01*
X167535714Y-52776247D02*
X167488095Y-52681009D01*
X167488095Y-52681009D02*
X167440476Y-52633390D01*
X167440476Y-52633390D02*
X167345238Y-52585771D01*
X167345238Y-52585771D02*
X167154762Y-52585771D01*
X167154762Y-52585771D02*
X167059524Y-52633390D01*
X167059524Y-52633390D02*
X167011905Y-52681009D01*
X167011905Y-52681009D02*
X166964286Y-52776247D01*
X151083333Y-94809580D02*
X151035714Y-94857200D01*
X151035714Y-94857200D02*
X150892857Y-94904819D01*
X150892857Y-94904819D02*
X150797619Y-94904819D01*
X150797619Y-94904819D02*
X150654762Y-94857200D01*
X150654762Y-94857200D02*
X150559524Y-94761961D01*
X150559524Y-94761961D02*
X150511905Y-94666723D01*
X150511905Y-94666723D02*
X150464286Y-94476247D01*
X150464286Y-94476247D02*
X150464286Y-94333390D01*
X150464286Y-94333390D02*
X150511905Y-94142914D01*
X150511905Y-94142914D02*
X150559524Y-94047676D01*
X150559524Y-94047676D02*
X150654762Y-93952438D01*
X150654762Y-93952438D02*
X150797619Y-93904819D01*
X150797619Y-93904819D02*
X150892857Y-93904819D01*
X150892857Y-93904819D02*
X151035714Y-93952438D01*
X151035714Y-93952438D02*
X151083333Y-94000057D01*
X151416667Y-93904819D02*
X152035714Y-93904819D01*
X152035714Y-93904819D02*
X151702381Y-94285771D01*
X151702381Y-94285771D02*
X151845238Y-94285771D01*
X151845238Y-94285771D02*
X151940476Y-94333390D01*
X151940476Y-94333390D02*
X151988095Y-94381009D01*
X151988095Y-94381009D02*
X152035714Y-94476247D01*
X152035714Y-94476247D02*
X152035714Y-94714342D01*
X152035714Y-94714342D02*
X151988095Y-94809580D01*
X151988095Y-94809580D02*
X151940476Y-94857200D01*
X151940476Y-94857200D02*
X151845238Y-94904819D01*
X151845238Y-94904819D02*
X151559524Y-94904819D01*
X151559524Y-94904819D02*
X151464286Y-94857200D01*
X151464286Y-94857200D02*
X151416667Y-94809580D01*
X114179580Y-72116666D02*
X114227200Y-72164285D01*
X114227200Y-72164285D02*
X114274819Y-72307142D01*
X114274819Y-72307142D02*
X114274819Y-72402380D01*
X114274819Y-72402380D02*
X114227200Y-72545237D01*
X114227200Y-72545237D02*
X114131961Y-72640475D01*
X114131961Y-72640475D02*
X114036723Y-72688094D01*
X114036723Y-72688094D02*
X113846247Y-72735713D01*
X113846247Y-72735713D02*
X113703390Y-72735713D01*
X113703390Y-72735713D02*
X113512914Y-72688094D01*
X113512914Y-72688094D02*
X113417676Y-72640475D01*
X113417676Y-72640475D02*
X113322438Y-72545237D01*
X113322438Y-72545237D02*
X113274819Y-72402380D01*
X113274819Y-72402380D02*
X113274819Y-72307142D01*
X113274819Y-72307142D02*
X113322438Y-72164285D01*
X113322438Y-72164285D02*
X113370057Y-72116666D01*
X113608152Y-71259523D02*
X114274819Y-71259523D01*
X113227200Y-71497618D02*
X113941485Y-71735713D01*
X113941485Y-71735713D02*
X113941485Y-71116666D01*
X161013095Y-46614819D02*
X161013095Y-47424342D01*
X161013095Y-47424342D02*
X161060714Y-47519580D01*
X161060714Y-47519580D02*
X161108333Y-47567200D01*
X161108333Y-47567200D02*
X161203571Y-47614819D01*
X161203571Y-47614819D02*
X161394047Y-47614819D01*
X161394047Y-47614819D02*
X161489285Y-47567200D01*
X161489285Y-47567200D02*
X161536904Y-47519580D01*
X161536904Y-47519580D02*
X161584523Y-47424342D01*
X161584523Y-47424342D02*
X161584523Y-46614819D01*
X161965476Y-46614819D02*
X162584523Y-46614819D01*
X162584523Y-46614819D02*
X162251190Y-46995771D01*
X162251190Y-46995771D02*
X162394047Y-46995771D01*
X162394047Y-46995771D02*
X162489285Y-47043390D01*
X162489285Y-47043390D02*
X162536904Y-47091009D01*
X162536904Y-47091009D02*
X162584523Y-47186247D01*
X162584523Y-47186247D02*
X162584523Y-47424342D01*
X162584523Y-47424342D02*
X162536904Y-47519580D01*
X162536904Y-47519580D02*
X162489285Y-47567200D01*
X162489285Y-47567200D02*
X162394047Y-47614819D01*
X162394047Y-47614819D02*
X162108333Y-47614819D01*
X162108333Y-47614819D02*
X162013095Y-47567200D01*
X162013095Y-47567200D02*
X161965476Y-47519580D01*
X153583333Y-44929580D02*
X153535714Y-44977200D01*
X153535714Y-44977200D02*
X153392857Y-45024819D01*
X153392857Y-45024819D02*
X153297619Y-45024819D01*
X153297619Y-45024819D02*
X153154762Y-44977200D01*
X153154762Y-44977200D02*
X153059524Y-44881961D01*
X153059524Y-44881961D02*
X153011905Y-44786723D01*
X153011905Y-44786723D02*
X152964286Y-44596247D01*
X152964286Y-44596247D02*
X152964286Y-44453390D01*
X152964286Y-44453390D02*
X153011905Y-44262914D01*
X153011905Y-44262914D02*
X153059524Y-44167676D01*
X153059524Y-44167676D02*
X153154762Y-44072438D01*
X153154762Y-44072438D02*
X153297619Y-44024819D01*
X153297619Y-44024819D02*
X153392857Y-44024819D01*
X153392857Y-44024819D02*
X153535714Y-44072438D01*
X153535714Y-44072438D02*
X153583333Y-44120057D01*
X154535714Y-45024819D02*
X153964286Y-45024819D01*
X154250000Y-45024819D02*
X154250000Y-44024819D01*
X154250000Y-44024819D02*
X154154762Y-44167676D01*
X154154762Y-44167676D02*
X154059524Y-44262914D01*
X154059524Y-44262914D02*
X153964286Y-44310533D01*
X151646660Y-86804104D02*
X152122850Y-86804104D01*
X151551422Y-87089819D02*
X151884755Y-86089819D01*
X151884755Y-86089819D02*
X152218088Y-87089819D01*
X153075231Y-87089819D02*
X152503803Y-87089819D01*
X152789517Y-87089819D02*
X152789517Y-86089819D01*
X152789517Y-86089819D02*
X152694279Y-86232676D01*
X152694279Y-86232676D02*
X152599041Y-86327914D01*
X152599041Y-86327914D02*
X152503803Y-86375533D01*
X154789580Y-38966666D02*
X154837200Y-39014285D01*
X154837200Y-39014285D02*
X154884819Y-39157142D01*
X154884819Y-39157142D02*
X154884819Y-39252380D01*
X154884819Y-39252380D02*
X154837200Y-39395237D01*
X154837200Y-39395237D02*
X154741961Y-39490475D01*
X154741961Y-39490475D02*
X154646723Y-39538094D01*
X154646723Y-39538094D02*
X154456247Y-39585713D01*
X154456247Y-39585713D02*
X154313390Y-39585713D01*
X154313390Y-39585713D02*
X154122914Y-39538094D01*
X154122914Y-39538094D02*
X154027676Y-39490475D01*
X154027676Y-39490475D02*
X153932438Y-39395237D01*
X153932438Y-39395237D02*
X153884819Y-39252380D01*
X153884819Y-39252380D02*
X153884819Y-39157142D01*
X153884819Y-39157142D02*
X153932438Y-39014285D01*
X153932438Y-39014285D02*
X153980057Y-38966666D01*
X153884819Y-38061904D02*
X153884819Y-38538094D01*
X153884819Y-38538094D02*
X154361009Y-38585713D01*
X154361009Y-38585713D02*
X154313390Y-38538094D01*
X154313390Y-38538094D02*
X154265771Y-38442856D01*
X154265771Y-38442856D02*
X154265771Y-38204761D01*
X154265771Y-38204761D02*
X154313390Y-38109523D01*
X154313390Y-38109523D02*
X154361009Y-38061904D01*
X154361009Y-38061904D02*
X154456247Y-38014285D01*
X154456247Y-38014285D02*
X154694342Y-38014285D01*
X154694342Y-38014285D02*
X154789580Y-38061904D01*
X154789580Y-38061904D02*
X154837200Y-38109523D01*
X154837200Y-38109523D02*
X154884819Y-38204761D01*
X154884819Y-38204761D02*
X154884819Y-38442856D01*
X154884819Y-38442856D02*
X154837200Y-38538094D01*
X154837200Y-38538094D02*
X154789580Y-38585713D01*
X163574405Y-46104819D02*
X163574405Y-45104819D01*
X163574405Y-45104819D02*
X163812500Y-45104819D01*
X163812500Y-45104819D02*
X163955357Y-45152438D01*
X163955357Y-45152438D02*
X164050595Y-45247676D01*
X164050595Y-45247676D02*
X164098214Y-45342914D01*
X164098214Y-45342914D02*
X164145833Y-45533390D01*
X164145833Y-45533390D02*
X164145833Y-45676247D01*
X164145833Y-45676247D02*
X164098214Y-45866723D01*
X164098214Y-45866723D02*
X164050595Y-45961961D01*
X164050595Y-45961961D02*
X163955357Y-46057200D01*
X163955357Y-46057200D02*
X163812500Y-46104819D01*
X163812500Y-46104819D02*
X163574405Y-46104819D01*
X164526786Y-45200057D02*
X164574405Y-45152438D01*
X164574405Y-45152438D02*
X164669643Y-45104819D01*
X164669643Y-45104819D02*
X164907738Y-45104819D01*
X164907738Y-45104819D02*
X165002976Y-45152438D01*
X165002976Y-45152438D02*
X165050595Y-45200057D01*
X165050595Y-45200057D02*
X165098214Y-45295295D01*
X165098214Y-45295295D02*
X165098214Y-45390533D01*
X165098214Y-45390533D02*
X165050595Y-45533390D01*
X165050595Y-45533390D02*
X164479167Y-46104819D01*
X164479167Y-46104819D02*
X165098214Y-46104819D01*
X111833333Y-80309580D02*
X111785714Y-80357200D01*
X111785714Y-80357200D02*
X111642857Y-80404819D01*
X111642857Y-80404819D02*
X111547619Y-80404819D01*
X111547619Y-80404819D02*
X111404762Y-80357200D01*
X111404762Y-80357200D02*
X111309524Y-80261961D01*
X111309524Y-80261961D02*
X111261905Y-80166723D01*
X111261905Y-80166723D02*
X111214286Y-79976247D01*
X111214286Y-79976247D02*
X111214286Y-79833390D01*
X111214286Y-79833390D02*
X111261905Y-79642914D01*
X111261905Y-79642914D02*
X111309524Y-79547676D01*
X111309524Y-79547676D02*
X111404762Y-79452438D01*
X111404762Y-79452438D02*
X111547619Y-79404819D01*
X111547619Y-79404819D02*
X111642857Y-79404819D01*
X111642857Y-79404819D02*
X111785714Y-79452438D01*
X111785714Y-79452438D02*
X111833333Y-79500057D01*
X112214286Y-79500057D02*
X112261905Y-79452438D01*
X112261905Y-79452438D02*
X112357143Y-79404819D01*
X112357143Y-79404819D02*
X112595238Y-79404819D01*
X112595238Y-79404819D02*
X112690476Y-79452438D01*
X112690476Y-79452438D02*
X112738095Y-79500057D01*
X112738095Y-79500057D02*
X112785714Y-79595295D01*
X112785714Y-79595295D02*
X112785714Y-79690533D01*
X112785714Y-79690533D02*
X112738095Y-79833390D01*
X112738095Y-79833390D02*
X112166667Y-80404819D01*
X112166667Y-80404819D02*
X112785714Y-80404819D01*
D12*
%TO.C,R3*%
X158889564Y-39685000D02*
X158435436Y-39685000D01*
X158889564Y-38215000D02*
X158435436Y-38215000D01*
%TO.C,R2*%
X160227064Y-69985000D02*
X159772936Y-69985000D01*
X160227064Y-68515000D02*
X159772936Y-68515000D01*
%TO.C,R1*%
X156064564Y-69985000D02*
X155610436Y-69985000D01*
X156064564Y-68515000D02*
X155610436Y-68515000D01*
%TO.C,R4*%
X159064564Y-44735000D02*
X158610436Y-44735000D01*
X159064564Y-43265000D02*
X158610436Y-43265000D01*
%TO.C,J2*%
X127760000Y-108420000D02*
X127760000Y-107040000D01*
X129140000Y-108420000D02*
X127760000Y-108420000D01*
X130410000Y-108420000D02*
X153380000Y-108420000D01*
X130410000Y-108420000D02*
X130410000Y-105770000D01*
X153380000Y-108420000D02*
X153380000Y-103120000D01*
X127760000Y-105770000D02*
X127760000Y-103120000D01*
X130410000Y-105770000D02*
X127760000Y-105770000D01*
X127760000Y-103120000D02*
X153380000Y-103120000D01*
%TO.C,U1*%
X110782500Y-87507500D02*
X112320000Y-87507500D01*
X110782500Y-95217500D02*
X110782500Y-87507500D01*
X112320000Y-95217500D02*
X110782500Y-95217500D01*
X124870000Y-87507500D02*
X126407500Y-87507500D01*
X126407500Y-87507500D02*
X126407500Y-95217500D01*
X126407500Y-95217500D02*
X124870000Y-95217500D01*
X112315000Y-95992500D02*
X111845000Y-96332500D01*
X111845000Y-95652500D01*
X112315000Y-95992500D01*
G36*
X112315000Y-95992500D02*
G01*
X111845000Y-96332500D01*
X111845000Y-95652500D01*
X112315000Y-95992500D01*
G37*
%TO.C,J1*%
X116870000Y-39040000D02*
X118250000Y-39040000D01*
X116870000Y-40420000D02*
X116870000Y-39040000D01*
X116870000Y-41690000D02*
X116870000Y-46880000D01*
X116870000Y-41690000D02*
X119630000Y-41690000D01*
X116870000Y-46880000D02*
X119630000Y-46880000D01*
X119630000Y-41690000D02*
X119630000Y-46880000D01*
%TO.C,U2*%
X153242500Y-87270000D02*
X154780000Y-87270000D01*
X153242500Y-94980000D02*
X153242500Y-87270000D01*
X154780000Y-94980000D02*
X153242500Y-94980000D01*
X167330000Y-87270000D02*
X168867500Y-87270000D01*
X168867500Y-87270000D02*
X168867500Y-94980000D01*
X168867500Y-94980000D02*
X167330000Y-94980000D01*
X154775000Y-95755000D02*
X154305000Y-96095000D01*
X154305000Y-95415000D01*
X154775000Y-95755000D01*
G36*
X154775000Y-95755000D02*
G01*
X154305000Y-96095000D01*
X154305000Y-95415000D01*
X154775000Y-95755000D01*
G37*
%TO.C,J3*%
X117370000Y-71330000D02*
X117370000Y-58520000D01*
X120130000Y-58520000D02*
X117370000Y-58520000D01*
X120130000Y-71330000D02*
X117370000Y-71330000D01*
X120130000Y-71330000D02*
X120130000Y-58520000D01*
X120130000Y-72600000D02*
X120130000Y-73980000D01*
X120130000Y-73980000D02*
X118750000Y-73980000D01*
%TO.C,D1*%
X163312500Y-39960000D02*
X165997500Y-39960000D01*
X165997500Y-38040000D02*
X163312500Y-38040000D01*
X165997500Y-39960000D02*
X165997500Y-38040000D01*
%TO.C,C6*%
X166265000Y-49538748D02*
X166265000Y-50061252D01*
X167735000Y-49538748D02*
X167735000Y-50061252D01*
%TO.C,C3*%
X150515000Y-91488748D02*
X150515000Y-92011252D01*
X151985000Y-91488748D02*
X151985000Y-92011252D01*
%TO.C,C4*%
X114765000Y-72211252D02*
X114765000Y-71688748D01*
X116235000Y-72211252D02*
X116235000Y-71688748D01*
%TO.C,U3*%
X159715000Y-48005000D02*
X163835000Y-48005000D01*
X159715000Y-48070000D02*
X159715000Y-48005000D01*
X159715000Y-56875000D02*
X159715000Y-56810000D01*
X163835000Y-48005000D02*
X163835000Y-48070000D01*
X163835000Y-56810000D02*
X163835000Y-56875000D01*
X163835000Y-56875000D02*
X159715000Y-56875000D01*
X159175000Y-48070000D02*
X158935000Y-47740000D01*
X159415000Y-47740000D01*
X159175000Y-48070000D01*
G36*
X159175000Y-48070000D02*
G01*
X158935000Y-47740000D01*
X159415000Y-47740000D01*
X159175000Y-48070000D01*
G37*
%TO.C,C1*%
X153488748Y-45515000D02*
X154011252Y-45515000D01*
X153488748Y-46985000D02*
X154011252Y-46985000D01*
%TO.C,A1*%
X128680000Y-38540000D02*
X128680000Y-36940000D01*
X129000000Y-36870000D02*
X129000000Y-86870000D01*
X129340000Y-36323000D02*
X129340000Y-87417000D01*
X129610000Y-36260000D02*
X132100000Y-36260000D01*
X129610000Y-87480000D02*
X133447939Y-87480000D01*
X132100000Y-36260000D02*
X132100000Y-37173520D01*
X132100000Y-36260000D02*
X133447940Y-36260000D01*
X132100000Y-39566480D02*
X132100000Y-84173520D01*
X132100000Y-86566480D02*
X132100000Y-87480000D01*
X134372061Y-36260000D02*
X135375000Y-36260000D01*
X135375000Y-36260000D02*
X143845000Y-36260000D01*
X135500000Y-34960000D02*
X135500000Y-35780000D01*
X135500000Y-34960000D02*
X143720000Y-34960000D01*
X135500000Y-35780000D02*
X135710000Y-35780000D01*
X135710000Y-35780000D02*
X135710000Y-37176000D01*
X135710000Y-39564000D02*
X135710000Y-40780000D01*
X136010000Y-87480000D02*
X134372061Y-87480000D01*
X143210000Y-87480000D02*
X136010000Y-87480000D01*
X143510000Y-35780000D02*
X143510000Y-37176000D01*
X143510000Y-39564000D02*
X143510000Y-40780000D01*
X143510000Y-40780000D02*
X135710000Y-40780000D01*
X143720000Y-34960000D02*
X143720000Y-35780000D01*
X143720000Y-35780000D02*
X143510000Y-35780000D01*
X143845000Y-36260000D02*
X144847939Y-36260000D01*
X144847939Y-87480000D02*
X143210000Y-87480000D01*
X145772061Y-36260000D02*
X147120000Y-36260000D01*
X145772061Y-87480000D02*
X149610000Y-87480000D01*
X147120000Y-36260000D02*
X147120000Y-37173520D01*
X147120000Y-39566480D02*
X147120000Y-84173520D01*
X147120000Y-86566480D02*
X147120000Y-87480000D01*
X149610000Y-36260000D02*
X147120000Y-36260000D01*
X149880000Y-87417000D02*
X149880000Y-36323000D01*
X150220000Y-36870000D02*
X150220000Y-86870000D01*
X129000000Y-36870000D02*
G75*
G02*
X129610000Y-36260000I610000J0D01*
G01*
X129610000Y-87480000D02*
G75*
G02*
X129000000Y-86870000I-99J609901D01*
G01*
X149610000Y-36260000D02*
G75*
G02*
X150220000Y-36870000I0J-610000D01*
G01*
X150220000Y-86870000D02*
G75*
G02*
X149610000Y-87480000I-610000J0D01*
G01*
%TO.C,C5*%
X152015000Y-38538748D02*
X152015000Y-39061252D01*
X153485000Y-38538748D02*
X153485000Y-39061252D01*
%TO.C,D2*%
X163312500Y-44960000D02*
X165997500Y-44960000D01*
X165997500Y-43040000D02*
X163312500Y-43040000D01*
X165997500Y-44960000D02*
X165997500Y-43040000D01*
%TO.C,C2*%
X111265000Y-82488748D02*
X111265000Y-83011252D01*
X112735000Y-82488748D02*
X112735000Y-83011252D01*
%TD*%
M02*
