%TF.GenerationSoftware,KiCad,Pcbnew,9.0.6*%
%TF.CreationDate,2026-02-24T00:16:39+01:00*%
%TF.ProjectId,acsi2tnfs,61637369-3274-46e6-9673-2e6b69636164,rev?*%
%TF.SameCoordinates,Original*%
%TF.FileFunction,Copper,L1,Top*%
%TF.FilePolarity,Positive*%
%FSLAX46Y46*%
G04 Gerber Fmt 4.6, Leading zero omitted, Abs format (unit mm)*
G04 Created by KiCad (PCBNEW 9.0.6) date 2026-02-24 00:16:39*
%MOMM*%
%LPD*%
G01*
G04 APERTURE LIST*
G04 Aperture macros list*
%AMRoundRect*
0 Rectangle with rounded corners*
0 $1 Rounding radius*
0 $2 $3 $4 $5 $6 $7 $8 $9 X,Y pos of 4 corners*
0 Add a 4 corners polygon primitive as box body*
4,1,4,$2,$3,$4,$5,$6,$7,$8,$9,$2,$3,0*
0 Add four circle primitives for the rounded corners*
1,1,$1+$1,$2,$3*
1,1,$1+$1,$4,$5*
1,1,$1+$1,$6,$7*
1,1,$1+$1,$8,$9*
0 Add four rect primitives between the rounded corners*
20,1,$1+$1,$2,$3,$4,$5,0*
20,1,$1+$1,$4,$5,$6,$7,0*
20,1,$1+$1,$6,$7,$8,$9,0*
20,1,$1+$1,$8,$9,$2,$3,0*%
%AMFreePoly0*
4,1,37,0.603843,0.796157,0.639018,0.796157,0.711114,0.766294,0.766294,0.711114,0.796157,0.639018,0.796157,0.603843,0.800000,0.600000,0.800000,-0.600000,0.796157,-0.603843,0.796157,-0.639018,0.766294,-0.711114,0.711114,-0.766294,0.639018,-0.796157,0.603843,-0.796157,0.600000,-0.800000,0.000000,-0.800000,0.000000,-0.796148,-0.078414,-0.796148,-0.232228,-0.765552,-0.377117,-0.705537,
-0.507515,-0.618408,-0.618408,-0.507515,-0.705537,-0.377117,-0.765552,-0.232228,-0.796148,-0.078414,-0.796148,0.078414,-0.765552,0.232228,-0.705537,0.377117,-0.618408,0.507515,-0.507515,0.618408,-0.377117,0.705537,-0.232228,0.765552,-0.078414,0.796148,0.000000,0.796148,0.000000,0.800000,0.600000,0.800000,0.603843,0.796157,0.603843,0.796157,$1*%
%AMFreePoly1*
4,1,37,0.000000,0.796148,0.078414,0.796148,0.232228,0.765552,0.377117,0.705537,0.507515,0.618408,0.618408,0.507515,0.705537,0.377117,0.765552,0.232228,0.796148,0.078414,0.796148,-0.078414,0.765552,-0.232228,0.705537,-0.377117,0.618408,-0.507515,0.507515,-0.618408,0.377117,-0.705537,0.232228,-0.765552,0.078414,-0.796148,0.000000,-0.796148,0.000000,-0.800000,-0.600000,-0.800000,
-0.603843,-0.796157,-0.639018,-0.796157,-0.711114,-0.766294,-0.766294,-0.711114,-0.796157,-0.639018,-0.796157,-0.603843,-0.800000,-0.600000,-0.800000,0.600000,-0.796157,0.603843,-0.796157,0.639018,-0.766294,0.711114,-0.711114,0.766294,-0.639018,0.796157,-0.603843,0.796157,-0.600000,0.800000,0.000000,0.800000,0.000000,0.796148,0.000000,0.796148,$1*%
G04 Aperture macros list end*
%TA.AperFunction,SMDPad,CuDef*%
%ADD10RoundRect,0.250000X0.262500X0.450000X-0.262500X0.450000X-0.262500X-0.450000X0.262500X-0.450000X0*%
%TD*%
%TA.AperFunction,SMDPad,CuDef*%
%ADD11RoundRect,0.250000X0.450000X-0.262500X0.450000X0.262500X-0.450000X0.262500X-0.450000X-0.262500X0*%
%TD*%
%TA.AperFunction,ComponentPad*%
%ADD12R,1.050000X1.500000*%
%TD*%
%TA.AperFunction,ComponentPad*%
%ADD13O,1.050000X1.500000*%
%TD*%
%TA.AperFunction,ComponentPad*%
%ADD14R,1.700000X1.700000*%
%TD*%
%TA.AperFunction,ComponentPad*%
%ADD15C,1.700000*%
%TD*%
%TA.AperFunction,SMDPad,CuDef*%
%ADD16RoundRect,0.150000X0.150000X-0.850000X0.150000X0.850000X-0.150000X0.850000X-0.150000X-0.850000X0*%
%TD*%
%TA.AperFunction,SMDPad,CuDef*%
%ADD17RoundRect,0.243750X0.243750X0.456250X-0.243750X0.456250X-0.243750X-0.456250X0.243750X-0.456250X0*%
%TD*%
%TA.AperFunction,SMDPad,CuDef*%
%ADD18RoundRect,0.250000X-0.475000X0.250000X-0.475000X-0.250000X0.475000X-0.250000X0.475000X0.250000X0*%
%TD*%
%TA.AperFunction,SMDPad,CuDef*%
%ADD19RoundRect,0.250000X0.475000X-0.250000X0.475000X0.250000X-0.475000X0.250000X-0.475000X-0.250000X0*%
%TD*%
%TA.AperFunction,SMDPad,CuDef*%
%ADD20RoundRect,0.250000X-0.250000X-0.475000X0.250000X-0.475000X0.250000X0.475000X-0.250000X0.475000X0*%
%TD*%
%TA.AperFunction,ComponentPad*%
%ADD21RoundRect,0.200000X-0.600000X-0.600000X0.600000X-0.600000X0.600000X0.600000X-0.600000X0.600000X0*%
%TD*%
%TA.AperFunction,ComponentPad*%
%ADD22C,1.600000*%
%TD*%
%TA.AperFunction,ComponentPad*%
%ADD23FreePoly0,0.000000*%
%TD*%
%TA.AperFunction,ComponentPad*%
%ADD24FreePoly1,0.000000*%
%TD*%
%TA.AperFunction,ViaPad*%
%ADD25C,0.600000*%
%TD*%
%TA.AperFunction,Conductor*%
%ADD26C,0.300000*%
%TD*%
%TA.AperFunction,Conductor*%
%ADD27C,0.500000*%
%TD*%
%TA.AperFunction,Conductor*%
%ADD28C,0.200000*%
%TD*%
%TA.AperFunction,Conductor*%
%ADD29C,0.400000*%
%TD*%
G04 APERTURE END LIST*
D10*
%TO.P,R9,1*%
%TO.N,+5V*%
X166412500Y-48500000D03*
%TO.P,R9,2*%
%TO.N,DIR*%
X164587500Y-48500000D03*
%TD*%
%TO.P,R6,1*%
%TO.N,+5V*%
X166412500Y-51000000D03*
%TO.P,R6,2*%
%TO.N,{slash}DRQ*%
X164587500Y-51000000D03*
%TD*%
D11*
%TO.P,R2,1*%
%TO.N,Net-(A1-GPIO22)*%
X158500000Y-55500000D03*
%TO.P,R2,2*%
%TO.N,Net-(Q2-B)*%
X158500000Y-53675000D03*
%TD*%
D12*
%TO.P,Q2,1,C*%
%TO.N,{slash}DRQ*%
X161540000Y-49500000D03*
D13*
%TO.P,Q2,2,B*%
%TO.N,Net-(Q2-B)*%
X160270000Y-49500000D03*
%TO.P,Q2,3,E*%
%TO.N,GND*%
X159000000Y-49500000D03*
%TD*%
D11*
%TO.P,R8,1*%
%TO.N,{slash}OE*%
X125500000Y-62912500D03*
%TO.P,R8,2*%
%TO.N,GND*%
X125500000Y-61087500D03*
%TD*%
%TO.P,R7,1*%
%TO.N,{slash}RESET_3V3*%
X153500000Y-82912500D03*
%TO.P,R7,2*%
%TO.N,GND*%
X153500000Y-81087500D03*
%TD*%
%TO.P,R5,1*%
%TO.N,Net-(A1-GPIO21)*%
X158500000Y-65500000D03*
%TO.P,R5,2*%
%TO.N,Net-(Q1-B)*%
X158500000Y-63675000D03*
%TD*%
D12*
%TO.P,Q1,1,C*%
%TO.N,{slash}IRQ*%
X161500000Y-59447500D03*
D13*
%TO.P,Q1,2,B*%
%TO.N,Net-(Q1-B)*%
X160230000Y-59447500D03*
%TO.P,Q1,3,E*%
%TO.N,GND*%
X158960000Y-59447500D03*
%TD*%
D14*
%TO.P,J4,1,Pin_1*%
%TO.N,DATA0*%
X129140000Y-107000000D03*
D15*
%TO.P,J4,2,Pin_2*%
%TO.N,DATA1*%
X131680000Y-107000000D03*
%TO.P,J4,3,Pin_3*%
%TO.N,DATA2*%
X134220000Y-107000000D03*
%TO.P,J4,4,Pin_4*%
%TO.N,DATA3*%
X136760000Y-107000000D03*
%TO.P,J4,5,Pin_5*%
%TO.N,DATA4*%
X139300000Y-107000000D03*
%TO.P,J4,6,Pin_6*%
%TO.N,DATA5*%
X141840000Y-107000000D03*
%TO.P,J4,7,Pin_7*%
%TO.N,DATA6*%
X144380000Y-107000000D03*
%TO.P,J4,8,Pin_8*%
%TO.N,DATA7*%
X146920000Y-107000000D03*
%TO.P,J4,9,Pin_9*%
%TO.N,{slash}CS*%
X149460000Y-107000000D03*
%TO.P,J4,10,Pin_10*%
%TO.N,{slash}IRQ*%
X152000000Y-107000000D03*
%TO.P,J4,11,Pin_11*%
%TO.N,GND*%
X129140000Y-104460000D03*
%TO.P,J4,12,Pin_12*%
%TO.N,{slash}RESET*%
X131680000Y-104460000D03*
%TO.P,J4,13,Pin_13*%
%TO.N,GND*%
X134220000Y-104460000D03*
%TO.P,J4,14,Pin_14*%
%TO.N,{slash}ACK*%
X136760000Y-104460000D03*
%TO.P,J4,15,Pin_15*%
%TO.N,GND*%
X139300000Y-104460000D03*
%TO.P,J4,16,Pin_16*%
%TO.N,A1*%
X141840000Y-104460000D03*
%TO.P,J4,17,Pin_17*%
%TO.N,GND*%
X144380000Y-104460000D03*
%TO.P,J4,18,Pin_18*%
%TO.N,R{slash}W*%
X146920000Y-104460000D03*
%TO.P,J4,19,Pin_19*%
%TO.N,{slash}DRQ*%
X149460000Y-104460000D03*
%TO.P,J4,20,Pin_20*%
%TO.N,unconnected-(J4-Pin_20-Pad20)*%
X152000000Y-104460000D03*
%TD*%
D14*
%TO.P,J1,1,Pin_1*%
%TO.N,UART0_TX*%
X118250000Y-40420000D03*
D15*
%TO.P,J1,2,Pin_2*%
%TO.N,UART0_RX*%
X118250000Y-42960000D03*
%TO.P,J1,3,Pin_3*%
%TO.N,GND*%
X118250000Y-45500000D03*
%TD*%
D10*
%TO.P,R4,1*%
%TO.N,Net-(D2-A)*%
X159750000Y-44000000D03*
%TO.P,R4,2*%
%TO.N,STATUS_LED*%
X157925000Y-44000000D03*
%TD*%
D14*
%TO.P,J2,1,Pin_1*%
%TO.N,DATA0*%
X129140000Y-117500000D03*
D15*
%TO.P,J2,2,Pin_2*%
%TO.N,DATA1*%
X131680000Y-117500000D03*
%TO.P,J2,3,Pin_3*%
%TO.N,DATA2*%
X134220000Y-117500000D03*
%TO.P,J2,4,Pin_4*%
%TO.N,DATA3*%
X136760000Y-117500000D03*
%TO.P,J2,5,Pin_5*%
%TO.N,DATA4*%
X139300000Y-117500000D03*
%TO.P,J2,6,Pin_6*%
%TO.N,DATA5*%
X141840000Y-117500000D03*
%TO.P,J2,7,Pin_7*%
%TO.N,DATA6*%
X144380000Y-117500000D03*
%TO.P,J2,8,Pin_8*%
%TO.N,DATA7*%
X146920000Y-117500000D03*
%TO.P,J2,9,Pin_9*%
%TO.N,{slash}CS*%
X149460000Y-117500000D03*
%TO.P,J2,10,Pin_10*%
%TO.N,{slash}IRQ*%
X152000000Y-117500000D03*
%TO.P,J2,11,Pin_11*%
%TO.N,GND*%
X129140000Y-114960000D03*
%TO.P,J2,12,Pin_12*%
%TO.N,{slash}RESET*%
X131680000Y-114960000D03*
%TO.P,J2,13,Pin_13*%
%TO.N,GND*%
X134220000Y-114960000D03*
%TO.P,J2,14,Pin_14*%
%TO.N,{slash}ACK*%
X136760000Y-114960000D03*
%TO.P,J2,15,Pin_15*%
%TO.N,GND*%
X139300000Y-114960000D03*
%TO.P,J2,16,Pin_16*%
%TO.N,A1*%
X141840000Y-114960000D03*
%TO.P,J2,17,Pin_17*%
%TO.N,GND*%
X144380000Y-114960000D03*
%TO.P,J2,18,Pin_18*%
%TO.N,R{slash}W*%
X146920000Y-114960000D03*
%TO.P,J2,19,Pin_19*%
%TO.N,{slash}DRQ*%
X149460000Y-114960000D03*
%TO.P,J2,20,Pin_20*%
%TO.N,unconnected-(J2-Pin_20-Pad20)*%
X152000000Y-114960000D03*
%TD*%
D16*
%TO.P,U2,1,DIR*%
%TO.N,+3.3V*%
X155340000Y-95750000D03*
%TO.P,U2,2,A1*%
%TO.N,{slash}CS*%
X156610000Y-95750000D03*
%TO.P,U2,3,A2*%
%TO.N,{slash}RESET*%
X157880000Y-95750000D03*
%TO.P,U2,4,A3*%
%TO.N,{slash}ACK*%
X159150000Y-95750000D03*
%TO.P,U2,5,A4*%
%TO.N,A1*%
X160420000Y-95750000D03*
%TO.P,U2,6,A5*%
%TO.N,R{slash}W*%
X161690000Y-95750000D03*
%TO.P,U2,7,A6*%
%TO.N,GND*%
X162960000Y-95750000D03*
%TO.P,U2,8,A7*%
X164230000Y-95750000D03*
%TO.P,U2,9,A8*%
X165500000Y-95750000D03*
%TO.P,U2,10,GND*%
X166770000Y-95750000D03*
%TO.P,U2,11,B8*%
X166770000Y-86500000D03*
%TO.P,U2,12,B7*%
X165500000Y-86500000D03*
%TO.P,U2,13,B6*%
X164230000Y-86500000D03*
%TO.P,U2,14,B5*%
%TO.N,R{slash}W_3V3*%
X162960000Y-86500000D03*
%TO.P,U2,15,B4*%
%TO.N,A1_3V3*%
X161690000Y-86500000D03*
%TO.P,U2,16,B3*%
%TO.N,{slash}ACK_3V3*%
X160420000Y-86500000D03*
%TO.P,U2,17,B2*%
%TO.N,{slash}RESET_3V3*%
X159150000Y-86500000D03*
%TO.P,U2,18,B1*%
%TO.N,{slash}CS_3V3*%
X157880000Y-86500000D03*
%TO.P,U2,19,~{OE}*%
%TO.N,GND*%
X156610000Y-86500000D03*
%TO.P,U2,20,VCC*%
%TO.N,+3.3V*%
X155340000Y-86500000D03*
%TD*%
D14*
%TO.P,J3,1,Pin_1*%
%TO.N,+3.3V*%
X118750000Y-72600000D03*
D15*
%TO.P,J3,2,Pin_2*%
%TO.N,CS*%
X118750000Y-70060000D03*
%TO.P,J3,3,Pin_3*%
%TO.N,MOSI*%
X118750000Y-67520000D03*
%TO.P,J3,4,Pin_4*%
%TO.N,CLK*%
X118750000Y-64980000D03*
%TO.P,J3,5,Pin_5*%
%TO.N,MISO*%
X118750000Y-62440000D03*
%TO.P,J3,6,Pin_6*%
%TO.N,GND*%
X118750000Y-59900000D03*
%TD*%
D17*
%TO.P,D1,1,K*%
%TO.N,GND*%
X165250000Y-39000000D03*
%TO.P,D1,2,A*%
%TO.N,Net-(D1-A)*%
X163375000Y-39000000D03*
%TD*%
D18*
%TO.P,C3,1*%
%TO.N,+3.3V*%
X151250000Y-90800000D03*
%TO.P,C3,2*%
%TO.N,GND*%
X151250000Y-92700000D03*
%TD*%
D19*
%TO.P,C4,1*%
%TO.N,+3.3V*%
X115500000Y-72900000D03*
%TO.P,C4,2*%
%TO.N,GND*%
X115500000Y-71000000D03*
%TD*%
D20*
%TO.P,C1,1*%
%TO.N,+3.3V*%
X152800000Y-46250000D03*
%TO.P,C1,2*%
%TO.N,GND*%
X154700000Y-46250000D03*
%TD*%
D21*
%TO.P,A1,1,GPIO0*%
%TO.N,UART0_TX*%
X130720000Y-37740000D03*
D22*
%TO.P,A1,2,GPIO1*%
%TO.N,UART0_RX*%
X130720000Y-40280000D03*
D23*
%TO.P,A1,3,GND*%
%TO.N,GND*%
X130720000Y-42820000D03*
D22*
%TO.P,A1,4,GPIO2*%
%TO.N,CLK*%
X130720000Y-45360000D03*
%TO.P,A1,5,GPIO3*%
%TO.N,MOSI*%
X130720000Y-47900000D03*
%TO.P,A1,6,GPIO4*%
%TO.N,MISO*%
X130720000Y-50440000D03*
%TO.P,A1,7,GPIO5*%
%TO.N,CS*%
X130720000Y-52980000D03*
D23*
%TO.P,A1,8,GND*%
%TO.N,GND*%
X130720000Y-55520000D03*
D22*
%TO.P,A1,9,GPIO6*%
%TO.N,{slash}OE*%
X130720000Y-58060000D03*
%TO.P,A1,10,GPIO7*%
%TO.N,DIR*%
X130720000Y-60600000D03*
%TO.P,A1,11,GPIO8*%
%TO.N,DATA0_3V3*%
X130720000Y-63140000D03*
%TO.P,A1,12,GPIO9*%
%TO.N,DATA1_3V3*%
X130720000Y-65680000D03*
D23*
%TO.P,A1,13,GND*%
%TO.N,GND*%
X130720000Y-68220000D03*
D22*
%TO.P,A1,14,GPIO10*%
%TO.N,DATA2_3V3*%
X130720000Y-70760000D03*
%TO.P,A1,15,GPIO11*%
%TO.N,DATA3_3V3*%
X130720000Y-73300000D03*
%TO.P,A1,16,GPIO12*%
%TO.N,DATA4_3V3*%
X130720000Y-75840000D03*
%TO.P,A1,17,GPIO13*%
%TO.N,DATA5_3V3*%
X130720000Y-78380000D03*
D23*
%TO.P,A1,18,GND*%
%TO.N,GND*%
X130720000Y-80920000D03*
D22*
%TO.P,A1,19,GPIO14*%
%TO.N,DATA6_3V3*%
X130720000Y-83460000D03*
%TO.P,A1,20,GPIO15*%
%TO.N,DATA7_3V3*%
X130720000Y-86000000D03*
%TO.P,A1,21,GPIO16*%
%TO.N,{slash}CS_3V3*%
X148500000Y-86000000D03*
%TO.P,A1,22,GPIO17*%
%TO.N,{slash}RESET_3V3*%
X148500000Y-83460000D03*
D24*
%TO.P,A1,23,GND*%
%TO.N,GND*%
X148500000Y-80920000D03*
D22*
%TO.P,A1,24,GPIO18*%
%TO.N,{slash}ACK_3V3*%
X148500000Y-78380000D03*
%TO.P,A1,25,GPIO19*%
%TO.N,A1_3V3*%
X148500000Y-75840000D03*
%TO.P,A1,26,GPIO20*%
%TO.N,R{slash}W_3V3*%
X148500000Y-73300000D03*
%TO.P,A1,27,GPIO21*%
%TO.N,Net-(A1-GPIO21)*%
X148500000Y-70760000D03*
D24*
%TO.P,A1,28,GND*%
%TO.N,GND*%
X148500000Y-68220000D03*
D22*
%TO.P,A1,29,GPIO22*%
%TO.N,Net-(A1-GPIO22)*%
X148500000Y-65680000D03*
%TO.P,A1,30,RUN*%
%TO.N,unconnected-(A1-RUN-Pad30)*%
X148500000Y-63140000D03*
%TO.P,A1,31,GPIO26_ADC0*%
%TO.N,unconnected-(A1-GPIO26_ADC0-Pad31)*%
X148500000Y-60600000D03*
%TO.P,A1,32,GPIO27_ADC1*%
%TO.N,unconnected-(A1-GPIO27_ADC1-Pad32)*%
X148500000Y-58060000D03*
D24*
%TO.P,A1,33,AGND*%
%TO.N,GND*%
X148500000Y-55520000D03*
D22*
%TO.P,A1,34,GPIO28_ADC2*%
%TO.N,STATUS_LED*%
X148500000Y-52980000D03*
%TO.P,A1,35,ADC_VREF*%
%TO.N,unconnected-(A1-ADC_VREF-Pad35)*%
X148500000Y-50440000D03*
%TO.P,A1,36,3V3*%
%TO.N,+3.3V*%
X148500000Y-47900000D03*
%TO.P,A1,37,3V3_EN*%
%TO.N,unconnected-(A1-3V3_EN-Pad37)*%
X148500000Y-45360000D03*
D24*
%TO.P,A1,38,GND*%
%TO.N,GND*%
X148500000Y-42820000D03*
D22*
%TO.P,A1,39,VSYS*%
%TO.N,unconnected-(A1-VSYS-Pad39)*%
X148500000Y-40280000D03*
%TO.P,A1,40,VBUS*%
%TO.N,+5V*%
X148500000Y-37740000D03*
%TD*%
D10*
%TO.P,R3,1*%
%TO.N,Net-(D1-A)*%
X159575000Y-38950000D03*
%TO.P,R3,2*%
%TO.N,+3.3V*%
X157750000Y-38950000D03*
%TD*%
D18*
%TO.P,C5,1*%
%TO.N,+5V*%
X152750000Y-37850000D03*
%TO.P,C5,2*%
%TO.N,GND*%
X152750000Y-39750000D03*
%TD*%
D10*
%TO.P,R1,1*%
%TO.N,+5V*%
X166325000Y-59500000D03*
%TO.P,R1,2*%
%TO.N,{slash}IRQ*%
X164500000Y-59500000D03*
%TD*%
D17*
%TO.P,D2,1,K*%
%TO.N,GND*%
X165250000Y-44000000D03*
%TO.P,D2,2,A*%
%TO.N,Net-(D2-A)*%
X163375000Y-44000000D03*
%TD*%
D18*
%TO.P,C2,1*%
%TO.N,+3.3V*%
X112000000Y-81800000D03*
%TO.P,C2,2*%
%TO.N,GND*%
X112000000Y-83700000D03*
%TD*%
D16*
%TO.P,U1,1,DIR*%
%TO.N,DIR*%
X112880000Y-95987500D03*
%TO.P,U1,2,A1*%
%TO.N,DATA0*%
X114150000Y-95987500D03*
%TO.P,U1,3,A2*%
%TO.N,DATA1*%
X115420000Y-95987500D03*
%TO.P,U1,4,A3*%
%TO.N,DATA2*%
X116690000Y-95987500D03*
%TO.P,U1,5,A4*%
%TO.N,DATA3*%
X117960000Y-95987500D03*
%TO.P,U1,6,A5*%
%TO.N,DATA4*%
X119230000Y-95987500D03*
%TO.P,U1,7,A6*%
%TO.N,DATA5*%
X120500000Y-95987500D03*
%TO.P,U1,8,A7*%
%TO.N,DATA6*%
X121770000Y-95987500D03*
%TO.P,U1,9,A8*%
%TO.N,DATA7*%
X123040000Y-95987500D03*
%TO.P,U1,10,GND*%
%TO.N,GND*%
X124310000Y-95987500D03*
%TO.P,U1,11,B8*%
%TO.N,DATA7_3V3*%
X124310000Y-86737500D03*
%TO.P,U1,12,B7*%
%TO.N,DATA6_3V3*%
X123040000Y-86737500D03*
%TO.P,U1,13,B6*%
%TO.N,DATA5_3V3*%
X121770000Y-86737500D03*
%TO.P,U1,14,B5*%
%TO.N,DATA4_3V3*%
X120500000Y-86737500D03*
%TO.P,U1,15,B4*%
%TO.N,DATA3_3V3*%
X119230000Y-86737500D03*
%TO.P,U1,16,B3*%
%TO.N,DATA2_3V3*%
X117960000Y-86737500D03*
%TO.P,U1,17,B2*%
%TO.N,DATA1_3V3*%
X116690000Y-86737500D03*
%TO.P,U1,18,B1*%
%TO.N,DATA0_3V3*%
X115420000Y-86737500D03*
%TO.P,U1,19,~{OE}*%
%TO.N,{slash}OE*%
X114150000Y-86737500D03*
%TO.P,U1,20,VCC*%
%TO.N,+3.3V*%
X112880000Y-86737500D03*
%TD*%
D25*
%TO.N,GND*%
X163500000Y-69500000D03*
X163000000Y-54500000D03*
X157000000Y-52000000D03*
X154500000Y-63000000D03*
X119000000Y-57000000D03*
X153500000Y-54500000D03*
X153500000Y-58500000D03*
X146000000Y-58500000D03*
X146000000Y-55500000D03*
%TO.N,DIR*%
X128000000Y-88000000D03*
%TO.N,GND*%
X111500000Y-85750000D03*
X112750000Y-66000000D03*
X118500000Y-107250000D03*
X158000000Y-89500000D03*
X122250000Y-45500000D03*
X140000000Y-48250000D03*
X124750000Y-105000000D03*
X160000000Y-107250000D03*
X140000000Y-71750000D03*
X165250000Y-40750000D03*
X139000000Y-93250000D03*
%TO.N,+3.3V*%
X152000000Y-89500000D03*
X113750000Y-82000000D03*
%TO.N,{slash}ACK*%
X145500000Y-101250000D03*
%TO.N,{slash}CS*%
X156750000Y-98500000D03*
%TO.N,R{slash}W*%
X161690000Y-101310000D03*
%TO.N,A1*%
X147000000Y-102250000D03*
%TO.N,{slash}RESET*%
X145500000Y-100000000D03*
%TD*%
D26*
%TO.N,DATA4_3V3*%
X120500000Y-81000000D02*
X120500000Y-86737500D01*
D27*
%TO.N,+5V*%
X167000000Y-51000000D02*
X166412500Y-51000000D01*
X167000000Y-51000000D02*
X167000000Y-58825000D01*
X167000000Y-48500000D02*
X167000000Y-51000000D01*
X167000000Y-48500000D02*
X166412500Y-48500000D01*
X167000000Y-58825000D02*
X166325000Y-59500000D01*
X167000000Y-38000000D02*
X167000000Y-48500000D01*
X166000000Y-37000000D02*
X167000000Y-38000000D01*
X152750000Y-37850000D02*
X153600000Y-37000000D01*
X153600000Y-37000000D02*
X166000000Y-37000000D01*
D28*
%TO.N,DIR*%
X155000000Y-51000000D02*
X155000000Y-55412500D01*
X158500000Y-47500000D02*
X155000000Y-51000000D01*
X162000000Y-47500000D02*
X158500000Y-47500000D01*
X163000000Y-48500000D02*
X162000000Y-47500000D01*
X164587500Y-48500000D02*
X163000000Y-48500000D01*
D26*
%TO.N,{slash}DRQ*%
X163040000Y-51000000D02*
X164587500Y-51000000D01*
X161540000Y-49500000D02*
X163040000Y-51000000D01*
%TO.N,{slash}IRQ*%
X163947500Y-59447500D02*
X161500000Y-59447500D01*
X164000000Y-59500000D02*
X163947500Y-59447500D01*
X164500000Y-59500000D02*
X164000000Y-59500000D01*
%TO.N,Net-(A1-GPIO21)*%
X148500000Y-70760000D02*
X153240000Y-70760000D01*
X153240000Y-70760000D02*
X158500000Y-65500000D01*
%TO.N,Net-(A1-GPIO22)*%
X158500000Y-55680000D02*
X158500000Y-55500000D01*
X148500000Y-65680000D02*
X158500000Y-55680000D01*
%TO.N,Net-(Q2-B)*%
X158500000Y-53675000D02*
X160270000Y-51905000D01*
X160270000Y-51905000D02*
X160270000Y-49500000D01*
D28*
%TO.N,DIR*%
X134505775Y-56814225D02*
X130720000Y-60600000D01*
X134505775Y-56802667D02*
X134505775Y-56814225D01*
X153609833Y-56802667D02*
X155000000Y-55412500D01*
X134505775Y-56802667D02*
X153609833Y-56802667D01*
D26*
%TO.N,{slash}ACK_3V3*%
X160420000Y-84420000D02*
X154380000Y-78380000D01*
X160420000Y-86500000D02*
X160420000Y-84420000D01*
X154380000Y-78380000D02*
X148500000Y-78380000D01*
%TO.N,DIR*%
X124500000Y-91500000D02*
X128000000Y-88000000D01*
X115250000Y-91500000D02*
X124500000Y-91500000D01*
%TO.N,{slash}OE*%
X126000000Y-62780000D02*
X130720000Y-58060000D01*
X126000000Y-69500000D02*
X126000000Y-62780000D01*
X114500000Y-81000000D02*
X126000000Y-69500000D01*
X114150000Y-86737500D02*
X114500000Y-86387500D01*
X114500000Y-86387500D02*
X114500000Y-81000000D01*
%TO.N,DATA0_3V3*%
X127000000Y-66860000D02*
X130720000Y-63140000D01*
X127000000Y-69500000D02*
X127000000Y-66860000D01*
X115420000Y-86737500D02*
X115420000Y-81080000D01*
X115420000Y-81080000D02*
X127000000Y-69500000D01*
%TO.N,DATA1_3V3*%
X116690000Y-80810000D02*
X116690000Y-86737500D01*
X128000000Y-69500000D02*
X116690000Y-80810000D01*
X128000000Y-68400000D02*
X128000000Y-69500000D01*
X130720000Y-65680000D02*
X128000000Y-68400000D01*
%TO.N,DATA2_3V3*%
X127990000Y-70760000D02*
X130720000Y-70760000D01*
X117960000Y-80790000D02*
X127990000Y-70760000D01*
%TO.N,DATA3_3V3*%
X126700000Y-73300000D02*
X130720000Y-73300000D01*
X119230000Y-80770000D02*
X126700000Y-73300000D01*
%TO.N,DATA4_3V3*%
X125660000Y-75840000D02*
X130720000Y-75840000D01*
X120500000Y-81000000D02*
X125660000Y-75840000D01*
%TO.N,DATA5_3V3*%
X121770000Y-82250000D02*
X125640000Y-78380000D01*
X125640000Y-78380000D02*
X130720000Y-78380000D01*
%TO.N,DATA6_3V3*%
X125317501Y-83460000D02*
X130720000Y-83460000D01*
X123040000Y-85737501D02*
X125317501Y-83460000D01*
X123040000Y-86737500D02*
X123040000Y-85737501D01*
%TO.N,DATA7_3V3*%
X130000000Y-86000000D02*
X129262500Y-86737500D01*
X129262500Y-86737500D02*
X124310000Y-86737500D01*
X130720000Y-86000000D02*
X130000000Y-86000000D01*
%TO.N,{slash}RESET_3V3*%
X159150000Y-84650000D02*
X157960000Y-83460000D01*
X157960000Y-83460000D02*
X148500000Y-83460000D01*
X159150000Y-86500000D02*
X159150000Y-84650000D01*
%TO.N,{slash}CS_3V3*%
X149750000Y-84750000D02*
X148500000Y-86000000D01*
X157000000Y-84750000D02*
X149750000Y-84750000D01*
D28*
%TO.N,{slash}ACK*%
X136760000Y-105137810D02*
X136760000Y-104460000D01*
X138034944Y-106412754D02*
X136760000Y-105137810D01*
X136760000Y-112740000D02*
X138034944Y-111465056D01*
X136760000Y-114960000D02*
X136760000Y-112740000D01*
X138034944Y-111465056D02*
X138034944Y-106412754D01*
%TO.N,A1*%
X143102157Y-106409299D02*
X143102157Y-108397843D01*
X143102157Y-108397843D02*
X141840000Y-109660000D01*
X141840000Y-105147142D02*
X143102157Y-106409299D01*
X141840000Y-109660000D02*
X141840000Y-114960000D01*
X141840000Y-104460000D02*
X141840000Y-105147142D01*
%TO.N,DATA6*%
X143097623Y-116217623D02*
X144380000Y-117500000D01*
X143097623Y-109842377D02*
X143097623Y-116217623D01*
X144380000Y-108560000D02*
X143097623Y-109842377D01*
X144380000Y-107000000D02*
X144380000Y-108560000D01*
%TO.N,{slash}RESET*%
X131680000Y-110536450D02*
X131680000Y-114960000D01*
X132943383Y-106443383D02*
X132943383Y-109273067D01*
X131680000Y-105180000D02*
X132943383Y-106443383D01*
X131680000Y-104460000D02*
X131680000Y-105180000D01*
X132943383Y-109273067D02*
X131680000Y-110536450D01*
%TO.N,DATA2*%
X132937579Y-110562421D02*
X132937579Y-116217579D01*
X134220000Y-109280000D02*
X132937579Y-110562421D01*
X134220000Y-107000000D02*
X134220000Y-109280000D01*
X132937579Y-116217579D02*
X134220000Y-117500000D01*
%TO.N,DATA1*%
X130409203Y-116229203D02*
X131680000Y-117500000D01*
X130409203Y-110590797D02*
X130409203Y-116229203D01*
X131680000Y-109320000D02*
X130409203Y-110590797D01*
X131680000Y-107000000D02*
X131680000Y-109320000D01*
%TO.N,DATA3*%
X135482547Y-108277453D02*
X136760000Y-107000000D01*
X135482547Y-116222547D02*
X135482547Y-108277453D01*
X136760000Y-117500000D02*
X135482547Y-116222547D01*
%TO.N,DATA4*%
X138000000Y-116200000D02*
X139300000Y-117500000D01*
X139300000Y-112200000D02*
X138000000Y-113500000D01*
X138000000Y-113500000D02*
X138000000Y-116200000D01*
X139300000Y-107000000D02*
X139300000Y-112200000D01*
%TO.N,{slash}ACK*%
X137000000Y-114720000D02*
X136760000Y-114960000D01*
%TO.N,DATA5*%
X140541294Y-108298706D02*
X140541294Y-116201294D01*
X140541294Y-116201294D02*
X141840000Y-117500000D01*
X141840000Y-107000000D02*
X140541294Y-108298706D01*
%TO.N,DATA7*%
X145636910Y-116216910D02*
X146920000Y-117500000D01*
X145636910Y-108283090D02*
X145636910Y-116216910D01*
X146920000Y-107000000D02*
X145636910Y-108283090D01*
%TO.N,{slash}DRQ*%
X149460000Y-109540000D02*
X149500000Y-109500000D01*
X149460000Y-114960000D02*
X149460000Y-109540000D01*
%TO.N,{slash}CS*%
X148170517Y-116210517D02*
X149460000Y-117500000D01*
X148170517Y-108289483D02*
X148170517Y-116210517D01*
X149460000Y-107000000D02*
X148170517Y-108289483D01*
%TO.N,{slash}DRQ*%
X150735975Y-108102252D02*
X149500000Y-109500000D01*
X150724614Y-105545923D02*
X150735975Y-108102252D01*
X149460000Y-104460000D02*
X150724614Y-105545923D01*
%TO.N,{slash}IRQ*%
X154000000Y-115500000D02*
X152000000Y-117500000D01*
X152000000Y-107000000D02*
X154000000Y-109000000D01*
X154000000Y-109000000D02*
X154000000Y-115500000D01*
D27*
%TO.N,GND*%
X165250000Y-39000000D02*
X165250000Y-40750000D01*
D26*
X112000000Y-83700000D02*
X111500000Y-84200000D01*
X156610000Y-88110000D02*
X158000000Y-89500000D01*
X111500000Y-84200000D02*
X111500000Y-85750000D01*
X156610000Y-86500000D02*
X156610000Y-88110000D01*
%TO.N,STATUS_LED*%
X151270000Y-52980000D02*
X157750000Y-46500000D01*
X157750000Y-46500000D02*
X157750000Y-44175000D01*
X148500000Y-52980000D02*
X151270000Y-52980000D01*
X157750000Y-44175000D02*
X157925000Y-44000000D01*
%TO.N,R{slash}W_3V3*%
X154550000Y-73300000D02*
X162960000Y-81710000D01*
X162960000Y-81710000D02*
X162960000Y-86500000D01*
X154550000Y-73300000D02*
X148500000Y-73300000D01*
%TO.N,CS*%
X130720000Y-52980000D02*
X121950000Y-61750000D01*
X121950000Y-66860000D02*
X118750000Y-70060000D01*
X121950000Y-61750000D02*
X121950000Y-66860000D01*
%TO.N,+3.3V*%
X112880000Y-85370000D02*
X113500000Y-84750000D01*
D29*
X155340000Y-90750000D02*
X155340000Y-95750000D01*
D27*
X152850000Y-46200000D02*
X152850000Y-43850000D01*
D26*
X112880000Y-86737500D02*
X112880000Y-85370000D01*
D29*
X155340000Y-86500000D02*
X155340000Y-89500000D01*
D27*
X148500000Y-47900000D02*
X151150000Y-47900000D01*
X113750000Y-82000000D02*
X112200000Y-82000000D01*
X152000000Y-89500000D02*
X155340000Y-89500000D01*
X118450000Y-72900000D02*
X118750000Y-72600000D01*
X152000000Y-90050000D02*
X151250000Y-90800000D01*
D29*
X155340000Y-89500000D02*
X155340000Y-90750000D01*
D27*
X151150000Y-47900000D02*
X152800000Y-46250000D01*
D26*
X113500000Y-84750000D02*
X113750000Y-84500000D01*
D27*
X114350000Y-72900000D02*
X115500000Y-72900000D01*
D26*
X113750000Y-84500000D02*
X113750000Y-82000000D01*
X112200000Y-82000000D02*
X112000000Y-81800000D01*
D27*
X152850000Y-43850000D02*
X157750000Y-38950000D01*
X112000000Y-81800000D02*
X112000000Y-75250000D01*
X112000000Y-75250000D02*
X114350000Y-72900000D01*
X115500000Y-72900000D02*
X118450000Y-72900000D01*
X152000000Y-89500000D02*
X152000000Y-90050000D01*
X152800000Y-46250000D02*
X152850000Y-46200000D01*
D26*
%TO.N,CLK*%
X115750000Y-61980000D02*
X115750000Y-57500000D01*
X127890000Y-45360000D02*
X130720000Y-45360000D01*
X118750000Y-64980000D02*
X115750000Y-61980000D01*
X115750000Y-57500000D02*
X127890000Y-45360000D01*
D28*
%TO.N,UART0_TX*%
X128930000Y-37740000D02*
X130720000Y-37740000D01*
X118000000Y-40460000D02*
X126210000Y-40460000D01*
X126210000Y-40460000D02*
X128930000Y-37740000D01*
D26*
%TO.N,DATA5_3V3*%
X121770000Y-82250000D02*
X121770000Y-86737500D01*
D27*
%TO.N,+5V*%
X148500000Y-37740000D02*
X152790000Y-37740000D01*
X152790000Y-37740000D02*
X152800000Y-37750000D01*
D26*
%TO.N,MISO*%
X130720000Y-50470000D02*
X130720000Y-50440000D01*
X118750000Y-62440000D02*
X130720000Y-50470000D01*
%TO.N,DATA3_3V3*%
X119230000Y-80770000D02*
X119230000Y-86737500D01*
%TO.N,DIR*%
X112880000Y-93870000D02*
X115250000Y-91500000D01*
X112880000Y-95987500D02*
X112880000Y-93870000D01*
D28*
%TO.N,UART0_RX*%
X118000000Y-43000000D02*
X128000000Y-43000000D01*
X128000000Y-43000000D02*
X130720000Y-40280000D01*
D26*
%TO.N,{slash}CS_3V3*%
X157880000Y-85630000D02*
X157000000Y-84750000D01*
X157880000Y-86500000D02*
X157880000Y-85630000D01*
%TO.N,A1_3V3*%
X154590000Y-75840000D02*
X148500000Y-75840000D01*
X154590000Y-75840000D02*
X161690000Y-82940000D01*
X161690000Y-82940000D02*
X161690000Y-86500000D01*
%TO.N,DATA2_3V3*%
X117960000Y-80790000D02*
X117960000Y-86737500D01*
%TO.N,Net-(D1-A)*%
X163375000Y-39000000D02*
X159625000Y-39000000D01*
X159625000Y-39000000D02*
X159575000Y-38950000D01*
%TO.N,Net-(D2-A)*%
X163375000Y-44000000D02*
X159750000Y-44000000D01*
%TO.N,{slash}ACK*%
X159150000Y-99600000D02*
X157500000Y-101250000D01*
X159150000Y-99600000D02*
X159150000Y-95750000D01*
X157500000Y-101250000D02*
X145500000Y-101250000D01*
%TO.N,{slash}CS*%
X156610000Y-95750000D02*
X156610000Y-98360000D01*
D28*
X156610000Y-98360000D02*
X156750000Y-98500000D01*
D26*
%TO.N,R{slash}W*%
X161690000Y-95750000D02*
X161690000Y-101310000D01*
%TO.N,A1*%
X160420000Y-100000000D02*
X158170000Y-102250000D01*
X160420000Y-100000000D02*
X160420000Y-95750000D01*
X158170000Y-102250000D02*
X147000000Y-102250000D01*
%TO.N,{slash}RESET*%
X156750000Y-100000000D02*
X145500000Y-100000000D01*
X157880000Y-98870000D02*
X156750000Y-100000000D01*
X157880000Y-95750000D02*
X157880000Y-98870000D01*
%TO.N,DATA6*%
X143102356Y-105762356D02*
X143102356Y-103102356D01*
X122750000Y-98750000D02*
X121770000Y-97770000D01*
X143102356Y-103102356D02*
X138750000Y-98750000D01*
X144380000Y-107040000D02*
X143102356Y-105762356D01*
X138750000Y-98750000D02*
X122750000Y-98750000D01*
X121770000Y-97770000D02*
X121770000Y-95987500D01*
%TO.N,DATA7*%
X145652697Y-103152697D02*
X140500000Y-98000000D01*
X146920000Y-107040000D02*
X145652697Y-105772697D01*
X145652697Y-105772697D02*
X145652697Y-103152697D01*
X140500000Y-98000000D02*
X123500000Y-98000000D01*
X123040000Y-97540000D02*
X123040000Y-95987500D01*
X123500000Y-98000000D02*
X123040000Y-97540000D01*
%TO.N,DATA2*%
X120000000Y-101750000D02*
X116690000Y-98440000D01*
X131500000Y-101750000D02*
X120000000Y-101750000D01*
X132956320Y-103206320D02*
X131500000Y-101750000D01*
X116690000Y-98440000D02*
X116690000Y-95987500D01*
X132956320Y-105776320D02*
X132956320Y-103206320D01*
X134220000Y-107040000D02*
X132956320Y-105776320D01*
%TO.N,DATA5*%
X141840000Y-107040000D02*
X140570342Y-105770342D01*
X140570342Y-103320342D02*
X136750000Y-99500000D01*
X136750000Y-99500000D02*
X122000000Y-99500000D01*
X120500000Y-98000000D02*
X120500000Y-95987500D01*
X140570342Y-105770342D02*
X140570342Y-103320342D01*
X122000000Y-99500000D02*
X120500000Y-98000000D01*
%TO.N,DATA3*%
X120750000Y-101000000D02*
X117960000Y-98210000D01*
X117960000Y-98210000D02*
X117960000Y-95987500D01*
X133250000Y-101000000D02*
X120750000Y-101000000D01*
X135500000Y-105780000D02*
X135500000Y-103250000D01*
X135500000Y-103250000D02*
X133250000Y-101000000D01*
X136760000Y-107040000D02*
X135500000Y-105780000D01*
%TO.N,DATA0*%
X114150000Y-95987500D02*
X114150000Y-99400000D01*
X121790000Y-107040000D02*
X119250000Y-104500000D01*
X129140000Y-107040000D02*
X121790000Y-107040000D01*
X114150000Y-99400000D02*
X119250000Y-104500000D01*
%TO.N,DATA4*%
X138037611Y-103287611D02*
X135000000Y-100250000D01*
X119230000Y-98230000D02*
X119230000Y-95987500D01*
X138037611Y-105777611D02*
X138037611Y-103287611D01*
X135000000Y-100250000D02*
X121250000Y-100250000D01*
X139300000Y-107040000D02*
X138037611Y-105777611D01*
X121250000Y-100250000D02*
X119230000Y-98230000D01*
%TO.N,DATA1*%
X115420000Y-98920000D02*
X115420000Y-95987500D01*
X130407759Y-105767759D02*
X130407759Y-103657759D01*
X129250000Y-102500000D02*
X119000000Y-102500000D01*
X119000000Y-102500000D02*
X115420000Y-98920000D01*
X131680000Y-107040000D02*
X130407759Y-105767759D01*
X130407759Y-103657759D02*
X129250000Y-102500000D01*
%TO.N,Net-(Q1-B)*%
X160270000Y-61905000D02*
X160270000Y-59500000D01*
X158500000Y-63675000D02*
X160270000Y-61905000D01*
%TD*%
%TA.AperFunction,Conductor*%
%TO.N,GND*%
G36*
X168692539Y-36520185D02*
G01*
X168738294Y-36572989D01*
X168749500Y-36624500D01*
X168749500Y-121625500D01*
X168729815Y-121692539D01*
X168677011Y-121738294D01*
X168625500Y-121749500D01*
X110874500Y-121749500D01*
X110807461Y-121729815D01*
X110761706Y-121677011D01*
X110750500Y-121625500D01*
X110750500Y-107368872D01*
X111999500Y-107368872D01*
X111999500Y-107631127D01*
X112009597Y-107707816D01*
X112033730Y-107891116D01*
X112098831Y-108134076D01*
X112101602Y-108144418D01*
X112101605Y-108144428D01*
X112201953Y-108386690D01*
X112201958Y-108386700D01*
X112333075Y-108613803D01*
X112492718Y-108821851D01*
X112492726Y-108821860D01*
X112678140Y-109007274D01*
X112678148Y-109007281D01*
X112886196Y-109166924D01*
X113113299Y-109298041D01*
X113113309Y-109298046D01*
X113355571Y-109398394D01*
X113355581Y-109398398D01*
X113608884Y-109466270D01*
X113868880Y-109500500D01*
X113868887Y-109500500D01*
X114131113Y-109500500D01*
X114131120Y-109500500D01*
X114391116Y-109466270D01*
X114644419Y-109398398D01*
X114886697Y-109298043D01*
X115113803Y-109166924D01*
X115321851Y-109007282D01*
X115321855Y-109007277D01*
X115321860Y-109007274D01*
X115507274Y-108821860D01*
X115507277Y-108821855D01*
X115507282Y-108821851D01*
X115666924Y-108613803D01*
X115798043Y-108386697D01*
X115798599Y-108385356D01*
X115835768Y-108295620D01*
X115898398Y-108144419D01*
X115966270Y-107891116D01*
X116000500Y-107631120D01*
X116000500Y-107368880D01*
X115966270Y-107108884D01*
X115898398Y-106855581D01*
X115845294Y-106727376D01*
X115798046Y-106613309D01*
X115798041Y-106613299D01*
X115666924Y-106386196D01*
X115507281Y-106178148D01*
X115507274Y-106178140D01*
X115321860Y-105992726D01*
X115321851Y-105992718D01*
X115113803Y-105833075D01*
X114886700Y-105701958D01*
X114886690Y-105701953D01*
X114644428Y-105601605D01*
X114644421Y-105601603D01*
X114644419Y-105601602D01*
X114391116Y-105533730D01*
X114333339Y-105526123D01*
X114131127Y-105499500D01*
X114131120Y-105499500D01*
X113868880Y-105499500D01*
X113868872Y-105499500D01*
X113637772Y-105529926D01*
X113608884Y-105533730D01*
X113355581Y-105601602D01*
X113355571Y-105601605D01*
X113113309Y-105701953D01*
X113113299Y-105701958D01*
X112886196Y-105833075D01*
X112678148Y-105992718D01*
X112492718Y-106178148D01*
X112333075Y-106386196D01*
X112201958Y-106613299D01*
X112201953Y-106613309D01*
X112101605Y-106855571D01*
X112101602Y-106855581D01*
X112033730Y-107108885D01*
X111999500Y-107368872D01*
X110750500Y-107368872D01*
X110750500Y-84535523D01*
X110770185Y-84468484D01*
X110822989Y-84422729D01*
X110892147Y-84412785D01*
X110955703Y-84441810D01*
X110962181Y-84447842D01*
X111056654Y-84542315D01*
X111205875Y-84634356D01*
X111205880Y-84634358D01*
X111372302Y-84689505D01*
X111372309Y-84689506D01*
X111475019Y-84699999D01*
X111749999Y-84699999D01*
X111750000Y-84699998D01*
X111750000Y-83824000D01*
X111769685Y-83756961D01*
X111822489Y-83711206D01*
X111874000Y-83700000D01*
X112126000Y-83700000D01*
X112193039Y-83719685D01*
X112238794Y-83772489D01*
X112250000Y-83824000D01*
X112250000Y-84699999D01*
X112330693Y-84699999D01*
X112344642Y-84704095D01*
X112359161Y-84703311D01*
X112377495Y-84713741D01*
X112397732Y-84719684D01*
X112407252Y-84730671D01*
X112419890Y-84737861D01*
X112429675Y-84756548D01*
X112443487Y-84772488D01*
X112445555Y-84786876D01*
X112452301Y-84799758D01*
X112450429Y-84820769D01*
X112453431Y-84841646D01*
X112447277Y-84856142D01*
X112446101Y-84869353D01*
X112433514Y-84888566D01*
X112428649Y-84900030D01*
X112423880Y-84906173D01*
X112374723Y-84955331D01*
X112309106Y-85053535D01*
X112306658Y-85057197D01*
X112306657Y-85057200D01*
X112303536Y-85061871D01*
X112303534Y-85061873D01*
X112254499Y-85180255D01*
X112254497Y-85180261D01*
X112229500Y-85305928D01*
X112229500Y-85421984D01*
X112212232Y-85485105D01*
X112128255Y-85627103D01*
X112128254Y-85627106D01*
X112082402Y-85784926D01*
X112082401Y-85784932D01*
X112079500Y-85821798D01*
X112079500Y-87653201D01*
X112082401Y-87690067D01*
X112082402Y-87690073D01*
X112128254Y-87847893D01*
X112128255Y-87847896D01*
X112128256Y-87847898D01*
X112137365Y-87863301D01*
X112211917Y-87989362D01*
X112211923Y-87989370D01*
X112328129Y-88105576D01*
X112328133Y-88105579D01*
X112328135Y-88105581D01*
X112469602Y-88189244D01*
X112511224Y-88201336D01*
X112627426Y-88235097D01*
X112627429Y-88235097D01*
X112627431Y-88235098D01*
X112664306Y-88238000D01*
X112664314Y-88238000D01*
X113095686Y-88238000D01*
X113095694Y-88238000D01*
X113132569Y-88235098D01*
X113132571Y-88235097D01*
X113132573Y-88235097D01*
X113174191Y-88223005D01*
X113290398Y-88189244D01*
X113431865Y-88105581D01*
X113431870Y-88105575D01*
X113438031Y-88100798D01*
X113439933Y-88103250D01*
X113488579Y-88076655D01*
X113558274Y-88081604D01*
X113590695Y-88102440D01*
X113591969Y-88100798D01*
X113598132Y-88105578D01*
X113598135Y-88105581D01*
X113739602Y-88189244D01*
X113781224Y-88201336D01*
X113897426Y-88235097D01*
X113897429Y-88235097D01*
X113897431Y-88235098D01*
X113934306Y-88238000D01*
X113934314Y-88238000D01*
X114365686Y-88238000D01*
X114365694Y-88238000D01*
X114402569Y-88235098D01*
X114402571Y-88235097D01*
X114402573Y-88235097D01*
X114444191Y-88223005D01*
X114560398Y-88189244D01*
X114701865Y-88105581D01*
X114701870Y-88105575D01*
X114708031Y-88100798D01*
X114709933Y-88103250D01*
X114758579Y-88076655D01*
X114828274Y-88081604D01*
X114860695Y-88102440D01*
X114861969Y-88100798D01*
X114868132Y-88105578D01*
X114868135Y-88105581D01*
X115009602Y-88189244D01*
X115051224Y-88201336D01*
X115167426Y-88235097D01*
X115167429Y-88235097D01*
X115167431Y-88235098D01*
X115204306Y-88238000D01*
X115204314Y-88238000D01*
X115635686Y-88238000D01*
X115635694Y-88238000D01*
X115672569Y-88235098D01*
X115672571Y-88235097D01*
X115672573Y-88235097D01*
X115714191Y-88223005D01*
X115830398Y-88189244D01*
X115971865Y-88105581D01*
X115971870Y-88105575D01*
X115978031Y-88100798D01*
X115979933Y-88103250D01*
X116028579Y-88076655D01*
X116098274Y-88081604D01*
X116130695Y-88102440D01*
X116131969Y-88100798D01*
X116138132Y-88105578D01*
X116138135Y-88105581D01*
X116279602Y-88189244D01*
X116321224Y-88201336D01*
X116437426Y-88235097D01*
X116437429Y-88235097D01*
X116437431Y-88235098D01*
X116474306Y-88238000D01*
X116474314Y-88238000D01*
X116905686Y-88238000D01*
X116905694Y-88238000D01*
X116942569Y-88235098D01*
X116942571Y-88235097D01*
X116942573Y-88235097D01*
X116984191Y-88223005D01*
X117100398Y-88189244D01*
X117241865Y-88105581D01*
X117241870Y-88105575D01*
X117248031Y-88100798D01*
X117249933Y-88103250D01*
X117298579Y-88076655D01*
X117368274Y-88081604D01*
X117400695Y-88102440D01*
X117401969Y-88100798D01*
X117408132Y-88105578D01*
X117408135Y-88105581D01*
X117549602Y-88189244D01*
X117591224Y-88201336D01*
X117707426Y-88235097D01*
X117707429Y-88235097D01*
X117707431Y-88235098D01*
X117744306Y-88238000D01*
X117744314Y-88238000D01*
X118175686Y-88238000D01*
X118175694Y-88238000D01*
X118212569Y-88235098D01*
X118212571Y-88235097D01*
X118212573Y-88235097D01*
X118254191Y-88223005D01*
X118370398Y-88189244D01*
X118511865Y-88105581D01*
X118511870Y-88105575D01*
X118518031Y-88100798D01*
X118519933Y-88103250D01*
X118568579Y-88076655D01*
X118638274Y-88081604D01*
X118670695Y-88102440D01*
X118671969Y-88100798D01*
X118678132Y-88105578D01*
X118678135Y-88105581D01*
X118819602Y-88189244D01*
X118861224Y-88201336D01*
X118977426Y-88235097D01*
X118977429Y-88235097D01*
X118977431Y-88235098D01*
X119014306Y-88238000D01*
X119014314Y-88238000D01*
X119445686Y-88238000D01*
X119445694Y-88238000D01*
X119482569Y-88235098D01*
X119482571Y-88235097D01*
X119482573Y-88235097D01*
X119524191Y-88223005D01*
X119640398Y-88189244D01*
X119781865Y-88105581D01*
X119781870Y-88105575D01*
X119788031Y-88100798D01*
X119789933Y-88103250D01*
X119838579Y-88076655D01*
X119908274Y-88081604D01*
X119940695Y-88102440D01*
X119941969Y-88100798D01*
X119948132Y-88105578D01*
X119948135Y-88105581D01*
X120089602Y-88189244D01*
X120131224Y-88201336D01*
X120247426Y-88235097D01*
X120247429Y-88235097D01*
X120247431Y-88235098D01*
X120284306Y-88238000D01*
X120284314Y-88238000D01*
X120715686Y-88238000D01*
X120715694Y-88238000D01*
X120752569Y-88235098D01*
X120752571Y-88235097D01*
X120752573Y-88235097D01*
X120794191Y-88223005D01*
X120910398Y-88189244D01*
X121051865Y-88105581D01*
X121051870Y-88105575D01*
X121058031Y-88100798D01*
X121059933Y-88103250D01*
X121108579Y-88076655D01*
X121178274Y-88081604D01*
X121210695Y-88102440D01*
X121211969Y-88100798D01*
X121218132Y-88105578D01*
X121218135Y-88105581D01*
X121359602Y-88189244D01*
X121401224Y-88201336D01*
X121517426Y-88235097D01*
X121517429Y-88235097D01*
X121517431Y-88235098D01*
X121554306Y-88238000D01*
X121554314Y-88238000D01*
X121985686Y-88238000D01*
X121985694Y-88238000D01*
X122022569Y-88235098D01*
X122022571Y-88235097D01*
X122022573Y-88235097D01*
X122064191Y-88223005D01*
X122180398Y-88189244D01*
X122321865Y-88105581D01*
X122321870Y-88105575D01*
X122328031Y-88100798D01*
X122329933Y-88103250D01*
X122378579Y-88076655D01*
X122448274Y-88081604D01*
X122480695Y-88102440D01*
X122481969Y-88100798D01*
X122488132Y-88105578D01*
X122488135Y-88105581D01*
X122629602Y-88189244D01*
X122671224Y-88201336D01*
X122787426Y-88235097D01*
X122787429Y-88235097D01*
X122787431Y-88235098D01*
X122824306Y-88238000D01*
X122824314Y-88238000D01*
X123255686Y-88238000D01*
X123255694Y-88238000D01*
X123292569Y-88235098D01*
X123292571Y-88235097D01*
X123292573Y-88235097D01*
X123334191Y-88223005D01*
X123450398Y-88189244D01*
X123591865Y-88105581D01*
X123591870Y-88105575D01*
X123598031Y-88100798D01*
X123599933Y-88103250D01*
X123648579Y-88076655D01*
X123718274Y-88081604D01*
X123750695Y-88102440D01*
X123751969Y-88100798D01*
X123758132Y-88105578D01*
X123758135Y-88105581D01*
X123899602Y-88189244D01*
X123941224Y-88201336D01*
X124057426Y-88235097D01*
X124057429Y-88235097D01*
X124057431Y-88235098D01*
X124094306Y-88238000D01*
X124094314Y-88238000D01*
X124525686Y-88238000D01*
X124525694Y-88238000D01*
X124562569Y-88235098D01*
X124562571Y-88235097D01*
X124562573Y-88235097D01*
X124604191Y-88223005D01*
X124720398Y-88189244D01*
X124861865Y-88105581D01*
X124978081Y-87989365D01*
X125061744Y-87847898D01*
X125107598Y-87690069D01*
X125110500Y-87653194D01*
X125110500Y-87512000D01*
X125130185Y-87444961D01*
X125182989Y-87399206D01*
X125234500Y-87388000D01*
X127214184Y-87388000D01*
X127281223Y-87407685D01*
X127326978Y-87460489D01*
X127336922Y-87529647D01*
X127317286Y-87580891D01*
X127290609Y-87620814D01*
X127290602Y-87620827D01*
X127230264Y-87766498D01*
X127230261Y-87766508D01*
X127216920Y-87833579D01*
X127184535Y-87895490D01*
X127182984Y-87897068D01*
X124266873Y-90813181D01*
X124205550Y-90846666D01*
X124179192Y-90849500D01*
X115185929Y-90849500D01*
X115063189Y-90873914D01*
X115063190Y-90873915D01*
X115060263Y-90874497D01*
X115060253Y-90874500D01*
X114941875Y-90923533D01*
X114941866Y-90923538D01*
X114835331Y-90994723D01*
X114835327Y-90994726D01*
X112374727Y-93455325D01*
X112374726Y-93455326D01*
X112303534Y-93561874D01*
X112254499Y-93680255D01*
X112254497Y-93680261D01*
X112229500Y-93805928D01*
X112229500Y-94671984D01*
X112212232Y-94735105D01*
X112128255Y-94877103D01*
X112128254Y-94877106D01*
X112082402Y-95034926D01*
X112082401Y-95034932D01*
X112079500Y-95071798D01*
X112079500Y-96903201D01*
X112082401Y-96940067D01*
X112082402Y-96940073D01*
X112128254Y-97097893D01*
X112128255Y-97097896D01*
X112211917Y-97239362D01*
X112211923Y-97239370D01*
X112328129Y-97355576D01*
X112328133Y-97355579D01*
X112328135Y-97355581D01*
X112469602Y-97439244D01*
X112469609Y-97439246D01*
X112627426Y-97485097D01*
X112627429Y-97485097D01*
X112627431Y-97485098D01*
X112664306Y-97488000D01*
X112664314Y-97488000D01*
X113095686Y-97488000D01*
X113095694Y-97488000D01*
X113132569Y-97485098D01*
X113132571Y-97485097D01*
X113132573Y-97485097D01*
X113290392Y-97439246D01*
X113290392Y-97439245D01*
X113290398Y-97439244D01*
X113312381Y-97426243D01*
X113380102Y-97409061D01*
X113446365Y-97431220D01*
X113490128Y-97485686D01*
X113499500Y-97532976D01*
X113499500Y-99464069D01*
X113519392Y-99564069D01*
X113524499Y-99589744D01*
X113573534Y-99708125D01*
X113644726Y-99814673D01*
X113644727Y-99814674D01*
X118740382Y-104910327D01*
X118740403Y-104910350D01*
X121375327Y-107545274D01*
X121375330Y-107545276D01*
X121454190Y-107597968D01*
X121481873Y-107616465D01*
X121600256Y-107665501D01*
X121600260Y-107665501D01*
X121600261Y-107665502D01*
X121725928Y-107690500D01*
X121725931Y-107690500D01*
X127665501Y-107690500D01*
X127732540Y-107710185D01*
X127778295Y-107762989D01*
X127789501Y-107814500D01*
X127789501Y-107897876D01*
X127795908Y-107957483D01*
X127846202Y-108092328D01*
X127846206Y-108092335D01*
X127932452Y-108207544D01*
X127932455Y-108207547D01*
X128047664Y-108293793D01*
X128047671Y-108293797D01*
X128182517Y-108344091D01*
X128182516Y-108344091D01*
X128189444Y-108344835D01*
X128242127Y-108350500D01*
X130037872Y-108350499D01*
X130097483Y-108344091D01*
X130232331Y-108293796D01*
X130347546Y-108207546D01*
X130433796Y-108092331D01*
X130482810Y-107960916D01*
X130524681Y-107904984D01*
X130590145Y-107880566D01*
X130658418Y-107895417D01*
X130686673Y-107916569D01*
X130800213Y-108030109D01*
X130972184Y-108155051D01*
X130972184Y-108155052D01*
X131011793Y-108175233D01*
X131062590Y-108223206D01*
X131079500Y-108285718D01*
X131079500Y-109019902D01*
X131059815Y-109086941D01*
X131043181Y-109107583D01*
X129928684Y-110222079D01*
X129928682Y-110222082D01*
X129881005Y-110304663D01*
X129881004Y-110304664D01*
X129849626Y-110359012D01*
X129808702Y-110511740D01*
X129808702Y-110511742D01*
X129808702Y-110679843D01*
X129808703Y-110679856D01*
X129808703Y-113587128D01*
X129789018Y-113654167D01*
X129736214Y-113699922D01*
X129667056Y-113709866D01*
X129646386Y-113705059D01*
X129456134Y-113643243D01*
X129456127Y-113643242D01*
X129246246Y-113610000D01*
X129033754Y-113610000D01*
X128823872Y-113643242D01*
X128823869Y-113643242D01*
X128621782Y-113708904D01*
X128432439Y-113805380D01*
X128378282Y-113844727D01*
X128378282Y-113844728D01*
X129010591Y-114477037D01*
X128947007Y-114494075D01*
X128832993Y-114559901D01*
X128739901Y-114652993D01*
X128674075Y-114767007D01*
X128657037Y-114830591D01*
X128024728Y-114198282D01*
X128024727Y-114198282D01*
X127985380Y-114252439D01*
X127888904Y-114441782D01*
X127823242Y-114643869D01*
X127823242Y-114643872D01*
X127790000Y-114853753D01*
X127790000Y-115066246D01*
X127823242Y-115276127D01*
X127823242Y-115276130D01*
X127888904Y-115478217D01*
X127985375Y-115667550D01*
X128024728Y-115721716D01*
X128657037Y-115089408D01*
X128674075Y-115152993D01*
X128739901Y-115267007D01*
X128832993Y-115360099D01*
X128947007Y-115425925D01*
X129010589Y-115442962D01*
X128340370Y-116113181D01*
X128279047Y-116146666D01*
X128252698Y-116149500D01*
X128242134Y-116149500D01*
X128242123Y-116149501D01*
X128182516Y-116155908D01*
X128047671Y-116206202D01*
X128047664Y-116206206D01*
X127932455Y-116292452D01*
X127932452Y-116292455D01*
X127846206Y-116407664D01*
X127846202Y-116407671D01*
X127795908Y-116542517D01*
X127789501Y-116602116D01*
X127789500Y-116602135D01*
X127789500Y-118397870D01*
X127789501Y-118397876D01*
X127795908Y-118457483D01*
X127846202Y-118592328D01*
X127846206Y-118592335D01*
X127932452Y-118707544D01*
X127932455Y-118707547D01*
X128047664Y-118793793D01*
X128047671Y-118793797D01*
X128182517Y-118844091D01*
X128182516Y-118844091D01*
X128189444Y-118844835D01*
X128242127Y-118850500D01*
X130037872Y-118850499D01*
X130097483Y-118844091D01*
X130232331Y-118793796D01*
X130347546Y-118707546D01*
X130433796Y-118592331D01*
X130482810Y-118460916D01*
X130524681Y-118404984D01*
X130590145Y-118380566D01*
X130658418Y-118395417D01*
X130686673Y-118416569D01*
X130800213Y-118530109D01*
X130972179Y-118655048D01*
X130972181Y-118655049D01*
X130972184Y-118655051D01*
X131161588Y-118751557D01*
X131363757Y-118817246D01*
X131573713Y-118850500D01*
X131573714Y-118850500D01*
X131786286Y-118850500D01*
X131786287Y-118850500D01*
X131996243Y-118817246D01*
X132198412Y-118751557D01*
X132387816Y-118655051D01*
X132474138Y-118592335D01*
X132559786Y-118530109D01*
X132559788Y-118530106D01*
X132559792Y-118530104D01*
X132710104Y-118379792D01*
X132710106Y-118379788D01*
X132710109Y-118379786D01*
X132835048Y-118207820D01*
X132835047Y-118207820D01*
X132835051Y-118207816D01*
X132839514Y-118199054D01*
X132887488Y-118148259D01*
X132955308Y-118131463D01*
X133021444Y-118153999D01*
X133060486Y-118199056D01*
X133064951Y-118207820D01*
X133189890Y-118379786D01*
X133340213Y-118530109D01*
X133512179Y-118655048D01*
X133512181Y-118655049D01*
X133512184Y-118655051D01*
X133701588Y-118751557D01*
X133903757Y-118817246D01*
X134113713Y-118850500D01*
X134113714Y-118850500D01*
X134326286Y-118850500D01*
X134326287Y-118850500D01*
X134536243Y-118817246D01*
X134738412Y-118751557D01*
X134927816Y-118655051D01*
X135014138Y-118592335D01*
X135099786Y-118530109D01*
X135099788Y-118530106D01*
X135099792Y-118530104D01*
X135250104Y-118379792D01*
X135250106Y-118379788D01*
X135250109Y-118379786D01*
X135375048Y-118207820D01*
X135375047Y-118207820D01*
X135375051Y-118207816D01*
X135379514Y-118199054D01*
X135427488Y-118148259D01*
X135495308Y-118131463D01*
X135561444Y-118153999D01*
X135600486Y-118199056D01*
X135604951Y-118207820D01*
X135729890Y-118379786D01*
X135880213Y-118530109D01*
X136052179Y-118655048D01*
X136052181Y-118655049D01*
X136052184Y-118655051D01*
X136241588Y-118751557D01*
X136443757Y-118817246D01*
X136653713Y-118850500D01*
X136653714Y-118850500D01*
X136866286Y-118850500D01*
X136866287Y-118850500D01*
X137076243Y-118817246D01*
X137278412Y-118751557D01*
X137467816Y-118655051D01*
X137554138Y-118592335D01*
X137639786Y-118530109D01*
X137639788Y-118530106D01*
X137639792Y-118530104D01*
X137790104Y-118379792D01*
X137790106Y-118379788D01*
X137790109Y-118379786D01*
X137915048Y-118207820D01*
X137915047Y-118207820D01*
X137915051Y-118207816D01*
X137919514Y-118199054D01*
X137967488Y-118148259D01*
X138035308Y-118131463D01*
X138101444Y-118153999D01*
X138140486Y-118199056D01*
X138144951Y-118207820D01*
X138269890Y-118379786D01*
X138420213Y-118530109D01*
X138592179Y-118655048D01*
X138592181Y-118655049D01*
X138592184Y-118655051D01*
X138781588Y-118751557D01*
X138983757Y-118817246D01*
X139193713Y-118850500D01*
X139193714Y-118850500D01*
X139406286Y-118850500D01*
X139406287Y-118850500D01*
X139616243Y-118817246D01*
X139818412Y-118751557D01*
X140007816Y-118655051D01*
X140094138Y-118592335D01*
X140179786Y-118530109D01*
X140179788Y-118530106D01*
X140179792Y-118530104D01*
X140330104Y-118379792D01*
X140330106Y-118379788D01*
X140330109Y-118379786D01*
X140455048Y-118207820D01*
X140455047Y-118207820D01*
X140455051Y-118207816D01*
X140459514Y-118199054D01*
X140507488Y-118148259D01*
X140575308Y-118131463D01*
X140641444Y-118153999D01*
X140680486Y-118199056D01*
X140684951Y-118207820D01*
X140809890Y-118379786D01*
X140960213Y-118530109D01*
X141132179Y-118655048D01*
X141132181Y-118655049D01*
X141132184Y-118655051D01*
X141321588Y-118751557D01*
X141523757Y-118817246D01*
X141733713Y-118850500D01*
X141733714Y-118850500D01*
X141946286Y-118850500D01*
X141946287Y-118850500D01*
X142156243Y-118817246D01*
X142358412Y-118751557D01*
X142547816Y-118655051D01*
X142634138Y-118592335D01*
X142719786Y-118530109D01*
X142719788Y-118530106D01*
X142719792Y-118530104D01*
X142870104Y-118379792D01*
X142870106Y-118379788D01*
X142870109Y-118379786D01*
X142995048Y-118207820D01*
X142995047Y-118207820D01*
X142995051Y-118207816D01*
X142999514Y-118199054D01*
X143047488Y-118148259D01*
X143115308Y-118131463D01*
X143181444Y-118153999D01*
X143220486Y-118199056D01*
X143224951Y-118207820D01*
X143349890Y-118379786D01*
X143500213Y-118530109D01*
X143672179Y-118655048D01*
X143672181Y-118655049D01*
X143672184Y-118655051D01*
X143861588Y-118751557D01*
X144063757Y-118817246D01*
X144273713Y-118850500D01*
X144273714Y-118850500D01*
X144486286Y-118850500D01*
X144486287Y-118850500D01*
X144696243Y-118817246D01*
X144898412Y-118751557D01*
X145087816Y-118655051D01*
X145174138Y-118592335D01*
X145259786Y-118530109D01*
X145259788Y-118530106D01*
X145259792Y-118530104D01*
X145410104Y-118379792D01*
X145410106Y-118379788D01*
X145410109Y-118379786D01*
X145535048Y-118207820D01*
X145535047Y-118207820D01*
X145535051Y-118207816D01*
X145539514Y-118199054D01*
X145587488Y-118148259D01*
X145655308Y-118131463D01*
X145721444Y-118153999D01*
X145760486Y-118199056D01*
X145764951Y-118207820D01*
X145889890Y-118379786D01*
X146040213Y-118530109D01*
X146212179Y-118655048D01*
X146212181Y-118655049D01*
X146212184Y-118655051D01*
X146401588Y-118751557D01*
X146603757Y-118817246D01*
X146813713Y-118850500D01*
X146813714Y-118850500D01*
X147026286Y-118850500D01*
X147026287Y-118850500D01*
X147236243Y-118817246D01*
X147438412Y-118751557D01*
X147627816Y-118655051D01*
X147714138Y-118592335D01*
X147799786Y-118530109D01*
X147799788Y-118530106D01*
X147799792Y-118530104D01*
X147950104Y-118379792D01*
X147950106Y-118379788D01*
X147950109Y-118379786D01*
X148075048Y-118207820D01*
X148075047Y-118207820D01*
X148075051Y-118207816D01*
X148079514Y-118199054D01*
X148127488Y-118148259D01*
X148195308Y-118131463D01*
X148261444Y-118153999D01*
X148300486Y-118199056D01*
X148304951Y-118207820D01*
X148429890Y-118379786D01*
X148580213Y-118530109D01*
X148752179Y-118655048D01*
X148752181Y-118655049D01*
X148752184Y-118655051D01*
X148941588Y-118751557D01*
X149143757Y-118817246D01*
X149353713Y-118850500D01*
X149353714Y-118850500D01*
X149566286Y-118850500D01*
X149566287Y-118850500D01*
X149776243Y-118817246D01*
X149978412Y-118751557D01*
X150167816Y-118655051D01*
X150254138Y-118592335D01*
X150339786Y-118530109D01*
X150339788Y-118530106D01*
X150339792Y-118530104D01*
X150490104Y-118379792D01*
X150490106Y-118379788D01*
X150490109Y-118379786D01*
X150615048Y-118207820D01*
X150615047Y-118207820D01*
X150615051Y-118207816D01*
X150619514Y-118199054D01*
X150667488Y-118148259D01*
X150735308Y-118131463D01*
X150801444Y-118153999D01*
X150840486Y-118199056D01*
X150844951Y-118207820D01*
X150969890Y-118379786D01*
X151120213Y-118530109D01*
X151292179Y-118655048D01*
X151292181Y-118655049D01*
X151292184Y-118655051D01*
X151481588Y-118751557D01*
X151683757Y-118817246D01*
X151893713Y-118850500D01*
X151893714Y-118850500D01*
X152106286Y-118850500D01*
X152106287Y-118850500D01*
X152316243Y-118817246D01*
X152518412Y-118751557D01*
X152707816Y-118655051D01*
X152794138Y-118592335D01*
X152879786Y-118530109D01*
X152879788Y-118530106D01*
X152879792Y-118530104D01*
X153030104Y-118379792D01*
X153030106Y-118379788D01*
X153030109Y-118379786D01*
X153155048Y-118207820D01*
X153155047Y-118207820D01*
X153155051Y-118207816D01*
X153251557Y-118018412D01*
X153317246Y-117816243D01*
X153350500Y-117606287D01*
X153350500Y-117393713D01*
X153317246Y-117183757D01*
X153303506Y-117141473D01*
X153301512Y-117071635D01*
X153333755Y-117015478D01*
X154358506Y-115990728D01*
X154358511Y-115990724D01*
X154368714Y-115980520D01*
X154368716Y-115980520D01*
X154480520Y-115868716D01*
X154553663Y-115742028D01*
X154559577Y-115731785D01*
X154600500Y-115579057D01*
X154600500Y-115420943D01*
X154600500Y-108920943D01*
X154579526Y-108842667D01*
X154559577Y-108768215D01*
X154508357Y-108679500D01*
X154480520Y-108631284D01*
X154368716Y-108519480D01*
X154368715Y-108519479D01*
X154364385Y-108515149D01*
X154364374Y-108515139D01*
X153333757Y-107484522D01*
X153326462Y-107471163D01*
X153315249Y-107460871D01*
X153310058Y-107441121D01*
X153300272Y-107423199D01*
X153301083Y-107406973D01*
X153297489Y-107393296D01*
X153301716Y-107368872D01*
X163499500Y-107368872D01*
X163499500Y-107631127D01*
X163509597Y-107707816D01*
X163533730Y-107891116D01*
X163598831Y-108134076D01*
X163601602Y-108144418D01*
X163601605Y-108144428D01*
X163701953Y-108386690D01*
X163701958Y-108386700D01*
X163833075Y-108613803D01*
X163992718Y-108821851D01*
X163992726Y-108821860D01*
X164178140Y-109007274D01*
X164178148Y-109007281D01*
X164386196Y-109166924D01*
X164613299Y-109298041D01*
X164613309Y-109298046D01*
X164855571Y-109398394D01*
X164855581Y-109398398D01*
X165108884Y-109466270D01*
X165368880Y-109500500D01*
X165368887Y-109500500D01*
X165631113Y-109500500D01*
X165631120Y-109500500D01*
X165891116Y-109466270D01*
X166144419Y-109398398D01*
X166386697Y-109298043D01*
X166613803Y-109166924D01*
X166821851Y-109007282D01*
X166821855Y-109007277D01*
X166821860Y-109007274D01*
X167007274Y-108821860D01*
X167007277Y-108821855D01*
X167007282Y-108821851D01*
X167166924Y-108613803D01*
X167298043Y-108386697D01*
X167298599Y-108385356D01*
X167335768Y-108295620D01*
X167398398Y-108144419D01*
X167466270Y-107891116D01*
X167500500Y-107631120D01*
X167500500Y-107368880D01*
X167466270Y-107108884D01*
X167398398Y-106855581D01*
X167345294Y-106727376D01*
X167298046Y-106613309D01*
X167298041Y-106613299D01*
X167166924Y-106386196D01*
X167007281Y-106178148D01*
X167007274Y-106178140D01*
X166821860Y-105992726D01*
X166821851Y-105992718D01*
X166613803Y-105833075D01*
X166386700Y-105701958D01*
X166386690Y-105701953D01*
X166144428Y-105601605D01*
X166144421Y-105601603D01*
X166144419Y-105601602D01*
X165891116Y-105533730D01*
X165833339Y-105526123D01*
X165631127Y-105499500D01*
X165631120Y-105499500D01*
X165368880Y-105499500D01*
X165368872Y-105499500D01*
X165137772Y-105529926D01*
X165108884Y-105533730D01*
X164855581Y-105601602D01*
X164855571Y-105601605D01*
X164613309Y-105701953D01*
X164613299Y-105701958D01*
X164386196Y-105833075D01*
X164178148Y-105992718D01*
X163992718Y-106178148D01*
X163833075Y-106386196D01*
X163701958Y-106613299D01*
X163701953Y-106613309D01*
X163601605Y-106855571D01*
X163601602Y-106855581D01*
X163533730Y-107108885D01*
X163499500Y-107368872D01*
X153301716Y-107368872D01*
X153303506Y-107358527D01*
X153317246Y-107316243D01*
X153350500Y-107106287D01*
X153350500Y-106893713D01*
X153317246Y-106683757D01*
X153251557Y-106481588D01*
X153155051Y-106292184D01*
X153155049Y-106292181D01*
X153155048Y-106292179D01*
X153030109Y-106120213D01*
X152879786Y-105969890D01*
X152707820Y-105844951D01*
X152707115Y-105844591D01*
X152699054Y-105840485D01*
X152648259Y-105792512D01*
X152631463Y-105724692D01*
X152653999Y-105658556D01*
X152699054Y-105619515D01*
X152707816Y-105615051D01*
X152819746Y-105533730D01*
X152879786Y-105490109D01*
X152879788Y-105490106D01*
X152879792Y-105490104D01*
X153030104Y-105339792D01*
X153030106Y-105339788D01*
X153030109Y-105339786D01*
X153155048Y-105167820D01*
X153155047Y-105167820D01*
X153155051Y-105167816D01*
X153251557Y-104978412D01*
X153317246Y-104776243D01*
X153350500Y-104566287D01*
X153350500Y-104353713D01*
X153317246Y-104143757D01*
X153251557Y-103941588D01*
X153155051Y-103752184D01*
X153155049Y-103752181D01*
X153155048Y-103752179D01*
X153030109Y-103580213D01*
X152879786Y-103429890D01*
X152707820Y-103304951D01*
X152518414Y-103208444D01*
X152518413Y-103208443D01*
X152518412Y-103208443D01*
X152316243Y-103142754D01*
X152316241Y-103142753D01*
X152315248Y-103142431D01*
X152257572Y-103102993D01*
X152230374Y-103038635D01*
X152242289Y-102969788D01*
X152289533Y-102918313D01*
X152353566Y-102900500D01*
X158234071Y-102900500D01*
X158318615Y-102883682D01*
X158359744Y-102875501D01*
X158478127Y-102826465D01*
X158526372Y-102794229D01*
X158584669Y-102755277D01*
X159689446Y-101650500D01*
X160827819Y-100512128D01*
X160847255Y-100501515D01*
X160863989Y-100487015D01*
X160877320Y-100485098D01*
X160889142Y-100478643D01*
X160911228Y-100480222D01*
X160933147Y-100477071D01*
X160945398Y-100482666D01*
X160958834Y-100483627D01*
X160976560Y-100496897D01*
X160996703Y-100506096D01*
X161003985Y-100517427D01*
X161014767Y-100525499D01*
X161022504Y-100546244D01*
X161034477Y-100564874D01*
X161037628Y-100586792D01*
X161039184Y-100590963D01*
X161039500Y-100599809D01*
X161039500Y-100805064D01*
X161019815Y-100872103D01*
X161018603Y-100873954D01*
X160980608Y-100930817D01*
X160980602Y-100930828D01*
X160920264Y-101076498D01*
X160920261Y-101076510D01*
X160889500Y-101231153D01*
X160889500Y-101388846D01*
X160920261Y-101543489D01*
X160920264Y-101543501D01*
X160980602Y-101689172D01*
X160980609Y-101689185D01*
X161068210Y-101820288D01*
X161068213Y-101820292D01*
X161179707Y-101931786D01*
X161179711Y-101931789D01*
X161310814Y-102019390D01*
X161310827Y-102019397D01*
X161456498Y-102079735D01*
X161456503Y-102079737D01*
X161611153Y-102110499D01*
X161611156Y-102110500D01*
X161611158Y-102110500D01*
X161768844Y-102110500D01*
X161768845Y-102110499D01*
X161923497Y-102079737D01*
X162036166Y-102033067D01*
X162069172Y-102019397D01*
X162069172Y-102019396D01*
X162069179Y-102019394D01*
X162200289Y-101931789D01*
X162311789Y-101820289D01*
X162399394Y-101689179D01*
X162459737Y-101543497D01*
X162490500Y-101388842D01*
X162490500Y-101231158D01*
X162490500Y-101231155D01*
X162490499Y-101231153D01*
X162466834Y-101112181D01*
X162459737Y-101076503D01*
X162442149Y-101034041D01*
X162399397Y-100930828D01*
X162399396Y-100930827D01*
X162399394Y-100930821D01*
X162361396Y-100873953D01*
X162340520Y-100807276D01*
X162340500Y-100805064D01*
X162340500Y-97294896D01*
X162360185Y-97227857D01*
X162412989Y-97182102D01*
X162482147Y-97172158D01*
X162527621Y-97188164D01*
X162549801Y-97201281D01*
X162707514Y-97247100D01*
X162707511Y-97247100D01*
X162709998Y-97247295D01*
X162710000Y-97247295D01*
X163210000Y-97247295D01*
X163210001Y-97247295D01*
X163212486Y-97247100D01*
X163370198Y-97201281D01*
X163511552Y-97117685D01*
X163517722Y-97112900D01*
X163519546Y-97115252D01*
X163568595Y-97088445D01*
X163638288Y-97093402D01*
X163671063Y-97114465D01*
X163672278Y-97112900D01*
X163678447Y-97117685D01*
X163819801Y-97201281D01*
X163977514Y-97247100D01*
X163977511Y-97247100D01*
X163979998Y-97247295D01*
X163980000Y-97247295D01*
X164480000Y-97247295D01*
X164480001Y-97247295D01*
X164482486Y-97247100D01*
X164640198Y-97201281D01*
X164781552Y-97117685D01*
X164787722Y-97112900D01*
X164789546Y-97115252D01*
X164838595Y-97088445D01*
X164908288Y-97093402D01*
X164941063Y-97114465D01*
X164942278Y-97112900D01*
X164948447Y-97117685D01*
X165089801Y-97201281D01*
X165247514Y-97247100D01*
X165247511Y-97247100D01*
X165249998Y-97247295D01*
X165250000Y-97247295D01*
X165750000Y-97247295D01*
X165750001Y-97247295D01*
X165752486Y-97247100D01*
X165910198Y-97201281D01*
X166051552Y-97117685D01*
X166057722Y-97112900D01*
X166059546Y-97115252D01*
X166108595Y-97088445D01*
X166178288Y-97093402D01*
X166211063Y-97114465D01*
X166212278Y-97112900D01*
X166218447Y-97117685D01*
X166359801Y-97201281D01*
X166517514Y-97247100D01*
X166517511Y-97247100D01*
X166519998Y-97247295D01*
X166520000Y-97247295D01*
X167020000Y-97247295D01*
X167020001Y-97247295D01*
X167022486Y-97247100D01*
X167180198Y-97201281D01*
X167321552Y-97117685D01*
X167321561Y-97117678D01*
X167437678Y-97001561D01*
X167437685Y-97001552D01*
X167521282Y-96860196D01*
X167521283Y-96860193D01*
X167567099Y-96702495D01*
X167567100Y-96702489D01*
X167569999Y-96665649D01*
X167570000Y-96665634D01*
X167570000Y-96000000D01*
X167020000Y-96000000D01*
X167020000Y-97247295D01*
X166520000Y-97247295D01*
X166520000Y-96000000D01*
X165750000Y-96000000D01*
X165750000Y-97247295D01*
X165250000Y-97247295D01*
X165250000Y-96000000D01*
X164480000Y-96000000D01*
X164480000Y-97247295D01*
X163980000Y-97247295D01*
X163980000Y-96000000D01*
X163210000Y-96000000D01*
X163210000Y-97247295D01*
X162710000Y-97247295D01*
X162710000Y-94252703D01*
X163210000Y-94252703D01*
X163210000Y-95500000D01*
X163980000Y-95500000D01*
X163980000Y-94252703D01*
X164480000Y-94252703D01*
X164480000Y-95500000D01*
X165250000Y-95500000D01*
X165250000Y-94252703D01*
X165750000Y-94252703D01*
X165750000Y-95500000D01*
X166520000Y-95500000D01*
X167020000Y-95500000D01*
X167570000Y-95500000D01*
X167570000Y-94834365D01*
X167569999Y-94834350D01*
X167567100Y-94797510D01*
X167567099Y-94797504D01*
X167521283Y-94639806D01*
X167521282Y-94639803D01*
X167437685Y-94498447D01*
X167437678Y-94498438D01*
X167321561Y-94382321D01*
X167321552Y-94382314D01*
X167180196Y-94298717D01*
X167180193Y-94298716D01*
X167022494Y-94252900D01*
X167022497Y-94252900D01*
X167020000Y-94252703D01*
X167020000Y-95500000D01*
X166520000Y-95500000D01*
X166520000Y-94252703D01*
X166517503Y-94252900D01*
X166359806Y-94298716D01*
X166359803Y-94298717D01*
X166218447Y-94382314D01*
X166212278Y-94387100D01*
X166210457Y-94384753D01*
X166161358Y-94411564D01*
X166091666Y-94406580D01*
X166058930Y-94385541D01*
X166057722Y-94387100D01*
X166051552Y-94382314D01*
X165910196Y-94298717D01*
X165910193Y-94298716D01*
X165752494Y-94252900D01*
X165752497Y-94252900D01*
X165750000Y-94252703D01*
X165250000Y-94252703D01*
X165247503Y-94252900D01*
X165089806Y-94298716D01*
X165089803Y-94298717D01*
X164948447Y-94382314D01*
X164942278Y-94387100D01*
X164940457Y-94384753D01*
X164891358Y-94411564D01*
X164821666Y-94406580D01*
X164788930Y-94385541D01*
X164787722Y-94387100D01*
X164781552Y-94382314D01*
X164640196Y-94298717D01*
X164640193Y-94298716D01*
X164482494Y-94252900D01*
X164482497Y-94252900D01*
X164480000Y-94252703D01*
X163980000Y-94252703D01*
X163977503Y-94252900D01*
X163819806Y-94298716D01*
X163819803Y-94298717D01*
X163678447Y-94382314D01*
X163672278Y-94387100D01*
X163670457Y-94384753D01*
X163621358Y-94411564D01*
X163551666Y-94406580D01*
X163518930Y-94385541D01*
X163517722Y-94387100D01*
X163511552Y-94382314D01*
X163370196Y-94298717D01*
X163370193Y-94298716D01*
X163212494Y-94252900D01*
X163212497Y-94252900D01*
X163210000Y-94252703D01*
X162710000Y-94252703D01*
X162707503Y-94252900D01*
X162549806Y-94298716D01*
X162549803Y-94298717D01*
X162408449Y-94382313D01*
X162402283Y-94387097D01*
X162400389Y-94384655D01*
X162351580Y-94411239D01*
X162281894Y-94406179D01*
X162249227Y-94385159D01*
X162248031Y-94386702D01*
X162241862Y-94381917D01*
X162163681Y-94335681D01*
X162100398Y-94298256D01*
X162100397Y-94298255D01*
X162100396Y-94298255D01*
X162100393Y-94298254D01*
X161942573Y-94252402D01*
X161942567Y-94252401D01*
X161905701Y-94249500D01*
X161905694Y-94249500D01*
X161474306Y-94249500D01*
X161474298Y-94249500D01*
X161437432Y-94252401D01*
X161437426Y-94252402D01*
X161279606Y-94298254D01*
X161279603Y-94298255D01*
X161138137Y-94381917D01*
X161131969Y-94386702D01*
X161130072Y-94384256D01*
X161081358Y-94410857D01*
X161011666Y-94405873D01*
X160979296Y-94385069D01*
X160978031Y-94386702D01*
X160971862Y-94381917D01*
X160893681Y-94335681D01*
X160830398Y-94298256D01*
X160830397Y-94298255D01*
X160830396Y-94298255D01*
X160830393Y-94298254D01*
X160672573Y-94252402D01*
X160672567Y-94252401D01*
X160635701Y-94249500D01*
X160635694Y-94249500D01*
X160204306Y-94249500D01*
X160204298Y-94249500D01*
X160167432Y-94252401D01*
X160167426Y-94252402D01*
X160009606Y-94298254D01*
X160009603Y-94298255D01*
X159868137Y-94381917D01*
X159861969Y-94386702D01*
X159860072Y-94384256D01*
X159811358Y-94410857D01*
X159741666Y-94405873D01*
X159709296Y-94385069D01*
X159708031Y-94386702D01*
X159701862Y-94381917D01*
X159623681Y-94335681D01*
X159560398Y-94298256D01*
X159560397Y-94298255D01*
X159560396Y-94298255D01*
X159560393Y-94298254D01*
X159402573Y-94252402D01*
X159402567Y-94252401D01*
X159365701Y-94249500D01*
X159365694Y-94249500D01*
X158934306Y-94249500D01*
X158934298Y-94249500D01*
X158897432Y-94252401D01*
X158897426Y-94252402D01*
X158739606Y-94298254D01*
X158739603Y-94298255D01*
X158598137Y-94381917D01*
X158591969Y-94386702D01*
X158590072Y-94384256D01*
X158541358Y-94410857D01*
X158471666Y-94405873D01*
X158439296Y-94385069D01*
X158438031Y-94386702D01*
X158431862Y-94381917D01*
X158353681Y-94335681D01*
X158290398Y-94298256D01*
X158290397Y-94298255D01*
X158290396Y-94298255D01*
X158290393Y-94298254D01*
X158132573Y-94252402D01*
X158132567Y-94252401D01*
X158095701Y-94249500D01*
X158095694Y-94249500D01*
X157664306Y-94249500D01*
X157664298Y-94249500D01*
X157627432Y-94252401D01*
X157627426Y-94252402D01*
X157469606Y-94298254D01*
X157469603Y-94298255D01*
X157328137Y-94381917D01*
X157321969Y-94386702D01*
X157320072Y-94384256D01*
X157271358Y-94410857D01*
X157201666Y-94405873D01*
X157169296Y-94385069D01*
X157168031Y-94386702D01*
X157161862Y-94381917D01*
X157083681Y-94335681D01*
X157020398Y-94298256D01*
X157020397Y-94298255D01*
X157020396Y-94298255D01*
X157020393Y-94298254D01*
X156862573Y-94252402D01*
X156862567Y-94252401D01*
X156825701Y-94249500D01*
X156825694Y-94249500D01*
X156394306Y-94249500D01*
X156394298Y-94249500D01*
X156357432Y-94252401D01*
X156357426Y-94252402D01*
X156199095Y-94298402D01*
X156129225Y-94298203D01*
X156070555Y-94260261D01*
X156041712Y-94196622D01*
X156040500Y-94179326D01*
X156040500Y-89794658D01*
X156049939Y-89747206D01*
X156061656Y-89718917D01*
X156061658Y-89718913D01*
X156090500Y-89573918D01*
X156090500Y-89426082D01*
X156090500Y-89426079D01*
X156061659Y-89281093D01*
X156061658Y-89281087D01*
X156049937Y-89252790D01*
X156040500Y-89205342D01*
X156040500Y-88070153D01*
X156060185Y-88003114D01*
X156112989Y-87957359D01*
X156182147Y-87947415D01*
X156199095Y-87951077D01*
X156357505Y-87997099D01*
X156357511Y-87997100D01*
X156359998Y-87997295D01*
X156360000Y-87997295D01*
X156360000Y-86624000D01*
X156379685Y-86556961D01*
X156432489Y-86511206D01*
X156484000Y-86500000D01*
X156736000Y-86500000D01*
X156803039Y-86519685D01*
X156848794Y-86572489D01*
X156860000Y-86624000D01*
X156860000Y-87997295D01*
X156860001Y-87997295D01*
X156862486Y-87997100D01*
X157020198Y-87951281D01*
X157161550Y-87867686D01*
X157167717Y-87862903D01*
X157169630Y-87865369D01*
X157218222Y-87838802D01*
X157287917Y-87843749D01*
X157320762Y-87864853D01*
X157321969Y-87863298D01*
X157328132Y-87868078D01*
X157328135Y-87868081D01*
X157469602Y-87951744D01*
X157488929Y-87957359D01*
X157627426Y-87997597D01*
X157627429Y-87997597D01*
X157627431Y-87997598D01*
X157664306Y-88000500D01*
X157664314Y-88000500D01*
X158095686Y-88000500D01*
X158095694Y-88000500D01*
X158132569Y-87997598D01*
X158132571Y-87997597D01*
X158132573Y-87997597D01*
X158174191Y-87985505D01*
X158290398Y-87951744D01*
X158431865Y-87868081D01*
X158431870Y-87868075D01*
X158438031Y-87863298D01*
X158439933Y-87865750D01*
X158488579Y-87839155D01*
X158558274Y-87844104D01*
X158590695Y-87864940D01*
X158591969Y-87863298D01*
X158598132Y-87868078D01*
X158598135Y-87868081D01*
X158739602Y-87951744D01*
X158758929Y-87957359D01*
X158897426Y-87997597D01*
X158897429Y-87997597D01*
X158897431Y-87997598D01*
X158934306Y-88000500D01*
X158934314Y-88000500D01*
X159365686Y-88000500D01*
X159365694Y-88000500D01*
X159402569Y-87997598D01*
X159402571Y-87997597D01*
X159402573Y-87997597D01*
X159444191Y-87985505D01*
X159560398Y-87951744D01*
X159701865Y-87868081D01*
X159701870Y-87868075D01*
X159708031Y-87863298D01*
X159709933Y-87865750D01*
X159758579Y-87839155D01*
X159828274Y-87844104D01*
X159860695Y-87864940D01*
X159861969Y-87863298D01*
X159868132Y-87868078D01*
X159868135Y-87868081D01*
X160009602Y-87951744D01*
X160028929Y-87957359D01*
X160167426Y-87997597D01*
X160167429Y-87997597D01*
X160167431Y-87997598D01*
X160204306Y-88000500D01*
X160204314Y-88000500D01*
X160635686Y-88000500D01*
X160635694Y-88000500D01*
X160672569Y-87997598D01*
X160672571Y-87997597D01*
X160672573Y-87997597D01*
X160714191Y-87985505D01*
X160830398Y-87951744D01*
X160971865Y-87868081D01*
X160971870Y-87868075D01*
X160978031Y-87863298D01*
X160979933Y-87865750D01*
X161028579Y-87839155D01*
X161098274Y-87844104D01*
X161130695Y-87864940D01*
X161131969Y-87863298D01*
X161138132Y-87868078D01*
X161138135Y-87868081D01*
X161279602Y-87951744D01*
X161298929Y-87957359D01*
X161437426Y-87997597D01*
X161437429Y-87997597D01*
X161437431Y-87997598D01*
X161474306Y-88000500D01*
X161474314Y-88000500D01*
X161905686Y-88000500D01*
X161905694Y-88000500D01*
X161942569Y-87997598D01*
X161942571Y-87997597D01*
X161942573Y-87997597D01*
X161984191Y-87985505D01*
X162100398Y-87951744D01*
X162241865Y-87868081D01*
X162241870Y-87868075D01*
X162248031Y-87863298D01*
X162249933Y-87865750D01*
X162298579Y-87839155D01*
X162368274Y-87844104D01*
X162400695Y-87864940D01*
X162401969Y-87863298D01*
X162408132Y-87868078D01*
X162408135Y-87868081D01*
X162549602Y-87951744D01*
X162568929Y-87957359D01*
X162707426Y-87997597D01*
X162707429Y-87997597D01*
X162707431Y-87997598D01*
X162744306Y-88000500D01*
X162744314Y-88000500D01*
X163175686Y-88000500D01*
X163175694Y-88000500D01*
X163212569Y-87997598D01*
X163212571Y-87997597D01*
X163212573Y-87997597D01*
X163254191Y-87985505D01*
X163370398Y-87951744D01*
X163511865Y-87868081D01*
X163511868Y-87868077D01*
X163518026Y-87863301D01*
X163519839Y-87865638D01*
X163568949Y-87838798D01*
X163638643Y-87843756D01*
X163670996Y-87864551D01*
X163672278Y-87862900D01*
X163678447Y-87867685D01*
X163819801Y-87951281D01*
X163977514Y-87997100D01*
X163977511Y-87997100D01*
X163979998Y-87997295D01*
X163980000Y-87997295D01*
X164480000Y-87997295D01*
X164480001Y-87997295D01*
X164482486Y-87997100D01*
X164640198Y-87951281D01*
X164781552Y-87867685D01*
X164787722Y-87862900D01*
X164789546Y-87865252D01*
X164838595Y-87838445D01*
X164908288Y-87843402D01*
X164941063Y-87864465D01*
X164942278Y-87862900D01*
X164948447Y-87867685D01*
X165089801Y-87951281D01*
X165247514Y-87997100D01*
X165247511Y-87997100D01*
X165249998Y-87997295D01*
X165250000Y-87997295D01*
X165750000Y-87997295D01*
X165750001Y-87997295D01*
X165752486Y-87997100D01*
X165910198Y-87951281D01*
X166051552Y-87867685D01*
X166057722Y-87862900D01*
X166059546Y-87865252D01*
X166108595Y-87838445D01*
X166178288Y-87843402D01*
X166211063Y-87864465D01*
X166212278Y-87862900D01*
X166218447Y-87867685D01*
X166359801Y-87951281D01*
X166517514Y-87997100D01*
X166517511Y-87997100D01*
X166519998Y-87997295D01*
X166520000Y-87997295D01*
X167020000Y-87997295D01*
X167020001Y-87997295D01*
X167022486Y-87997100D01*
X167180198Y-87951281D01*
X167321552Y-87867685D01*
X167321561Y-87867678D01*
X167437678Y-87751561D01*
X167437685Y-87751552D01*
X167521282Y-87610196D01*
X167521283Y-87610193D01*
X167567099Y-87452495D01*
X167567100Y-87452489D01*
X167569999Y-87415649D01*
X167570000Y-87415634D01*
X167570000Y-86750000D01*
X167020000Y-86750000D01*
X167020000Y-87997295D01*
X166520000Y-87997295D01*
X166520000Y-86750000D01*
X165750000Y-86750000D01*
X165750000Y-87997295D01*
X165250000Y-87997295D01*
X165250000Y-86750000D01*
X164480000Y-86750000D01*
X164480000Y-87997295D01*
X163980000Y-87997295D01*
X163980000Y-85002703D01*
X164480000Y-85002703D01*
X164480000Y-86250000D01*
X165250000Y-86250000D01*
X165250000Y-85002703D01*
X165750000Y-85002703D01*
X165750000Y-86250000D01*
X166520000Y-86250000D01*
X167020000Y-86250000D01*
X167570000Y-86250000D01*
X167570000Y-85584365D01*
X167569999Y-85584350D01*
X167567100Y-85547510D01*
X167567099Y-85547504D01*
X167521283Y-85389806D01*
X167521282Y-85389803D01*
X167437685Y-85248447D01*
X167437678Y-85248438D01*
X167321561Y-85132321D01*
X167321552Y-85132314D01*
X167180196Y-85048717D01*
X167180193Y-85048716D01*
X167022494Y-85002900D01*
X167022497Y-85002900D01*
X167020000Y-85002703D01*
X167020000Y-86250000D01*
X166520000Y-86250000D01*
X166520000Y-85002703D01*
X166517503Y-85002900D01*
X166359806Y-85048716D01*
X166359803Y-85048717D01*
X166218447Y-85132314D01*
X166212278Y-85137100D01*
X166210457Y-85134753D01*
X166161358Y-85161564D01*
X166091666Y-85156580D01*
X166058930Y-85135541D01*
X166057722Y-85137100D01*
X166051552Y-85132314D01*
X165910196Y-85048717D01*
X165910193Y-85048716D01*
X165752494Y-85002900D01*
X165752497Y-85002900D01*
X165750000Y-85002703D01*
X165250000Y-85002703D01*
X165247503Y-85002900D01*
X165089806Y-85048716D01*
X165089803Y-85048717D01*
X164948447Y-85132314D01*
X164942278Y-85137100D01*
X164940457Y-85134753D01*
X164891358Y-85161564D01*
X164821666Y-85156580D01*
X164788930Y-85135541D01*
X164787722Y-85137100D01*
X164781552Y-85132314D01*
X164640196Y-85048717D01*
X164640193Y-85048716D01*
X164482494Y-85002900D01*
X164482497Y-85002900D01*
X164480000Y-85002703D01*
X163980000Y-85002703D01*
X163977503Y-85002900D01*
X163819806Y-85048716D01*
X163819803Y-85048717D01*
X163797618Y-85061837D01*
X163729894Y-85079017D01*
X163663632Y-85056856D01*
X163619870Y-85002389D01*
X163610500Y-84955103D01*
X163610500Y-81645928D01*
X163585502Y-81520261D01*
X163585501Y-81520260D01*
X163585501Y-81520256D01*
X163536465Y-81401873D01*
X163520655Y-81378211D01*
X163499541Y-81346612D01*
X163465275Y-81295328D01*
X156538819Y-74368872D01*
X163499500Y-74368872D01*
X163499500Y-74631127D01*
X163517993Y-74771584D01*
X163533730Y-74891116D01*
X163594258Y-75117011D01*
X163601602Y-75144418D01*
X163601605Y-75144428D01*
X163701953Y-75386690D01*
X163701958Y-75386700D01*
X163833075Y-75613803D01*
X163992718Y-75821851D01*
X163992726Y-75821860D01*
X164178140Y-76007274D01*
X164178148Y-76007281D01*
X164386196Y-76166924D01*
X164613299Y-76298041D01*
X164613309Y-76298046D01*
X164855571Y-76398394D01*
X164855581Y-76398398D01*
X165108884Y-76466270D01*
X165368880Y-76500500D01*
X165368887Y-76500500D01*
X165631113Y-76500500D01*
X165631120Y-76500500D01*
X165891116Y-76466270D01*
X166144419Y-76398398D01*
X166386697Y-76298043D01*
X166613803Y-76166924D01*
X166821851Y-76007282D01*
X166821855Y-76007277D01*
X166821860Y-76007274D01*
X167007274Y-75821860D01*
X167007277Y-75821855D01*
X167007282Y-75821851D01*
X167166924Y-75613803D01*
X167298043Y-75386697D01*
X167398398Y-75144419D01*
X167466270Y-74891116D01*
X167500500Y-74631120D01*
X167500500Y-74368880D01*
X167466270Y-74108884D01*
X167398398Y-73855581D01*
X167378501Y-73807546D01*
X167298046Y-73613309D01*
X167298041Y-73613299D01*
X167166924Y-73386196D01*
X167007281Y-73178148D01*
X167007274Y-73178140D01*
X166821860Y-72992726D01*
X166821851Y-72992718D01*
X166613803Y-72833075D01*
X166386700Y-72701958D01*
X166386690Y-72701953D01*
X166144428Y-72601605D01*
X166144421Y-72601603D01*
X166144419Y-72601602D01*
X165891116Y-72533730D01*
X165833339Y-72526123D01*
X165631127Y-72499500D01*
X165631120Y-72499500D01*
X165368880Y-72499500D01*
X165368872Y-72499500D01*
X165137772Y-72529926D01*
X165108884Y-72533730D01*
X164867587Y-72598385D01*
X164855581Y-72601602D01*
X164855571Y-72601605D01*
X164613309Y-72701953D01*
X164613299Y-72701958D01*
X164386196Y-72833075D01*
X164178148Y-72992718D01*
X163992718Y-73178148D01*
X163833075Y-73386196D01*
X163701958Y-73613299D01*
X163701953Y-73613309D01*
X163601605Y-73855571D01*
X163601602Y-73855581D01*
X163533730Y-74108885D01*
X163499500Y-74368872D01*
X156538819Y-74368872D01*
X154964673Y-72794726D01*
X154964669Y-72794723D01*
X154858127Y-72723535D01*
X154739744Y-72674499D01*
X154739740Y-72674498D01*
X154739736Y-72674497D01*
X154736810Y-72673915D01*
X154614071Y-72649500D01*
X154614069Y-72649500D01*
X149698071Y-72649500D01*
X149631032Y-72629815D01*
X149597754Y-72598386D01*
X149491966Y-72452781D01*
X149347219Y-72308034D01*
X149347213Y-72308028D01*
X149181614Y-72187715D01*
X149163214Y-72178340D01*
X149088917Y-72140483D01*
X149038123Y-72092511D01*
X149021328Y-72024690D01*
X149043865Y-71958555D01*
X149088917Y-71919516D01*
X149181610Y-71872287D01*
X149222862Y-71842316D01*
X149347213Y-71751971D01*
X149347215Y-71751968D01*
X149347219Y-71751966D01*
X149491966Y-71607219D01*
X149597753Y-71461613D01*
X149653082Y-71418949D01*
X149698071Y-71410500D01*
X153304071Y-71410500D01*
X153394800Y-71392452D01*
X153429744Y-71385501D01*
X153548127Y-71336465D01*
X153593416Y-71306204D01*
X153593416Y-71306203D01*
X153593418Y-71306203D01*
X153624042Y-71285740D01*
X153654669Y-71265277D01*
X158370627Y-66549317D01*
X158431950Y-66515833D01*
X158458308Y-66512999D01*
X159000002Y-66512999D01*
X159000008Y-66512999D01*
X159102797Y-66502499D01*
X159269334Y-66447314D01*
X159418656Y-66355212D01*
X159542712Y-66231156D01*
X159634814Y-66081834D01*
X159689999Y-65915297D01*
X159700500Y-65812509D01*
X159700499Y-65187492D01*
X159699813Y-65180781D01*
X159689999Y-65084703D01*
X159689998Y-65084700D01*
X159634814Y-64918166D01*
X159542712Y-64768844D01*
X159449049Y-64675181D01*
X159415564Y-64613858D01*
X159420548Y-64544166D01*
X159449049Y-64499819D01*
X159487283Y-64461585D01*
X159542712Y-64406156D01*
X159634814Y-64256834D01*
X159689999Y-64090297D01*
X159700500Y-63987509D01*
X159700499Y-63445806D01*
X159720183Y-63378768D01*
X159736813Y-63358131D01*
X160775277Y-62319669D01*
X160846465Y-62213127D01*
X160895501Y-62094744D01*
X160920500Y-61969069D01*
X160920500Y-60821999D01*
X160940185Y-60754960D01*
X160992989Y-60709205D01*
X161044495Y-60697999D01*
X162072872Y-60697999D01*
X162132483Y-60691591D01*
X162267331Y-60641296D01*
X162382546Y-60555046D01*
X162468796Y-60439831D01*
X162519091Y-60304983D01*
X162525500Y-60245373D01*
X162525500Y-60222000D01*
X162545185Y-60154961D01*
X162597989Y-60109206D01*
X162649500Y-60098000D01*
X163406370Y-60098000D01*
X163473409Y-60117685D01*
X163519164Y-60170489D01*
X163524076Y-60182995D01*
X163544749Y-60245383D01*
X163552686Y-60269333D01*
X163552687Y-60269336D01*
X163568804Y-60295465D01*
X163644788Y-60418656D01*
X163768844Y-60542712D01*
X163918166Y-60634814D01*
X164084703Y-60689999D01*
X164187491Y-60700500D01*
X164812508Y-60700499D01*
X164812516Y-60700498D01*
X164812519Y-60700498D01*
X164899712Y-60691591D01*
X164915297Y-60689999D01*
X165081834Y-60634814D01*
X165231156Y-60542712D01*
X165324819Y-60449049D01*
X165386142Y-60415564D01*
X165455834Y-60420548D01*
X165500181Y-60449049D01*
X165593844Y-60542712D01*
X165743166Y-60634814D01*
X165909703Y-60689999D01*
X166012491Y-60700500D01*
X166637508Y-60700499D01*
X166637516Y-60700498D01*
X166637519Y-60700498D01*
X166724712Y-60691591D01*
X166740297Y-60689999D01*
X166906834Y-60634814D01*
X167056156Y-60542712D01*
X167180212Y-60418656D01*
X167272314Y-60269334D01*
X167327499Y-60102797D01*
X167338000Y-60000009D01*
X167337999Y-59599728D01*
X167357683Y-59532690D01*
X167374313Y-59512052D01*
X167582951Y-59303416D01*
X167665084Y-59180495D01*
X167721658Y-59043913D01*
X167731096Y-58996462D01*
X167750500Y-58898920D01*
X167750500Y-37926079D01*
X167733845Y-37842352D01*
X167728189Y-37813918D01*
X167721659Y-37781088D01*
X167688518Y-37701080D01*
X167687048Y-37697530D01*
X167665085Y-37644506D01*
X167665083Y-37644503D01*
X167582954Y-37521588D01*
X167582953Y-37521587D01*
X167582951Y-37521584D01*
X167478416Y-37417049D01*
X167144751Y-37083384D01*
X166773549Y-36712181D01*
X166740064Y-36650858D01*
X166745048Y-36581166D01*
X166786920Y-36525233D01*
X166852384Y-36500816D01*
X166861230Y-36500500D01*
X168625500Y-36500500D01*
X168692539Y-36520185D01*
G37*
%TD.AperFunction*%
%TA.AperFunction,Conductor*%
G36*
X128331019Y-103170185D02*
G01*
X128376774Y-103222989D01*
X128386718Y-103292147D01*
X128381526Y-103303515D01*
X128378282Y-103344728D01*
X129010591Y-103977037D01*
X128947007Y-103994075D01*
X128832993Y-104059901D01*
X128739901Y-104152993D01*
X128674075Y-104267007D01*
X128657037Y-104330591D01*
X128024728Y-103698282D01*
X128024727Y-103698282D01*
X127985380Y-103752439D01*
X127888904Y-103941782D01*
X127823242Y-104143869D01*
X127823242Y-104143872D01*
X127790000Y-104353753D01*
X127790000Y-104566246D01*
X127823242Y-104776127D01*
X127823242Y-104776130D01*
X127888904Y-104978217D01*
X127985375Y-105167550D01*
X128024728Y-105221716D01*
X128657037Y-104589408D01*
X128674075Y-104652993D01*
X128739901Y-104767007D01*
X128832993Y-104860099D01*
X128947007Y-104925925D01*
X129010589Y-104942962D01*
X128340370Y-105613181D01*
X128279047Y-105646666D01*
X128252698Y-105649500D01*
X128242134Y-105649500D01*
X128242123Y-105649501D01*
X128182516Y-105655908D01*
X128047671Y-105706202D01*
X128047664Y-105706206D01*
X127932455Y-105792452D01*
X127932452Y-105792455D01*
X127846206Y-105907664D01*
X127846202Y-105907671D01*
X127795908Y-106042517D01*
X127789501Y-106102116D01*
X127789500Y-106102135D01*
X127789500Y-106265500D01*
X127769815Y-106332539D01*
X127717011Y-106378294D01*
X127665500Y-106389500D01*
X122110808Y-106389500D01*
X122043769Y-106369815D01*
X122023127Y-106353181D01*
X120106509Y-104436562D01*
X119660350Y-103990403D01*
X119660327Y-103990382D01*
X119032127Y-103362181D01*
X118998642Y-103300858D01*
X119003626Y-103231166D01*
X119045498Y-103175233D01*
X119110962Y-103150816D01*
X119119808Y-103150500D01*
X128263980Y-103150500D01*
X128331019Y-103170185D01*
G37*
%TD.AperFunction*%
%TA.AperFunction,Conductor*%
G36*
X147242359Y-57422852D02*
G01*
X147288114Y-57475656D01*
X147298058Y-57544814D01*
X147293251Y-57565485D01*
X147231523Y-57755461D01*
X147231523Y-57755464D01*
X147199500Y-57957648D01*
X147199500Y-58162352D01*
X147203878Y-58189995D01*
X147231522Y-58364534D01*
X147294781Y-58559223D01*
X147358691Y-58684653D01*
X147385350Y-58736973D01*
X147387715Y-58741613D01*
X147508028Y-58907213D01*
X147652786Y-59051971D01*
X147784170Y-59147425D01*
X147818390Y-59172287D01*
X147906625Y-59217245D01*
X147911080Y-59219515D01*
X147961876Y-59267490D01*
X147978671Y-59335311D01*
X147956134Y-59401446D01*
X147911080Y-59440485D01*
X147818386Y-59487715D01*
X147652786Y-59608028D01*
X147508028Y-59752786D01*
X147387715Y-59918386D01*
X147294781Y-60100776D01*
X147231522Y-60295465D01*
X147207197Y-60449049D01*
X147199500Y-60497648D01*
X147199500Y-60702352D01*
X147203878Y-60729995D01*
X147231522Y-60904534D01*
X147294781Y-61099223D01*
X147333407Y-61175029D01*
X147387167Y-61280539D01*
X147387715Y-61281613D01*
X147508028Y-61447213D01*
X147652786Y-61591971D01*
X147807749Y-61704556D01*
X147818390Y-61712287D01*
X147886269Y-61746873D01*
X147911080Y-61759515D01*
X147961876Y-61807490D01*
X147978671Y-61875311D01*
X147956134Y-61941446D01*
X147911080Y-61980485D01*
X147818386Y-62027715D01*
X147652786Y-62148028D01*
X147508028Y-62292786D01*
X147387715Y-62458386D01*
X147294781Y-62640776D01*
X147231522Y-62835465D01*
X147199500Y-63037648D01*
X147199500Y-63242351D01*
X147231522Y-63444534D01*
X147294781Y-63639223D01*
X147340242Y-63728443D01*
X147387140Y-63820486D01*
X147387715Y-63821613D01*
X147508028Y-63987213D01*
X147652786Y-64131971D01*
X147807749Y-64244556D01*
X147818390Y-64252287D01*
X147909840Y-64298883D01*
X147911080Y-64299515D01*
X147961876Y-64347490D01*
X147978671Y-64415311D01*
X147956134Y-64481446D01*
X147911080Y-64520485D01*
X147818386Y-64567715D01*
X147652786Y-64688028D01*
X147508028Y-64832786D01*
X147387715Y-64998386D01*
X147294781Y-65180776D01*
X147231522Y-65375465D01*
X147199500Y-65577648D01*
X147199500Y-65782351D01*
X147231522Y-65984534D01*
X147294781Y-66179223D01*
X147358691Y-66304653D01*
X147387140Y-66360486D01*
X147387715Y-66361613D01*
X147508028Y-66527213D01*
X147652782Y-66671967D01*
X147652787Y-66671971D01*
X147729583Y-66727767D01*
X147772249Y-66783097D01*
X147778228Y-66852710D01*
X147745622Y-66914505D01*
X147687365Y-66948233D01*
X147666973Y-66953437D01*
X147666962Y-66953441D01*
X147610415Y-66976863D01*
X148370589Y-67737037D01*
X148307007Y-67754075D01*
X148192993Y-67819901D01*
X148099901Y-67912993D01*
X148034075Y-68027007D01*
X148017037Y-68090589D01*
X147256863Y-67330415D01*
X147256862Y-67330415D01*
X147233446Y-67386947D01*
X147233431Y-67386987D01*
X147215457Y-67437939D01*
X147215455Y-67437946D01*
X147195000Y-67580219D01*
X147195000Y-68859785D01*
X147197893Y-68913762D01*
X147197893Y-68913764D01*
X147233438Y-69053030D01*
X147233442Y-69053043D01*
X147256862Y-69109584D01*
X148017037Y-68349410D01*
X148034075Y-68412993D01*
X148099901Y-68527007D01*
X148192993Y-68620099D01*
X148307007Y-68685925D01*
X148370589Y-68702962D01*
X147610414Y-69463135D01*
X147666960Y-69486557D01*
X147666986Y-69486567D01*
X147695621Y-69496669D01*
X147752294Y-69537534D01*
X147777876Y-69602552D01*
X147764246Y-69671080D01*
X147727256Y-69713924D01*
X147652782Y-69768032D01*
X147508028Y-69912786D01*
X147387715Y-70078386D01*
X147294781Y-70260776D01*
X147231522Y-70455465D01*
X147199500Y-70657648D01*
X147199500Y-70862351D01*
X147231522Y-71064534D01*
X147294781Y-71259223D01*
X147358691Y-71384653D01*
X147372093Y-71410955D01*
X147387715Y-71441613D01*
X147508028Y-71607213D01*
X147652786Y-71751971D01*
X147777138Y-71842316D01*
X147818390Y-71872287D01*
X147892408Y-71910001D01*
X147911080Y-71919515D01*
X147961876Y-71967490D01*
X147978671Y-72035311D01*
X147956134Y-72101446D01*
X147911080Y-72140485D01*
X147818386Y-72187715D01*
X147652786Y-72308028D01*
X147508028Y-72452786D01*
X147387715Y-72618386D01*
X147294781Y-72800776D01*
X147231522Y-72995465D01*
X147199500Y-73197648D01*
X147199500Y-73402351D01*
X147231522Y-73604534D01*
X147294781Y-73799223D01*
X147387715Y-73981613D01*
X147508028Y-74147213D01*
X147652786Y-74291971D01*
X147758653Y-74368886D01*
X147818390Y-74412287D01*
X147909840Y-74458883D01*
X147911080Y-74459515D01*
X147961876Y-74507490D01*
X147978671Y-74575311D01*
X147956134Y-74641446D01*
X147911080Y-74680485D01*
X147818386Y-74727715D01*
X147652786Y-74848028D01*
X147508028Y-74992786D01*
X147387715Y-75158386D01*
X147294781Y-75340776D01*
X147231522Y-75535465D01*
X147199500Y-75737648D01*
X147199500Y-75942351D01*
X147231522Y-76144534D01*
X147294781Y-76339223D01*
X147324933Y-76398398D01*
X147376956Y-76500499D01*
X147387715Y-76521613D01*
X147508028Y-76687213D01*
X147652786Y-76831971D01*
X147807749Y-76944556D01*
X147818390Y-76952287D01*
X147909840Y-76998883D01*
X147911080Y-76999515D01*
X147961876Y-77047490D01*
X147978671Y-77115311D01*
X147956134Y-77181446D01*
X147911080Y-77220485D01*
X147818386Y-77267715D01*
X147652786Y-77388028D01*
X147508028Y-77532786D01*
X147387715Y-77698386D01*
X147294781Y-77880776D01*
X147231522Y-78075465D01*
X147199500Y-78277648D01*
X147199500Y-78482351D01*
X147231522Y-78684534D01*
X147294781Y-78879223D01*
X147387715Y-79061613D01*
X147508028Y-79227213D01*
X147652782Y-79371967D01*
X147652787Y-79371971D01*
X147729583Y-79427767D01*
X147772249Y-79483097D01*
X147778228Y-79552710D01*
X147745622Y-79614505D01*
X147687365Y-79648233D01*
X147666973Y-79653437D01*
X147666962Y-79653441D01*
X147610415Y-79676863D01*
X148370589Y-80437037D01*
X148307007Y-80454075D01*
X148192993Y-80519901D01*
X148099901Y-80612993D01*
X148034075Y-80727007D01*
X148017037Y-80790589D01*
X147256863Y-80030415D01*
X147256862Y-80030415D01*
X147233446Y-80086947D01*
X147233431Y-80086987D01*
X147215457Y-80137939D01*
X147215455Y-80137946D01*
X147195000Y-80280219D01*
X147195000Y-81559785D01*
X147197893Y-81613762D01*
X147197893Y-81613764D01*
X147233438Y-81753030D01*
X147233442Y-81753043D01*
X147256862Y-81809584D01*
X148017037Y-81049410D01*
X148034075Y-81112993D01*
X148099901Y-81227007D01*
X148192993Y-81320099D01*
X148307007Y-81385925D01*
X148370589Y-81402962D01*
X147610414Y-82163135D01*
X147666960Y-82186557D01*
X147666986Y-82186567D01*
X147695621Y-82196669D01*
X147752294Y-82237534D01*
X147777876Y-82302552D01*
X147764246Y-82371080D01*
X147727256Y-82413924D01*
X147652782Y-82468032D01*
X147508028Y-82612786D01*
X147387715Y-82778386D01*
X147294781Y-82960776D01*
X147231522Y-83155465D01*
X147199500Y-83357648D01*
X147199500Y-83562351D01*
X147231522Y-83764534D01*
X147294781Y-83959223D01*
X147318275Y-84005331D01*
X147378994Y-84124499D01*
X147387715Y-84141613D01*
X147508028Y-84307213D01*
X147652786Y-84451971D01*
X147807749Y-84564556D01*
X147818390Y-84572287D01*
X147909840Y-84618883D01*
X147911080Y-84619515D01*
X147961876Y-84667490D01*
X147978671Y-84735311D01*
X147956134Y-84801446D01*
X147911080Y-84840485D01*
X147818386Y-84887715D01*
X147652786Y-85008028D01*
X147508028Y-85152786D01*
X147387715Y-85318386D01*
X147294781Y-85500776D01*
X147231522Y-85695465D01*
X147199500Y-85897648D01*
X147199500Y-86102351D01*
X147231522Y-86304534D01*
X147294781Y-86499223D01*
X147387715Y-86681613D01*
X147508028Y-86847213D01*
X147652786Y-86991971D01*
X147770431Y-87077443D01*
X147818390Y-87112287D01*
X147934607Y-87171503D01*
X148000776Y-87205218D01*
X148000778Y-87205218D01*
X148000781Y-87205220D01*
X148105137Y-87239127D01*
X148195465Y-87268477D01*
X148296557Y-87284488D01*
X148397648Y-87300500D01*
X148397649Y-87300500D01*
X148602351Y-87300500D01*
X148602352Y-87300500D01*
X148804534Y-87268477D01*
X148999219Y-87205220D01*
X149181610Y-87112287D01*
X149274590Y-87044732D01*
X149347213Y-86991971D01*
X149347215Y-86991968D01*
X149347219Y-86991966D01*
X149491966Y-86847219D01*
X149491968Y-86847215D01*
X149491971Y-86847213D01*
X149562599Y-86750000D01*
X149612287Y-86681610D01*
X149705220Y-86499219D01*
X149768477Y-86304534D01*
X149800500Y-86102352D01*
X149800500Y-85897648D01*
X149772345Y-85719887D01*
X149773046Y-85714461D01*
X149771134Y-85709335D01*
X149777476Y-85680178D01*
X149781300Y-85650594D01*
X149785131Y-85644990D01*
X149785986Y-85641062D01*
X149807137Y-85612808D01*
X149983127Y-85436819D01*
X150044450Y-85403334D01*
X150070808Y-85400500D01*
X154420539Y-85400500D01*
X154487578Y-85420185D01*
X154533333Y-85472989D01*
X154543277Y-85542147D01*
X154542520Y-85546785D01*
X154542401Y-85547431D01*
X154539500Y-85584298D01*
X154539500Y-87415701D01*
X154542401Y-87452567D01*
X154542402Y-87452573D01*
X154588254Y-87610393D01*
X154588255Y-87610396D01*
X154588256Y-87610398D01*
X154613565Y-87653194D01*
X154622232Y-87667848D01*
X154639500Y-87730969D01*
X154639500Y-88625500D01*
X154619815Y-88692539D01*
X154567011Y-88738294D01*
X154515500Y-88749500D01*
X152304604Y-88749500D01*
X152257155Y-88740062D01*
X152233497Y-88730263D01*
X152233493Y-88730262D01*
X152233488Y-88730260D01*
X152078845Y-88699500D01*
X152078842Y-88699500D01*
X151921158Y-88699500D01*
X151921155Y-88699500D01*
X151766510Y-88730261D01*
X151766498Y-88730264D01*
X151620827Y-88790602D01*
X151620814Y-88790609D01*
X151489711Y-88878210D01*
X151489707Y-88878213D01*
X151378213Y-88989707D01*
X151378210Y-88989711D01*
X151290609Y-89120814D01*
X151290602Y-89120827D01*
X151230264Y-89266498D01*
X151230261Y-89266510D01*
X151199500Y-89421153D01*
X151199500Y-89578846D01*
X151213914Y-89651309D01*
X151207687Y-89720900D01*
X151164824Y-89776078D01*
X151098934Y-89799322D01*
X151092297Y-89799500D01*
X150724998Y-89799500D01*
X150724980Y-89799501D01*
X150622203Y-89810000D01*
X150622200Y-89810001D01*
X150455668Y-89865185D01*
X150455663Y-89865187D01*
X150306342Y-89957289D01*
X150182289Y-90081342D01*
X150090187Y-90230663D01*
X150090185Y-90230668D01*
X150076276Y-90272644D01*
X150035001Y-90397203D01*
X150035001Y-90397204D01*
X150035000Y-90397204D01*
X150024500Y-90499983D01*
X150024500Y-91100001D01*
X150024501Y-91100019D01*
X150035000Y-91202796D01*
X150035001Y-91202799D01*
X150090185Y-91369331D01*
X150090186Y-91369334D01*
X150182288Y-91518656D01*
X150306344Y-91642712D01*
X150309628Y-91644737D01*
X150309653Y-91644753D01*
X150311445Y-91646746D01*
X150312011Y-91647193D01*
X150311934Y-91647289D01*
X150356379Y-91696699D01*
X150367603Y-91765661D01*
X150339761Y-91829744D01*
X150309665Y-91855826D01*
X150306660Y-91857679D01*
X150306655Y-91857683D01*
X150182684Y-91981654D01*
X150090643Y-92130875D01*
X150090641Y-92130880D01*
X150035494Y-92297302D01*
X150035493Y-92297309D01*
X150025000Y-92400013D01*
X150025000Y-92450000D01*
X152474999Y-92450000D01*
X152474999Y-92400028D01*
X152474998Y-92400013D01*
X152464505Y-92297302D01*
X152409358Y-92130880D01*
X152409356Y-92130875D01*
X152317315Y-91981654D01*
X152193344Y-91857683D01*
X152193341Y-91857681D01*
X152190339Y-91855829D01*
X152188713Y-91854021D01*
X152187677Y-91853202D01*
X152187817Y-91853024D01*
X152143617Y-91803880D01*
X152132397Y-91734917D01*
X152160243Y-91670836D01*
X152190344Y-91644754D01*
X152193656Y-91642712D01*
X152317712Y-91518656D01*
X152409814Y-91369334D01*
X152464999Y-91202797D01*
X152475500Y-91100009D01*
X152475499Y-90687228D01*
X152495183Y-90620190D01*
X152511812Y-90599553D01*
X152582951Y-90528416D01*
X152665084Y-90405495D01*
X152697578Y-90327048D01*
X152741419Y-90272644D01*
X152807713Y-90250579D01*
X152812139Y-90250500D01*
X154515500Y-90250500D01*
X154582539Y-90270185D01*
X154628294Y-90322989D01*
X154639500Y-90374500D01*
X154639500Y-94519030D01*
X154622232Y-94582150D01*
X154588257Y-94639599D01*
X154588254Y-94639606D01*
X154542402Y-94797426D01*
X154542401Y-94797432D01*
X154539500Y-94834298D01*
X154539500Y-96665701D01*
X154542401Y-96702567D01*
X154542402Y-96702573D01*
X154588254Y-96860393D01*
X154588255Y-96860396D01*
X154671917Y-97001862D01*
X154671923Y-97001870D01*
X154788129Y-97118076D01*
X154788133Y-97118079D01*
X154788135Y-97118081D01*
X154929602Y-97201744D01*
X154929609Y-97201746D01*
X155087426Y-97247597D01*
X155087429Y-97247597D01*
X155087431Y-97247598D01*
X155124306Y-97250500D01*
X155124314Y-97250500D01*
X155555686Y-97250500D01*
X155555694Y-97250500D01*
X155592569Y-97247598D01*
X155592571Y-97247597D01*
X155592573Y-97247597D01*
X155750392Y-97201746D01*
X155750392Y-97201745D01*
X155750398Y-97201744D01*
X155772381Y-97188743D01*
X155840102Y-97171561D01*
X155906365Y-97193720D01*
X155950128Y-97248186D01*
X155959500Y-97295476D01*
X155959500Y-98358672D01*
X155957117Y-98382864D01*
X155949500Y-98421156D01*
X155949500Y-98578846D01*
X155980261Y-98733489D01*
X155980264Y-98733501D01*
X156040602Y-98879172D01*
X156040609Y-98879185D01*
X156128210Y-99010288D01*
X156128213Y-99010292D01*
X156239708Y-99121787D01*
X156240621Y-99122397D01*
X156240991Y-99122839D01*
X156244419Y-99125653D01*
X156243885Y-99126303D01*
X156285427Y-99176010D01*
X156294134Y-99245334D01*
X156263980Y-99308362D01*
X156204537Y-99345082D01*
X156171731Y-99349500D01*
X146004935Y-99349500D01*
X145937896Y-99329815D01*
X145936090Y-99328633D01*
X145879179Y-99290606D01*
X145879172Y-99290602D01*
X145733501Y-99230264D01*
X145733489Y-99230261D01*
X145578845Y-99199500D01*
X145578842Y-99199500D01*
X145421158Y-99199500D01*
X145421155Y-99199500D01*
X145266510Y-99230261D01*
X145266498Y-99230264D01*
X145120827Y-99290602D01*
X145120814Y-99290609D01*
X144989711Y-99378210D01*
X144989707Y-99378213D01*
X144878213Y-99489707D01*
X144878210Y-99489711D01*
X144790609Y-99620814D01*
X144790602Y-99620827D01*
X144730264Y-99766498D01*
X144730261Y-99766510D01*
X144699500Y-99921153D01*
X144699500Y-100078846D01*
X144730261Y-100233489D01*
X144730264Y-100233501D01*
X144790602Y-100379172D01*
X144790609Y-100379185D01*
X144878210Y-100510288D01*
X144878213Y-100510292D01*
X144905240Y-100537319D01*
X144938725Y-100598642D01*
X144933741Y-100668334D01*
X144905240Y-100712681D01*
X144878213Y-100739707D01*
X144878210Y-100739711D01*
X144790609Y-100870814D01*
X144790602Y-100870827D01*
X144730264Y-101016498D01*
X144730261Y-101016508D01*
X144726774Y-101034041D01*
X144694389Y-101095952D01*
X144633673Y-101130526D01*
X144563903Y-101126785D01*
X144517476Y-101097530D01*
X140914674Y-97494727D01*
X140914673Y-97494726D01*
X140904607Y-97488000D01*
X140808127Y-97423535D01*
X140689744Y-97374499D01*
X140689738Y-97374497D01*
X140564071Y-97349500D01*
X140564069Y-97349500D01*
X125129762Y-97349500D01*
X125062723Y-97329815D01*
X125016968Y-97277011D01*
X125007024Y-97207853D01*
X125023030Y-97162379D01*
X125061282Y-97097696D01*
X125061283Y-97097693D01*
X125107099Y-96939995D01*
X125107100Y-96939989D01*
X125109999Y-96903149D01*
X125110000Y-96903134D01*
X125110000Y-96237500D01*
X124434000Y-96237500D01*
X124366961Y-96217815D01*
X124321206Y-96165011D01*
X124310000Y-96113500D01*
X124310000Y-95987500D01*
X124184000Y-95987500D01*
X124116961Y-95967815D01*
X124071206Y-95915011D01*
X124060000Y-95863500D01*
X124060000Y-95737500D01*
X124560000Y-95737500D01*
X125110000Y-95737500D01*
X125110000Y-95071865D01*
X125109999Y-95071850D01*
X125107100Y-95035010D01*
X125107099Y-95035004D01*
X125061283Y-94877306D01*
X125061282Y-94877303D01*
X124977685Y-94735947D01*
X124977678Y-94735938D01*
X124861561Y-94619821D01*
X124861552Y-94619814D01*
X124720196Y-94536217D01*
X124720193Y-94536216D01*
X124562494Y-94490400D01*
X124562497Y-94490400D01*
X124560000Y-94490203D01*
X124560000Y-95737500D01*
X124060000Y-95737500D01*
X124060000Y-94490203D01*
X124057503Y-94490400D01*
X123899806Y-94536216D01*
X123899803Y-94536217D01*
X123758449Y-94619813D01*
X123752283Y-94624597D01*
X123750389Y-94622155D01*
X123701580Y-94648739D01*
X123631894Y-94643679D01*
X123599227Y-94622659D01*
X123598031Y-94624202D01*
X123591862Y-94619417D01*
X123463961Y-94543777D01*
X123450398Y-94535756D01*
X123450397Y-94535755D01*
X123450396Y-94535755D01*
X123450393Y-94535754D01*
X123292573Y-94489902D01*
X123292567Y-94489901D01*
X123255701Y-94487000D01*
X123255694Y-94487000D01*
X122824306Y-94487000D01*
X122824298Y-94487000D01*
X122787432Y-94489901D01*
X122787426Y-94489902D01*
X122629606Y-94535754D01*
X122629603Y-94535755D01*
X122488137Y-94619417D01*
X122481969Y-94624202D01*
X122480072Y-94621756D01*
X122431358Y-94648357D01*
X122361666Y-94643373D01*
X122329296Y-94622569D01*
X122328031Y-94624202D01*
X122321862Y-94619417D01*
X122193961Y-94543777D01*
X122180398Y-94535756D01*
X122180397Y-94535755D01*
X122180396Y-94535755D01*
X122180393Y-94535754D01*
X122022573Y-94489902D01*
X122022567Y-94489901D01*
X121985701Y-94487000D01*
X121985694Y-94487000D01*
X121554306Y-94487000D01*
X121554298Y-94487000D01*
X121517432Y-94489901D01*
X121517426Y-94489902D01*
X121359606Y-94535754D01*
X121359603Y-94535755D01*
X121218137Y-94619417D01*
X121211969Y-94624202D01*
X121210072Y-94621756D01*
X121161358Y-94648357D01*
X121091666Y-94643373D01*
X121059296Y-94622569D01*
X121058031Y-94624202D01*
X121051862Y-94619417D01*
X120923961Y-94543777D01*
X120910398Y-94535756D01*
X120910397Y-94535755D01*
X120910396Y-94535755D01*
X120910393Y-94535754D01*
X120752573Y-94489902D01*
X120752567Y-94489901D01*
X120715701Y-94487000D01*
X120715694Y-94487000D01*
X120284306Y-94487000D01*
X120284298Y-94487000D01*
X120247432Y-94489901D01*
X120247426Y-94489902D01*
X120089606Y-94535754D01*
X120089603Y-94535755D01*
X119948137Y-94619417D01*
X119941969Y-94624202D01*
X119940072Y-94621756D01*
X119891358Y-94648357D01*
X119821666Y-94643373D01*
X119789296Y-94622569D01*
X119788031Y-94624202D01*
X119781862Y-94619417D01*
X119653961Y-94543777D01*
X119640398Y-94535756D01*
X119640397Y-94535755D01*
X119640396Y-94535755D01*
X119640393Y-94535754D01*
X119482573Y-94489902D01*
X119482567Y-94489901D01*
X119445701Y-94487000D01*
X119445694Y-94487000D01*
X119014306Y-94487000D01*
X119014298Y-94487000D01*
X118977432Y-94489901D01*
X118977426Y-94489902D01*
X118819606Y-94535754D01*
X118819603Y-94535755D01*
X118678137Y-94619417D01*
X118671969Y-94624202D01*
X118670072Y-94621756D01*
X118621358Y-94648357D01*
X118551666Y-94643373D01*
X118519296Y-94622569D01*
X118518031Y-94624202D01*
X118511862Y-94619417D01*
X118383961Y-94543777D01*
X118370398Y-94535756D01*
X118370397Y-94535755D01*
X118370396Y-94535755D01*
X118370393Y-94535754D01*
X118212573Y-94489902D01*
X118212567Y-94489901D01*
X118175701Y-94487000D01*
X118175694Y-94487000D01*
X117744306Y-94487000D01*
X117744298Y-94487000D01*
X117707432Y-94489901D01*
X117707426Y-94489902D01*
X117549606Y-94535754D01*
X117549603Y-94535755D01*
X117408137Y-94619417D01*
X117401969Y-94624202D01*
X117400072Y-94621756D01*
X117351358Y-94648357D01*
X117281666Y-94643373D01*
X117249296Y-94622569D01*
X117248031Y-94624202D01*
X117241862Y-94619417D01*
X117113961Y-94543777D01*
X117100398Y-94535756D01*
X117100397Y-94535755D01*
X117100396Y-94535755D01*
X117100393Y-94535754D01*
X116942573Y-94489902D01*
X116942567Y-94489901D01*
X116905701Y-94487000D01*
X116905694Y-94487000D01*
X116474306Y-94487000D01*
X116474298Y-94487000D01*
X116437432Y-94489901D01*
X116437426Y-94489902D01*
X116279606Y-94535754D01*
X116279603Y-94535755D01*
X116138137Y-94619417D01*
X116131969Y-94624202D01*
X116130072Y-94621756D01*
X116081358Y-94648357D01*
X116011666Y-94643373D01*
X115979296Y-94622569D01*
X115978031Y-94624202D01*
X115971862Y-94619417D01*
X115843961Y-94543777D01*
X115830398Y-94535756D01*
X115830397Y-94535755D01*
X115830396Y-94535755D01*
X115830393Y-94535754D01*
X115672573Y-94489902D01*
X115672567Y-94489901D01*
X115635701Y-94487000D01*
X115635694Y-94487000D01*
X115204306Y-94487000D01*
X115204298Y-94487000D01*
X115167432Y-94489901D01*
X115167426Y-94489902D01*
X115009606Y-94535754D01*
X115009603Y-94535755D01*
X114868137Y-94619417D01*
X114861969Y-94624202D01*
X114860072Y-94621756D01*
X114811358Y-94648357D01*
X114741666Y-94643373D01*
X114709296Y-94622569D01*
X114708031Y-94624202D01*
X114701862Y-94619417D01*
X114573961Y-94543777D01*
X114560398Y-94535756D01*
X114560397Y-94535755D01*
X114560396Y-94535755D01*
X114560393Y-94535754D01*
X114402573Y-94489902D01*
X114402567Y-94489901D01*
X114365701Y-94487000D01*
X114365694Y-94487000D01*
X113934306Y-94487000D01*
X113934298Y-94487000D01*
X113897432Y-94489901D01*
X113897426Y-94489902D01*
X113739606Y-94535754D01*
X113739601Y-94535756D01*
X113717619Y-94548756D01*
X113649895Y-94565937D01*
X113583633Y-94543777D01*
X113539870Y-94489310D01*
X113530500Y-94442023D01*
X113530500Y-94190807D01*
X113550185Y-94123768D01*
X113566819Y-94103126D01*
X114669959Y-92999986D01*
X150025001Y-92999986D01*
X150035494Y-93102697D01*
X150090641Y-93269119D01*
X150090643Y-93269124D01*
X150182684Y-93418345D01*
X150306654Y-93542315D01*
X150455875Y-93634356D01*
X150455880Y-93634358D01*
X150622302Y-93689505D01*
X150622309Y-93689506D01*
X150725019Y-93699999D01*
X150999999Y-93699999D01*
X151500000Y-93699999D01*
X151774972Y-93699999D01*
X151774986Y-93699998D01*
X151877697Y-93689505D01*
X152044119Y-93634358D01*
X152044124Y-93634356D01*
X152193345Y-93542315D01*
X152317315Y-93418345D01*
X152409356Y-93269124D01*
X152409358Y-93269119D01*
X152464505Y-93102697D01*
X152464506Y-93102690D01*
X152474999Y-92999986D01*
X152475000Y-92999973D01*
X152475000Y-92950000D01*
X151500000Y-92950000D01*
X151500000Y-93699999D01*
X150999999Y-93699999D01*
X151000000Y-93699998D01*
X151000000Y-92950000D01*
X150025001Y-92950000D01*
X150025001Y-92999986D01*
X114669959Y-92999986D01*
X115483126Y-92186819D01*
X115544449Y-92153334D01*
X115570807Y-92150500D01*
X124564071Y-92150500D01*
X124648615Y-92133682D01*
X124689744Y-92125501D01*
X124808127Y-92076465D01*
X124914669Y-92005277D01*
X128102931Y-88817013D01*
X128164252Y-88783530D01*
X128166317Y-88783099D01*
X128233497Y-88769737D01*
X128379179Y-88709394D01*
X128510289Y-88621789D01*
X128621789Y-88510289D01*
X128709394Y-88379179D01*
X128769737Y-88233497D01*
X128800500Y-88078842D01*
X128800500Y-87921158D01*
X128800500Y-87921155D01*
X128800499Y-87921153D01*
X128789862Y-87867678D01*
X128769737Y-87766503D01*
X128763544Y-87751552D01*
X128709397Y-87620827D01*
X128709390Y-87620814D01*
X128682714Y-87580891D01*
X128661836Y-87514214D01*
X128680320Y-87446834D01*
X128732299Y-87400143D01*
X128785816Y-87388000D01*
X129326571Y-87388000D01*
X129411115Y-87371182D01*
X129452244Y-87363001D01*
X129570627Y-87313965D01*
X129582707Y-87305892D01*
X129590780Y-87300500D01*
X129648242Y-87262104D01*
X129677169Y-87242777D01*
X129829866Y-87090078D01*
X129891187Y-87056595D01*
X129960879Y-87061579D01*
X129990429Y-87077442D01*
X130038390Y-87112287D01*
X130126296Y-87157077D01*
X130220776Y-87205218D01*
X130220778Y-87205218D01*
X130220781Y-87205220D01*
X130325137Y-87239127D01*
X130415465Y-87268477D01*
X130516557Y-87284488D01*
X130617648Y-87300500D01*
X130617649Y-87300500D01*
X130822351Y-87300500D01*
X130822352Y-87300500D01*
X131024534Y-87268477D01*
X131219219Y-87205220D01*
X131401610Y-87112287D01*
X131494590Y-87044732D01*
X131567213Y-86991971D01*
X131567215Y-86991968D01*
X131567219Y-86991966D01*
X131711966Y-86847219D01*
X131711968Y-86847215D01*
X131711971Y-86847213D01*
X131782599Y-86750000D01*
X131832287Y-86681610D01*
X131925220Y-86499219D01*
X131988477Y-86304534D01*
X132020500Y-86102352D01*
X132020500Y-85897648D01*
X131988477Y-85695466D01*
X131966265Y-85627106D01*
X131940401Y-85547504D01*
X131925220Y-85500781D01*
X131925218Y-85500778D01*
X131925218Y-85500776D01*
X131868675Y-85389806D01*
X131832287Y-85318390D01*
X131808577Y-85285756D01*
X131711971Y-85152786D01*
X131567213Y-85008028D01*
X131401614Y-84887715D01*
X131395006Y-84884348D01*
X131308917Y-84840483D01*
X131258123Y-84792511D01*
X131241328Y-84724690D01*
X131263865Y-84658555D01*
X131308917Y-84619516D01*
X131401610Y-84572287D01*
X131544484Y-84468484D01*
X131567213Y-84451971D01*
X131567215Y-84451968D01*
X131567219Y-84451966D01*
X131711966Y-84307219D01*
X131711968Y-84307215D01*
X131711971Y-84307213D01*
X131778408Y-84215768D01*
X131832287Y-84141610D01*
X131925220Y-83959219D01*
X131988477Y-83764534D01*
X132020500Y-83562352D01*
X132020500Y-83357648D01*
X131997098Y-83209895D01*
X132510000Y-83209895D01*
X137162057Y-86822663D01*
X137202931Y-86879327D01*
X137210000Y-86920597D01*
X137210000Y-87870000D01*
X142010000Y-87870000D01*
X142010000Y-86920597D01*
X142029685Y-86853558D01*
X142057941Y-86822664D01*
X146710000Y-83209895D01*
X146710000Y-78870000D01*
X132510000Y-78870000D01*
X132510000Y-83209895D01*
X131997098Y-83209895D01*
X131988477Y-83155466D01*
X131925220Y-82960781D01*
X131925218Y-82960778D01*
X131925218Y-82960776D01*
X131885860Y-82883533D01*
X131832287Y-82778390D01*
X131801321Y-82735768D01*
X131711971Y-82612786D01*
X131567217Y-82468032D01*
X131490415Y-82412232D01*
X131447750Y-82356902D01*
X131441771Y-82287288D01*
X131474377Y-82225494D01*
X131532640Y-82191765D01*
X131553039Y-82186559D01*
X131609584Y-82163136D01*
X131609584Y-82163135D01*
X130849410Y-81402962D01*
X130912993Y-81385925D01*
X131027007Y-81320099D01*
X131120099Y-81227007D01*
X131185925Y-81112993D01*
X131202962Y-81049411D01*
X131963135Y-81809584D01*
X131963136Y-81809584D01*
X131986552Y-81753053D01*
X132004544Y-81702053D01*
X132024999Y-81559780D01*
X132025000Y-81559779D01*
X132025000Y-80280214D01*
X132022106Y-80226237D01*
X132022106Y-80226235D01*
X131986561Y-80086969D01*
X131986559Y-80086962D01*
X131963135Y-80030414D01*
X131202962Y-80790588D01*
X131185925Y-80727007D01*
X131120099Y-80612993D01*
X131027007Y-80519901D01*
X130912993Y-80454075D01*
X130849410Y-80437037D01*
X131609584Y-79676862D01*
X131553059Y-79653449D01*
X131553048Y-79653445D01*
X131524374Y-79643329D01*
X131467703Y-79602462D01*
X131442122Y-79537443D01*
X131455754Y-79468916D01*
X131492745Y-79426074D01*
X131567215Y-79371969D01*
X131567215Y-79371968D01*
X131567219Y-79371966D01*
X131711966Y-79227219D01*
X131711968Y-79227215D01*
X131711971Y-79227213D01*
X131764732Y-79154590D01*
X131832287Y-79061610D01*
X131925220Y-78879219D01*
X131988477Y-78684534D01*
X132020500Y-78482352D01*
X132020500Y-78277648D01*
X131988477Y-78075466D01*
X131925220Y-77880781D01*
X131925218Y-77880778D01*
X131925218Y-77880776D01*
X131860876Y-77754499D01*
X131832287Y-77698390D01*
X131817753Y-77678385D01*
X131711971Y-77532786D01*
X131567213Y-77388028D01*
X131401614Y-77267715D01*
X131395006Y-77264348D01*
X131308917Y-77220483D01*
X131258123Y-77172511D01*
X131241328Y-77104690D01*
X131263865Y-77038555D01*
X131308917Y-76999516D01*
X131401610Y-76952287D01*
X131422770Y-76936913D01*
X131567213Y-76831971D01*
X131567215Y-76831968D01*
X131567219Y-76831966D01*
X131711966Y-76687219D01*
X131711968Y-76687215D01*
X131711971Y-76687213D01*
X131764732Y-76614590D01*
X131832287Y-76521610D01*
X131925220Y-76339219D01*
X131988477Y-76144534D01*
X132020500Y-75942352D01*
X132020500Y-75737648D01*
X131988477Y-75535466D01*
X131925220Y-75340781D01*
X131925218Y-75340778D01*
X131925218Y-75340776D01*
X131860876Y-75214499D01*
X131832287Y-75158390D01*
X131802224Y-75117011D01*
X131711971Y-74992786D01*
X131567213Y-74848028D01*
X131401614Y-74727715D01*
X131395006Y-74724348D01*
X131308917Y-74680483D01*
X131258123Y-74632511D01*
X131241328Y-74564690D01*
X131263865Y-74498555D01*
X131308917Y-74459516D01*
X131401610Y-74412287D01*
X131461366Y-74368872D01*
X131567213Y-74291971D01*
X131567215Y-74291968D01*
X131567219Y-74291966D01*
X131711966Y-74147219D01*
X131711968Y-74147215D01*
X131711971Y-74147213D01*
X131797973Y-74028839D01*
X131832287Y-73981610D01*
X131925220Y-73799219D01*
X131988477Y-73604534D01*
X132020500Y-73402352D01*
X132020500Y-73197648D01*
X131988477Y-72995466D01*
X131925220Y-72800781D01*
X131925218Y-72800778D01*
X131925218Y-72800776D01*
X131874867Y-72701958D01*
X131832287Y-72618390D01*
X131802224Y-72577011D01*
X131711971Y-72452786D01*
X131567213Y-72308028D01*
X131401614Y-72187715D01*
X131383214Y-72178340D01*
X131308917Y-72140483D01*
X131258123Y-72092511D01*
X131241328Y-72024690D01*
X131263865Y-71958555D01*
X131308917Y-71919516D01*
X131401610Y-71872287D01*
X131442862Y-71842316D01*
X131567213Y-71751971D01*
X131567215Y-71751968D01*
X131567219Y-71751966D01*
X131711966Y-71607219D01*
X131711968Y-71607215D01*
X131711971Y-71607213D01*
X131784291Y-71507671D01*
X131832287Y-71441610D01*
X131925220Y-71259219D01*
X131988477Y-71064534D01*
X132020500Y-70862352D01*
X132020500Y-70657648D01*
X131988477Y-70455466D01*
X131925220Y-70260781D01*
X131925218Y-70260778D01*
X131925218Y-70260776D01*
X131843833Y-70101051D01*
X131832287Y-70078390D01*
X131802224Y-70037011D01*
X131711971Y-69912786D01*
X131567217Y-69768032D01*
X131490415Y-69712232D01*
X131447750Y-69656902D01*
X131441771Y-69587288D01*
X131474377Y-69525494D01*
X131532640Y-69491765D01*
X131553039Y-69486559D01*
X131609584Y-69463136D01*
X131609584Y-69463135D01*
X130849410Y-68702962D01*
X130912993Y-68685925D01*
X131027007Y-68620099D01*
X131120099Y-68527007D01*
X131185925Y-68412993D01*
X131202962Y-68349411D01*
X131963135Y-69109584D01*
X131963136Y-69109584D01*
X131986552Y-69053053D01*
X132004544Y-69002053D01*
X132024999Y-68859780D01*
X132025000Y-68859779D01*
X132025000Y-67580224D01*
X132024999Y-67580204D01*
X132022106Y-67526237D01*
X132022106Y-67526235D01*
X131986561Y-67386969D01*
X131986559Y-67386962D01*
X131963135Y-67330414D01*
X131202962Y-68090588D01*
X131185925Y-68027007D01*
X131120099Y-67912993D01*
X131027007Y-67819901D01*
X130912993Y-67754075D01*
X130849409Y-67737037D01*
X131609584Y-66976862D01*
X131553059Y-66953449D01*
X131553048Y-66953445D01*
X131524374Y-66943329D01*
X131467703Y-66902462D01*
X131442122Y-66837443D01*
X131455754Y-66768916D01*
X131492745Y-66726074D01*
X131567215Y-66671969D01*
X131567215Y-66671968D01*
X131567219Y-66671966D01*
X131711966Y-66527219D01*
X131711968Y-66527215D01*
X131711971Y-66527213D01*
X131770021Y-66447312D01*
X131832287Y-66361610D01*
X131925220Y-66179219D01*
X131988477Y-65984534D01*
X132020500Y-65782352D01*
X132020500Y-65577648D01*
X131988477Y-65375466D01*
X131925220Y-65180781D01*
X131925218Y-65180778D01*
X131925218Y-65180776D01*
X131876266Y-65084704D01*
X131832287Y-64998390D01*
X131774003Y-64918168D01*
X131711971Y-64832786D01*
X131567213Y-64688028D01*
X131401614Y-64567715D01*
X131355396Y-64544166D01*
X131308917Y-64520483D01*
X131258123Y-64472511D01*
X131241328Y-64404690D01*
X131263865Y-64338555D01*
X131308917Y-64299516D01*
X131401610Y-64252287D01*
X131422770Y-64236913D01*
X131567213Y-64131971D01*
X131567215Y-64131968D01*
X131567219Y-64131966D01*
X131711966Y-63987219D01*
X131711968Y-63987215D01*
X131711971Y-63987213D01*
X131804530Y-63859814D01*
X131832287Y-63821610D01*
X131925220Y-63639219D01*
X131988477Y-63444534D01*
X132020500Y-63242352D01*
X132020500Y-63037648D01*
X131988477Y-62835466D01*
X131983383Y-62819789D01*
X131935526Y-62672500D01*
X131925220Y-62640781D01*
X131925218Y-62640778D01*
X131925218Y-62640776D01*
X131855478Y-62503905D01*
X131832287Y-62458390D01*
X131824556Y-62447749D01*
X131711971Y-62292786D01*
X131567213Y-62148028D01*
X131401614Y-62027715D01*
X131354615Y-62003768D01*
X131308917Y-61980483D01*
X131258123Y-61932511D01*
X131241328Y-61864690D01*
X131263865Y-61798555D01*
X131308917Y-61759516D01*
X131401610Y-61712287D01*
X131474690Y-61659192D01*
X131567213Y-61591971D01*
X131567215Y-61591968D01*
X131567219Y-61591966D01*
X131711966Y-61447219D01*
X131711968Y-61447215D01*
X131711971Y-61447213D01*
X131791681Y-61337500D01*
X131832287Y-61281610D01*
X131925220Y-61099219D01*
X131988477Y-60904534D01*
X132020500Y-60702352D01*
X132020500Y-60497648D01*
X131988477Y-60295466D01*
X131983825Y-60281151D01*
X131981832Y-60211312D01*
X132014075Y-60155158D01*
X134729749Y-57439486D01*
X134791072Y-57406001D01*
X134817430Y-57403167D01*
X147175320Y-57403167D01*
X147242359Y-57422852D01*
G37*
%TD.AperFunction*%
%TA.AperFunction,Conductor*%
G36*
X129588968Y-79050185D02*
G01*
X129622245Y-79081613D01*
X129728030Y-79227213D01*
X129728034Y-79227219D01*
X129872786Y-79371971D01*
X130038388Y-79492286D01*
X130038390Y-79492287D01*
X130124294Y-79536057D01*
X130175090Y-79584031D01*
X130191886Y-79651852D01*
X130169349Y-79717987D01*
X130126455Y-79755899D01*
X130060497Y-79791155D01*
X129991086Y-79837534D01*
X129991085Y-79837534D01*
X130590589Y-80437037D01*
X130527007Y-80454075D01*
X130412993Y-80519901D01*
X130319901Y-80612993D01*
X130254075Y-80727007D01*
X130237037Y-80790588D01*
X129637534Y-80191085D01*
X129637534Y-80191086D01*
X129591158Y-80260493D01*
X129544490Y-80347801D01*
X129484185Y-80493387D01*
X129455444Y-80588135D01*
X129424701Y-80742697D01*
X129424701Y-80742700D01*
X129415000Y-80841210D01*
X129415000Y-80998789D01*
X129424701Y-81097299D01*
X129424701Y-81097302D01*
X129455444Y-81251864D01*
X129484185Y-81346612D01*
X129544490Y-81492198D01*
X129591155Y-81579501D01*
X129591161Y-81579511D01*
X129637534Y-81648912D01*
X130237037Y-81049410D01*
X130254075Y-81112993D01*
X130319901Y-81227007D01*
X130412993Y-81320099D01*
X130527007Y-81385925D01*
X130590589Y-81402962D01*
X129991085Y-82002465D01*
X130060488Y-82048838D01*
X130060498Y-82048844D01*
X130126454Y-82084099D01*
X130176298Y-82133062D01*
X130191758Y-82201200D01*
X130167926Y-82266879D01*
X130124295Y-82303942D01*
X130038386Y-82347715D01*
X129872786Y-82468028D01*
X129728034Y-82612780D01*
X129706288Y-82642712D01*
X129622246Y-82758386D01*
X129566918Y-82801051D01*
X129521929Y-82809500D01*
X125253430Y-82809500D01*
X125127762Y-82834497D01*
X125127756Y-82834499D01*
X125028770Y-82875501D01*
X125009378Y-82883533D01*
X125009370Y-82883537D01*
X124902827Y-82954726D01*
X124902826Y-82954727D01*
X122632181Y-85225373D01*
X122570858Y-85258858D01*
X122501166Y-85253874D01*
X122445233Y-85212002D01*
X122420816Y-85146538D01*
X122420500Y-85137692D01*
X122420500Y-82570808D01*
X122440185Y-82503769D01*
X122456819Y-82483127D01*
X125873127Y-79066819D01*
X125934450Y-79033334D01*
X125960808Y-79030500D01*
X129521929Y-79030500D01*
X129588968Y-79050185D01*
G37*
%TD.AperFunction*%
%TA.AperFunction,Conductor*%
G36*
X154126231Y-79050185D02*
G01*
X154146873Y-79066819D01*
X157677873Y-82597819D01*
X157711358Y-82659142D01*
X157706374Y-82728834D01*
X157664502Y-82784767D01*
X157599038Y-82809184D01*
X157590192Y-82809500D01*
X154824499Y-82809500D01*
X154757460Y-82789815D01*
X154711705Y-82737011D01*
X154700499Y-82685500D01*
X154700499Y-82599998D01*
X154700498Y-82599981D01*
X154689999Y-82497203D01*
X154689998Y-82497200D01*
X154678642Y-82462929D01*
X154634814Y-82330666D01*
X154542712Y-82181344D01*
X154448695Y-82087327D01*
X154415210Y-82026004D01*
X154420194Y-81956312D01*
X154448695Y-81911964D01*
X154542317Y-81818342D01*
X154634356Y-81669124D01*
X154634358Y-81669119D01*
X154689505Y-81502697D01*
X154689506Y-81502690D01*
X154699999Y-81399986D01*
X154700000Y-81399973D01*
X154700000Y-81337500D01*
X152300001Y-81337500D01*
X152300001Y-81399986D01*
X152310494Y-81502697D01*
X152365641Y-81669119D01*
X152365643Y-81669124D01*
X152457684Y-81818345D01*
X152551304Y-81911965D01*
X152584789Y-81973288D01*
X152579805Y-82042980D01*
X152551305Y-82087327D01*
X152457287Y-82181345D01*
X152365187Y-82330663D01*
X152365185Y-82330668D01*
X152351794Y-82371080D01*
X152310001Y-82497203D01*
X152310001Y-82497204D01*
X152310000Y-82497204D01*
X152299500Y-82599983D01*
X152299500Y-82685500D01*
X152279815Y-82752539D01*
X152227011Y-82798294D01*
X152175500Y-82809500D01*
X149698071Y-82809500D01*
X149631032Y-82789815D01*
X149597754Y-82758386D01*
X149491966Y-82612781D01*
X149347219Y-82468034D01*
X149347213Y-82468028D01*
X149181614Y-82347715D01*
X149148153Y-82330666D01*
X149095703Y-82303941D01*
X149044908Y-82255968D01*
X149028113Y-82188147D01*
X149050650Y-82122012D01*
X149093546Y-82084099D01*
X149159503Y-82048843D01*
X149159515Y-82048837D01*
X149228913Y-82002465D01*
X148629410Y-81402962D01*
X148692993Y-81385925D01*
X148807007Y-81320099D01*
X148900099Y-81227007D01*
X148965925Y-81112993D01*
X148982962Y-81049410D01*
X149582465Y-81648913D01*
X149628837Y-81579515D01*
X149628838Y-81579511D01*
X149675509Y-81492198D01*
X149735814Y-81346612D01*
X149764555Y-81251864D01*
X149795298Y-81097302D01*
X149795298Y-81097299D01*
X149805000Y-80998789D01*
X149805000Y-80841208D01*
X149799368Y-80784016D01*
X149798481Y-80775013D01*
X152300000Y-80775013D01*
X152300000Y-80837500D01*
X153250000Y-80837500D01*
X153750000Y-80837500D01*
X154699999Y-80837500D01*
X154699999Y-80775028D01*
X154699998Y-80775013D01*
X154689505Y-80672302D01*
X154634358Y-80505880D01*
X154634356Y-80505875D01*
X154542315Y-80356654D01*
X154418345Y-80232684D01*
X154269124Y-80140643D01*
X154269119Y-80140641D01*
X154102697Y-80085494D01*
X154102690Y-80085493D01*
X153999986Y-80075000D01*
X153750000Y-80075000D01*
X153750000Y-80837500D01*
X153250000Y-80837500D01*
X153250000Y-80075000D01*
X153000029Y-80075000D01*
X153000012Y-80075001D01*
X152897302Y-80085494D01*
X152730880Y-80140641D01*
X152730875Y-80140643D01*
X152581654Y-80232684D01*
X152457684Y-80356654D01*
X152365643Y-80505875D01*
X152365641Y-80505880D01*
X152310494Y-80672302D01*
X152310493Y-80672309D01*
X152300000Y-80775013D01*
X149798481Y-80775013D01*
X149795298Y-80742699D01*
X149795298Y-80742697D01*
X149764555Y-80588135D01*
X149735814Y-80493387D01*
X149675509Y-80347801D01*
X149628844Y-80260498D01*
X149628838Y-80260488D01*
X149582465Y-80191085D01*
X148982962Y-80790588D01*
X148965925Y-80727007D01*
X148900099Y-80612993D01*
X148807007Y-80519901D01*
X148692993Y-80454075D01*
X148629410Y-80437037D01*
X149228912Y-79837534D01*
X149159511Y-79791161D01*
X149159500Y-79791155D01*
X149093545Y-79755900D01*
X149043701Y-79706937D01*
X149028241Y-79638799D01*
X149052073Y-79573119D01*
X149095702Y-79536059D01*
X149181610Y-79492287D01*
X149272745Y-79426074D01*
X149347213Y-79371971D01*
X149347215Y-79371968D01*
X149347219Y-79371966D01*
X149491966Y-79227219D01*
X149597753Y-79081613D01*
X149653082Y-79038949D01*
X149698071Y-79030500D01*
X154059192Y-79030500D01*
X154126231Y-79050185D01*
G37*
%TD.AperFunction*%
%TA.AperFunction,Conductor*%
G36*
X129334334Y-55388124D02*
G01*
X129390267Y-55429996D01*
X129414684Y-55495460D01*
X129415000Y-55504306D01*
X129415000Y-55598789D01*
X129424701Y-55697299D01*
X129424701Y-55697302D01*
X129455444Y-55851864D01*
X129484185Y-55946612D01*
X129544490Y-56092198D01*
X129591155Y-56179501D01*
X129591161Y-56179511D01*
X129637534Y-56248912D01*
X130237037Y-55649409D01*
X130254075Y-55712993D01*
X130319901Y-55827007D01*
X130412993Y-55920099D01*
X130527007Y-55985925D01*
X130590589Y-56002962D01*
X129991085Y-56602465D01*
X130060488Y-56648838D01*
X130060498Y-56648844D01*
X130126454Y-56684099D01*
X130176298Y-56733062D01*
X130191758Y-56801200D01*
X130167926Y-56866879D01*
X130124295Y-56903942D01*
X130038386Y-56947715D01*
X129872786Y-57068028D01*
X129728028Y-57212786D01*
X129607715Y-57378386D01*
X129514781Y-57560776D01*
X129451522Y-57755465D01*
X129419500Y-57957648D01*
X129419500Y-58162352D01*
X129424609Y-58194611D01*
X129447654Y-58340111D01*
X129438699Y-58409405D01*
X129412862Y-58447190D01*
X126911680Y-60948372D01*
X126850357Y-60981857D01*
X126780665Y-60976873D01*
X126724732Y-60935001D01*
X126700315Y-60869537D01*
X126699999Y-60860691D01*
X126699999Y-60775028D01*
X126699998Y-60775013D01*
X126689505Y-60672302D01*
X126634358Y-60505880D01*
X126634356Y-60505875D01*
X126542315Y-60356654D01*
X126418345Y-60232684D01*
X126269124Y-60140643D01*
X126269119Y-60140641D01*
X126102697Y-60085494D01*
X126102690Y-60085493D01*
X125999986Y-60075000D01*
X125750000Y-60075000D01*
X125750000Y-60963500D01*
X125730315Y-61030539D01*
X125677511Y-61076294D01*
X125626000Y-61087500D01*
X125500000Y-61087500D01*
X125500000Y-61213500D01*
X125480315Y-61280539D01*
X125427511Y-61326294D01*
X125376000Y-61337500D01*
X124300001Y-61337500D01*
X124300001Y-61399986D01*
X124310494Y-61502697D01*
X124365641Y-61669119D01*
X124365643Y-61669124D01*
X124457684Y-61818345D01*
X124551304Y-61911965D01*
X124584789Y-61973288D01*
X124579805Y-62042980D01*
X124551305Y-62087327D01*
X124457287Y-62181345D01*
X124365187Y-62330663D01*
X124365186Y-62330666D01*
X124310001Y-62497203D01*
X124310001Y-62497204D01*
X124310000Y-62497204D01*
X124299500Y-62599983D01*
X124299500Y-63225001D01*
X124299501Y-63225019D01*
X124310000Y-63327796D01*
X124310001Y-63327799D01*
X124321497Y-63362491D01*
X124365186Y-63494334D01*
X124457288Y-63643656D01*
X124581344Y-63767712D01*
X124730666Y-63859814D01*
X124897203Y-63914999D01*
X124999991Y-63925500D01*
X125225500Y-63925499D01*
X125292539Y-63945183D01*
X125338294Y-63997987D01*
X125349500Y-64049499D01*
X125349500Y-69179192D01*
X125329815Y-69246231D01*
X125313181Y-69266873D01*
X113994725Y-80585328D01*
X113994724Y-80585329D01*
X113941271Y-80665330D01*
X113941270Y-80665330D01*
X113923536Y-80691870D01*
X113923534Y-80691874D01*
X113874499Y-80810255D01*
X113874497Y-80810261D01*
X113849500Y-80935928D01*
X113849500Y-81075500D01*
X113829815Y-81142539D01*
X113777011Y-81188294D01*
X113725500Y-81199500D01*
X113671155Y-81199500D01*
X113516511Y-81230260D01*
X113516506Y-81230262D01*
X113516504Y-81230262D01*
X113516503Y-81230263D01*
X113492844Y-81240062D01*
X113484670Y-81241688D01*
X113480331Y-81244477D01*
X113445396Y-81249500D01*
X113240638Y-81249500D01*
X113173599Y-81229815D01*
X113135099Y-81190597D01*
X113067712Y-81081344D01*
X112943656Y-80957288D01*
X112809402Y-80874480D01*
X112762679Y-80822533D01*
X112750500Y-80768942D01*
X112750500Y-75612229D01*
X112770185Y-75545190D01*
X112786814Y-75524553D01*
X114494631Y-73816735D01*
X114555952Y-73783252D01*
X114625644Y-73788236D01*
X114647403Y-73798877D01*
X114705666Y-73834814D01*
X114872203Y-73889999D01*
X114974991Y-73900500D01*
X116025008Y-73900499D01*
X116025016Y-73900498D01*
X116025019Y-73900498D01*
X116090617Y-73893797D01*
X116127797Y-73889999D01*
X116294334Y-73834814D01*
X116443656Y-73742712D01*
X116499549Y-73686819D01*
X116560872Y-73653334D01*
X116587230Y-73650500D01*
X117362820Y-73650500D01*
X117429859Y-73670185D01*
X117462085Y-73700187D01*
X117542454Y-73807546D01*
X117554732Y-73816737D01*
X117657664Y-73893793D01*
X117657671Y-73893797D01*
X117792517Y-73944091D01*
X117792516Y-73944091D01*
X117799444Y-73944835D01*
X117852127Y-73950500D01*
X119647872Y-73950499D01*
X119707483Y-73944091D01*
X119842331Y-73893796D01*
X119957546Y-73807546D01*
X120043796Y-73692331D01*
X120094091Y-73557483D01*
X120100500Y-73497873D01*
X120100499Y-71702128D01*
X120094091Y-71642517D01*
X120080923Y-71607213D01*
X120043797Y-71507671D01*
X120043793Y-71507664D01*
X119957547Y-71392455D01*
X119957544Y-71392452D01*
X119842335Y-71306206D01*
X119842328Y-71306202D01*
X119710917Y-71257189D01*
X119654983Y-71215318D01*
X119630566Y-71149853D01*
X119645418Y-71081580D01*
X119666563Y-71053332D01*
X119780104Y-70939792D01*
X119905051Y-70767816D01*
X120001557Y-70578412D01*
X120067246Y-70376243D01*
X120100500Y-70166287D01*
X120100500Y-69953713D01*
X120094017Y-69912780D01*
X120066484Y-69738945D01*
X120068123Y-69738685D01*
X120071257Y-69676126D01*
X120100655Y-69629289D01*
X122455276Y-67274670D01*
X122526465Y-67168127D01*
X122575501Y-67049744D01*
X122585080Y-67001588D01*
X122600500Y-66924069D01*
X122600500Y-62070807D01*
X122620185Y-62003768D01*
X122636814Y-61983131D01*
X124120364Y-60499580D01*
X124181684Y-60466098D01*
X124251376Y-60471082D01*
X124307309Y-60512954D01*
X124331726Y-60578418D01*
X124325749Y-60626266D01*
X124310494Y-60672303D01*
X124310493Y-60672309D01*
X124300000Y-60775013D01*
X124300000Y-60837500D01*
X125250000Y-60837500D01*
X125250000Y-60075000D01*
X125000029Y-60075000D01*
X125000012Y-60075001D01*
X124897302Y-60085494D01*
X124851269Y-60100748D01*
X124781440Y-60103150D01*
X124721398Y-60067418D01*
X124690206Y-60004897D01*
X124697767Y-59935438D01*
X124724582Y-59895363D01*
X129203321Y-55416623D01*
X129264642Y-55383140D01*
X129334334Y-55388124D01*
G37*
%TD.AperFunction*%
%TA.AperFunction,Conductor*%
G36*
X129536966Y-36520185D02*
G01*
X129582721Y-36572989D01*
X129592665Y-36642147D01*
X129567540Y-36700970D01*
X129564530Y-36704810D01*
X129476522Y-36850393D01*
X129473528Y-36860001D01*
X129425914Y-37012804D01*
X129425914Y-37012806D01*
X129424649Y-37026725D01*
X129398977Y-37091707D01*
X129342248Y-37132494D01*
X129301158Y-37139500D01*
X129016669Y-37139500D01*
X129016653Y-37139499D01*
X129009057Y-37139499D01*
X128850943Y-37139499D01*
X128743587Y-37168265D01*
X128698210Y-37180424D01*
X128698209Y-37180425D01*
X128648096Y-37209359D01*
X128648095Y-37209360D01*
X128604689Y-37234420D01*
X128561285Y-37259479D01*
X128561282Y-37259481D01*
X128449478Y-37371286D01*
X125997584Y-39823181D01*
X125936261Y-39856666D01*
X125909903Y-39859500D01*
X119724499Y-39859500D01*
X119657460Y-39839815D01*
X119611705Y-39787011D01*
X119600499Y-39735500D01*
X119600499Y-39522129D01*
X119600498Y-39522123D01*
X119600497Y-39522116D01*
X119594091Y-39462517D01*
X119589427Y-39450013D01*
X119543797Y-39327671D01*
X119543793Y-39327664D01*
X119457547Y-39212455D01*
X119457544Y-39212452D01*
X119342335Y-39126206D01*
X119342328Y-39126202D01*
X119207482Y-39075908D01*
X119207483Y-39075908D01*
X119147883Y-39069501D01*
X119147881Y-39069500D01*
X119147873Y-39069500D01*
X119147864Y-39069500D01*
X117352129Y-39069500D01*
X117352123Y-39069501D01*
X117292516Y-39075908D01*
X117157671Y-39126202D01*
X117157664Y-39126206D01*
X117042455Y-39212452D01*
X117042452Y-39212455D01*
X116956206Y-39327664D01*
X116956202Y-39327671D01*
X116905908Y-39462517D01*
X116901879Y-39500000D01*
X116899501Y-39522123D01*
X116899500Y-39522135D01*
X116899500Y-41317870D01*
X116899501Y-41317876D01*
X116905908Y-41377483D01*
X116956202Y-41512328D01*
X116956206Y-41512335D01*
X117042452Y-41627544D01*
X117042455Y-41627547D01*
X117157664Y-41713793D01*
X117157671Y-41713797D01*
X117289082Y-41762810D01*
X117345016Y-41804681D01*
X117369433Y-41870145D01*
X117354582Y-41938418D01*
X117333431Y-41966673D01*
X117219889Y-42080215D01*
X117094951Y-42252179D01*
X116998444Y-42441585D01*
X116932753Y-42643760D01*
X116906423Y-42810001D01*
X116899500Y-42853713D01*
X116899500Y-43066287D01*
X116901885Y-43081344D01*
X116930894Y-43264503D01*
X116932754Y-43276243D01*
X116987674Y-43445270D01*
X116998444Y-43478414D01*
X117094951Y-43667820D01*
X117219890Y-43839786D01*
X117370213Y-43990109D01*
X117542179Y-44115048D01*
X117542181Y-44115049D01*
X117542184Y-44115051D01*
X117551493Y-44119794D01*
X117602290Y-44167766D01*
X117619087Y-44235587D01*
X117596552Y-44301722D01*
X117551505Y-44340760D01*
X117542446Y-44345376D01*
X117542440Y-44345380D01*
X117488282Y-44384727D01*
X117488282Y-44384728D01*
X118120591Y-45017037D01*
X118057007Y-45034075D01*
X117942993Y-45099901D01*
X117849901Y-45192993D01*
X117784075Y-45307007D01*
X117767037Y-45370591D01*
X117134728Y-44738282D01*
X117134727Y-44738282D01*
X117095380Y-44792439D01*
X116998904Y-44981782D01*
X116933242Y-45183869D01*
X116933242Y-45183872D01*
X116900000Y-45393753D01*
X116900000Y-45606246D01*
X116933242Y-45816127D01*
X116933242Y-45816130D01*
X116998904Y-46018217D01*
X117095375Y-46207550D01*
X117134728Y-46261716D01*
X117767037Y-45629408D01*
X117784075Y-45692993D01*
X117849901Y-45807007D01*
X117942993Y-45900099D01*
X118057007Y-45965925D01*
X118120590Y-45982962D01*
X117488282Y-46615269D01*
X117488282Y-46615270D01*
X117542449Y-46654624D01*
X117731782Y-46751095D01*
X117933870Y-46816757D01*
X118143754Y-46850000D01*
X118356246Y-46850000D01*
X118566127Y-46816757D01*
X118566130Y-46816757D01*
X118768217Y-46751095D01*
X118957554Y-46654622D01*
X119011716Y-46615270D01*
X119011717Y-46615270D01*
X118379408Y-45982962D01*
X118442993Y-45965925D01*
X118557007Y-45900099D01*
X118650099Y-45807007D01*
X118715925Y-45692993D01*
X118732962Y-45629408D01*
X119365270Y-46261717D01*
X119365270Y-46261716D01*
X119404622Y-46207554D01*
X119501095Y-46018217D01*
X119566757Y-45816130D01*
X119566757Y-45816127D01*
X119600000Y-45606246D01*
X119600000Y-45393753D01*
X119566757Y-45183872D01*
X119566757Y-45183869D01*
X119501095Y-44981782D01*
X119404624Y-44792449D01*
X119365270Y-44738282D01*
X119365269Y-44738282D01*
X118732962Y-45370590D01*
X118715925Y-45307007D01*
X118650099Y-45192993D01*
X118557007Y-45099901D01*
X118442993Y-45034075D01*
X118379409Y-45017037D01*
X119011716Y-44384728D01*
X118957547Y-44345373D01*
X118957547Y-44345372D01*
X118948500Y-44340763D01*
X118897706Y-44292788D01*
X118880912Y-44224966D01*
X118903451Y-44158832D01*
X118948508Y-44119793D01*
X118957816Y-44115051D01*
X119070665Y-44033062D01*
X119129786Y-43990109D01*
X119129788Y-43990106D01*
X119129792Y-43990104D01*
X119280104Y-43839792D01*
X119280106Y-43839788D01*
X119280109Y-43839786D01*
X119374705Y-43709584D01*
X119405051Y-43667816D01*
X119405060Y-43667797D01*
X119407592Y-43663668D01*
X119408571Y-43664268D01*
X119452824Y-43617411D01*
X119515337Y-43600500D01*
X127913331Y-43600500D01*
X127913347Y-43600501D01*
X127920943Y-43600501D01*
X128079054Y-43600501D01*
X128079057Y-43600501D01*
X128231785Y-43559577D01*
X128281904Y-43530639D01*
X128368716Y-43480520D01*
X128480520Y-43368716D01*
X128480520Y-43368714D01*
X128490728Y-43358507D01*
X128490730Y-43358504D01*
X129203557Y-42645676D01*
X129264878Y-42612193D01*
X129334570Y-42617177D01*
X129390503Y-42659049D01*
X129414920Y-42724513D01*
X129415087Y-42739443D01*
X129415000Y-42741213D01*
X129415000Y-42898789D01*
X129424701Y-42997299D01*
X129424701Y-42997302D01*
X129455444Y-43151864D01*
X129484185Y-43246612D01*
X129544490Y-43392198D01*
X129591155Y-43479501D01*
X129591161Y-43479511D01*
X129637534Y-43548912D01*
X130237037Y-42949409D01*
X130254075Y-43012993D01*
X130319901Y-43127007D01*
X130412993Y-43220099D01*
X130527007Y-43285925D01*
X130590589Y-43302962D01*
X129991085Y-43902465D01*
X130060488Y-43948838D01*
X130060498Y-43948844D01*
X130126454Y-43984099D01*
X130176298Y-44033062D01*
X130191758Y-44101200D01*
X130167926Y-44166879D01*
X130124295Y-44203942D01*
X130038386Y-44247715D01*
X129872786Y-44368028D01*
X129728034Y-44512780D01*
X129728030Y-44512786D01*
X129622246Y-44658386D01*
X129566918Y-44701051D01*
X129521929Y-44709500D01*
X127825929Y-44709500D01*
X127700261Y-44734497D01*
X127700255Y-44734499D01*
X127659297Y-44751465D01*
X127659296Y-44751465D01*
X127581881Y-44783530D01*
X127581863Y-44783540D01*
X127475332Y-44854721D01*
X127475325Y-44854727D01*
X115244724Y-57085328D01*
X115179502Y-57182942D01*
X115173539Y-57191866D01*
X115173533Y-57191877D01*
X115124499Y-57310255D01*
X115124497Y-57310261D01*
X115099500Y-57435928D01*
X115099500Y-57435931D01*
X115099500Y-62044069D01*
X115099500Y-62044071D01*
X115099499Y-62044071D01*
X115124497Y-62169738D01*
X115124499Y-62169744D01*
X115173535Y-62288127D01*
X115201960Y-62330668D01*
X115244726Y-62394673D01*
X115244727Y-62394674D01*
X117399342Y-64549288D01*
X117432827Y-64610611D01*
X117432319Y-64658755D01*
X117433516Y-64658945D01*
X117399500Y-64873713D01*
X117399500Y-65086286D01*
X117432209Y-65292807D01*
X117432754Y-65296243D01*
X117458495Y-65375466D01*
X117498444Y-65498414D01*
X117594951Y-65687820D01*
X117719890Y-65859786D01*
X117870213Y-66010109D01*
X118042182Y-66135050D01*
X118050946Y-66139516D01*
X118101742Y-66187491D01*
X118118536Y-66255312D01*
X118095998Y-66321447D01*
X118050946Y-66360484D01*
X118042182Y-66364949D01*
X117870213Y-66489890D01*
X117719890Y-66640213D01*
X117594951Y-66812179D01*
X117498444Y-67001585D01*
X117432753Y-67203760D01*
X117399500Y-67413713D01*
X117399500Y-67626286D01*
X117431694Y-67829554D01*
X117432754Y-67836243D01*
X117494737Y-68027007D01*
X117498444Y-68038414D01*
X117594951Y-68227820D01*
X117719890Y-68399786D01*
X117870213Y-68550109D01*
X118042182Y-68675050D01*
X118050946Y-68679516D01*
X118101742Y-68727491D01*
X118118536Y-68795312D01*
X118095998Y-68861447D01*
X118050946Y-68900484D01*
X118042182Y-68904949D01*
X117870213Y-69029890D01*
X117719890Y-69180213D01*
X117594951Y-69352179D01*
X117498444Y-69541585D01*
X117432753Y-69743760D01*
X117399500Y-69953713D01*
X117399500Y-70166287D01*
X117432754Y-70376243D01*
X117458495Y-70455466D01*
X117498444Y-70578414D01*
X117594951Y-70767820D01*
X117719890Y-70939786D01*
X117833430Y-71053326D01*
X117866915Y-71114649D01*
X117861931Y-71184341D01*
X117820059Y-71240274D01*
X117789083Y-71257189D01*
X117657669Y-71306203D01*
X117657664Y-71306206D01*
X117542455Y-71392452D01*
X117542452Y-71392455D01*
X117456206Y-71507664D01*
X117456202Y-71507671D01*
X117405908Y-71642517D01*
X117399501Y-71702116D01*
X117399501Y-71702123D01*
X117399500Y-71702135D01*
X117399500Y-72025500D01*
X117379815Y-72092539D01*
X117327011Y-72138294D01*
X117275500Y-72149500D01*
X116587230Y-72149500D01*
X116559963Y-72141493D01*
X116531984Y-72136513D01*
X116524384Y-72131046D01*
X116520191Y-72129815D01*
X116502946Y-72116452D01*
X116501227Y-72114859D01*
X116443656Y-72057288D01*
X116430036Y-72048887D01*
X116421156Y-72040658D01*
X116409212Y-72020635D01*
X116393618Y-72003297D01*
X116391647Y-71991186D01*
X116385364Y-71980652D01*
X116386141Y-71957349D01*
X116382397Y-71934334D01*
X116387285Y-71923082D01*
X116387695Y-71910821D01*
X116400948Y-71891637D01*
X116410240Y-71870252D01*
X116423898Y-71858418D01*
X116427409Y-71853336D01*
X116431947Y-71851443D01*
X116440348Y-71844165D01*
X116443342Y-71842318D01*
X116567315Y-71718345D01*
X116659356Y-71569124D01*
X116659358Y-71569119D01*
X116714505Y-71402697D01*
X116714506Y-71402690D01*
X116724999Y-71299986D01*
X116725000Y-71299973D01*
X116725000Y-71250000D01*
X114275001Y-71250000D01*
X114275001Y-71299986D01*
X114285494Y-71402697D01*
X114340641Y-71569119D01*
X114340643Y-71569124D01*
X114432684Y-71718345D01*
X114556655Y-71842316D01*
X114556659Y-71842319D01*
X114559656Y-71844168D01*
X114561279Y-71845972D01*
X114562323Y-71846798D01*
X114562181Y-71846976D01*
X114606381Y-71896116D01*
X114617602Y-71965079D01*
X114589759Y-72029161D01*
X114578844Y-72040657D01*
X114569960Y-72048889D01*
X114556344Y-72057288D01*
X114498774Y-72114857D01*
X114497055Y-72116451D01*
X114467792Y-72131013D01*
X114439128Y-72146666D01*
X114435573Y-72147048D01*
X114434503Y-72147581D01*
X114432581Y-72147369D01*
X114412770Y-72149500D01*
X114276080Y-72149500D01*
X114131092Y-72178340D01*
X114131082Y-72178343D01*
X113994509Y-72234913D01*
X113994500Y-72234918D01*
X113980155Y-72244504D01*
X113980153Y-72244506D01*
X113871579Y-72317051D01*
X113871578Y-72317052D01*
X111417050Y-74771581D01*
X111417048Y-74771584D01*
X111404650Y-74790140D01*
X111404648Y-74790141D01*
X111404648Y-74790142D01*
X111334916Y-74894503D01*
X111334914Y-74894506D01*
X111278343Y-75031082D01*
X111278340Y-75031092D01*
X111249500Y-75176079D01*
X111249500Y-80768942D01*
X111229815Y-80835981D01*
X111190598Y-80874479D01*
X111116798Y-80920000D01*
X111056342Y-80957289D01*
X110962181Y-81051451D01*
X110900858Y-81084936D01*
X110831166Y-81079952D01*
X110775233Y-81038080D01*
X110750816Y-80972616D01*
X110750500Y-80963770D01*
X110750500Y-70700013D01*
X114275000Y-70700013D01*
X114275000Y-70750000D01*
X115250000Y-70750000D01*
X115750000Y-70750000D01*
X116724999Y-70750000D01*
X116724999Y-70700028D01*
X116724998Y-70700013D01*
X116714505Y-70597302D01*
X116659358Y-70430880D01*
X116659356Y-70430875D01*
X116567315Y-70281654D01*
X116443345Y-70157684D01*
X116294124Y-70065643D01*
X116294119Y-70065641D01*
X116127697Y-70010494D01*
X116127690Y-70010493D01*
X116024986Y-70000000D01*
X115750000Y-70000000D01*
X115750000Y-70750000D01*
X115250000Y-70750000D01*
X115250000Y-70000000D01*
X114975029Y-70000000D01*
X114975012Y-70000001D01*
X114872302Y-70010494D01*
X114705880Y-70065641D01*
X114705875Y-70065643D01*
X114556654Y-70157684D01*
X114432684Y-70281654D01*
X114340643Y-70430875D01*
X114340641Y-70430880D01*
X114285494Y-70597302D01*
X114285493Y-70597309D01*
X114275000Y-70700013D01*
X110750500Y-70700013D01*
X110750500Y-50868872D01*
X111999500Y-50868872D01*
X111999500Y-51131127D01*
X112020051Y-51287219D01*
X112033730Y-51391116D01*
X112098831Y-51634076D01*
X112101602Y-51644418D01*
X112101605Y-51644428D01*
X112201953Y-51886690D01*
X112201958Y-51886700D01*
X112333075Y-52113803D01*
X112492718Y-52321851D01*
X112492726Y-52321860D01*
X112678140Y-52507274D01*
X112678148Y-52507281D01*
X112886196Y-52666924D01*
X113113299Y-52798041D01*
X113113309Y-52798046D01*
X113305486Y-52877648D01*
X113355581Y-52898398D01*
X113608884Y-52966270D01*
X113868880Y-53000500D01*
X113868887Y-53000500D01*
X114131113Y-53000500D01*
X114131120Y-53000500D01*
X114391116Y-52966270D01*
X114644419Y-52898398D01*
X114886697Y-52798043D01*
X115113803Y-52666924D01*
X115321851Y-52507282D01*
X115321855Y-52507277D01*
X115321860Y-52507274D01*
X115507274Y-52321860D01*
X115507277Y-52321855D01*
X115507282Y-52321851D01*
X115666924Y-52113803D01*
X115798043Y-51886697D01*
X115805907Y-51867713D01*
X115867205Y-51719725D01*
X115898398Y-51644419D01*
X115966270Y-51391116D01*
X116000500Y-51131120D01*
X116000500Y-50868880D01*
X115966270Y-50608884D01*
X115898398Y-50355581D01*
X115888342Y-50331303D01*
X115798046Y-50113309D01*
X115798041Y-50113299D01*
X115666924Y-49886196D01*
X115507281Y-49678148D01*
X115507274Y-49678140D01*
X115321860Y-49492726D01*
X115321851Y-49492718D01*
X115113803Y-49333075D01*
X114886700Y-49201958D01*
X114886690Y-49201953D01*
X114644428Y-49101605D01*
X114644421Y-49101603D01*
X114644419Y-49101602D01*
X114391116Y-49033730D01*
X114333339Y-49026123D01*
X114131127Y-48999500D01*
X114131120Y-48999500D01*
X113868880Y-48999500D01*
X113868872Y-48999500D01*
X113637772Y-49029926D01*
X113608884Y-49033730D01*
X113359694Y-49100500D01*
X113355581Y-49101602D01*
X113355571Y-49101605D01*
X113113309Y-49201953D01*
X113113299Y-49201958D01*
X112886196Y-49333075D01*
X112678148Y-49492718D01*
X112492718Y-49678148D01*
X112333075Y-49886196D01*
X112201958Y-50113299D01*
X112201953Y-50113309D01*
X112101605Y-50355571D01*
X112101602Y-50355581D01*
X112051558Y-50542351D01*
X112033730Y-50608885D01*
X111999500Y-50868872D01*
X110750500Y-50868872D01*
X110750500Y-36624500D01*
X110770185Y-36557461D01*
X110822989Y-36511706D01*
X110874500Y-36500500D01*
X129469927Y-36500500D01*
X129536966Y-36520185D01*
G37*
%TD.AperFunction*%
%TA.AperFunction,Conductor*%
G36*
X129334334Y-68088125D02*
G01*
X129390267Y-68129997D01*
X129414684Y-68195461D01*
X129415000Y-68204307D01*
X129415000Y-68298789D01*
X129424701Y-68397299D01*
X129424701Y-68397302D01*
X129455444Y-68551864D01*
X129484185Y-68646612D01*
X129544490Y-68792198D01*
X129591155Y-68879501D01*
X129591161Y-68879511D01*
X129637534Y-68948912D01*
X130237037Y-68349409D01*
X130254075Y-68412993D01*
X130319901Y-68527007D01*
X130412993Y-68620099D01*
X130527007Y-68685925D01*
X130590589Y-68702962D01*
X129991085Y-69302465D01*
X130060488Y-69348838D01*
X130060498Y-69348844D01*
X130126454Y-69384099D01*
X130176298Y-69433062D01*
X130191758Y-69501200D01*
X130167926Y-69566879D01*
X130124295Y-69603942D01*
X130038386Y-69647715D01*
X129872786Y-69768028D01*
X129728034Y-69912780D01*
X129698295Y-69953713D01*
X129622246Y-70058386D01*
X129566918Y-70101051D01*
X129521929Y-70109500D01*
X128607082Y-70109500D01*
X128540043Y-70089815D01*
X128494288Y-70037011D01*
X128484344Y-69967853D01*
X128503980Y-69916610D01*
X128576464Y-69808128D01*
X128576465Y-69808127D01*
X128625501Y-69689744D01*
X128642845Y-69602552D01*
X128650500Y-69564071D01*
X128650500Y-68720807D01*
X128670185Y-68653768D01*
X128686814Y-68633131D01*
X129203320Y-68116625D01*
X129264642Y-68083141D01*
X129334334Y-68088125D01*
G37*
%TD.AperFunction*%
%TA.AperFunction,Conductor*%
G36*
X161886230Y-50770184D02*
G01*
X161906872Y-50786818D01*
X162625324Y-51505271D01*
X162625327Y-51505274D01*
X162695689Y-51552288D01*
X162731866Y-51576461D01*
X162731872Y-51576464D01*
X162731873Y-51576465D01*
X162850256Y-51625501D01*
X162850260Y-51625501D01*
X162850261Y-51625502D01*
X162975928Y-51650500D01*
X162975931Y-51650500D01*
X163511267Y-51650500D01*
X163578306Y-51670185D01*
X163624061Y-51722989D01*
X163628972Y-51735494D01*
X163640184Y-51769328D01*
X163640187Y-51769336D01*
X163642215Y-51772624D01*
X163732288Y-51918656D01*
X163856344Y-52042712D01*
X164005666Y-52134814D01*
X164172203Y-52189999D01*
X164274991Y-52200500D01*
X164900008Y-52200499D01*
X164900016Y-52200498D01*
X164900019Y-52200498D01*
X164956302Y-52194748D01*
X165002797Y-52189999D01*
X165169334Y-52134814D01*
X165318656Y-52042712D01*
X165412319Y-51949049D01*
X165473642Y-51915564D01*
X165543334Y-51920548D01*
X165587681Y-51949049D01*
X165681344Y-52042712D01*
X165830666Y-52134814D01*
X165997203Y-52189999D01*
X166099991Y-52200500D01*
X166125498Y-52200499D01*
X166192536Y-52220181D01*
X166238293Y-52272984D01*
X166249500Y-52324499D01*
X166249500Y-58175500D01*
X166229815Y-58242539D01*
X166177011Y-58288294D01*
X166125501Y-58299500D01*
X166012499Y-58299500D01*
X166012480Y-58299501D01*
X165909703Y-58310000D01*
X165909700Y-58310001D01*
X165743168Y-58365185D01*
X165743163Y-58365187D01*
X165593842Y-58457289D01*
X165500181Y-58550951D01*
X165438858Y-58584436D01*
X165369166Y-58579452D01*
X165324819Y-58550951D01*
X165231157Y-58457289D01*
X165231156Y-58457288D01*
X165089793Y-58370095D01*
X165081836Y-58365187D01*
X165081831Y-58365185D01*
X165079866Y-58364534D01*
X164915297Y-58310001D01*
X164915295Y-58310000D01*
X164812510Y-58299500D01*
X164187498Y-58299500D01*
X164187480Y-58299501D01*
X164084703Y-58310000D01*
X164084700Y-58310001D01*
X163918168Y-58365185D01*
X163918163Y-58365187D01*
X163768842Y-58457289D01*
X163644789Y-58581342D01*
X163644788Y-58581344D01*
X163556483Y-58724511D01*
X163548895Y-58736813D01*
X163546434Y-58735295D01*
X163508949Y-58777855D01*
X163442757Y-58797000D01*
X162649499Y-58797000D01*
X162582460Y-58777315D01*
X162536705Y-58724511D01*
X162525499Y-58673000D01*
X162525499Y-58649629D01*
X162525498Y-58649623D01*
X162519091Y-58590016D01*
X162468797Y-58455171D01*
X162468793Y-58455164D01*
X162382547Y-58339955D01*
X162382544Y-58339952D01*
X162267335Y-58253706D01*
X162267328Y-58253702D01*
X162132482Y-58203408D01*
X162132483Y-58203408D01*
X162072883Y-58197001D01*
X162072881Y-58197000D01*
X162072873Y-58197000D01*
X162072864Y-58197000D01*
X160927129Y-58197000D01*
X160927123Y-58197001D01*
X160867516Y-58203408D01*
X160732672Y-58253702D01*
X160732665Y-58253706D01*
X160731556Y-58254537D01*
X160730258Y-58255020D01*
X160724887Y-58257954D01*
X160724465Y-58257181D01*
X160666090Y-58278949D01*
X160609800Y-58269825D01*
X160529127Y-58236409D01*
X160529119Y-58236407D01*
X160331007Y-58197000D01*
X160331003Y-58197000D01*
X160128997Y-58197000D01*
X160128992Y-58197000D01*
X159930880Y-58236407D01*
X159930872Y-58236409D01*
X159744243Y-58313714D01*
X159663439Y-58367704D01*
X159596761Y-58388581D01*
X159529382Y-58370095D01*
X159525659Y-58367703D01*
X159445526Y-58314159D01*
X159445513Y-58314152D01*
X159258984Y-58236890D01*
X159258977Y-58236888D01*
X159210000Y-58227145D01*
X159210000Y-59081634D01*
X159207617Y-59105826D01*
X159204500Y-59121495D01*
X159204500Y-59161670D01*
X159190255Y-59147425D01*
X159104745Y-59098056D01*
X159009370Y-59072500D01*
X158910630Y-59072500D01*
X158815255Y-59098056D01*
X158729745Y-59147425D01*
X158710000Y-59167170D01*
X158710000Y-58227146D01*
X158709999Y-58227145D01*
X158661022Y-58236888D01*
X158661015Y-58236890D01*
X158474486Y-58314152D01*
X158474473Y-58314159D01*
X158306600Y-58426329D01*
X158306596Y-58426332D01*
X158163832Y-58569096D01*
X158163829Y-58569100D01*
X158051659Y-58736973D01*
X158051652Y-58736986D01*
X157974390Y-58923516D01*
X157974387Y-58923525D01*
X157935000Y-59121541D01*
X157935000Y-59197500D01*
X158679670Y-59197500D01*
X158659925Y-59217245D01*
X158610556Y-59302755D01*
X158585000Y-59398130D01*
X158585000Y-59496870D01*
X158610556Y-59592245D01*
X158659925Y-59677755D01*
X158679670Y-59697500D01*
X157935000Y-59697500D01*
X157935000Y-59773458D01*
X157974387Y-59971474D01*
X157974390Y-59971483D01*
X158051652Y-60158013D01*
X158051659Y-60158026D01*
X158163829Y-60325899D01*
X158163832Y-60325903D01*
X158306596Y-60468667D01*
X158306600Y-60468670D01*
X158474473Y-60580840D01*
X158474486Y-60580847D01*
X158661016Y-60658109D01*
X158661025Y-60658112D01*
X158710000Y-60667853D01*
X158710000Y-59727830D01*
X158729745Y-59747575D01*
X158815255Y-59796944D01*
X158910630Y-59822500D01*
X159009370Y-59822500D01*
X159104745Y-59796944D01*
X159190255Y-59747575D01*
X159204500Y-59733330D01*
X159204500Y-59773502D01*
X159207617Y-59789171D01*
X159210000Y-59813365D01*
X159210000Y-60667852D01*
X159258974Y-60658112D01*
X159258983Y-60658109D01*
X159448048Y-60579797D01*
X159517517Y-60572328D01*
X159579996Y-60603603D01*
X159615648Y-60663692D01*
X159619500Y-60694358D01*
X159619500Y-61584191D01*
X159599815Y-61651230D01*
X159583181Y-61671872D01*
X158629371Y-62625681D01*
X158568048Y-62659166D01*
X158541690Y-62662000D01*
X157999998Y-62662000D01*
X157999980Y-62662001D01*
X157897203Y-62672500D01*
X157897200Y-62672501D01*
X157730668Y-62727685D01*
X157730663Y-62727687D01*
X157581342Y-62819789D01*
X157457289Y-62943842D01*
X157365187Y-63093163D01*
X157365186Y-63093166D01*
X157310001Y-63259703D01*
X157310001Y-63259704D01*
X157310000Y-63259704D01*
X157299500Y-63362483D01*
X157299500Y-63987501D01*
X157299501Y-63987519D01*
X157310000Y-64090296D01*
X157310001Y-64090299D01*
X157323810Y-64131971D01*
X157365186Y-64256834D01*
X157452064Y-64397687D01*
X157457289Y-64406157D01*
X157550951Y-64499819D01*
X157584436Y-64561142D01*
X157579452Y-64630834D01*
X157550951Y-64675181D01*
X157457289Y-64768842D01*
X157365187Y-64918163D01*
X157365186Y-64918166D01*
X157310001Y-65084703D01*
X157310001Y-65084704D01*
X157310000Y-65084704D01*
X157299500Y-65187483D01*
X157299500Y-65729191D01*
X157279815Y-65796230D01*
X157263181Y-65816872D01*
X153006873Y-70073181D01*
X152945550Y-70106666D01*
X152919192Y-70109500D01*
X149698071Y-70109500D01*
X149631032Y-70089815D01*
X149597754Y-70058386D01*
X149491966Y-69912781D01*
X149347219Y-69768034D01*
X149347213Y-69768028D01*
X149181614Y-69647715D01*
X149145447Y-69629287D01*
X149095703Y-69603941D01*
X149044908Y-69555968D01*
X149028113Y-69488147D01*
X149050650Y-69422012D01*
X149093546Y-69384099D01*
X149159503Y-69348843D01*
X149159515Y-69348837D01*
X149228913Y-69302465D01*
X148629410Y-68702962D01*
X148692993Y-68685925D01*
X148807007Y-68620099D01*
X148900099Y-68527007D01*
X148965925Y-68412993D01*
X148982962Y-68349410D01*
X149582465Y-68948913D01*
X149628837Y-68879515D01*
X149628838Y-68879511D01*
X149675509Y-68792198D01*
X149735814Y-68646612D01*
X149764555Y-68551864D01*
X149795298Y-68397302D01*
X149795298Y-68397299D01*
X149805000Y-68298789D01*
X149805000Y-68141210D01*
X149795298Y-68042700D01*
X149795298Y-68042697D01*
X149764555Y-67888135D01*
X149735814Y-67793387D01*
X149675509Y-67647801D01*
X149628844Y-67560498D01*
X149628838Y-67560488D01*
X149582465Y-67491085D01*
X148982962Y-68090588D01*
X148965925Y-68027007D01*
X148900099Y-67912993D01*
X148807007Y-67819901D01*
X148692993Y-67754075D01*
X148629410Y-67737037D01*
X149228912Y-67137534D01*
X149159511Y-67091161D01*
X149159500Y-67091155D01*
X149093545Y-67055900D01*
X149043701Y-67006937D01*
X149028241Y-66938799D01*
X149052073Y-66873119D01*
X149095702Y-66836059D01*
X149181610Y-66792287D01*
X149272745Y-66726074D01*
X149347213Y-66671971D01*
X149347215Y-66671968D01*
X149347219Y-66671966D01*
X149491966Y-66527219D01*
X149491968Y-66527215D01*
X149491971Y-66527213D01*
X149550021Y-66447312D01*
X149612287Y-66361610D01*
X149705220Y-66179219D01*
X149768477Y-65984534D01*
X149800500Y-65782352D01*
X149800500Y-65577648D01*
X149772345Y-65399886D01*
X149781300Y-65330593D01*
X149807134Y-65292810D01*
X158550627Y-56549318D01*
X158611950Y-56515833D01*
X158638308Y-56512999D01*
X159000002Y-56512999D01*
X159000008Y-56512999D01*
X159102797Y-56502499D01*
X159269334Y-56447314D01*
X159418656Y-56355212D01*
X159542712Y-56231156D01*
X159634814Y-56081834D01*
X159689999Y-55915297D01*
X159700500Y-55812509D01*
X159700499Y-55187492D01*
X159698349Y-55166448D01*
X159689999Y-55084703D01*
X159689998Y-55084700D01*
X159679850Y-55054075D01*
X159634814Y-54918166D01*
X159542712Y-54768844D01*
X159449049Y-54675181D01*
X159415564Y-54613858D01*
X159420548Y-54544166D01*
X159449049Y-54499819D01*
X159542712Y-54406156D01*
X159634814Y-54256834D01*
X159689999Y-54090297D01*
X159700500Y-53987509D01*
X159700499Y-53445806D01*
X159720183Y-53378768D01*
X159736813Y-53358131D01*
X160775277Y-52319669D01*
X160846465Y-52213127D01*
X160895501Y-52094744D01*
X160905851Y-52042712D01*
X160915404Y-51994687D01*
X160920500Y-51969070D01*
X160920500Y-50874499D01*
X160940185Y-50807460D01*
X160992989Y-50761705D01*
X161044495Y-50750499D01*
X161819191Y-50750499D01*
X161886230Y-50770184D01*
G37*
%TD.AperFunction*%
%TA.AperFunction,Conductor*%
G36*
X157894334Y-49057414D02*
G01*
X157950267Y-49099286D01*
X157974684Y-49164750D01*
X157975000Y-49173596D01*
X157975000Y-49250000D01*
X158719670Y-49250000D01*
X158699925Y-49269745D01*
X158650556Y-49355255D01*
X158625000Y-49450630D01*
X158625000Y-49549370D01*
X158650556Y-49644745D01*
X158699925Y-49730255D01*
X158719670Y-49750000D01*
X157975000Y-49750000D01*
X157975000Y-49825958D01*
X158014387Y-50023974D01*
X158014390Y-50023983D01*
X158091652Y-50210513D01*
X158091659Y-50210526D01*
X158203829Y-50378399D01*
X158203832Y-50378403D01*
X158346596Y-50521167D01*
X158346600Y-50521170D01*
X158514473Y-50633340D01*
X158514486Y-50633347D01*
X158701016Y-50710609D01*
X158701025Y-50710612D01*
X158750000Y-50720353D01*
X158750000Y-49780330D01*
X158769745Y-49800075D01*
X158855255Y-49849444D01*
X158950630Y-49875000D01*
X159049370Y-49875000D01*
X159144745Y-49849444D01*
X159230255Y-49800075D01*
X159244500Y-49785830D01*
X159244500Y-49826003D01*
X159249722Y-49852259D01*
X159249968Y-49863046D01*
X159249788Y-49863714D01*
X159250000Y-49865865D01*
X159250000Y-50720352D01*
X159298974Y-50710612D01*
X159298979Y-50710610D01*
X159448047Y-50648865D01*
X159517517Y-50641396D01*
X159579996Y-50672671D01*
X159615648Y-50732760D01*
X159619500Y-50763426D01*
X159619500Y-51584191D01*
X159599815Y-51651230D01*
X159583181Y-51671872D01*
X158629371Y-52625681D01*
X158568048Y-52659166D01*
X158541690Y-52662000D01*
X157999998Y-52662000D01*
X157999980Y-52662001D01*
X157897203Y-52672500D01*
X157897200Y-52672501D01*
X157730668Y-52727685D01*
X157730663Y-52727687D01*
X157581342Y-52819789D01*
X157457289Y-52943842D01*
X157365187Y-53093163D01*
X157365186Y-53093166D01*
X157310001Y-53259703D01*
X157310001Y-53259704D01*
X157310000Y-53259704D01*
X157299500Y-53362483D01*
X157299500Y-53987501D01*
X157299501Y-53987519D01*
X157310000Y-54090296D01*
X157310001Y-54090299D01*
X157358841Y-54237687D01*
X157365186Y-54256834D01*
X157448035Y-54391155D01*
X157457289Y-54406157D01*
X157550951Y-54499819D01*
X157584436Y-54561142D01*
X157579452Y-54630834D01*
X157550951Y-54675181D01*
X157457289Y-54768842D01*
X157365187Y-54918163D01*
X157365186Y-54918166D01*
X157310001Y-55084703D01*
X157310001Y-55084704D01*
X157310000Y-55084704D01*
X157299500Y-55187483D01*
X157299500Y-55812501D01*
X157299501Y-55812519D01*
X157307234Y-55888213D01*
X157294464Y-55956906D01*
X157271557Y-55988495D01*
X150012181Y-63247872D01*
X149950858Y-63281357D01*
X149881166Y-63276373D01*
X149825233Y-63234501D01*
X149800816Y-63169037D01*
X149800500Y-63160191D01*
X149800500Y-63037648D01*
X149768477Y-62835465D01*
X149715526Y-62672500D01*
X149705220Y-62640781D01*
X149705218Y-62640778D01*
X149705218Y-62640776D01*
X149635478Y-62503905D01*
X149612287Y-62458390D01*
X149604556Y-62447749D01*
X149491971Y-62292786D01*
X149347213Y-62148028D01*
X149181614Y-62027715D01*
X149134615Y-62003768D01*
X149088917Y-61980483D01*
X149038123Y-61932511D01*
X149021328Y-61864690D01*
X149043865Y-61798555D01*
X149088917Y-61759516D01*
X149181610Y-61712287D01*
X149254690Y-61659192D01*
X149347213Y-61591971D01*
X149347215Y-61591968D01*
X149347219Y-61591966D01*
X149491966Y-61447219D01*
X149491968Y-61447215D01*
X149491971Y-61447213D01*
X149571681Y-61337500D01*
X149612287Y-61281610D01*
X149705220Y-61099219D01*
X149768477Y-60904534D01*
X149800500Y-60702352D01*
X149800500Y-60497648D01*
X149773278Y-60325776D01*
X149768477Y-60295465D01*
X149731933Y-60182995D01*
X149705220Y-60100781D01*
X149705218Y-60100778D01*
X149705218Y-60100776D01*
X149657052Y-60006246D01*
X149612287Y-59918390D01*
X149584058Y-59879536D01*
X149491971Y-59752786D01*
X149347213Y-59608028D01*
X149181614Y-59487715D01*
X149175006Y-59484348D01*
X149088917Y-59440483D01*
X149038123Y-59392511D01*
X149021328Y-59324690D01*
X149043865Y-59258555D01*
X149088917Y-59219516D01*
X149181610Y-59172287D01*
X149228414Y-59138282D01*
X149347213Y-59051971D01*
X149347215Y-59051968D01*
X149347219Y-59051966D01*
X149491966Y-58907219D01*
X149491968Y-58907215D01*
X149491971Y-58907213D01*
X149580960Y-58784728D01*
X149612287Y-58741610D01*
X149705220Y-58559219D01*
X149768477Y-58364534D01*
X149800500Y-58162352D01*
X149800500Y-57957648D01*
X149768477Y-57755466D01*
X149768476Y-57755462D01*
X149768476Y-57755461D01*
X149706749Y-57565485D01*
X149704754Y-57495644D01*
X149740834Y-57435811D01*
X149803535Y-57404983D01*
X149824680Y-57403167D01*
X153523164Y-57403167D01*
X153523180Y-57403168D01*
X153530776Y-57403168D01*
X153688887Y-57403168D01*
X153688890Y-57403168D01*
X153841618Y-57362244D01*
X153891737Y-57333306D01*
X153978549Y-57283187D01*
X154090353Y-57171383D01*
X154090353Y-57171381D01*
X154100561Y-57161174D01*
X154100563Y-57161171D01*
X155368713Y-55893021D01*
X155368716Y-55893020D01*
X155480520Y-55781216D01*
X155530639Y-55694404D01*
X155559577Y-55644285D01*
X155600501Y-55491557D01*
X155600501Y-55333443D01*
X155600501Y-55325848D01*
X155600500Y-55325830D01*
X155600500Y-51300096D01*
X155620185Y-51233057D01*
X155636814Y-51212420D01*
X157763321Y-49085913D01*
X157824642Y-49052430D01*
X157894334Y-49057414D01*
G37*
%TD.AperFunction*%
%TA.AperFunction,Conductor*%
G36*
X129588968Y-46030185D02*
G01*
X129622245Y-46061613D01*
X129677577Y-46137770D01*
X129728034Y-46207219D01*
X129872786Y-46351971D01*
X130027749Y-46464556D01*
X130038390Y-46472287D01*
X130129840Y-46518883D01*
X130131080Y-46519515D01*
X130181876Y-46567490D01*
X130198671Y-46635311D01*
X130176134Y-46701446D01*
X130131080Y-46740485D01*
X130038386Y-46787715D01*
X129872786Y-46908028D01*
X129728028Y-47052786D01*
X129607715Y-47218386D01*
X129514781Y-47400776D01*
X129451522Y-47595465D01*
X129419500Y-47797648D01*
X129419500Y-48002351D01*
X129451522Y-48204534D01*
X129514781Y-48399223D01*
X129607715Y-48581613D01*
X129728028Y-48747213D01*
X129872786Y-48891971D01*
X129988270Y-48975873D01*
X130038390Y-49012287D01*
X130101647Y-49044518D01*
X130131080Y-49059515D01*
X130181876Y-49107490D01*
X130198671Y-49175311D01*
X130176134Y-49241446D01*
X130131080Y-49280485D01*
X130038386Y-49327715D01*
X129872786Y-49448028D01*
X129728028Y-49592786D01*
X129607715Y-49758386D01*
X129514781Y-49940776D01*
X129451522Y-50135465D01*
X129419500Y-50337648D01*
X129419500Y-50542351D01*
X129451756Y-50746009D01*
X129442801Y-50815303D01*
X129416964Y-50853088D01*
X120311681Y-59958371D01*
X120250358Y-59991856D01*
X120180666Y-59986872D01*
X120124733Y-59945000D01*
X120100316Y-59879536D01*
X120100000Y-59870690D01*
X120100000Y-59793753D01*
X120066757Y-59583872D01*
X120066757Y-59583869D01*
X120001095Y-59381782D01*
X119904624Y-59192449D01*
X119865270Y-59138282D01*
X119865269Y-59138282D01*
X119232962Y-59770590D01*
X119215925Y-59707007D01*
X119150099Y-59592993D01*
X119057007Y-59499901D01*
X118942993Y-59434075D01*
X118879409Y-59417037D01*
X119511716Y-58784728D01*
X119457550Y-58745375D01*
X119268217Y-58648904D01*
X119066129Y-58583242D01*
X118856246Y-58550000D01*
X118643754Y-58550000D01*
X118433872Y-58583242D01*
X118433869Y-58583242D01*
X118231782Y-58648904D01*
X118042439Y-58745380D01*
X117988282Y-58784727D01*
X117988282Y-58784728D01*
X118620591Y-59417037D01*
X118557007Y-59434075D01*
X118442993Y-59499901D01*
X118349901Y-59592993D01*
X118284075Y-59707007D01*
X118267037Y-59770591D01*
X117634728Y-59138282D01*
X117634727Y-59138282D01*
X117595380Y-59192439D01*
X117498904Y-59381782D01*
X117433242Y-59583869D01*
X117433242Y-59583872D01*
X117400000Y-59793753D01*
X117400000Y-60006246D01*
X117433242Y-60216127D01*
X117433242Y-60216130D01*
X117498904Y-60418217D01*
X117595375Y-60607550D01*
X117634728Y-60661716D01*
X118267037Y-60029408D01*
X118284075Y-60092993D01*
X118349901Y-60207007D01*
X118442993Y-60300099D01*
X118557007Y-60365925D01*
X118620590Y-60382962D01*
X117988282Y-61015269D01*
X117988282Y-61015270D01*
X118042452Y-61054626D01*
X118042451Y-61054626D01*
X118051495Y-61059234D01*
X118102292Y-61107208D01*
X118119087Y-61175029D01*
X118096550Y-61241164D01*
X118051499Y-61280202D01*
X118042182Y-61284949D01*
X117870213Y-61409890D01*
X117719890Y-61560213D01*
X117594951Y-61732179D01*
X117498444Y-61921585D01*
X117432753Y-62123760D01*
X117399500Y-62333713D01*
X117399500Y-62410192D01*
X117379815Y-62477231D01*
X117327011Y-62522986D01*
X117257853Y-62532930D01*
X117194297Y-62503905D01*
X117187819Y-62497873D01*
X116436819Y-61746873D01*
X116403334Y-61685550D01*
X116400500Y-61659192D01*
X116400500Y-57820808D01*
X116420185Y-57753769D01*
X116436819Y-57733127D01*
X128123127Y-46046819D01*
X128184450Y-46013334D01*
X128210808Y-46010500D01*
X129521929Y-46010500D01*
X129588968Y-46030185D01*
G37*
%TD.AperFunction*%
%TA.AperFunction,Conductor*%
G36*
X147678888Y-36520185D02*
G01*
X147724643Y-36572989D01*
X147734587Y-36642147D01*
X147705562Y-36705703D01*
X147684734Y-36724818D01*
X147652786Y-36748028D01*
X147508028Y-36892786D01*
X147387715Y-37058386D01*
X147294781Y-37240776D01*
X147231522Y-37435465D01*
X147199500Y-37637648D01*
X147199500Y-37842351D01*
X147231522Y-38044534D01*
X147294781Y-38239223D01*
X147340941Y-38329815D01*
X147386554Y-38419336D01*
X147387715Y-38421613D01*
X147508028Y-38587213D01*
X147652786Y-38731971D01*
X147767978Y-38815661D01*
X147818390Y-38852287D01*
X147903139Y-38895469D01*
X147911080Y-38899515D01*
X147961876Y-38947490D01*
X147978671Y-39015311D01*
X147956134Y-39081446D01*
X147911080Y-39120485D01*
X147818386Y-39167715D01*
X147652786Y-39288028D01*
X147508028Y-39432786D01*
X147387715Y-39598386D01*
X147294781Y-39780776D01*
X147231522Y-39975465D01*
X147199500Y-40177648D01*
X147199500Y-40382351D01*
X147231522Y-40584534D01*
X147294781Y-40779223D01*
X147387715Y-40961613D01*
X147508028Y-41127213D01*
X147652782Y-41271967D01*
X147652787Y-41271971D01*
X147729583Y-41327767D01*
X147772249Y-41383097D01*
X147778228Y-41452710D01*
X147745622Y-41514505D01*
X147687365Y-41548233D01*
X147666973Y-41553437D01*
X147666962Y-41553441D01*
X147610415Y-41576863D01*
X148370589Y-42337037D01*
X148307007Y-42354075D01*
X148192993Y-42419901D01*
X148099901Y-42512993D01*
X148034075Y-42627007D01*
X148017037Y-42690589D01*
X147256863Y-41930415D01*
X147256862Y-41930415D01*
X147233446Y-41986947D01*
X147233431Y-41986987D01*
X147215457Y-42037939D01*
X147215455Y-42037946D01*
X147195000Y-42180219D01*
X147195000Y-43459785D01*
X147197893Y-43513762D01*
X147197893Y-43513764D01*
X147233438Y-43653030D01*
X147233442Y-43653043D01*
X147256862Y-43709584D01*
X148017037Y-42949410D01*
X148034075Y-43012993D01*
X148099901Y-43127007D01*
X148192993Y-43220099D01*
X148307007Y-43285925D01*
X148370589Y-43302962D01*
X147610414Y-44063135D01*
X147666960Y-44086557D01*
X147666986Y-44086567D01*
X147695621Y-44096669D01*
X147752294Y-44137534D01*
X147777876Y-44202552D01*
X147764246Y-44271080D01*
X147727256Y-44313924D01*
X147652782Y-44368032D01*
X147508028Y-44512786D01*
X147387715Y-44678386D01*
X147294781Y-44860776D01*
X147231522Y-45055465D01*
X147199500Y-45257648D01*
X147199500Y-45462351D01*
X147231522Y-45664534D01*
X147294781Y-45859223D01*
X147387715Y-46041613D01*
X147508028Y-46207213D01*
X147652786Y-46351971D01*
X147807749Y-46464556D01*
X147818390Y-46472287D01*
X147909840Y-46518883D01*
X147911080Y-46519515D01*
X147961876Y-46567490D01*
X147978671Y-46635311D01*
X147956134Y-46701446D01*
X147911080Y-46740485D01*
X147818386Y-46787715D01*
X147652786Y-46908028D01*
X147508028Y-47052786D01*
X147387715Y-47218386D01*
X147294781Y-47400776D01*
X147231522Y-47595465D01*
X147199500Y-47797648D01*
X147199500Y-48002351D01*
X147231522Y-48204534D01*
X147294781Y-48399223D01*
X147387715Y-48581613D01*
X147508028Y-48747213D01*
X147652786Y-48891971D01*
X147768270Y-48975873D01*
X147818390Y-49012287D01*
X147881647Y-49044518D01*
X147911080Y-49059515D01*
X147961876Y-49107490D01*
X147978671Y-49175311D01*
X147956134Y-49241446D01*
X147911080Y-49280485D01*
X147818386Y-49327715D01*
X147652786Y-49448028D01*
X147508028Y-49592786D01*
X147387715Y-49758386D01*
X147294781Y-49940776D01*
X147231522Y-50135465D01*
X147199500Y-50337648D01*
X147199500Y-50542351D01*
X147231522Y-50744534D01*
X147294781Y-50939223D01*
X147343515Y-51034867D01*
X147371124Y-51089053D01*
X147387715Y-51121613D01*
X147508028Y-51287213D01*
X147652786Y-51431971D01*
X147753684Y-51505276D01*
X147818390Y-51552287D01*
X147909840Y-51598883D01*
X147911080Y-51599515D01*
X147961876Y-51647490D01*
X147978671Y-51715311D01*
X147956134Y-51781446D01*
X147911080Y-51820485D01*
X147818386Y-51867715D01*
X147652786Y-51988028D01*
X147508028Y-52132786D01*
X147387715Y-52298386D01*
X147294781Y-52480776D01*
X147231522Y-52675465D01*
X147199500Y-52877648D01*
X147199500Y-53082351D01*
X147231522Y-53284534D01*
X147294781Y-53479223D01*
X147387715Y-53661613D01*
X147508028Y-53827213D01*
X147652782Y-53971967D01*
X147652787Y-53971971D01*
X147729583Y-54027767D01*
X147772249Y-54083097D01*
X147778228Y-54152710D01*
X147745622Y-54214505D01*
X147687365Y-54248233D01*
X147666973Y-54253437D01*
X147666962Y-54253441D01*
X147610415Y-54276863D01*
X148370589Y-55037037D01*
X148307007Y-55054075D01*
X148192993Y-55119901D01*
X148099901Y-55212993D01*
X148034075Y-55327007D01*
X148017037Y-55390589D01*
X147256863Y-54630415D01*
X147256862Y-54630415D01*
X147233446Y-54686947D01*
X147233431Y-54686987D01*
X147215457Y-54737939D01*
X147215455Y-54737946D01*
X147195000Y-54880219D01*
X147195000Y-56078167D01*
X147175315Y-56145206D01*
X147122511Y-56190961D01*
X147071000Y-56202167D01*
X134426718Y-56202167D01*
X134273991Y-56243090D01*
X134273984Y-56243093D01*
X134137065Y-56322142D01*
X134137061Y-56322145D01*
X134025254Y-56433951D01*
X134025252Y-56433953D01*
X134017624Y-56447166D01*
X133997920Y-56472843D01*
X132232181Y-58238583D01*
X132170858Y-58272068D01*
X132101166Y-58267084D01*
X132045233Y-58225212D01*
X132020816Y-58159748D01*
X132020500Y-58150902D01*
X132020500Y-57957648D01*
X131988477Y-57755465D01*
X131925218Y-57560776D01*
X131891503Y-57494607D01*
X131832287Y-57378390D01*
X131782789Y-57310261D01*
X131711971Y-57212786D01*
X131567217Y-57068032D01*
X131490415Y-57012232D01*
X131447750Y-56956902D01*
X131441771Y-56887288D01*
X131474377Y-56825494D01*
X131532640Y-56791765D01*
X131553039Y-56786559D01*
X131609584Y-56763136D01*
X131609584Y-56763135D01*
X130849410Y-56002962D01*
X130912993Y-55985925D01*
X131027007Y-55920099D01*
X131120099Y-55827007D01*
X131185925Y-55712993D01*
X131202962Y-55649411D01*
X131963135Y-56409584D01*
X131963136Y-56409584D01*
X131986552Y-56353053D01*
X132004544Y-56302053D01*
X132024999Y-56159780D01*
X132025000Y-56159779D01*
X132025000Y-54880214D01*
X132022106Y-54826237D01*
X132022106Y-54826235D01*
X131986561Y-54686969D01*
X131986559Y-54686962D01*
X131963135Y-54630414D01*
X131202962Y-55390588D01*
X131185925Y-55327007D01*
X131120099Y-55212993D01*
X131027007Y-55119901D01*
X130912993Y-55054075D01*
X130849409Y-55037037D01*
X131609584Y-54276862D01*
X131553059Y-54253449D01*
X131553048Y-54253445D01*
X131524374Y-54243329D01*
X131467703Y-54202462D01*
X131442122Y-54137443D01*
X131455754Y-54068916D01*
X131492745Y-54026074D01*
X131567215Y-53971969D01*
X131567215Y-53971968D01*
X131567219Y-53971966D01*
X131711966Y-53827219D01*
X131711968Y-53827215D01*
X131711971Y-53827213D01*
X131764732Y-53754590D01*
X131832287Y-53661610D01*
X131925220Y-53479219D01*
X131988477Y-53284534D01*
X132020500Y-53082352D01*
X132020500Y-52877648D01*
X131988477Y-52675466D01*
X131987513Y-52672500D01*
X131959127Y-52585137D01*
X131925220Y-52480781D01*
X131925218Y-52480778D01*
X131925218Y-52480776D01*
X131846694Y-52326666D01*
X131832287Y-52298390D01*
X131813829Y-52272984D01*
X131711971Y-52132786D01*
X131567213Y-51988028D01*
X131401614Y-51867715D01*
X131395006Y-51864348D01*
X131308917Y-51820483D01*
X131258123Y-51772511D01*
X131241328Y-51704690D01*
X131263865Y-51638555D01*
X131308917Y-51599516D01*
X131401610Y-51552287D01*
X131466316Y-51505276D01*
X131567213Y-51431971D01*
X131567215Y-51431968D01*
X131567219Y-51431966D01*
X131711966Y-51287219D01*
X131711968Y-51287215D01*
X131711971Y-51287213D01*
X131766314Y-51212415D01*
X131832287Y-51121610D01*
X131925220Y-50939219D01*
X131988477Y-50744534D01*
X132020500Y-50542352D01*
X132020500Y-50337648D01*
X132003556Y-50230671D01*
X131988477Y-50135465D01*
X131946188Y-50005313D01*
X131925220Y-49940781D01*
X131925218Y-49940778D01*
X131925218Y-49940776D01*
X131878681Y-49849444D01*
X131832287Y-49758390D01*
X131790227Y-49700499D01*
X131711971Y-49592786D01*
X131567213Y-49448028D01*
X131401614Y-49327715D01*
X131391357Y-49322489D01*
X131308917Y-49280483D01*
X131258123Y-49232511D01*
X131241328Y-49164690D01*
X131263865Y-49098555D01*
X131308917Y-49059516D01*
X131401610Y-49012287D01*
X131451730Y-48975873D01*
X131567213Y-48891971D01*
X131567215Y-48891968D01*
X131567219Y-48891966D01*
X131711966Y-48747219D01*
X131711968Y-48747215D01*
X131711971Y-48747213D01*
X131782236Y-48650500D01*
X131832287Y-48581610D01*
X131925220Y-48399219D01*
X131988477Y-48204534D01*
X132020500Y-48002352D01*
X132020500Y-47797648D01*
X131988477Y-47595466D01*
X131983888Y-47581344D01*
X131949335Y-47474999D01*
X131925220Y-47400781D01*
X131925218Y-47400778D01*
X131925218Y-47400776D01*
X131878965Y-47310001D01*
X131832287Y-47218390D01*
X131780177Y-47146666D01*
X131711971Y-47052786D01*
X131567213Y-46908028D01*
X131401614Y-46787715D01*
X131351116Y-46761985D01*
X131308917Y-46740483D01*
X131258123Y-46692511D01*
X131241328Y-46624690D01*
X131263865Y-46558555D01*
X131308917Y-46519516D01*
X131401610Y-46472287D01*
X131422770Y-46456913D01*
X131567213Y-46351971D01*
X131567215Y-46351968D01*
X131567219Y-46351966D01*
X131711966Y-46207219D01*
X131711968Y-46207215D01*
X131711971Y-46207213D01*
X131764732Y-46134590D01*
X131832287Y-46041610D01*
X131925220Y-45859219D01*
X131988477Y-45664534D01*
X132020500Y-45462352D01*
X132020500Y-45257648D01*
X132013392Y-45212770D01*
X131988477Y-45055465D01*
X131949498Y-44935501D01*
X131925220Y-44860781D01*
X131925218Y-44860778D01*
X131925218Y-44860776D01*
X131885861Y-44783534D01*
X131832287Y-44678390D01*
X131780983Y-44607775D01*
X131711971Y-44512786D01*
X131567217Y-44368032D01*
X131490415Y-44312232D01*
X131447750Y-44256902D01*
X131441771Y-44187288D01*
X131474377Y-44125494D01*
X131532640Y-44091765D01*
X131553039Y-44086559D01*
X131609584Y-44063136D01*
X131609584Y-44063135D01*
X130849410Y-43302962D01*
X130912993Y-43285925D01*
X131027007Y-43220099D01*
X131120099Y-43127007D01*
X131185925Y-43012993D01*
X131202962Y-42949411D01*
X131963135Y-43709584D01*
X131963136Y-43709584D01*
X131986552Y-43653053D01*
X132004544Y-43602053D01*
X132024999Y-43459780D01*
X132025000Y-43459779D01*
X132025000Y-42180224D01*
X132024999Y-42180204D01*
X132022106Y-42126237D01*
X132022106Y-42126235D01*
X131986561Y-41986969D01*
X131986559Y-41986962D01*
X131963135Y-41930414D01*
X131202962Y-42690588D01*
X131185925Y-42627007D01*
X131120099Y-42512993D01*
X131027007Y-42419901D01*
X130912993Y-42354075D01*
X130849409Y-42337037D01*
X131609584Y-41576862D01*
X131553059Y-41553449D01*
X131553048Y-41553445D01*
X131524374Y-41543329D01*
X131467703Y-41502462D01*
X131442122Y-41437443D01*
X131455754Y-41368916D01*
X131492745Y-41326074D01*
X131567215Y-41271969D01*
X131567215Y-41271968D01*
X131567219Y-41271966D01*
X131711966Y-41127219D01*
X131711968Y-41127215D01*
X131711971Y-41127213D01*
X131790172Y-41019577D01*
X131832287Y-40961610D01*
X131925220Y-40779219D01*
X131988477Y-40584534D01*
X132020500Y-40382352D01*
X132020500Y-40177648D01*
X131988477Y-39975466D01*
X131925220Y-39780781D01*
X131925218Y-39780778D01*
X131925218Y-39780776D01*
X131858838Y-39650500D01*
X131832287Y-39598390D01*
X131824556Y-39587749D01*
X131711971Y-39432786D01*
X131567217Y-39288032D01*
X131567212Y-39288028D01*
X131486440Y-39229344D01*
X131443774Y-39174015D01*
X131437795Y-39104401D01*
X131470400Y-39042606D01*
X131522433Y-39010641D01*
X131609606Y-38983478D01*
X131755185Y-38895472D01*
X131875472Y-38775185D01*
X131963478Y-38629606D01*
X132014086Y-38467196D01*
X132020500Y-38396616D01*
X132020500Y-37083384D01*
X132014086Y-37012804D01*
X131963478Y-36850394D01*
X131875472Y-36704815D01*
X131875469Y-36704810D01*
X131872460Y-36700970D01*
X131846613Y-36636057D01*
X131859963Y-36567475D01*
X131908273Y-36516998D01*
X131970073Y-36500500D01*
X147611849Y-36500500D01*
X147678888Y-36520185D01*
G37*
%TD.AperFunction*%
%TA.AperFunction,Conductor*%
G36*
X154305394Y-50952664D02*
G01*
X154318833Y-50953626D01*
X154336557Y-50966894D01*
X154356697Y-50976091D01*
X154363981Y-50987424D01*
X154374766Y-50995498D01*
X154382503Y-51016241D01*
X154394474Y-51034867D01*
X154397626Y-51056789D01*
X154399183Y-51060962D01*
X154399499Y-51069802D01*
X154399500Y-51089053D01*
X154399500Y-55112403D01*
X154379815Y-55179442D01*
X154363181Y-55200084D01*
X153397417Y-56165848D01*
X153336094Y-56199333D01*
X153309736Y-56202167D01*
X149815539Y-56202167D01*
X149748500Y-56182482D01*
X149702745Y-56129678D01*
X149692801Y-56060520D01*
X149700978Y-56030714D01*
X149735814Y-55946612D01*
X149764555Y-55851864D01*
X149795298Y-55697302D01*
X149795298Y-55697299D01*
X149805000Y-55598789D01*
X149805000Y-55441210D01*
X149795298Y-55342700D01*
X149795298Y-55342697D01*
X149764555Y-55188135D01*
X149735814Y-55093387D01*
X149675509Y-54947801D01*
X149628844Y-54860498D01*
X149628838Y-54860488D01*
X149582465Y-54791085D01*
X148982961Y-55390588D01*
X148965925Y-55327007D01*
X148900099Y-55212993D01*
X148807007Y-55119901D01*
X148692993Y-55054075D01*
X148629410Y-55037037D01*
X149228912Y-54437534D01*
X149159511Y-54391161D01*
X149159500Y-54391155D01*
X149093545Y-54355900D01*
X149043701Y-54306937D01*
X149028241Y-54238799D01*
X149052073Y-54173119D01*
X149095702Y-54136059D01*
X149181610Y-54092287D01*
X149272745Y-54026074D01*
X149347213Y-53971971D01*
X149347215Y-53971968D01*
X149347219Y-53971966D01*
X149491966Y-53827219D01*
X149597753Y-53681613D01*
X149653082Y-53638949D01*
X149698071Y-53630500D01*
X151334071Y-53630500D01*
X151418615Y-53613682D01*
X151459744Y-53605501D01*
X151578127Y-53556465D01*
X151684669Y-53485277D01*
X154187818Y-50982126D01*
X154207248Y-50971516D01*
X154223982Y-50957016D01*
X154237317Y-50955097D01*
X154249141Y-50948642D01*
X154271223Y-50950221D01*
X154293140Y-50947069D01*
X154305394Y-50952664D01*
G37*
%TD.AperFunction*%
%TA.AperFunction,Conductor*%
G36*
X165443039Y-39019685D02*
G01*
X165488794Y-39072489D01*
X165500000Y-39124000D01*
X165500000Y-40200000D01*
X165543303Y-40200000D01*
X165543315Y-40199999D01*
X165645173Y-40189592D01*
X165810209Y-40134905D01*
X165810214Y-40134903D01*
X165958191Y-40043629D01*
X166037819Y-39964002D01*
X166099142Y-39930517D01*
X166168834Y-39935501D01*
X166224767Y-39977373D01*
X166249184Y-40042837D01*
X166249500Y-40051683D01*
X166249500Y-42948317D01*
X166229815Y-43015356D01*
X166177011Y-43061111D01*
X166107853Y-43071055D01*
X166044297Y-43042030D01*
X166037819Y-43035998D01*
X165958191Y-42956370D01*
X165810214Y-42865096D01*
X165810209Y-42865094D01*
X165645173Y-42810407D01*
X165543315Y-42800000D01*
X165500000Y-42800000D01*
X165500000Y-45200000D01*
X165543303Y-45200000D01*
X165543315Y-45199999D01*
X165645173Y-45189592D01*
X165810209Y-45134905D01*
X165810214Y-45134903D01*
X165958191Y-45043629D01*
X166037819Y-44964002D01*
X166099142Y-44930517D01*
X166168834Y-44935501D01*
X166224767Y-44977373D01*
X166249184Y-45042837D01*
X166249500Y-45051683D01*
X166249500Y-47175500D01*
X166229815Y-47242539D01*
X166177011Y-47288294D01*
X166125504Y-47299500D01*
X166100000Y-47299500D01*
X166099980Y-47299501D01*
X165997203Y-47310000D01*
X165997200Y-47310001D01*
X165830668Y-47365185D01*
X165830663Y-47365187D01*
X165681342Y-47457289D01*
X165587681Y-47550951D01*
X165526358Y-47584436D01*
X165456666Y-47579452D01*
X165412319Y-47550951D01*
X165318657Y-47457289D01*
X165318656Y-47457288D01*
X165169334Y-47365186D01*
X165002797Y-47310001D01*
X165002795Y-47310000D01*
X164900010Y-47299500D01*
X164274998Y-47299500D01*
X164274980Y-47299501D01*
X164172203Y-47310000D01*
X164172200Y-47310001D01*
X164005668Y-47365185D01*
X164005663Y-47365187D01*
X163856342Y-47457289D01*
X163732289Y-47581342D01*
X163640187Y-47730663D01*
X163640185Y-47730668D01*
X163612405Y-47814504D01*
X163598534Y-47834536D01*
X163588412Y-47856703D01*
X163578999Y-47862751D01*
X163572632Y-47871949D01*
X163550133Y-47881302D01*
X163529634Y-47894477D01*
X163512532Y-47896935D01*
X163508116Y-47898772D01*
X163494699Y-47899500D01*
X163300098Y-47899500D01*
X163233059Y-47879815D01*
X163212417Y-47863181D01*
X162487590Y-47138355D01*
X162487588Y-47138352D01*
X162368717Y-47019481D01*
X162368716Y-47019480D01*
X162281904Y-46969360D01*
X162281904Y-46969359D01*
X162281900Y-46969358D01*
X162231785Y-46940423D01*
X162079057Y-46899499D01*
X161920943Y-46899499D01*
X161913347Y-46899499D01*
X161913331Y-46899500D01*
X158474197Y-46899500D01*
X158446153Y-46891265D01*
X158417452Y-46885754D01*
X158413023Y-46881537D01*
X158407158Y-46879815D01*
X158388025Y-46857734D01*
X158366852Y-46837574D01*
X158365405Y-46831630D01*
X158361403Y-46827011D01*
X158357244Y-46798089D01*
X158350333Y-46769685D01*
X158352053Y-46761985D01*
X158351459Y-46757853D01*
X158356989Y-46735024D01*
X158358210Y-46731486D01*
X158375501Y-46689744D01*
X158377754Y-46678416D01*
X158400500Y-46564069D01*
X158400500Y-45259590D01*
X158420185Y-45192551D01*
X158472989Y-45146796D01*
X158485485Y-45141887D01*
X158506834Y-45134814D01*
X158656156Y-45042712D01*
X158749819Y-44949049D01*
X158811142Y-44915564D01*
X158880834Y-44920548D01*
X158925181Y-44949049D01*
X159018844Y-45042712D01*
X159168166Y-45134814D01*
X159334703Y-45189999D01*
X159437491Y-45200500D01*
X160062508Y-45200499D01*
X160062516Y-45200498D01*
X160062519Y-45200498D01*
X160140314Y-45192551D01*
X160165297Y-45189999D01*
X160331834Y-45134814D01*
X160481156Y-45042712D01*
X160605212Y-44918656D01*
X160697314Y-44769334D01*
X160708528Y-44735494D01*
X160748301Y-44678050D01*
X160812817Y-44651228D01*
X160826233Y-44650500D01*
X162322030Y-44650500D01*
X162389069Y-44670185D01*
X162434824Y-44722989D01*
X162439736Y-44735497D01*
X162452136Y-44772920D01*
X162452142Y-44772933D01*
X162543471Y-44920999D01*
X162543474Y-44921003D01*
X162666496Y-45044025D01*
X162666500Y-45044028D01*
X162814566Y-45135357D01*
X162814569Y-45135358D01*
X162814575Y-45135362D01*
X162979725Y-45190087D01*
X163081652Y-45200500D01*
X163081657Y-45200500D01*
X163668343Y-45200500D01*
X163668348Y-45200500D01*
X163770275Y-45190087D01*
X163935425Y-45135362D01*
X164083503Y-45044026D01*
X164206526Y-44921003D01*
X164207255Y-44919821D01*
X164207966Y-44919181D01*
X164211007Y-44915336D01*
X164211663Y-44915855D01*
X164259201Y-44873097D01*
X164328164Y-44861873D01*
X164392246Y-44889715D01*
X164414261Y-44915123D01*
X164414388Y-44915023D01*
X164416613Y-44917838D01*
X164418333Y-44919822D01*
X164418865Y-44920685D01*
X164418869Y-44920690D01*
X164541808Y-45043629D01*
X164689785Y-45134903D01*
X164689790Y-45134905D01*
X164854826Y-45189592D01*
X164956684Y-45199999D01*
X164956697Y-45200000D01*
X165000000Y-45200000D01*
X165000000Y-42800000D01*
X164956684Y-42800000D01*
X164854826Y-42810407D01*
X164689790Y-42865094D01*
X164689785Y-42865096D01*
X164541808Y-42956370D01*
X164418869Y-43079309D01*
X164418864Y-43079315D01*
X164418329Y-43080184D01*
X164417806Y-43080654D01*
X164414388Y-43084977D01*
X164413649Y-43084392D01*
X164366379Y-43126906D01*
X164297416Y-43138125D01*
X164233335Y-43110278D01*
X164211086Y-43084601D01*
X164211007Y-43084664D01*
X164209611Y-43082898D01*
X164207258Y-43080183D01*
X164206528Y-43078999D01*
X164083503Y-42955974D01*
X164083499Y-42955971D01*
X163935433Y-42864642D01*
X163935427Y-42864639D01*
X163935425Y-42864638D01*
X163935422Y-42864637D01*
X163770276Y-42809913D01*
X163668355Y-42799500D01*
X163668348Y-42799500D01*
X163081652Y-42799500D01*
X163081644Y-42799500D01*
X162979723Y-42809913D01*
X162814577Y-42864637D01*
X162814566Y-42864642D01*
X162666500Y-42955971D01*
X162666496Y-42955974D01*
X162543474Y-43078996D01*
X162543471Y-43079000D01*
X162452142Y-43227066D01*
X162452136Y-43227079D01*
X162439736Y-43264503D01*
X162399964Y-43321948D01*
X162335448Y-43348772D01*
X162322030Y-43349500D01*
X160826233Y-43349500D01*
X160759194Y-43329815D01*
X160713439Y-43277011D01*
X160708528Y-43264506D01*
X160702598Y-43246612D01*
X160697314Y-43230666D01*
X160605212Y-43081344D01*
X160481156Y-42957288D01*
X160331834Y-42865186D01*
X160165297Y-42810001D01*
X160165295Y-42810000D01*
X160062510Y-42799500D01*
X159437498Y-42799500D01*
X159437480Y-42799501D01*
X159334703Y-42810000D01*
X159334700Y-42810001D01*
X159168168Y-42865185D01*
X159168163Y-42865187D01*
X159018842Y-42957289D01*
X158925181Y-43050951D01*
X158863858Y-43084436D01*
X158794166Y-43079452D01*
X158749819Y-43050951D01*
X158656157Y-42957289D01*
X158656156Y-42957288D01*
X158506834Y-42865186D01*
X158340297Y-42810001D01*
X158340295Y-42810000D01*
X158237510Y-42799500D01*
X157612498Y-42799500D01*
X157612480Y-42799501D01*
X157509703Y-42810000D01*
X157509700Y-42810001D01*
X157343168Y-42865185D01*
X157343163Y-42865187D01*
X157193842Y-42957289D01*
X157069789Y-43081342D01*
X156977687Y-43230663D01*
X156977685Y-43230668D01*
X156962583Y-43276243D01*
X156922501Y-43397203D01*
X156922501Y-43397204D01*
X156922500Y-43397204D01*
X156912000Y-43499983D01*
X156912000Y-44500001D01*
X156912001Y-44500019D01*
X156922500Y-44602796D01*
X156922501Y-44602799D01*
X156977685Y-44769331D01*
X156977687Y-44769336D01*
X156986448Y-44783540D01*
X157069788Y-44918656D01*
X157069789Y-44918657D01*
X157069790Y-44918658D01*
X157072766Y-44922422D01*
X157098907Y-44987217D01*
X157099500Y-44999333D01*
X157099500Y-46179192D01*
X157079815Y-46246231D01*
X157063181Y-46266873D01*
X151036873Y-52293181D01*
X150975550Y-52326666D01*
X150949192Y-52329500D01*
X149698071Y-52329500D01*
X149631032Y-52309815D01*
X149597754Y-52278386D01*
X149491966Y-52132781D01*
X149347219Y-51988034D01*
X149347213Y-51988028D01*
X149181614Y-51867715D01*
X149175006Y-51864348D01*
X149088917Y-51820483D01*
X149038123Y-51772511D01*
X149021328Y-51704690D01*
X149043865Y-51638555D01*
X149088917Y-51599516D01*
X149181610Y-51552287D01*
X149246316Y-51505276D01*
X149347213Y-51431971D01*
X149347215Y-51431968D01*
X149347219Y-51431966D01*
X149491966Y-51287219D01*
X149491968Y-51287215D01*
X149491971Y-51287213D01*
X149546314Y-51212415D01*
X149612287Y-51121610D01*
X149705220Y-50939219D01*
X149768477Y-50744534D01*
X149800500Y-50542352D01*
X149800500Y-50337648D01*
X149783556Y-50230671D01*
X149768477Y-50135465D01*
X149726188Y-50005313D01*
X149705220Y-49940781D01*
X149705218Y-49940778D01*
X149705218Y-49940776D01*
X149658681Y-49849444D01*
X149612287Y-49758390D01*
X149570227Y-49700499D01*
X149491971Y-49592786D01*
X149347213Y-49448028D01*
X149181614Y-49327715D01*
X149171357Y-49322489D01*
X149088917Y-49280483D01*
X149038123Y-49232511D01*
X149021328Y-49164690D01*
X149043865Y-49098555D01*
X149088917Y-49059516D01*
X149181610Y-49012287D01*
X149231730Y-48975873D01*
X149347213Y-48891971D01*
X149347215Y-48891968D01*
X149347219Y-48891966D01*
X149491966Y-48747219D01*
X149494650Y-48743524D01*
X149525100Y-48701615D01*
X149580429Y-48658949D01*
X149625418Y-48650500D01*
X151223920Y-48650500D01*
X151321462Y-48631096D01*
X151368913Y-48621658D01*
X151505495Y-48565084D01*
X151554729Y-48532186D01*
X151628416Y-48482952D01*
X152599548Y-47511817D01*
X152660871Y-47478333D01*
X152687229Y-47475499D01*
X153100002Y-47475499D01*
X153100008Y-47475499D01*
X153202797Y-47464999D01*
X153369334Y-47409814D01*
X153518656Y-47317712D01*
X153642712Y-47193656D01*
X153644752Y-47190347D01*
X153646745Y-47188555D01*
X153647193Y-47187989D01*
X153647289Y-47188065D01*
X153696694Y-47143623D01*
X153765656Y-47132395D01*
X153829740Y-47160234D01*
X153855829Y-47190339D01*
X153857681Y-47193341D01*
X153857683Y-47193344D01*
X153981654Y-47317315D01*
X154130875Y-47409356D01*
X154130880Y-47409358D01*
X154297302Y-47464505D01*
X154297309Y-47464506D01*
X154400019Y-47474999D01*
X154950000Y-47474999D01*
X154999972Y-47474999D01*
X154999986Y-47474998D01*
X155102697Y-47464505D01*
X155269119Y-47409358D01*
X155269124Y-47409356D01*
X155418345Y-47317315D01*
X155542315Y-47193345D01*
X155634356Y-47044124D01*
X155634358Y-47044119D01*
X155689505Y-46877697D01*
X155689506Y-46877690D01*
X155699999Y-46774986D01*
X155700000Y-46774973D01*
X155700000Y-46500000D01*
X154950000Y-46500000D01*
X154950000Y-47474999D01*
X154400019Y-47474999D01*
X154449999Y-47474998D01*
X154450000Y-47474998D01*
X154450000Y-46000000D01*
X154950000Y-46000000D01*
X155699999Y-46000000D01*
X155699999Y-45725028D01*
X155699998Y-45725013D01*
X155689505Y-45622302D01*
X155634358Y-45455880D01*
X155634356Y-45455875D01*
X155542315Y-45306654D01*
X155418345Y-45182684D01*
X155269124Y-45090643D01*
X155269119Y-45090641D01*
X155102697Y-45035494D01*
X155102690Y-45035493D01*
X154999986Y-45025000D01*
X154950000Y-45025000D01*
X154950000Y-46000000D01*
X154450000Y-46000000D01*
X154450000Y-45025000D01*
X154449999Y-45024999D01*
X154400029Y-45025000D01*
X154400011Y-45025001D01*
X154297302Y-45035494D01*
X154130880Y-45090641D01*
X154130875Y-45090643D01*
X153981654Y-45182684D01*
X153857683Y-45306655D01*
X153857679Y-45306660D01*
X153855826Y-45309665D01*
X153854018Y-45311290D01*
X153853202Y-45312323D01*
X153853025Y-45312183D01*
X153833924Y-45329360D01*
X153813923Y-45350989D01*
X153808238Y-45352460D01*
X153803874Y-45356385D01*
X153774802Y-45361113D01*
X153746282Y-45368494D01*
X153740705Y-45366658D01*
X153734911Y-45367601D01*
X153707896Y-45355860D01*
X153679914Y-45346651D01*
X153675135Y-45341622D01*
X153670831Y-45339752D01*
X153654002Y-45322688D01*
X153648960Y-45316474D01*
X153642712Y-45306344D01*
X153632261Y-45295893D01*
X153628209Y-45290899D01*
X153617112Y-45264362D01*
X153603334Y-45239128D01*
X153602216Y-45228737D01*
X153601255Y-45226437D01*
X153601699Y-45223925D01*
X153600500Y-45212770D01*
X153600500Y-44212228D01*
X153620185Y-44145189D01*
X153636814Y-44124552D01*
X157574548Y-40186817D01*
X157635871Y-40153333D01*
X157662229Y-40150499D01*
X158062502Y-40150499D01*
X158062508Y-40150499D01*
X158165297Y-40139999D01*
X158331834Y-40084814D01*
X158481156Y-39992712D01*
X158574819Y-39899049D01*
X158636142Y-39865564D01*
X158705834Y-39870548D01*
X158750181Y-39899049D01*
X158843844Y-39992712D01*
X158993166Y-40084814D01*
X159159703Y-40139999D01*
X159262491Y-40150500D01*
X159887508Y-40150499D01*
X159887516Y-40150498D01*
X159887519Y-40150498D01*
X159943802Y-40144748D01*
X159990297Y-40139999D01*
X160156834Y-40084814D01*
X160306156Y-39992712D01*
X160430212Y-39868656D01*
X160522314Y-39719334D01*
X160522314Y-39719332D01*
X160526105Y-39713187D01*
X160527899Y-39714293D01*
X160567187Y-39669663D01*
X160633408Y-39650500D01*
X162322030Y-39650500D01*
X162389069Y-39670185D01*
X162434824Y-39722989D01*
X162439736Y-39735497D01*
X162452136Y-39772920D01*
X162452142Y-39772933D01*
X162543471Y-39920999D01*
X162543474Y-39921003D01*
X162666496Y-40044025D01*
X162666500Y-40044028D01*
X162814566Y-40135357D01*
X162814569Y-40135358D01*
X162814575Y-40135362D01*
X162979725Y-40190087D01*
X163081652Y-40200500D01*
X163081657Y-40200500D01*
X163668343Y-40200500D01*
X163668348Y-40200500D01*
X163770275Y-40190087D01*
X163935425Y-40135362D01*
X164083503Y-40044026D01*
X164206526Y-39921003D01*
X164207255Y-39919821D01*
X164207966Y-39919181D01*
X164211007Y-39915336D01*
X164211663Y-39915855D01*
X164259201Y-39873097D01*
X164328164Y-39861873D01*
X164392246Y-39889715D01*
X164414261Y-39915123D01*
X164414388Y-39915023D01*
X164416613Y-39917838D01*
X164418333Y-39919822D01*
X164418865Y-39920685D01*
X164418869Y-39920690D01*
X164541808Y-40043629D01*
X164689785Y-40134903D01*
X164689790Y-40134905D01*
X164854826Y-40189592D01*
X164956684Y-40199999D01*
X164956697Y-40200000D01*
X165000000Y-40200000D01*
X165000000Y-39124000D01*
X165019685Y-39056961D01*
X165072489Y-39011206D01*
X165124000Y-39000000D01*
X165376000Y-39000000D01*
X165443039Y-39019685D01*
G37*
%TD.AperFunction*%
%TA.AperFunction,Conductor*%
G36*
X156943309Y-37770185D02*
G01*
X156989064Y-37822989D01*
X156999008Y-37892147D01*
X156969983Y-37955703D01*
X156963951Y-37962181D01*
X156894789Y-38031342D01*
X156802687Y-38180663D01*
X156802685Y-38180668D01*
X156787306Y-38227079D01*
X156747501Y-38347203D01*
X156747501Y-38347204D01*
X156747500Y-38347204D01*
X156737000Y-38449983D01*
X156737000Y-38850269D01*
X156717315Y-38917308D01*
X156700681Y-38937950D01*
X152267050Y-43371580D01*
X152267044Y-43371588D01*
X152217812Y-43445268D01*
X152217813Y-43445269D01*
X152184921Y-43494496D01*
X152184914Y-43494508D01*
X152128342Y-43631086D01*
X152128340Y-43631092D01*
X152099500Y-43776079D01*
X152099500Y-45112769D01*
X152079815Y-45179808D01*
X152063182Y-45200450D01*
X151957287Y-45306345D01*
X151865187Y-45455663D01*
X151865185Y-45455668D01*
X151862970Y-45462352D01*
X151810001Y-45622203D01*
X151810001Y-45622204D01*
X151810000Y-45622204D01*
X151799500Y-45724983D01*
X151799500Y-46137770D01*
X151779815Y-46204809D01*
X151763181Y-46225451D01*
X150875451Y-47113181D01*
X150814128Y-47146666D01*
X150787770Y-47149500D01*
X149625418Y-47149500D01*
X149558379Y-47129815D01*
X149525100Y-47098385D01*
X149491971Y-47052787D01*
X149491967Y-47052782D01*
X149347213Y-46908028D01*
X149181614Y-46787715D01*
X149131116Y-46761985D01*
X149088917Y-46740483D01*
X149038123Y-46692511D01*
X149021328Y-46624690D01*
X149043865Y-46558555D01*
X149088917Y-46519516D01*
X149181610Y-46472287D01*
X149202770Y-46456913D01*
X149347213Y-46351971D01*
X149347215Y-46351968D01*
X149347219Y-46351966D01*
X149491966Y-46207219D01*
X149491968Y-46207215D01*
X149491971Y-46207213D01*
X149544732Y-46134590D01*
X149612287Y-46041610D01*
X149705220Y-45859219D01*
X149768477Y-45664534D01*
X149800500Y-45462352D01*
X149800500Y-45257648D01*
X149793392Y-45212770D01*
X149768477Y-45055465D01*
X149729498Y-44935501D01*
X149705220Y-44860781D01*
X149705218Y-44860778D01*
X149705218Y-44860776D01*
X149665861Y-44783534D01*
X149612287Y-44678390D01*
X149560983Y-44607775D01*
X149491971Y-44512786D01*
X149347213Y-44368028D01*
X149181614Y-44247715D01*
X149157811Y-44235587D01*
X149095703Y-44203941D01*
X149044908Y-44155968D01*
X149028113Y-44088147D01*
X149050650Y-44022012D01*
X149093546Y-43984099D01*
X149159503Y-43948843D01*
X149159515Y-43948837D01*
X149228913Y-43902465D01*
X148629410Y-43302962D01*
X148692993Y-43285925D01*
X148807007Y-43220099D01*
X148900099Y-43127007D01*
X148965925Y-43012993D01*
X148982962Y-42949410D01*
X149582465Y-43548913D01*
X149628837Y-43479515D01*
X149628838Y-43479511D01*
X149675509Y-43392198D01*
X149735814Y-43246612D01*
X149764555Y-43151864D01*
X149795298Y-42997302D01*
X149795298Y-42997299D01*
X149805000Y-42898789D01*
X149805000Y-42741210D01*
X149795298Y-42642700D01*
X149795298Y-42642697D01*
X149764555Y-42488135D01*
X149735814Y-42393387D01*
X149675509Y-42247801D01*
X149628844Y-42160498D01*
X149628838Y-42160488D01*
X149582465Y-42091085D01*
X148982962Y-42690588D01*
X148965925Y-42627007D01*
X148900099Y-42512993D01*
X148807007Y-42419901D01*
X148692993Y-42354075D01*
X148629410Y-42337037D01*
X149228912Y-41737534D01*
X149159511Y-41691161D01*
X149159500Y-41691155D01*
X149093545Y-41655900D01*
X149043701Y-41606937D01*
X149028241Y-41538799D01*
X149052073Y-41473119D01*
X149095702Y-41436059D01*
X149181610Y-41392287D01*
X149272745Y-41326074D01*
X149347213Y-41271971D01*
X149347215Y-41271968D01*
X149347219Y-41271966D01*
X149491966Y-41127219D01*
X149491968Y-41127215D01*
X149491971Y-41127213D01*
X149570172Y-41019577D01*
X149612287Y-40961610D01*
X149705220Y-40779219D01*
X149768477Y-40584534D01*
X149800500Y-40382352D01*
X149800500Y-40177648D01*
X149780280Y-40049986D01*
X151525001Y-40049986D01*
X151535494Y-40152697D01*
X151590641Y-40319119D01*
X151590643Y-40319124D01*
X151682684Y-40468345D01*
X151806654Y-40592315D01*
X151955875Y-40684356D01*
X151955880Y-40684358D01*
X152122302Y-40739505D01*
X152122309Y-40739506D01*
X152225019Y-40749999D01*
X152499999Y-40749999D01*
X153000000Y-40749999D01*
X153274972Y-40749999D01*
X153274986Y-40749998D01*
X153377697Y-40739505D01*
X153544119Y-40684358D01*
X153544124Y-40684356D01*
X153693345Y-40592315D01*
X153817315Y-40468345D01*
X153909356Y-40319124D01*
X153909358Y-40319119D01*
X153964505Y-40152697D01*
X153964506Y-40152690D01*
X153974999Y-40049986D01*
X153975000Y-40049973D01*
X153975000Y-40000000D01*
X153000000Y-40000000D01*
X153000000Y-40749999D01*
X152499999Y-40749999D01*
X152500000Y-40749998D01*
X152500000Y-40000000D01*
X151525001Y-40000000D01*
X151525001Y-40049986D01*
X149780280Y-40049986D01*
X149768477Y-39975466D01*
X149705220Y-39780781D01*
X149705218Y-39780778D01*
X149705218Y-39780776D01*
X149638838Y-39650500D01*
X149612287Y-39598390D01*
X149604556Y-39587749D01*
X149491971Y-39432786D01*
X149347213Y-39288028D01*
X149181614Y-39167715D01*
X149175006Y-39164348D01*
X149088917Y-39120483D01*
X149038123Y-39072511D01*
X149021328Y-39004690D01*
X149043865Y-38938555D01*
X149088917Y-38899516D01*
X149181610Y-38852287D01*
X149274338Y-38784917D01*
X149347213Y-38731971D01*
X149347215Y-38731968D01*
X149347219Y-38731966D01*
X149491966Y-38587219D01*
X149505456Y-38568652D01*
X149525100Y-38541615D01*
X149580429Y-38498949D01*
X149625418Y-38490500D01*
X151564874Y-38490500D01*
X151631913Y-38510185D01*
X151670412Y-38549403D01*
X151682285Y-38568652D01*
X151682288Y-38568656D01*
X151806344Y-38692712D01*
X151809628Y-38694737D01*
X151809653Y-38694753D01*
X151811445Y-38696746D01*
X151812011Y-38697193D01*
X151811934Y-38697289D01*
X151856379Y-38746699D01*
X151867603Y-38815661D01*
X151839761Y-38879744D01*
X151809665Y-38905826D01*
X151806660Y-38907679D01*
X151806655Y-38907683D01*
X151682684Y-39031654D01*
X151590643Y-39180875D01*
X151590641Y-39180880D01*
X151535494Y-39347302D01*
X151535493Y-39347309D01*
X151525000Y-39450013D01*
X151525000Y-39500000D01*
X153974999Y-39500000D01*
X153974999Y-39450028D01*
X153974998Y-39450013D01*
X153964505Y-39347302D01*
X153909358Y-39180880D01*
X153909356Y-39180875D01*
X153817315Y-39031654D01*
X153693344Y-38907683D01*
X153693341Y-38907681D01*
X153690339Y-38905829D01*
X153688713Y-38904021D01*
X153687677Y-38903202D01*
X153687817Y-38903024D01*
X153643617Y-38853880D01*
X153632397Y-38784917D01*
X153660243Y-38720836D01*
X153690344Y-38694754D01*
X153693656Y-38692712D01*
X153817712Y-38568656D01*
X153909814Y-38419334D01*
X153964999Y-38252797D01*
X153975500Y-38150009D01*
X153975499Y-37874498D01*
X153995183Y-37807461D01*
X154047987Y-37761706D01*
X154099499Y-37750500D01*
X156876270Y-37750500D01*
X156943309Y-37770185D01*
G37*
%TD.AperFunction*%
%TD*%
M02*
