M48
; DRILL file {KiCad 9.0.6} date 2026-02-24T00:16:33+0100
; FORMAT={-:-/ absolute / metric / decimal}
; #@! TF.CreationDate,2026-02-24T00:16:33+01:00
; #@! TF.GenerationSoftware,Kicad,Pcbnew,9.0.6
; #@! TF.FileFunction,Plated,1,2,PTH
FMAT,2
METRIC
; #@! TA.AperFunction,Plated,PTH,ViaDrill
T1C0.300
; #@! TA.AperFunction,Plated,PTH,ComponentDrill
T2C0.750
; #@! TA.AperFunction,Plated,PTH,ComponentDrill
T3C1.000
%
G90
G05
T1
X111.5Y-85.75
X112.75Y-66.0
X113.75Y-82.0
X118.5Y-107.25
X119.0Y-57.0
X122.25Y-45.5
X124.75Y-105.0
X128.0Y-88.0
X139.0Y-93.25
X140.0Y-48.25
X140.0Y-71.75
X145.5Y-100.0
X145.5Y-101.25
X146.0Y-55.5
X146.0Y-58.5
X147.0Y-102.25
X152.0Y-89.5
X153.5Y-54.5
X153.5Y-58.5
X154.5Y-63.0
X156.75Y-98.5
X157.0Y-52.0
X158.0Y-89.5
X160.0Y-107.25
X161.69Y-101.31
X163.0Y-54.5
X163.5Y-69.5
X165.25Y-40.75
T2
X158.96Y-59.447
X159.0Y-49.5
X160.23Y-59.447
X160.27Y-49.5
X161.5Y-59.447
X161.54Y-49.5
T3
X118.25Y-40.42
X118.25Y-42.96
X118.25Y-45.5
X118.75Y-59.9
X118.75Y-62.44
X118.75Y-64.98
X118.75Y-67.52
X118.75Y-70.06
X118.75Y-72.6
X129.14Y-104.46
X129.14Y-107.0
X129.14Y-114.96
X129.14Y-117.5
X130.72Y-37.74
X130.72Y-40.28
X130.72Y-42.82
X130.72Y-45.36
X130.72Y-47.9
X130.72Y-50.44
X130.72Y-52.98
X130.72Y-55.52
X130.72Y-58.06
X130.72Y-60.6
X130.72Y-63.14
X130.72Y-65.68
X130.72Y-68.22
X130.72Y-70.76
X130.72Y-73.3
X130.72Y-75.84
X130.72Y-78.38
X130.72Y-80.92
X130.72Y-83.46
X130.72Y-86.0
X131.68Y-104.46
X131.68Y-107.0
X131.68Y-114.96
X131.68Y-117.5
X134.22Y-104.46
X134.22Y-107.0
X134.22Y-114.96
X134.22Y-117.5
X136.76Y-104.46
X136.76Y-107.0
X136.76Y-114.96
X136.76Y-117.5
X139.3Y-104.46
X139.3Y-107.0
X139.3Y-114.96
X139.3Y-117.5
X141.84Y-104.46
X141.84Y-107.0
X141.84Y-114.96
X141.84Y-117.5
X144.38Y-104.46
X144.38Y-107.0
X144.38Y-114.96
X144.38Y-117.5
X146.92Y-104.46
X146.92Y-107.0
X146.92Y-114.96
X146.92Y-117.5
X148.5Y-37.74
X148.5Y-40.28
X148.5Y-42.82
X148.5Y-45.36
X148.5Y-47.9
X148.5Y-50.44
X148.5Y-52.98
X148.5Y-55.52
X148.5Y-58.06
X148.5Y-60.6
X148.5Y-63.14
X148.5Y-65.68
X148.5Y-68.22
X148.5Y-70.76
X148.5Y-73.3
X148.5Y-75.84
X148.5Y-78.38
X148.5Y-80.92
X148.5Y-83.46
X148.5Y-86.0
X149.46Y-104.46
X149.46Y-107.0
X149.46Y-114.96
X149.46Y-117.5
X152.0Y-104.46
X152.0Y-107.0
X152.0Y-114.96
X152.0Y-117.5
M30
