%TF.GenerationSoftware,KiCad,Pcbnew,9.0.6*%
%TF.CreationDate,2026-02-24T00:16:43+01:00*%
%TF.ProjectId,acsi2tnfs,61637369-3274-46e6-9673-2e6b69636164,rev?*%
%TF.SameCoordinates,Original*%
%TF.FileFunction,Soldermask,Top*%
%TF.FilePolarity,Negative*%
%FSLAX46Y46*%
G04 Gerber Fmt 4.6, Leading zero omitted, Abs format (unit mm)*
G04 Created by KiCad (PCBNEW 9.0.6) date 2026-02-24 00:16:43*
%MOMM*%
%LPD*%
G01*
G04 APERTURE LIST*
G04 Aperture macros list*
%AMRoundRect*
0 Rectangle with rounded corners*
0 $1 Rounding radius*
0 $2 $3 $4 $5 $6 $7 $8 $9 X,Y pos of 4 corners*
0 Add a 4 corners polygon primitive as box body*
4,1,4,$2,$3,$4,$5,$6,$7,$8,$9,$2,$3,0*
0 Add four circle primitives for the rounded corners*
1,1,$1+$1,$2,$3*
1,1,$1+$1,$4,$5*
1,1,$1+$1,$6,$7*
1,1,$1+$1,$8,$9*
0 Add four rect primitives between the rounded corners*
20,1,$1+$1,$2,$3,$4,$5,0*
20,1,$1+$1,$4,$5,$6,$7,0*
20,1,$1+$1,$6,$7,$8,$9,0*
20,1,$1+$1,$8,$9,$2,$3,0*%
%AMFreePoly0*
4,1,37,0.603843,0.796157,0.639018,0.796157,0.711114,0.766294,0.766294,0.711114,0.796157,0.639018,0.796157,0.603843,0.800000,0.600000,0.800000,-0.600000,0.796157,-0.603843,0.796157,-0.639018,0.766294,-0.711114,0.711114,-0.766294,0.639018,-0.796157,0.603843,-0.796157,0.600000,-0.800000,0.000000,-0.800000,0.000000,-0.796148,-0.078414,-0.796148,-0.232228,-0.765552,-0.377117,-0.705537,
-0.507515,-0.618408,-0.618408,-0.507515,-0.705537,-0.377117,-0.765552,-0.232228,-0.796148,-0.078414,-0.796148,0.078414,-0.765552,0.232228,-0.705537,0.377117,-0.618408,0.507515,-0.507515,0.618408,-0.377117,0.705537,-0.232228,0.765552,-0.078414,0.796148,0.000000,0.796148,0.000000,0.800000,0.600000,0.800000,0.603843,0.796157,0.603843,0.796157,$1*%
%AMFreePoly1*
4,1,37,0.000000,0.796148,0.078414,0.796148,0.232228,0.765552,0.377117,0.705537,0.507515,0.618408,0.618408,0.507515,0.705537,0.377117,0.765552,0.232228,0.796148,0.078414,0.796148,-0.078414,0.765552,-0.232228,0.705537,-0.377117,0.618408,-0.507515,0.507515,-0.618408,0.377117,-0.705537,0.232228,-0.765552,0.078414,-0.796148,0.000000,-0.796148,0.000000,-0.800000,-0.600000,-0.800000,
-0.603843,-0.796157,-0.639018,-0.796157,-0.711114,-0.766294,-0.766294,-0.711114,-0.796157,-0.639018,-0.796157,-0.603843,-0.800000,-0.600000,-0.800000,0.600000,-0.796157,0.603843,-0.796157,0.639018,-0.766294,0.711114,-0.711114,0.766294,-0.639018,0.796157,-0.603843,0.796157,-0.600000,0.800000,0.000000,0.800000,0.000000,0.796148,0.000000,0.796148,$1*%
G04 Aperture macros list end*
%ADD10RoundRect,0.250000X0.262500X0.450000X-0.262500X0.450000X-0.262500X-0.450000X0.262500X-0.450000X0*%
%ADD11RoundRect,0.250000X0.450000X-0.262500X0.450000X0.262500X-0.450000X0.262500X-0.450000X-0.262500X0*%
%ADD12R,1.050000X1.500000*%
%ADD13O,1.050000X1.500000*%
%ADD14R,1.700000X1.700000*%
%ADD15C,1.700000*%
%ADD16RoundRect,0.150000X0.150000X-0.850000X0.150000X0.850000X-0.150000X0.850000X-0.150000X-0.850000X0*%
%ADD17RoundRect,0.243750X0.243750X0.456250X-0.243750X0.456250X-0.243750X-0.456250X0.243750X-0.456250X0*%
%ADD18RoundRect,0.250000X-0.475000X0.250000X-0.475000X-0.250000X0.475000X-0.250000X0.475000X0.250000X0*%
%ADD19RoundRect,0.250000X0.475000X-0.250000X0.475000X0.250000X-0.475000X0.250000X-0.475000X-0.250000X0*%
%ADD20RoundRect,0.250000X-0.250000X-0.475000X0.250000X-0.475000X0.250000X0.475000X-0.250000X0.475000X0*%
%ADD21RoundRect,0.200000X-0.600000X-0.600000X0.600000X-0.600000X0.600000X0.600000X-0.600000X0.600000X0*%
%ADD22C,1.600000*%
%ADD23FreePoly0,0.000000*%
%ADD24FreePoly1,0.000000*%
G04 APERTURE END LIST*
D10*
%TO.C,R9*%
X166412500Y-48500000D03*
X164587500Y-48500000D03*
%TD*%
%TO.C,R6*%
X166412500Y-51000000D03*
X164587500Y-51000000D03*
%TD*%
D11*
%TO.C,R2*%
X158500000Y-55500000D03*
X158500000Y-53675000D03*
%TD*%
D12*
%TO.C,Q2*%
X161540000Y-49500000D03*
D13*
X160270000Y-49500000D03*
X159000000Y-49500000D03*
%TD*%
D11*
%TO.C,R8*%
X125500000Y-62912500D03*
X125500000Y-61087500D03*
%TD*%
%TO.C,R7*%
X153500000Y-82912500D03*
X153500000Y-81087500D03*
%TD*%
%TO.C,R5*%
X158500000Y-65500000D03*
X158500000Y-63675000D03*
%TD*%
D12*
%TO.C,Q1*%
X161500000Y-59447500D03*
D13*
X160230000Y-59447500D03*
X158960000Y-59447500D03*
%TD*%
D14*
%TO.C,J4*%
X129140000Y-107000000D03*
D15*
X131680000Y-107000000D03*
X134220000Y-107000000D03*
X136760000Y-107000000D03*
X139300000Y-107000000D03*
X141840000Y-107000000D03*
X144380000Y-107000000D03*
X146920000Y-107000000D03*
X149460000Y-107000000D03*
X152000000Y-107000000D03*
X129140000Y-104460000D03*
X131680000Y-104460000D03*
X134220000Y-104460000D03*
X136760000Y-104460000D03*
X139300000Y-104460000D03*
X141840000Y-104460000D03*
X144380000Y-104460000D03*
X146920000Y-104460000D03*
X149460000Y-104460000D03*
X152000000Y-104460000D03*
%TD*%
D14*
%TO.C,J1*%
X118250000Y-40420000D03*
D15*
X118250000Y-42960000D03*
X118250000Y-45500000D03*
%TD*%
D10*
%TO.C,R4*%
X159750000Y-44000000D03*
X157925000Y-44000000D03*
%TD*%
D14*
%TO.C,J2*%
X129140000Y-117500000D03*
D15*
X131680000Y-117500000D03*
X134220000Y-117500000D03*
X136760000Y-117500000D03*
X139300000Y-117500000D03*
X141840000Y-117500000D03*
X144380000Y-117500000D03*
X146920000Y-117500000D03*
X149460000Y-117500000D03*
X152000000Y-117500000D03*
X129140000Y-114960000D03*
X131680000Y-114960000D03*
X134220000Y-114960000D03*
X136760000Y-114960000D03*
X139300000Y-114960000D03*
X141840000Y-114960000D03*
X144380000Y-114960000D03*
X146920000Y-114960000D03*
X149460000Y-114960000D03*
X152000000Y-114960000D03*
%TD*%
D16*
%TO.C,U2*%
X155340000Y-95750000D03*
X156610000Y-95750000D03*
X157880000Y-95750000D03*
X159150000Y-95750000D03*
X160420000Y-95750000D03*
X161690000Y-95750000D03*
X162960000Y-95750000D03*
X164230000Y-95750000D03*
X165500000Y-95750000D03*
X166770000Y-95750000D03*
X166770000Y-86500000D03*
X165500000Y-86500000D03*
X164230000Y-86500000D03*
X162960000Y-86500000D03*
X161690000Y-86500000D03*
X160420000Y-86500000D03*
X159150000Y-86500000D03*
X157880000Y-86500000D03*
X156610000Y-86500000D03*
X155340000Y-86500000D03*
%TD*%
D14*
%TO.C,J3*%
X118750000Y-72600000D03*
D15*
X118750000Y-70060000D03*
X118750000Y-67520000D03*
X118750000Y-64980000D03*
X118750000Y-62440000D03*
X118750000Y-59900000D03*
%TD*%
D17*
%TO.C,D1*%
X165250000Y-39000000D03*
X163375000Y-39000000D03*
%TD*%
D18*
%TO.C,C3*%
X151250000Y-90800000D03*
X151250000Y-92700000D03*
%TD*%
D19*
%TO.C,C4*%
X115500000Y-72900000D03*
X115500000Y-71000000D03*
%TD*%
D20*
%TO.C,C1*%
X152800000Y-46250000D03*
X154700000Y-46250000D03*
%TD*%
D21*
%TO.C,A1*%
X130720000Y-37740000D03*
D22*
X130720000Y-40280000D03*
D23*
X130720000Y-42820000D03*
D22*
X130720000Y-45360000D03*
X130720000Y-47900000D03*
X130720000Y-50440000D03*
X130720000Y-52980000D03*
D23*
X130720000Y-55520000D03*
D22*
X130720000Y-58060000D03*
X130720000Y-60600000D03*
X130720000Y-63140000D03*
X130720000Y-65680000D03*
D23*
X130720000Y-68220000D03*
D22*
X130720000Y-70760000D03*
X130720000Y-73300000D03*
X130720000Y-75840000D03*
X130720000Y-78380000D03*
D23*
X130720000Y-80920000D03*
D22*
X130720000Y-83460000D03*
X130720000Y-86000000D03*
X148500000Y-86000000D03*
X148500000Y-83460000D03*
D24*
X148500000Y-80920000D03*
D22*
X148500000Y-78380000D03*
X148500000Y-75840000D03*
X148500000Y-73300000D03*
X148500000Y-70760000D03*
D24*
X148500000Y-68220000D03*
D22*
X148500000Y-65680000D03*
X148500000Y-63140000D03*
X148500000Y-60600000D03*
X148500000Y-58060000D03*
D24*
X148500000Y-55520000D03*
D22*
X148500000Y-52980000D03*
X148500000Y-50440000D03*
X148500000Y-47900000D03*
X148500000Y-45360000D03*
D24*
X148500000Y-42820000D03*
D22*
X148500000Y-40280000D03*
X148500000Y-37740000D03*
%TD*%
D10*
%TO.C,R3*%
X159575000Y-38950000D03*
X157750000Y-38950000D03*
%TD*%
D18*
%TO.C,C5*%
X152750000Y-37850000D03*
X152750000Y-39750000D03*
%TD*%
D10*
%TO.C,R1*%
X166325000Y-59500000D03*
X164500000Y-59500000D03*
%TD*%
D17*
%TO.C,D2*%
X165250000Y-44000000D03*
X163375000Y-44000000D03*
%TD*%
D18*
%TO.C,C2*%
X112000000Y-81800000D03*
X112000000Y-83700000D03*
%TD*%
D16*
%TO.C,U1*%
X112880000Y-95987500D03*
X114150000Y-95987500D03*
X115420000Y-95987500D03*
X116690000Y-95987500D03*
X117960000Y-95987500D03*
X119230000Y-95987500D03*
X120500000Y-95987500D03*
X121770000Y-95987500D03*
X123040000Y-95987500D03*
X124310000Y-95987500D03*
X124310000Y-86737500D03*
X123040000Y-86737500D03*
X121770000Y-86737500D03*
X120500000Y-86737500D03*
X119230000Y-86737500D03*
X117960000Y-86737500D03*
X116690000Y-86737500D03*
X115420000Y-86737500D03*
X114150000Y-86737500D03*
X112880000Y-86737500D03*
%TD*%
M02*
